M48
INCH,TZ
T1C0.025
T2C0.031
T3C0.039
T4C0.120
%
G90
G05
T1
X8.2Y-5.325
X8.3Y-6.35
X8.55Y-5.25
T2
X7.35Y-5.4
X7.35Y-5.7
X7.35Y-5.95
X7.35Y-6.25
X7.45Y-5.4
X7.45Y-5.7
X7.45Y-5.95
X7.45Y-6.25
X7.55Y-5.4
X7.55Y-5.7
X7.55Y-5.95
X7.55Y-6.25
X7.65Y-5.4
X7.65Y-5.7
X7.65Y-5.95
X7.65Y-6.25
X7.75Y-5.4
X7.75Y-5.7
X7.75Y-5.95
X7.75Y-6.25
X7.85Y-5.4
X7.85Y-5.7
X7.85Y-5.95
X7.85Y-6.25
X7.95Y-5.4
X7.95Y-5.7
X7.95Y-5.95
X7.95Y-6.25
X8.05Y-5.4
X8.05Y-5.7
X8.05Y-5.95
X8.05Y-6.25
X8.1Y-6.5
X8.15Y-5.4
X8.15Y-5.7
X8.15Y-5.95
X8.15Y-6.25
X8.1984Y-6.5
X8.25Y-5.4
X8.25Y-5.7
X8.25Y-5.95
X8.25Y-6.25
X8.35Y-5.4
X8.35Y-5.7
X8.35Y-5.95
X8.35Y-6.25
X8.45Y-5.4
X8.45Y-5.7
X8.45Y-5.95
X8.45Y-6.25
X8.55Y-5.4
X8.55Y-5.7
X8.55Y-5.95
X8.55Y-6.25
X8.65Y-5.4
X8.65Y-5.7
X8.65Y-5.95
X8.65Y-6.25
T3
X6.95Y-5.5
X6.95Y-5.6
X6.95Y-5.7
X6.95Y-5.8
X6.95Y-5.9
X6.95Y-6.
X6.95Y-6.1
X6.95Y-6.2
X7.Y-5.2
X7.Y-5.3
X7.05Y-5.5
X7.05Y-5.6
X7.05Y-5.7
X7.05Y-5.8
X7.05Y-5.9
X7.05Y-6.
X7.05Y-6.1
X7.05Y-6.2
X7.3Y-6.5
X7.4Y-6.5
X7.5Y-6.5
X7.6Y-6.5
X7.85Y-4.95
X7.85Y-5.05
X7.85Y-5.15
X7.95Y-4.95
X7.95Y-5.05
X7.95Y-5.15
X8.1Y-4.95
X8.1Y-5.05
X8.1Y-5.15
X8.2Y-4.95
X8.2Y-5.05
X8.2Y-5.15
X8.35Y-4.95
X8.35Y-5.05
X8.35Y-5.15
X8.4Y-6.5
X8.45Y-4.95
X8.45Y-5.05
X8.45Y-5.15
X8.5Y-6.5
X8.6Y-4.95
X8.6Y-5.05
X8.6Y-5.15
X8.6Y-6.5
X8.7Y-4.95
X8.7Y-5.05
X8.7Y-5.15
X8.7Y-6.5
X8.9Y-5.5
X8.9Y-5.6
X8.9Y-5.7
X8.9Y-5.8
X8.9Y-5.9
X8.9Y-6.
X8.9Y-6.1
X8.9Y-6.2
X8.95Y-5.2
X8.95Y-5.3
X9.Y-5.5
X9.Y-5.6
X9.Y-5.7
X9.Y-5.8
X9.Y-5.9
X9.Y-6.
X9.Y-6.1
X9.Y-6.2
T4
X7.Y-5.
X7.Y-6.5
X8.95Y-5.
X8.95Y-6.5
T0
M30
