G04 #@! TF.FileFunction,Copper,L2,Bot,Signal*
%FSLAX46Y46*%
G04 Gerber Fmt 4.6, Leading zero omitted, Abs format (unit mm)*
G04 Created by KiCad (PCBNEW 4.0.7-e2-6376~58~ubuntu14.04.1) date Thu Dec  7 13:40:56 2017*
%MOMM*%
%LPD*%
G01*
G04 APERTURE LIST*
%ADD10C,0.100000*%
%ADD11R,1.700000X1.700000*%
%ADD12O,1.700000X1.700000*%
%ADD13R,1.600000X1.600000*%
%ADD14O,1.600000X1.600000*%
%ADD15C,4.064000*%
%ADD16C,1.600000*%
%ADD17C,0.889000*%
%ADD18C,0.254000*%
G04 APERTURE END LIST*
D10*
D11*
X226060000Y-139700000D03*
D12*
X228600000Y-139700000D03*
X226060000Y-142240000D03*
X228600000Y-142240000D03*
X226060000Y-144780000D03*
X228600000Y-144780000D03*
X226060000Y-147320000D03*
X228600000Y-147320000D03*
X226060000Y-149860000D03*
X228600000Y-149860000D03*
X226060000Y-152400000D03*
X228600000Y-152400000D03*
X226060000Y-154940000D03*
X228600000Y-154940000D03*
X226060000Y-157480000D03*
X228600000Y-157480000D03*
D13*
X186690000Y-158750000D03*
D14*
X219710000Y-151130000D03*
X189230000Y-158750000D03*
X217170000Y-151130000D03*
X191770000Y-158750000D03*
X214630000Y-151130000D03*
X194310000Y-158750000D03*
X212090000Y-151130000D03*
X196850000Y-158750000D03*
X209550000Y-151130000D03*
X199390000Y-158750000D03*
X207010000Y-151130000D03*
X201930000Y-158750000D03*
X204470000Y-151130000D03*
X204470000Y-158750000D03*
X201930000Y-151130000D03*
X207010000Y-158750000D03*
X199390000Y-151130000D03*
X209550000Y-158750000D03*
X196850000Y-151130000D03*
X212090000Y-158750000D03*
X194310000Y-151130000D03*
X214630000Y-158750000D03*
X191770000Y-151130000D03*
X217170000Y-158750000D03*
X189230000Y-151130000D03*
X219710000Y-158750000D03*
X186690000Y-151130000D03*
D11*
X205740000Y-125730000D03*
D12*
X208280000Y-125730000D03*
X205740000Y-128270000D03*
X208280000Y-128270000D03*
X205740000Y-130810000D03*
X208280000Y-130810000D03*
D11*
X177800000Y-132080000D03*
D12*
X177800000Y-134620000D03*
D15*
X177800000Y-127000000D03*
D11*
X199390000Y-125730000D03*
D12*
X201930000Y-125730000D03*
X199390000Y-128270000D03*
X201930000Y-128270000D03*
X199390000Y-130810000D03*
X201930000Y-130810000D03*
D15*
X227330000Y-165100000D03*
D11*
X213360000Y-165100000D03*
D12*
X215900000Y-165100000D03*
X218440000Y-165100000D03*
X220980000Y-165100000D03*
D13*
X186690000Y-144780000D03*
D14*
X219710000Y-137160000D03*
X189230000Y-144780000D03*
X217170000Y-137160000D03*
X191770000Y-144780000D03*
X214630000Y-137160000D03*
X194310000Y-144780000D03*
X212090000Y-137160000D03*
X196850000Y-144780000D03*
X209550000Y-137160000D03*
X199390000Y-144780000D03*
X207010000Y-137160000D03*
X201930000Y-144780000D03*
X204470000Y-137160000D03*
X204470000Y-144780000D03*
X201930000Y-137160000D03*
X207010000Y-144780000D03*
X199390000Y-137160000D03*
X209550000Y-144780000D03*
X196850000Y-137160000D03*
X212090000Y-144780000D03*
X194310000Y-137160000D03*
X214630000Y-144780000D03*
X191770000Y-137160000D03*
X217170000Y-144780000D03*
X189230000Y-137160000D03*
X219710000Y-144780000D03*
X186690000Y-137160000D03*
D16*
X208240000Y-165100000D03*
X205740000Y-165100000D03*
D15*
X227330000Y-127000000D03*
D11*
X218440000Y-125730000D03*
D12*
X220980000Y-125730000D03*
X218440000Y-128270000D03*
X220980000Y-128270000D03*
X218440000Y-130810000D03*
X220980000Y-130810000D03*
D11*
X212090000Y-125730000D03*
D12*
X214630000Y-125730000D03*
X212090000Y-128270000D03*
X214630000Y-128270000D03*
X212090000Y-130810000D03*
X214630000Y-130810000D03*
D11*
X227330000Y-132080000D03*
D12*
X227330000Y-134620000D03*
D11*
X185420000Y-165100000D03*
D12*
X187960000Y-165100000D03*
X190500000Y-165100000D03*
X193040000Y-165100000D03*
D11*
X179070000Y-157480000D03*
D12*
X176530000Y-157480000D03*
X179070000Y-154940000D03*
X176530000Y-154940000D03*
X179070000Y-152400000D03*
X176530000Y-152400000D03*
X179070000Y-149860000D03*
X176530000Y-149860000D03*
X179070000Y-147320000D03*
X176530000Y-147320000D03*
X179070000Y-144780000D03*
X176530000Y-144780000D03*
X179070000Y-142240000D03*
X176530000Y-142240000D03*
X179070000Y-139700000D03*
X176530000Y-139700000D03*
D15*
X177800000Y-165100000D03*
D17*
X219710000Y-139700000D03*
X208280000Y-135255000D03*
X217170000Y-133350000D03*
D18*
X219710000Y-139700000D02*
X219710000Y-144780000D01*
X208280000Y-135255000D02*
X208280000Y-130810000D01*
X209550000Y-158750000D02*
X209550000Y-163790000D01*
X209550000Y-163790000D02*
X208240000Y-165100000D01*
X201930000Y-128270000D02*
X201930000Y-130810000D01*
X201930000Y-130810000D02*
X203161001Y-129578999D01*
X203161001Y-129578999D02*
X210218879Y-129578999D01*
X210218879Y-129578999D02*
X210858999Y-130219119D01*
X201930000Y-130810000D02*
X201930000Y-125730000D01*
X205740000Y-165100000D02*
X204508999Y-163868999D01*
X204508999Y-163868999D02*
X191731001Y-163868999D01*
X191731001Y-163868999D02*
X191349999Y-164250001D01*
X191349999Y-164250001D02*
X190500000Y-165100000D01*
X205740000Y-165100000D02*
X207010000Y-166370000D01*
X207010000Y-166370000D02*
X217170000Y-166370000D01*
X217170000Y-166370000D02*
X217590001Y-165949999D01*
X217590001Y-165949999D02*
X218440000Y-165100000D01*
X207010000Y-158750000D02*
X207010000Y-163830000D01*
X207010000Y-163830000D02*
X205740000Y-165100000D01*
X212090000Y-137160000D02*
X210858999Y-135928999D01*
X210858999Y-135928999D02*
X210858999Y-130219119D01*
X210858999Y-130219119D02*
X211499119Y-129578999D01*
X211499119Y-129578999D02*
X213398999Y-129578999D01*
X213398999Y-129578999D02*
X213780001Y-129960001D01*
X213780001Y-129960001D02*
X214630000Y-130810000D01*
X207010000Y-144780000D02*
X207010000Y-142240000D01*
X207010000Y-142240000D02*
X212090000Y-137160000D01*
X212090000Y-151130000D02*
X212090000Y-149860000D01*
X212090000Y-149860000D02*
X207010000Y-144780000D01*
X220655385Y-152819010D02*
X196982553Y-152819011D01*
X196982553Y-152819011D02*
X196893554Y-152908010D01*
X196893554Y-152908010D02*
X195071990Y-152908010D01*
X195071990Y-152908010D02*
X190029999Y-157950001D01*
X190029999Y-157950001D02*
X189230000Y-158750000D01*
X221488010Y-151986385D02*
X220655385Y-152819010D01*
X221488010Y-147530108D02*
X221488010Y-151986385D01*
X225469119Y-143548999D02*
X221488010Y-147530108D01*
X227291001Y-143548999D02*
X225469119Y-143548999D01*
X228600000Y-142240000D02*
X227291001Y-143548999D01*
X227291001Y-147910881D02*
X226572883Y-148628999D01*
X226572883Y-148628999D02*
X225501863Y-148628999D01*
X228600000Y-144780000D02*
X227291001Y-146088999D01*
X197192979Y-153327021D02*
X192569999Y-157950001D01*
X192569999Y-157950001D02*
X191770000Y-158750000D01*
X227291001Y-146088999D02*
X227291001Y-147910881D01*
X225501863Y-148628999D02*
X221996021Y-152134841D01*
X221996021Y-152134841D02*
X221996020Y-152196811D01*
X221996020Y-152196811D02*
X220865810Y-153327021D01*
X220865810Y-153327021D02*
X197192979Y-153327021D01*
X221076235Y-153835032D02*
X199224968Y-153835032D01*
X227750001Y-148169999D02*
X227750001Y-148888117D01*
X227750001Y-148888117D02*
X227291001Y-149347117D01*
X228600000Y-147320000D02*
X227750001Y-148169999D01*
X227291001Y-149347117D02*
X227291001Y-150450881D01*
X227291001Y-150450881D02*
X226572883Y-151168999D01*
X226572883Y-151168999D02*
X223742268Y-151168999D01*
X223742268Y-151168999D02*
X221076235Y-153835032D01*
X199224968Y-153835032D02*
X195109999Y-157950001D01*
X195109999Y-157950001D02*
X194310000Y-158750000D01*
X228600000Y-149860000D02*
X227750001Y-150709999D01*
X227750001Y-150709999D02*
X227750001Y-151428117D01*
X227750001Y-151428117D02*
X227291001Y-151887117D01*
X227291001Y-151887117D02*
X227291001Y-152990881D01*
X227291001Y-152990881D02*
X226572883Y-153708999D01*
X226572883Y-153708999D02*
X221920704Y-153708999D01*
X221920704Y-153708999D02*
X221260042Y-154369661D01*
X221260042Y-154369661D02*
X204638722Y-154369661D01*
X204638722Y-154369661D02*
X204638719Y-154369658D01*
X204638719Y-154369658D02*
X203508873Y-154369658D01*
X203508873Y-154369658D02*
X203482259Y-154343044D01*
X203482259Y-154343044D02*
X203338579Y-154343043D01*
X203338579Y-154343043D02*
X201256957Y-154343043D01*
X201256957Y-154343043D02*
X197649999Y-157950001D01*
X197649999Y-157950001D02*
X196850000Y-158750000D01*
X228600000Y-152400000D02*
X227750001Y-153249999D01*
X227750001Y-153249999D02*
X227750001Y-153968117D01*
X227291001Y-155530881D02*
X226650881Y-156171001D01*
X226650881Y-156171001D02*
X219597319Y-156171001D01*
X227750001Y-153968117D02*
X227291001Y-154427117D01*
X227291001Y-154427117D02*
X227291001Y-155530881D01*
X219597319Y-156171001D02*
X218303988Y-154877670D01*
X218303988Y-154877670D02*
X203262330Y-154877670D01*
X203262330Y-154877670D02*
X200189999Y-157950001D01*
X200189999Y-157950001D02*
X199390000Y-158750000D01*
X228600000Y-154940000D02*
X227750001Y-155789999D01*
X227750001Y-156508117D02*
X227291001Y-156967117D01*
X227750001Y-155789999D02*
X227750001Y-156508117D01*
X227291001Y-158070881D02*
X226650881Y-158711001D01*
X227291001Y-156967117D02*
X227291001Y-158070881D01*
X218093563Y-155385681D02*
X205199201Y-155385681D01*
X226650881Y-158711001D02*
X221418883Y-158711001D01*
X221418883Y-158711001D02*
X218093563Y-155385681D01*
X202729999Y-157950001D02*
X201930000Y-158750000D01*
X205199201Y-155385681D02*
X202729999Y-157854883D01*
X202729999Y-157854883D02*
X202729999Y-157950001D01*
X228600000Y-157480000D02*
X228600000Y-158682081D01*
X228600000Y-158682081D02*
X227351080Y-159931001D01*
X227351080Y-159931001D02*
X219143119Y-159931001D01*
X219143119Y-159931001D02*
X218351001Y-159138883D01*
X218351001Y-159138883D02*
X218351001Y-156367073D01*
X218351001Y-156367073D02*
X217877620Y-155893692D01*
X217877620Y-155893692D02*
X207326308Y-155893692D01*
X207326308Y-155893692D02*
X205269999Y-157950001D01*
X205269999Y-157950001D02*
X204470000Y-158750000D01*
X214630000Y-158750000D02*
X214630000Y-163830000D01*
X214630000Y-163830000D02*
X215900000Y-165100000D01*
X191986000Y-152400000D02*
X186690000Y-157696000D01*
X186690000Y-157696000D02*
X186690000Y-158750000D01*
X196683129Y-152399999D02*
X191986000Y-152400000D01*
X227291001Y-141008999D02*
X225469119Y-141008999D01*
X225469119Y-141008999D02*
X220891001Y-145587117D01*
X228600000Y-139700000D02*
X227291001Y-141008999D01*
X220276881Y-152311001D02*
X196772127Y-152311001D01*
X196772127Y-152311001D02*
X196683129Y-152399999D01*
X220891001Y-145587117D02*
X220891001Y-151696881D01*
X220891001Y-151696881D02*
X220276881Y-152311001D01*
X218440000Y-125730000D02*
X217336000Y-125730000D01*
X212090000Y-124626000D02*
X212090000Y-125730000D01*
X217336000Y-125730000D02*
X216104999Y-124498999D01*
X216104999Y-124498999D02*
X212217001Y-124498999D01*
X212217001Y-124498999D02*
X212090000Y-124626000D01*
X219710000Y-151130000D02*
X218440000Y-149860000D01*
X218440000Y-149860000D02*
X218440000Y-132631882D01*
X218440000Y-132631882D02*
X219671001Y-131400881D01*
X219671001Y-131400881D02*
X219671001Y-125857001D01*
X219671001Y-125857001D02*
X219544000Y-125730000D01*
X219544000Y-125730000D02*
X218440000Y-125730000D01*
X218440000Y-128270000D02*
X217208999Y-127038999D01*
X217208999Y-127038999D02*
X213321001Y-127038999D01*
X213321001Y-127038999D02*
X212939999Y-127420001D01*
X212939999Y-127420001D02*
X212090000Y-128270000D01*
X217170000Y-151130000D02*
X215900000Y-149860000D01*
X215900000Y-149860000D02*
X215900000Y-130810000D01*
X215900000Y-130810000D02*
X217590001Y-129119999D01*
X217590001Y-129119999D02*
X218440000Y-128270000D01*
X218440000Y-130810000D02*
X217170000Y-132080000D01*
X217170000Y-132080000D02*
X217170000Y-133350000D01*
X214630000Y-151130000D02*
X213271001Y-149771001D01*
X213271001Y-149771001D02*
X213271001Y-131991001D01*
X213271001Y-131991001D02*
X212939999Y-131659999D01*
X212939999Y-131659999D02*
X212090000Y-130810000D01*
X176530000Y-154940000D02*
X177379999Y-154090001D01*
X177379999Y-154090001D02*
X177379999Y-153371883D01*
X178557117Y-151091001D02*
X179660881Y-151091001D01*
X179660881Y-151091001D02*
X180301001Y-150450881D01*
X177379999Y-153371883D02*
X177838999Y-152912883D01*
X177838999Y-152912883D02*
X177838999Y-151809119D01*
X177838999Y-151809119D02*
X178557117Y-151091001D01*
X180301001Y-150450881D02*
X180301001Y-150354356D01*
X180301001Y-150354356D02*
X180378999Y-150276359D01*
X180378999Y-150276359D02*
X180378999Y-148805199D01*
X180378999Y-148805199D02*
X185585199Y-143598999D01*
X185585199Y-143598999D02*
X188048999Y-143598999D01*
X188048999Y-143598999D02*
X188430001Y-143980001D01*
X188430001Y-143980001D02*
X189230000Y-144780000D01*
X176530000Y-152400000D02*
X175298999Y-153631001D01*
X175298999Y-153631001D02*
X175298999Y-158070881D01*
X175298999Y-158070881D02*
X175939119Y-158711001D01*
X175939119Y-158711001D02*
X180224801Y-158711001D01*
X180224801Y-158711001D02*
X184150000Y-154785802D01*
X184150000Y-154785802D02*
X184150000Y-151607882D01*
X184150000Y-151607882D02*
X190177883Y-145579999D01*
X190177883Y-145579999D02*
X190970001Y-145579999D01*
X190970001Y-145579999D02*
X191770000Y-144780000D01*
X194310000Y-144780000D02*
X192620988Y-143090988D01*
X192620988Y-143090988D02*
X185374774Y-143090988D01*
X185374774Y-143090988D02*
X182376763Y-146088999D01*
X182376763Y-146088999D02*
X178479119Y-146088999D01*
X178479119Y-146088999D02*
X177838999Y-146729119D01*
X177838999Y-146729119D02*
X177838999Y-147887843D01*
X177838999Y-147887843D02*
X177761001Y-147965841D01*
X177761001Y-147965841D02*
X177761001Y-148628999D01*
X177761001Y-148628999D02*
X177379999Y-149010001D01*
X177379999Y-149010001D02*
X176530000Y-149860000D01*
X176530000Y-147320000D02*
X174790990Y-149059010D01*
X187871001Y-151783235D02*
X187871001Y-150426881D01*
X195668999Y-145961001D02*
X196050001Y-145579999D01*
X174790990Y-149059010D02*
X174790990Y-158281306D01*
X174790990Y-158281306D02*
X175728695Y-159219011D01*
X175728695Y-159219011D02*
X180435226Y-159219010D01*
X180435226Y-159219010D02*
X187871001Y-151783235D01*
X187871001Y-150426881D02*
X192336881Y-145961001D01*
X192336881Y-145961001D02*
X195668999Y-145961001D01*
X196050001Y-145579999D02*
X196850000Y-144780000D01*
X176530000Y-144780000D02*
X177800000Y-143510000D01*
X177800000Y-143510000D02*
X184237326Y-143510000D01*
X184237326Y-143510000D02*
X185164349Y-142582977D01*
X185164349Y-142582977D02*
X197192977Y-142582977D01*
X197192977Y-142582977D02*
X198590001Y-143980001D01*
X198590001Y-143980001D02*
X199390000Y-144780000D01*
X176530000Y-142240000D02*
X177761001Y-141008999D01*
X177761001Y-141008999D02*
X179794770Y-141008999D01*
X179794770Y-141008999D02*
X180891432Y-142105661D01*
X180891432Y-142105661D02*
X184923229Y-142105661D01*
X184923229Y-142105661D02*
X184953924Y-142074966D01*
X184953924Y-142074966D02*
X199224966Y-142074966D01*
X199224966Y-142074966D02*
X201930000Y-144780000D01*
X203670001Y-143980001D02*
X204470000Y-144780000D01*
X201224201Y-141534201D02*
X203670001Y-143980001D01*
X182726083Y-141534201D02*
X201224201Y-141534201D01*
X178479119Y-138468999D02*
X179660881Y-138468999D01*
X179660881Y-138468999D02*
X182726083Y-141534201D01*
X177838999Y-139109119D02*
X178479119Y-138468999D01*
X176530000Y-139700000D02*
X177732081Y-139700000D01*
X177732081Y-139700000D02*
X177838999Y-139593082D01*
X177838999Y-139593082D02*
X177838999Y-139109119D01*
X180301001Y-152341769D02*
X186690000Y-145952770D01*
X176530000Y-157480000D02*
X177838999Y-156171001D01*
X178557117Y-153631001D02*
X179660881Y-153631001D01*
X177838999Y-156171001D02*
X177838999Y-154349119D01*
X186690000Y-145952770D02*
X186690000Y-145834000D01*
X177838999Y-154349119D02*
X178557117Y-153631001D01*
X179660881Y-153631001D02*
X180301001Y-152990881D01*
X180301001Y-152990881D02*
X180301001Y-152341769D01*
X186690000Y-145834000D02*
X186690000Y-144780000D01*
X199390000Y-128270000D02*
X200698999Y-126961001D01*
X204508999Y-126487117D02*
X204508999Y-127038999D01*
X200698999Y-126961001D02*
X200698999Y-125139119D01*
X200698999Y-125139119D02*
X201339119Y-124498999D01*
X201339119Y-124498999D02*
X202520881Y-124498999D01*
X202520881Y-124498999D02*
X204508999Y-126487117D01*
X204890001Y-127420001D02*
X205740000Y-128270000D01*
X204508999Y-127038999D02*
X204890001Y-127420001D01*
G36*
X230430000Y-168200000D02*
X174700000Y-168200000D01*
X174700000Y-165628172D01*
X175132538Y-165628172D01*
X175537709Y-166608761D01*
X176287293Y-167359655D01*
X177267173Y-167766536D01*
X178328172Y-167767462D01*
X179308761Y-167362291D01*
X180059655Y-166612707D01*
X180466536Y-165632827D01*
X180467462Y-164571828D01*
X180062291Y-163591239D01*
X179312707Y-162840345D01*
X178332827Y-162433464D01*
X177271828Y-162432538D01*
X176291239Y-162837709D01*
X175540345Y-163587293D01*
X175133464Y-164567173D01*
X175132538Y-165628172D01*
X174700000Y-165628172D01*
X174700000Y-159267946D01*
X175189880Y-159757826D01*
X175437090Y-159923007D01*
X175728695Y-159981011D01*
X180435226Y-159981010D01*
X180726831Y-159923006D01*
X180974041Y-159757825D01*
X188409816Y-152322050D01*
X188417199Y-152311001D01*
X188418717Y-152308729D01*
X188680849Y-152483880D01*
X189230000Y-152593113D01*
X189779151Y-152483880D01*
X190244698Y-152172811D01*
X190500000Y-151790725D01*
X190755302Y-152172811D01*
X190983249Y-152325121D01*
X186151185Y-157157185D01*
X186054048Y-157302560D01*
X185890000Y-157302560D01*
X185654683Y-157346838D01*
X185438559Y-157485910D01*
X185293569Y-157698110D01*
X185242560Y-157950000D01*
X185242560Y-159550000D01*
X185286838Y-159785317D01*
X185425910Y-160001441D01*
X185638110Y-160146431D01*
X185890000Y-160197440D01*
X187490000Y-160197440D01*
X187725317Y-160153162D01*
X187941441Y-160014090D01*
X188086431Y-159801890D01*
X188117815Y-159646911D01*
X188215302Y-159792811D01*
X188680849Y-160103880D01*
X189230000Y-160213113D01*
X189779151Y-160103880D01*
X190244698Y-159792811D01*
X190500000Y-159410725D01*
X190755302Y-159792811D01*
X191220849Y-160103880D01*
X191770000Y-160213113D01*
X192319151Y-160103880D01*
X192784698Y-159792811D01*
X193040000Y-159410725D01*
X193295302Y-159792811D01*
X193760849Y-160103880D01*
X194310000Y-160213113D01*
X194859151Y-160103880D01*
X195324698Y-159792811D01*
X195580000Y-159410725D01*
X195835302Y-159792811D01*
X196300849Y-160103880D01*
X196850000Y-160213113D01*
X197399151Y-160103880D01*
X197864698Y-159792811D01*
X198120000Y-159410725D01*
X198375302Y-159792811D01*
X198840849Y-160103880D01*
X199390000Y-160213113D01*
X199939151Y-160103880D01*
X200404698Y-159792811D01*
X200660000Y-159410725D01*
X200915302Y-159792811D01*
X201380849Y-160103880D01*
X201930000Y-160213113D01*
X202479151Y-160103880D01*
X202944698Y-159792811D01*
X203200000Y-159410725D01*
X203455302Y-159792811D01*
X203920849Y-160103880D01*
X204470000Y-160213113D01*
X205019151Y-160103880D01*
X205484698Y-159792811D01*
X205740000Y-159410725D01*
X205995302Y-159792811D01*
X206248000Y-159961659D01*
X206248000Y-163514369D01*
X206076455Y-163685914D01*
X206026691Y-163665250D01*
X205455813Y-163664752D01*
X205403852Y-163686222D01*
X205047814Y-163330184D01*
X204989448Y-163291185D01*
X204800604Y-163165003D01*
X204508999Y-163106999D01*
X191731001Y-163106999D01*
X191439396Y-163165003D01*
X191192185Y-163330184D01*
X190864049Y-163658321D01*
X190500000Y-163585907D01*
X189931715Y-163698946D01*
X189449946Y-164020853D01*
X189230000Y-164350026D01*
X189010054Y-164020853D01*
X188528285Y-163698946D01*
X187960000Y-163585907D01*
X187391715Y-163698946D01*
X186909946Y-164020853D01*
X186882150Y-164062452D01*
X186873162Y-164014683D01*
X186734090Y-163798559D01*
X186521890Y-163653569D01*
X186270000Y-163602560D01*
X184570000Y-163602560D01*
X184334683Y-163646838D01*
X184118559Y-163785910D01*
X183973569Y-163998110D01*
X183922560Y-164250000D01*
X183922560Y-165950000D01*
X183966838Y-166185317D01*
X184105910Y-166401441D01*
X184318110Y-166546431D01*
X184570000Y-166597440D01*
X186270000Y-166597440D01*
X186505317Y-166553162D01*
X186721441Y-166414090D01*
X186866431Y-166201890D01*
X186880086Y-166134459D01*
X186909946Y-166179147D01*
X187391715Y-166501054D01*
X187960000Y-166614093D01*
X188528285Y-166501054D01*
X189010054Y-166179147D01*
X189230000Y-165849974D01*
X189449946Y-166179147D01*
X189931715Y-166501054D01*
X190500000Y-166614093D01*
X191068285Y-166501054D01*
X191550054Y-166179147D01*
X191777702Y-165838447D01*
X191844817Y-165981358D01*
X192273076Y-166371645D01*
X192683110Y-166541476D01*
X192913000Y-166420155D01*
X192913000Y-165227000D01*
X193167000Y-165227000D01*
X193167000Y-166420155D01*
X193396890Y-166541476D01*
X193806924Y-166371645D01*
X194235183Y-165981358D01*
X194481486Y-165456892D01*
X194360819Y-165227000D01*
X193167000Y-165227000D01*
X192913000Y-165227000D01*
X192893000Y-165227000D01*
X192893000Y-164973000D01*
X192913000Y-164973000D01*
X192913000Y-164953000D01*
X193167000Y-164953000D01*
X193167000Y-164973000D01*
X194360819Y-164973000D01*
X194481486Y-164743108D01*
X194428837Y-164630999D01*
X204193369Y-164630999D01*
X204325914Y-164763544D01*
X204305250Y-164813309D01*
X204304752Y-165384187D01*
X204522757Y-165911800D01*
X204926077Y-166315824D01*
X205453309Y-166534750D01*
X206024187Y-166535248D01*
X206076148Y-166513778D01*
X206471184Y-166908815D01*
X206718395Y-167073996D01*
X207010000Y-167132000D01*
X217170000Y-167132000D01*
X217461605Y-167073996D01*
X217708815Y-166908815D01*
X218075951Y-166541679D01*
X218440000Y-166614093D01*
X219008285Y-166501054D01*
X219490054Y-166179147D01*
X219717702Y-165838447D01*
X219784817Y-165981358D01*
X220213076Y-166371645D01*
X220623110Y-166541476D01*
X220853000Y-166420155D01*
X220853000Y-165227000D01*
X221107000Y-165227000D01*
X221107000Y-166420155D01*
X221336890Y-166541476D01*
X221746924Y-166371645D01*
X222175183Y-165981358D01*
X222341048Y-165628172D01*
X224662538Y-165628172D01*
X225067709Y-166608761D01*
X225817293Y-167359655D01*
X226797173Y-167766536D01*
X227858172Y-167767462D01*
X228838761Y-167362291D01*
X229589655Y-166612707D01*
X229996536Y-165632827D01*
X229997462Y-164571828D01*
X229592291Y-163591239D01*
X228842707Y-162840345D01*
X227862827Y-162433464D01*
X226801828Y-162432538D01*
X225821239Y-162837709D01*
X225070345Y-163587293D01*
X224663464Y-164567173D01*
X224662538Y-165628172D01*
X222341048Y-165628172D01*
X222421486Y-165456892D01*
X222300819Y-165227000D01*
X221107000Y-165227000D01*
X220853000Y-165227000D01*
X220833000Y-165227000D01*
X220833000Y-164973000D01*
X220853000Y-164973000D01*
X220853000Y-163779845D01*
X221107000Y-163779845D01*
X221107000Y-164973000D01*
X222300819Y-164973000D01*
X222421486Y-164743108D01*
X222175183Y-164218642D01*
X221746924Y-163828355D01*
X221336890Y-163658524D01*
X221107000Y-163779845D01*
X220853000Y-163779845D01*
X220623110Y-163658524D01*
X220213076Y-163828355D01*
X219784817Y-164218642D01*
X219717702Y-164361553D01*
X219490054Y-164020853D01*
X219008285Y-163698946D01*
X218440000Y-163585907D01*
X217871715Y-163698946D01*
X217389946Y-164020853D01*
X217170000Y-164350026D01*
X216950054Y-164020853D01*
X216468285Y-163698946D01*
X215900000Y-163585907D01*
X215535951Y-163658321D01*
X215392000Y-163514370D01*
X215392000Y-159961659D01*
X215644698Y-159792811D01*
X215900000Y-159410725D01*
X216155302Y-159792811D01*
X216620849Y-160103880D01*
X217170000Y-160213113D01*
X217719151Y-160103880D01*
X218030399Y-159895911D01*
X218604304Y-160469816D01*
X218851514Y-160634997D01*
X219143119Y-160693001D01*
X227351080Y-160693001D01*
X227642685Y-160634997D01*
X227889895Y-160469816D01*
X229138816Y-159220896D01*
X229284672Y-159002606D01*
X229303996Y-158973686D01*
X229348263Y-158751143D01*
X229679147Y-158530054D01*
X230001054Y-158048285D01*
X230114093Y-157480000D01*
X230001054Y-156911715D01*
X229679147Y-156429946D01*
X229349974Y-156210000D01*
X229679147Y-155990054D01*
X230001054Y-155508285D01*
X230114093Y-154940000D01*
X230001054Y-154371715D01*
X229679147Y-153889946D01*
X229349974Y-153670000D01*
X229679147Y-153450054D01*
X230001054Y-152968285D01*
X230114093Y-152400000D01*
X230001054Y-151831715D01*
X229679147Y-151349946D01*
X229349974Y-151130000D01*
X229679147Y-150910054D01*
X230001054Y-150428285D01*
X230114093Y-149860000D01*
X230001054Y-149291715D01*
X229679147Y-148809946D01*
X229349974Y-148590000D01*
X229679147Y-148370054D01*
X230001054Y-147888285D01*
X230114093Y-147320000D01*
X230001054Y-146751715D01*
X229679147Y-146269946D01*
X229349974Y-146050000D01*
X229679147Y-145830054D01*
X230001054Y-145348285D01*
X230114093Y-144780000D01*
X230001054Y-144211715D01*
X229679147Y-143729946D01*
X229349974Y-143510000D01*
X229679147Y-143290054D01*
X230001054Y-142808285D01*
X230114093Y-142240000D01*
X230001054Y-141671715D01*
X229679147Y-141189946D01*
X229349974Y-140970000D01*
X229679147Y-140750054D01*
X230001054Y-140268285D01*
X230114093Y-139700000D01*
X230001054Y-139131715D01*
X229679147Y-138649946D01*
X229197378Y-138328039D01*
X228629093Y-138215000D01*
X228570907Y-138215000D01*
X228002622Y-138328039D01*
X227520853Y-138649946D01*
X227520029Y-138651179D01*
X227513162Y-138614683D01*
X227374090Y-138398559D01*
X227161890Y-138253569D01*
X226910000Y-138202560D01*
X225210000Y-138202560D01*
X224974683Y-138246838D01*
X224758559Y-138385910D01*
X224613569Y-138598110D01*
X224562560Y-138850000D01*
X224562560Y-140550000D01*
X224606838Y-140785317D01*
X224610100Y-140790387D01*
X221062642Y-144337846D01*
X221035767Y-144202736D01*
X220724698Y-143737189D01*
X220472000Y-143568341D01*
X220472000Y-140464642D01*
X220624622Y-140312286D01*
X220789313Y-139915668D01*
X220789687Y-139486216D01*
X220625689Y-139089311D01*
X220322286Y-138785378D01*
X219925668Y-138620687D01*
X219723083Y-138620511D01*
X220259151Y-138513880D01*
X220724698Y-138202811D01*
X221035767Y-137737264D01*
X221145000Y-137188113D01*
X221145000Y-137131887D01*
X221035767Y-136582736D01*
X220724698Y-136117189D01*
X220259151Y-135806120D01*
X219710000Y-135696887D01*
X219202000Y-135797935D01*
X219202000Y-134976890D01*
X225888524Y-134976890D01*
X226058355Y-135386924D01*
X226448642Y-135815183D01*
X226973108Y-136061486D01*
X227203000Y-135940819D01*
X227203000Y-134747000D01*
X227457000Y-134747000D01*
X227457000Y-135940819D01*
X227686892Y-136061486D01*
X228211358Y-135815183D01*
X228601645Y-135386924D01*
X228771476Y-134976890D01*
X228650155Y-134747000D01*
X227457000Y-134747000D01*
X227203000Y-134747000D01*
X226009845Y-134747000D01*
X225888524Y-134976890D01*
X219202000Y-134976890D01*
X219202000Y-132947512D01*
X220129730Y-132019783D01*
X220623108Y-132251486D01*
X220853000Y-132130819D01*
X220853000Y-130937000D01*
X221107000Y-130937000D01*
X221107000Y-132130819D01*
X221336892Y-132251486D01*
X221861358Y-132005183D01*
X222251645Y-131576924D01*
X222395336Y-131230000D01*
X225832560Y-131230000D01*
X225832560Y-132930000D01*
X225876838Y-133165317D01*
X226015910Y-133381441D01*
X226228110Y-133526431D01*
X226336107Y-133548301D01*
X226058355Y-133853076D01*
X225888524Y-134263110D01*
X226009845Y-134493000D01*
X227203000Y-134493000D01*
X227203000Y-134473000D01*
X227457000Y-134473000D01*
X227457000Y-134493000D01*
X228650155Y-134493000D01*
X228771476Y-134263110D01*
X228601645Y-133853076D01*
X228325499Y-133550063D01*
X228415317Y-133533162D01*
X228631441Y-133394090D01*
X228776431Y-133181890D01*
X228827440Y-132930000D01*
X228827440Y-131230000D01*
X228783162Y-130994683D01*
X228644090Y-130778559D01*
X228431890Y-130633569D01*
X228180000Y-130582560D01*
X226480000Y-130582560D01*
X226244683Y-130626838D01*
X226028559Y-130765910D01*
X225883569Y-130978110D01*
X225832560Y-131230000D01*
X222395336Y-131230000D01*
X222421476Y-131166890D01*
X222300155Y-130937000D01*
X221107000Y-130937000D01*
X220853000Y-130937000D01*
X220833000Y-130937000D01*
X220833000Y-130683000D01*
X220853000Y-130683000D01*
X220853000Y-128397000D01*
X221107000Y-128397000D01*
X221107000Y-130683000D01*
X222300155Y-130683000D01*
X222421476Y-130453110D01*
X222251645Y-130043076D01*
X221861358Y-129614817D01*
X221702046Y-129540000D01*
X221861358Y-129465183D01*
X222251645Y-129036924D01*
X222421476Y-128626890D01*
X222300155Y-128397000D01*
X221107000Y-128397000D01*
X220853000Y-128397000D01*
X220833000Y-128397000D01*
X220833000Y-128143000D01*
X220853000Y-128143000D01*
X220853000Y-125857000D01*
X221107000Y-125857000D01*
X221107000Y-128143000D01*
X222300155Y-128143000D01*
X222421476Y-127913110D01*
X222262040Y-127528172D01*
X224662538Y-127528172D01*
X225067709Y-128508761D01*
X225817293Y-129259655D01*
X226797173Y-129666536D01*
X227858172Y-129667462D01*
X228838761Y-129262291D01*
X229589655Y-128512707D01*
X229996536Y-127532827D01*
X229997462Y-126471828D01*
X229592291Y-125491239D01*
X228842707Y-124740345D01*
X227862827Y-124333464D01*
X226801828Y-124332538D01*
X225821239Y-124737709D01*
X225070345Y-125487293D01*
X224663464Y-126467173D01*
X224662538Y-127528172D01*
X222262040Y-127528172D01*
X222251645Y-127503076D01*
X221861358Y-127074817D01*
X221702046Y-127000000D01*
X221861358Y-126925183D01*
X222251645Y-126496924D01*
X222421476Y-126086890D01*
X222300155Y-125857000D01*
X221107000Y-125857000D01*
X220853000Y-125857000D01*
X220833000Y-125857000D01*
X220833000Y-125603000D01*
X220853000Y-125603000D01*
X220853000Y-124409181D01*
X221107000Y-124409181D01*
X221107000Y-125603000D01*
X222300155Y-125603000D01*
X222421476Y-125373110D01*
X222251645Y-124963076D01*
X221861358Y-124534817D01*
X221336892Y-124288514D01*
X221107000Y-124409181D01*
X220853000Y-124409181D01*
X220623108Y-124288514D01*
X220098642Y-124534817D01*
X219911192Y-124740504D01*
X219893162Y-124644683D01*
X219754090Y-124428559D01*
X219541890Y-124283569D01*
X219290000Y-124232560D01*
X217590000Y-124232560D01*
X217354683Y-124276838D01*
X217138559Y-124415910D01*
X217122721Y-124439090D01*
X216643814Y-123960184D01*
X216586674Y-123922004D01*
X216553743Y-123900000D01*
X230430000Y-123900000D01*
X230430000Y-168200000D01*
X230430000Y-168200000D01*
G37*
X230430000Y-168200000D02*
X174700000Y-168200000D01*
X174700000Y-165628172D01*
X175132538Y-165628172D01*
X175537709Y-166608761D01*
X176287293Y-167359655D01*
X177267173Y-167766536D01*
X178328172Y-167767462D01*
X179308761Y-167362291D01*
X180059655Y-166612707D01*
X180466536Y-165632827D01*
X180467462Y-164571828D01*
X180062291Y-163591239D01*
X179312707Y-162840345D01*
X178332827Y-162433464D01*
X177271828Y-162432538D01*
X176291239Y-162837709D01*
X175540345Y-163587293D01*
X175133464Y-164567173D01*
X175132538Y-165628172D01*
X174700000Y-165628172D01*
X174700000Y-159267946D01*
X175189880Y-159757826D01*
X175437090Y-159923007D01*
X175728695Y-159981011D01*
X180435226Y-159981010D01*
X180726831Y-159923006D01*
X180974041Y-159757825D01*
X188409816Y-152322050D01*
X188417199Y-152311001D01*
X188418717Y-152308729D01*
X188680849Y-152483880D01*
X189230000Y-152593113D01*
X189779151Y-152483880D01*
X190244698Y-152172811D01*
X190500000Y-151790725D01*
X190755302Y-152172811D01*
X190983249Y-152325121D01*
X186151185Y-157157185D01*
X186054048Y-157302560D01*
X185890000Y-157302560D01*
X185654683Y-157346838D01*
X185438559Y-157485910D01*
X185293569Y-157698110D01*
X185242560Y-157950000D01*
X185242560Y-159550000D01*
X185286838Y-159785317D01*
X185425910Y-160001441D01*
X185638110Y-160146431D01*
X185890000Y-160197440D01*
X187490000Y-160197440D01*
X187725317Y-160153162D01*
X187941441Y-160014090D01*
X188086431Y-159801890D01*
X188117815Y-159646911D01*
X188215302Y-159792811D01*
X188680849Y-160103880D01*
X189230000Y-160213113D01*
X189779151Y-160103880D01*
X190244698Y-159792811D01*
X190500000Y-159410725D01*
X190755302Y-159792811D01*
X191220849Y-160103880D01*
X191770000Y-160213113D01*
X192319151Y-160103880D01*
X192784698Y-159792811D01*
X193040000Y-159410725D01*
X193295302Y-159792811D01*
X193760849Y-160103880D01*
X194310000Y-160213113D01*
X194859151Y-160103880D01*
X195324698Y-159792811D01*
X195580000Y-159410725D01*
X195835302Y-159792811D01*
X196300849Y-160103880D01*
X196850000Y-160213113D01*
X197399151Y-160103880D01*
X197864698Y-159792811D01*
X198120000Y-159410725D01*
X198375302Y-159792811D01*
X198840849Y-160103880D01*
X199390000Y-160213113D01*
X199939151Y-160103880D01*
X200404698Y-159792811D01*
X200660000Y-159410725D01*
X200915302Y-159792811D01*
X201380849Y-160103880D01*
X201930000Y-160213113D01*
X202479151Y-160103880D01*
X202944698Y-159792811D01*
X203200000Y-159410725D01*
X203455302Y-159792811D01*
X203920849Y-160103880D01*
X204470000Y-160213113D01*
X205019151Y-160103880D01*
X205484698Y-159792811D01*
X205740000Y-159410725D01*
X205995302Y-159792811D01*
X206248000Y-159961659D01*
X206248000Y-163514369D01*
X206076455Y-163685914D01*
X206026691Y-163665250D01*
X205455813Y-163664752D01*
X205403852Y-163686222D01*
X205047814Y-163330184D01*
X204989448Y-163291185D01*
X204800604Y-163165003D01*
X204508999Y-163106999D01*
X191731001Y-163106999D01*
X191439396Y-163165003D01*
X191192185Y-163330184D01*
X190864049Y-163658321D01*
X190500000Y-163585907D01*
X189931715Y-163698946D01*
X189449946Y-164020853D01*
X189230000Y-164350026D01*
X189010054Y-164020853D01*
X188528285Y-163698946D01*
X187960000Y-163585907D01*
X187391715Y-163698946D01*
X186909946Y-164020853D01*
X186882150Y-164062452D01*
X186873162Y-164014683D01*
X186734090Y-163798559D01*
X186521890Y-163653569D01*
X186270000Y-163602560D01*
X184570000Y-163602560D01*
X184334683Y-163646838D01*
X184118559Y-163785910D01*
X183973569Y-163998110D01*
X183922560Y-164250000D01*
X183922560Y-165950000D01*
X183966838Y-166185317D01*
X184105910Y-166401441D01*
X184318110Y-166546431D01*
X184570000Y-166597440D01*
X186270000Y-166597440D01*
X186505317Y-166553162D01*
X186721441Y-166414090D01*
X186866431Y-166201890D01*
X186880086Y-166134459D01*
X186909946Y-166179147D01*
X187391715Y-166501054D01*
X187960000Y-166614093D01*
X188528285Y-166501054D01*
X189010054Y-166179147D01*
X189230000Y-165849974D01*
X189449946Y-166179147D01*
X189931715Y-166501054D01*
X190500000Y-166614093D01*
X191068285Y-166501054D01*
X191550054Y-166179147D01*
X191777702Y-165838447D01*
X191844817Y-165981358D01*
X192273076Y-166371645D01*
X192683110Y-166541476D01*
X192913000Y-166420155D01*
X192913000Y-165227000D01*
X193167000Y-165227000D01*
X193167000Y-166420155D01*
X193396890Y-166541476D01*
X193806924Y-166371645D01*
X194235183Y-165981358D01*
X194481486Y-165456892D01*
X194360819Y-165227000D01*
X193167000Y-165227000D01*
X192913000Y-165227000D01*
X192893000Y-165227000D01*
X192893000Y-164973000D01*
X192913000Y-164973000D01*
X192913000Y-164953000D01*
X193167000Y-164953000D01*
X193167000Y-164973000D01*
X194360819Y-164973000D01*
X194481486Y-164743108D01*
X194428837Y-164630999D01*
X204193369Y-164630999D01*
X204325914Y-164763544D01*
X204305250Y-164813309D01*
X204304752Y-165384187D01*
X204522757Y-165911800D01*
X204926077Y-166315824D01*
X205453309Y-166534750D01*
X206024187Y-166535248D01*
X206076148Y-166513778D01*
X206471184Y-166908815D01*
X206718395Y-167073996D01*
X207010000Y-167132000D01*
X217170000Y-167132000D01*
X217461605Y-167073996D01*
X217708815Y-166908815D01*
X218075951Y-166541679D01*
X218440000Y-166614093D01*
X219008285Y-166501054D01*
X219490054Y-166179147D01*
X219717702Y-165838447D01*
X219784817Y-165981358D01*
X220213076Y-166371645D01*
X220623110Y-166541476D01*
X220853000Y-166420155D01*
X220853000Y-165227000D01*
X221107000Y-165227000D01*
X221107000Y-166420155D01*
X221336890Y-166541476D01*
X221746924Y-166371645D01*
X222175183Y-165981358D01*
X222341048Y-165628172D01*
X224662538Y-165628172D01*
X225067709Y-166608761D01*
X225817293Y-167359655D01*
X226797173Y-167766536D01*
X227858172Y-167767462D01*
X228838761Y-167362291D01*
X229589655Y-166612707D01*
X229996536Y-165632827D01*
X229997462Y-164571828D01*
X229592291Y-163591239D01*
X228842707Y-162840345D01*
X227862827Y-162433464D01*
X226801828Y-162432538D01*
X225821239Y-162837709D01*
X225070345Y-163587293D01*
X224663464Y-164567173D01*
X224662538Y-165628172D01*
X222341048Y-165628172D01*
X222421486Y-165456892D01*
X222300819Y-165227000D01*
X221107000Y-165227000D01*
X220853000Y-165227000D01*
X220833000Y-165227000D01*
X220833000Y-164973000D01*
X220853000Y-164973000D01*
X220853000Y-163779845D01*
X221107000Y-163779845D01*
X221107000Y-164973000D01*
X222300819Y-164973000D01*
X222421486Y-164743108D01*
X222175183Y-164218642D01*
X221746924Y-163828355D01*
X221336890Y-163658524D01*
X221107000Y-163779845D01*
X220853000Y-163779845D01*
X220623110Y-163658524D01*
X220213076Y-163828355D01*
X219784817Y-164218642D01*
X219717702Y-164361553D01*
X219490054Y-164020853D01*
X219008285Y-163698946D01*
X218440000Y-163585907D01*
X217871715Y-163698946D01*
X217389946Y-164020853D01*
X217170000Y-164350026D01*
X216950054Y-164020853D01*
X216468285Y-163698946D01*
X215900000Y-163585907D01*
X215535951Y-163658321D01*
X215392000Y-163514370D01*
X215392000Y-159961659D01*
X215644698Y-159792811D01*
X215900000Y-159410725D01*
X216155302Y-159792811D01*
X216620849Y-160103880D01*
X217170000Y-160213113D01*
X217719151Y-160103880D01*
X218030399Y-159895911D01*
X218604304Y-160469816D01*
X218851514Y-160634997D01*
X219143119Y-160693001D01*
X227351080Y-160693001D01*
X227642685Y-160634997D01*
X227889895Y-160469816D01*
X229138816Y-159220896D01*
X229284672Y-159002606D01*
X229303996Y-158973686D01*
X229348263Y-158751143D01*
X229679147Y-158530054D01*
X230001054Y-158048285D01*
X230114093Y-157480000D01*
X230001054Y-156911715D01*
X229679147Y-156429946D01*
X229349974Y-156210000D01*
X229679147Y-155990054D01*
X230001054Y-155508285D01*
X230114093Y-154940000D01*
X230001054Y-154371715D01*
X229679147Y-153889946D01*
X229349974Y-153670000D01*
X229679147Y-153450054D01*
X230001054Y-152968285D01*
X230114093Y-152400000D01*
X230001054Y-151831715D01*
X229679147Y-151349946D01*
X229349974Y-151130000D01*
X229679147Y-150910054D01*
X230001054Y-150428285D01*
X230114093Y-149860000D01*
X230001054Y-149291715D01*
X229679147Y-148809946D01*
X229349974Y-148590000D01*
X229679147Y-148370054D01*
X230001054Y-147888285D01*
X230114093Y-147320000D01*
X230001054Y-146751715D01*
X229679147Y-146269946D01*
X229349974Y-146050000D01*
X229679147Y-145830054D01*
X230001054Y-145348285D01*
X230114093Y-144780000D01*
X230001054Y-144211715D01*
X229679147Y-143729946D01*
X229349974Y-143510000D01*
X229679147Y-143290054D01*
X230001054Y-142808285D01*
X230114093Y-142240000D01*
X230001054Y-141671715D01*
X229679147Y-141189946D01*
X229349974Y-140970000D01*
X229679147Y-140750054D01*
X230001054Y-140268285D01*
X230114093Y-139700000D01*
X230001054Y-139131715D01*
X229679147Y-138649946D01*
X229197378Y-138328039D01*
X228629093Y-138215000D01*
X228570907Y-138215000D01*
X228002622Y-138328039D01*
X227520853Y-138649946D01*
X227520029Y-138651179D01*
X227513162Y-138614683D01*
X227374090Y-138398559D01*
X227161890Y-138253569D01*
X226910000Y-138202560D01*
X225210000Y-138202560D01*
X224974683Y-138246838D01*
X224758559Y-138385910D01*
X224613569Y-138598110D01*
X224562560Y-138850000D01*
X224562560Y-140550000D01*
X224606838Y-140785317D01*
X224610100Y-140790387D01*
X221062642Y-144337846D01*
X221035767Y-144202736D01*
X220724698Y-143737189D01*
X220472000Y-143568341D01*
X220472000Y-140464642D01*
X220624622Y-140312286D01*
X220789313Y-139915668D01*
X220789687Y-139486216D01*
X220625689Y-139089311D01*
X220322286Y-138785378D01*
X219925668Y-138620687D01*
X219723083Y-138620511D01*
X220259151Y-138513880D01*
X220724698Y-138202811D01*
X221035767Y-137737264D01*
X221145000Y-137188113D01*
X221145000Y-137131887D01*
X221035767Y-136582736D01*
X220724698Y-136117189D01*
X220259151Y-135806120D01*
X219710000Y-135696887D01*
X219202000Y-135797935D01*
X219202000Y-134976890D01*
X225888524Y-134976890D01*
X226058355Y-135386924D01*
X226448642Y-135815183D01*
X226973108Y-136061486D01*
X227203000Y-135940819D01*
X227203000Y-134747000D01*
X227457000Y-134747000D01*
X227457000Y-135940819D01*
X227686892Y-136061486D01*
X228211358Y-135815183D01*
X228601645Y-135386924D01*
X228771476Y-134976890D01*
X228650155Y-134747000D01*
X227457000Y-134747000D01*
X227203000Y-134747000D01*
X226009845Y-134747000D01*
X225888524Y-134976890D01*
X219202000Y-134976890D01*
X219202000Y-132947512D01*
X220129730Y-132019783D01*
X220623108Y-132251486D01*
X220853000Y-132130819D01*
X220853000Y-130937000D01*
X221107000Y-130937000D01*
X221107000Y-132130819D01*
X221336892Y-132251486D01*
X221861358Y-132005183D01*
X222251645Y-131576924D01*
X222395336Y-131230000D01*
X225832560Y-131230000D01*
X225832560Y-132930000D01*
X225876838Y-133165317D01*
X226015910Y-133381441D01*
X226228110Y-133526431D01*
X226336107Y-133548301D01*
X226058355Y-133853076D01*
X225888524Y-134263110D01*
X226009845Y-134493000D01*
X227203000Y-134493000D01*
X227203000Y-134473000D01*
X227457000Y-134473000D01*
X227457000Y-134493000D01*
X228650155Y-134493000D01*
X228771476Y-134263110D01*
X228601645Y-133853076D01*
X228325499Y-133550063D01*
X228415317Y-133533162D01*
X228631441Y-133394090D01*
X228776431Y-133181890D01*
X228827440Y-132930000D01*
X228827440Y-131230000D01*
X228783162Y-130994683D01*
X228644090Y-130778559D01*
X228431890Y-130633569D01*
X228180000Y-130582560D01*
X226480000Y-130582560D01*
X226244683Y-130626838D01*
X226028559Y-130765910D01*
X225883569Y-130978110D01*
X225832560Y-131230000D01*
X222395336Y-131230000D01*
X222421476Y-131166890D01*
X222300155Y-130937000D01*
X221107000Y-130937000D01*
X220853000Y-130937000D01*
X220833000Y-130937000D01*
X220833000Y-130683000D01*
X220853000Y-130683000D01*
X220853000Y-128397000D01*
X221107000Y-128397000D01*
X221107000Y-130683000D01*
X222300155Y-130683000D01*
X222421476Y-130453110D01*
X222251645Y-130043076D01*
X221861358Y-129614817D01*
X221702046Y-129540000D01*
X221861358Y-129465183D01*
X222251645Y-129036924D01*
X222421476Y-128626890D01*
X222300155Y-128397000D01*
X221107000Y-128397000D01*
X220853000Y-128397000D01*
X220833000Y-128397000D01*
X220833000Y-128143000D01*
X220853000Y-128143000D01*
X220853000Y-125857000D01*
X221107000Y-125857000D01*
X221107000Y-128143000D01*
X222300155Y-128143000D01*
X222421476Y-127913110D01*
X222262040Y-127528172D01*
X224662538Y-127528172D01*
X225067709Y-128508761D01*
X225817293Y-129259655D01*
X226797173Y-129666536D01*
X227858172Y-129667462D01*
X228838761Y-129262291D01*
X229589655Y-128512707D01*
X229996536Y-127532827D01*
X229997462Y-126471828D01*
X229592291Y-125491239D01*
X228842707Y-124740345D01*
X227862827Y-124333464D01*
X226801828Y-124332538D01*
X225821239Y-124737709D01*
X225070345Y-125487293D01*
X224663464Y-126467173D01*
X224662538Y-127528172D01*
X222262040Y-127528172D01*
X222251645Y-127503076D01*
X221861358Y-127074817D01*
X221702046Y-127000000D01*
X221861358Y-126925183D01*
X222251645Y-126496924D01*
X222421476Y-126086890D01*
X222300155Y-125857000D01*
X221107000Y-125857000D01*
X220853000Y-125857000D01*
X220833000Y-125857000D01*
X220833000Y-125603000D01*
X220853000Y-125603000D01*
X220853000Y-124409181D01*
X221107000Y-124409181D01*
X221107000Y-125603000D01*
X222300155Y-125603000D01*
X222421476Y-125373110D01*
X222251645Y-124963076D01*
X221861358Y-124534817D01*
X221336892Y-124288514D01*
X221107000Y-124409181D01*
X220853000Y-124409181D01*
X220623108Y-124288514D01*
X220098642Y-124534817D01*
X219911192Y-124740504D01*
X219893162Y-124644683D01*
X219754090Y-124428559D01*
X219541890Y-124283569D01*
X219290000Y-124232560D01*
X217590000Y-124232560D01*
X217354683Y-124276838D01*
X217138559Y-124415910D01*
X217122721Y-124439090D01*
X216643814Y-123960184D01*
X216586674Y-123922004D01*
X216553743Y-123900000D01*
X230430000Y-123900000D01*
X230430000Y-168200000D01*
G36*
X217589001Y-156682703D02*
X217589001Y-157370232D01*
X217170000Y-157286887D01*
X216620849Y-157396120D01*
X216155302Y-157707189D01*
X215900000Y-158089275D01*
X215644698Y-157707189D01*
X215179151Y-157396120D01*
X214630000Y-157286887D01*
X214080849Y-157396120D01*
X213615302Y-157707189D01*
X213360000Y-158089275D01*
X213104698Y-157707189D01*
X212639151Y-157396120D01*
X212090000Y-157286887D01*
X211540849Y-157396120D01*
X211075302Y-157707189D01*
X210805014Y-158111703D01*
X210702389Y-157894866D01*
X210287423Y-157518959D01*
X209899039Y-157358096D01*
X209677000Y-157480085D01*
X209677000Y-158623000D01*
X209697000Y-158623000D01*
X209697000Y-158877000D01*
X209677000Y-158877000D01*
X209677000Y-160019915D01*
X209899039Y-160141904D01*
X210287423Y-159981041D01*
X210702389Y-159605134D01*
X210805014Y-159388297D01*
X211075302Y-159792811D01*
X211540849Y-160103880D01*
X212090000Y-160213113D01*
X212639151Y-160103880D01*
X213104698Y-159792811D01*
X213360000Y-159410725D01*
X213615302Y-159792811D01*
X213868000Y-159961659D01*
X213868000Y-163602560D01*
X212510000Y-163602560D01*
X212274683Y-163646838D01*
X212058559Y-163785910D01*
X211913569Y-163998110D01*
X211862560Y-164250000D01*
X211862560Y-165608000D01*
X209582288Y-165608000D01*
X209686965Y-165316777D01*
X209659778Y-164746546D01*
X209493864Y-164345995D01*
X209247745Y-164271861D01*
X208419605Y-165100000D01*
X208433748Y-165114142D01*
X208254143Y-165293748D01*
X208240000Y-165279605D01*
X208225858Y-165293748D01*
X208046252Y-165114142D01*
X208060395Y-165100000D01*
X208046253Y-165085858D01*
X208225858Y-164906252D01*
X208240000Y-164920395D01*
X209068139Y-164092255D01*
X208994005Y-163846136D01*
X208456777Y-163653035D01*
X207886546Y-163680222D01*
X207772000Y-163727669D01*
X207772000Y-159961659D01*
X208024698Y-159792811D01*
X208294986Y-159388297D01*
X208397611Y-159605134D01*
X208812577Y-159981041D01*
X209200961Y-160141904D01*
X209423000Y-160019915D01*
X209423000Y-158877000D01*
X209403000Y-158877000D01*
X209403000Y-158623000D01*
X209423000Y-158623000D01*
X209423000Y-157480085D01*
X209200961Y-157358096D01*
X208812577Y-157518959D01*
X208397611Y-157894866D01*
X208294986Y-158111703D01*
X208024698Y-157707189D01*
X207559151Y-157396120D01*
X207010620Y-157287010D01*
X207641938Y-156655692D01*
X217561990Y-156655692D01*
X217589001Y-156682703D01*
X217589001Y-156682703D01*
G37*
X217589001Y-156682703D02*
X217589001Y-157370232D01*
X217170000Y-157286887D01*
X216620849Y-157396120D01*
X216155302Y-157707189D01*
X215900000Y-158089275D01*
X215644698Y-157707189D01*
X215179151Y-157396120D01*
X214630000Y-157286887D01*
X214080849Y-157396120D01*
X213615302Y-157707189D01*
X213360000Y-158089275D01*
X213104698Y-157707189D01*
X212639151Y-157396120D01*
X212090000Y-157286887D01*
X211540849Y-157396120D01*
X211075302Y-157707189D01*
X210805014Y-158111703D01*
X210702389Y-157894866D01*
X210287423Y-157518959D01*
X209899039Y-157358096D01*
X209677000Y-157480085D01*
X209677000Y-158623000D01*
X209697000Y-158623000D01*
X209697000Y-158877000D01*
X209677000Y-158877000D01*
X209677000Y-160019915D01*
X209899039Y-160141904D01*
X210287423Y-159981041D01*
X210702389Y-159605134D01*
X210805014Y-159388297D01*
X211075302Y-159792811D01*
X211540849Y-160103880D01*
X212090000Y-160213113D01*
X212639151Y-160103880D01*
X213104698Y-159792811D01*
X213360000Y-159410725D01*
X213615302Y-159792811D01*
X213868000Y-159961659D01*
X213868000Y-163602560D01*
X212510000Y-163602560D01*
X212274683Y-163646838D01*
X212058559Y-163785910D01*
X211913569Y-163998110D01*
X211862560Y-164250000D01*
X211862560Y-165608000D01*
X209582288Y-165608000D01*
X209686965Y-165316777D01*
X209659778Y-164746546D01*
X209493864Y-164345995D01*
X209247745Y-164271861D01*
X208419605Y-165100000D01*
X208433748Y-165114142D01*
X208254143Y-165293748D01*
X208240000Y-165279605D01*
X208225858Y-165293748D01*
X208046252Y-165114142D01*
X208060395Y-165100000D01*
X208046253Y-165085858D01*
X208225858Y-164906252D01*
X208240000Y-164920395D01*
X209068139Y-164092255D01*
X208994005Y-163846136D01*
X208456777Y-163653035D01*
X207886546Y-163680222D01*
X207772000Y-163727669D01*
X207772000Y-159961659D01*
X208024698Y-159792811D01*
X208294986Y-159388297D01*
X208397611Y-159605134D01*
X208812577Y-159981041D01*
X209200961Y-160141904D01*
X209423000Y-160019915D01*
X209423000Y-158877000D01*
X209403000Y-158877000D01*
X209403000Y-158623000D01*
X209423000Y-158623000D01*
X209423000Y-157480085D01*
X209200961Y-157358096D01*
X208812577Y-157518959D01*
X208397611Y-157894866D01*
X208294986Y-158111703D01*
X208024698Y-157707189D01*
X207559151Y-157396120D01*
X207010620Y-157287010D01*
X207641938Y-156655692D01*
X217561990Y-156655692D01*
X217589001Y-156682703D01*
G36*
X212509001Y-143400232D02*
X212090000Y-143316887D01*
X211540849Y-143426120D01*
X211075302Y-143737189D01*
X210805014Y-144141703D01*
X210702389Y-143924866D01*
X210287423Y-143548959D01*
X209899039Y-143388096D01*
X209677000Y-143510085D01*
X209677000Y-144653000D01*
X209697000Y-144653000D01*
X209697000Y-144907000D01*
X209677000Y-144907000D01*
X209677000Y-146049915D01*
X209899039Y-146171904D01*
X210287423Y-146011041D01*
X210702389Y-145635134D01*
X210805014Y-145418297D01*
X211075302Y-145822811D01*
X211540849Y-146133880D01*
X212090000Y-146243113D01*
X212509001Y-146159768D01*
X212509001Y-149201371D01*
X209380755Y-146073125D01*
X209423000Y-146049915D01*
X209423000Y-144907000D01*
X209403000Y-144907000D01*
X209403000Y-144653000D01*
X209423000Y-144653000D01*
X209423000Y-143510085D01*
X209200961Y-143388096D01*
X208812577Y-143548959D01*
X208397611Y-143924866D01*
X208294986Y-144141703D01*
X208024698Y-143737189D01*
X207772000Y-143568341D01*
X207772000Y-142555630D01*
X211768473Y-138559157D01*
X212090000Y-138623113D01*
X212509001Y-138539768D01*
X212509001Y-143400232D01*
X212509001Y-143400232D01*
G37*
X212509001Y-143400232D02*
X212090000Y-143316887D01*
X211540849Y-143426120D01*
X211075302Y-143737189D01*
X210805014Y-144141703D01*
X210702389Y-143924866D01*
X210287423Y-143548959D01*
X209899039Y-143388096D01*
X209677000Y-143510085D01*
X209677000Y-144653000D01*
X209697000Y-144653000D01*
X209697000Y-144907000D01*
X209677000Y-144907000D01*
X209677000Y-146049915D01*
X209899039Y-146171904D01*
X210287423Y-146011041D01*
X210702389Y-145635134D01*
X210805014Y-145418297D01*
X211075302Y-145822811D01*
X211540849Y-146133880D01*
X212090000Y-146243113D01*
X212509001Y-146159768D01*
X212509001Y-149201371D01*
X209380755Y-146073125D01*
X209423000Y-146049915D01*
X209423000Y-144907000D01*
X209403000Y-144907000D01*
X209403000Y-144653000D01*
X209423000Y-144653000D01*
X209423000Y-143510085D01*
X209200961Y-143388096D01*
X208812577Y-143548959D01*
X208397611Y-143924866D01*
X208294986Y-144141703D01*
X208024698Y-143737189D01*
X207772000Y-143568341D01*
X207772000Y-142555630D01*
X211768473Y-138559157D01*
X212090000Y-138623113D01*
X212509001Y-138539768D01*
X212509001Y-143400232D01*
G36*
X200800303Y-123960184D02*
X200479440Y-124281048D01*
X200240000Y-124232560D01*
X198540000Y-124232560D01*
X198304683Y-124276838D01*
X198088559Y-124415910D01*
X197943569Y-124628110D01*
X197892560Y-124880000D01*
X197892560Y-126580000D01*
X197936838Y-126815317D01*
X198075910Y-127031441D01*
X198288110Y-127176431D01*
X198355541Y-127190086D01*
X198310853Y-127219946D01*
X197988946Y-127701715D01*
X197875907Y-128270000D01*
X197988946Y-128838285D01*
X198310853Y-129320054D01*
X198640026Y-129540000D01*
X198310853Y-129759946D01*
X197988946Y-130241715D01*
X197875907Y-130810000D01*
X197988946Y-131378285D01*
X198310853Y-131860054D01*
X198792622Y-132181961D01*
X199360907Y-132295000D01*
X199419093Y-132295000D01*
X199987378Y-132181961D01*
X200469147Y-131860054D01*
X200660000Y-131574422D01*
X200850853Y-131860054D01*
X201332622Y-132181961D01*
X201900907Y-132295000D01*
X201959093Y-132295000D01*
X202527378Y-132181961D01*
X203009147Y-131860054D01*
X203331054Y-131378285D01*
X203444093Y-130810000D01*
X203371679Y-130445952D01*
X203476632Y-130340999D01*
X204319197Y-130340999D01*
X204225907Y-130810000D01*
X204338946Y-131378285D01*
X204660853Y-131860054D01*
X205142622Y-132181961D01*
X205710907Y-132295000D01*
X205769093Y-132295000D01*
X206337378Y-132181961D01*
X206819147Y-131860054D01*
X207008345Y-131576899D01*
X207008355Y-131576924D01*
X207398642Y-132005183D01*
X207923108Y-132251486D01*
X208153000Y-132130819D01*
X208153000Y-130937000D01*
X208407000Y-130937000D01*
X208407000Y-132130819D01*
X208636892Y-132251486D01*
X209161358Y-132005183D01*
X209551645Y-131576924D01*
X209721476Y-131166890D01*
X209600155Y-130937000D01*
X208407000Y-130937000D01*
X208153000Y-130937000D01*
X208133000Y-130937000D01*
X208133000Y-130683000D01*
X208153000Y-130683000D01*
X208153000Y-130663000D01*
X208407000Y-130663000D01*
X208407000Y-130683000D01*
X209600155Y-130683000D01*
X209721476Y-130453110D01*
X209675041Y-130340999D01*
X209903249Y-130340999D01*
X210096999Y-130534750D01*
X210096999Y-135805692D01*
X209550000Y-135696887D01*
X209000849Y-135806120D01*
X208535302Y-136117189D01*
X208280000Y-136499275D01*
X208024698Y-136117189D01*
X207559151Y-135806120D01*
X207010000Y-135696887D01*
X206460849Y-135806120D01*
X205995302Y-136117189D01*
X205740000Y-136499275D01*
X205484698Y-136117189D01*
X205019151Y-135806120D01*
X204470000Y-135696887D01*
X203920849Y-135806120D01*
X203455302Y-136117189D01*
X203200000Y-136499275D01*
X202944698Y-136117189D01*
X202479151Y-135806120D01*
X201930000Y-135696887D01*
X201380849Y-135806120D01*
X200915302Y-136117189D01*
X200660000Y-136499275D01*
X200404698Y-136117189D01*
X199939151Y-135806120D01*
X199390000Y-135696887D01*
X198840849Y-135806120D01*
X198375302Y-136117189D01*
X198120000Y-136499275D01*
X197864698Y-136117189D01*
X197399151Y-135806120D01*
X196850000Y-135696887D01*
X196300849Y-135806120D01*
X195835302Y-136117189D01*
X195580000Y-136499275D01*
X195324698Y-136117189D01*
X194859151Y-135806120D01*
X194310000Y-135696887D01*
X193760849Y-135806120D01*
X193295302Y-136117189D01*
X193040000Y-136499275D01*
X192784698Y-136117189D01*
X192319151Y-135806120D01*
X191770000Y-135696887D01*
X191220849Y-135806120D01*
X190755302Y-136117189D01*
X190500000Y-136499275D01*
X190244698Y-136117189D01*
X189779151Y-135806120D01*
X189230000Y-135696887D01*
X188680849Y-135806120D01*
X188215302Y-136117189D01*
X187960000Y-136499275D01*
X187704698Y-136117189D01*
X187239151Y-135806120D01*
X186690000Y-135696887D01*
X186140849Y-135806120D01*
X185675302Y-136117189D01*
X185364233Y-136582736D01*
X185255000Y-137131887D01*
X185255000Y-137188113D01*
X185364233Y-137737264D01*
X185675302Y-138202811D01*
X186140849Y-138513880D01*
X186690000Y-138623113D01*
X187239151Y-138513880D01*
X187704698Y-138202811D01*
X187960000Y-137820725D01*
X188215302Y-138202811D01*
X188680849Y-138513880D01*
X189230000Y-138623113D01*
X189779151Y-138513880D01*
X190244698Y-138202811D01*
X190500000Y-137820725D01*
X190755302Y-138202811D01*
X191220849Y-138513880D01*
X191770000Y-138623113D01*
X192319151Y-138513880D01*
X192784698Y-138202811D01*
X193040000Y-137820725D01*
X193295302Y-138202811D01*
X193760849Y-138513880D01*
X194310000Y-138623113D01*
X194859151Y-138513880D01*
X195324698Y-138202811D01*
X195580000Y-137820725D01*
X195835302Y-138202811D01*
X196300849Y-138513880D01*
X196850000Y-138623113D01*
X197399151Y-138513880D01*
X197864698Y-138202811D01*
X198120000Y-137820725D01*
X198375302Y-138202811D01*
X198840849Y-138513880D01*
X199390000Y-138623113D01*
X199939151Y-138513880D01*
X200404698Y-138202811D01*
X200660000Y-137820725D01*
X200915302Y-138202811D01*
X201380849Y-138513880D01*
X201930000Y-138623113D01*
X202479151Y-138513880D01*
X202944698Y-138202811D01*
X203200000Y-137820725D01*
X203455302Y-138202811D01*
X203920849Y-138513880D01*
X204470000Y-138623113D01*
X205019151Y-138513880D01*
X205484698Y-138202811D01*
X205740000Y-137820725D01*
X205995302Y-138202811D01*
X206460849Y-138513880D01*
X207010000Y-138623113D01*
X207559151Y-138513880D01*
X208024698Y-138202811D01*
X208280000Y-137820725D01*
X208535302Y-138202811D01*
X209000849Y-138513880D01*
X209549380Y-138622990D01*
X206471185Y-141701185D01*
X206306004Y-141948395D01*
X206248000Y-142240000D01*
X206248000Y-143568341D01*
X205995302Y-143737189D01*
X205740000Y-144119275D01*
X205484698Y-143737189D01*
X205019151Y-143426120D01*
X204470000Y-143316887D01*
X204148474Y-143380843D01*
X201763016Y-140995386D01*
X201572428Y-140868039D01*
X201515806Y-140830205D01*
X201224201Y-140772201D01*
X183041714Y-140772201D01*
X180199696Y-137930184D01*
X180100639Y-137863996D01*
X179952486Y-137765003D01*
X179660881Y-137706999D01*
X178479119Y-137706999D01*
X178187514Y-137765003D01*
X177940303Y-137930184D01*
X177376195Y-138494293D01*
X177127378Y-138328039D01*
X176559093Y-138215000D01*
X176500907Y-138215000D01*
X175932622Y-138328039D01*
X175450853Y-138649946D01*
X175128946Y-139131715D01*
X175015907Y-139700000D01*
X175128946Y-140268285D01*
X175450853Y-140750054D01*
X175780026Y-140970000D01*
X175450853Y-141189946D01*
X175128946Y-141671715D01*
X175015907Y-142240000D01*
X175128946Y-142808285D01*
X175450853Y-143290054D01*
X175780026Y-143510000D01*
X175450853Y-143729946D01*
X175128946Y-144211715D01*
X175015907Y-144780000D01*
X175128946Y-145348285D01*
X175450853Y-145830054D01*
X175780026Y-146050000D01*
X175450853Y-146269946D01*
X175128946Y-146751715D01*
X175015907Y-147320000D01*
X175088321Y-147684049D01*
X174700000Y-148072370D01*
X174700000Y-134976890D01*
X176358524Y-134976890D01*
X176528355Y-135386924D01*
X176918642Y-135815183D01*
X177443108Y-136061486D01*
X177673000Y-135940819D01*
X177673000Y-134747000D01*
X177927000Y-134747000D01*
X177927000Y-135940819D01*
X178156892Y-136061486D01*
X178681358Y-135815183D01*
X179071645Y-135386924D01*
X179241476Y-134976890D01*
X179120155Y-134747000D01*
X177927000Y-134747000D01*
X177673000Y-134747000D01*
X176479845Y-134747000D01*
X176358524Y-134976890D01*
X174700000Y-134976890D01*
X174700000Y-131230000D01*
X176302560Y-131230000D01*
X176302560Y-132930000D01*
X176346838Y-133165317D01*
X176485910Y-133381441D01*
X176698110Y-133526431D01*
X176806107Y-133548301D01*
X176528355Y-133853076D01*
X176358524Y-134263110D01*
X176479845Y-134493000D01*
X177673000Y-134493000D01*
X177673000Y-134473000D01*
X177927000Y-134473000D01*
X177927000Y-134493000D01*
X179120155Y-134493000D01*
X179241476Y-134263110D01*
X179071645Y-133853076D01*
X178795499Y-133550063D01*
X178885317Y-133533162D01*
X179101441Y-133394090D01*
X179246431Y-133181890D01*
X179297440Y-132930000D01*
X179297440Y-131230000D01*
X179253162Y-130994683D01*
X179114090Y-130778559D01*
X178901890Y-130633569D01*
X178650000Y-130582560D01*
X176950000Y-130582560D01*
X176714683Y-130626838D01*
X176498559Y-130765910D01*
X176353569Y-130978110D01*
X176302560Y-131230000D01*
X174700000Y-131230000D01*
X174700000Y-127528172D01*
X175132538Y-127528172D01*
X175537709Y-128508761D01*
X176287293Y-129259655D01*
X177267173Y-129666536D01*
X178328172Y-129667462D01*
X179308761Y-129262291D01*
X180059655Y-128512707D01*
X180466536Y-127532827D01*
X180467462Y-126471828D01*
X180062291Y-125491239D01*
X179312707Y-124740345D01*
X178332827Y-124333464D01*
X177271828Y-124332538D01*
X176291239Y-124737709D01*
X175540345Y-125487293D01*
X175133464Y-126467173D01*
X175132538Y-127528172D01*
X174700000Y-127528172D01*
X174700000Y-123900000D01*
X200890375Y-123900000D01*
X200800303Y-123960184D01*
X200800303Y-123960184D01*
G37*
X200800303Y-123960184D02*
X200479440Y-124281048D01*
X200240000Y-124232560D01*
X198540000Y-124232560D01*
X198304683Y-124276838D01*
X198088559Y-124415910D01*
X197943569Y-124628110D01*
X197892560Y-124880000D01*
X197892560Y-126580000D01*
X197936838Y-126815317D01*
X198075910Y-127031441D01*
X198288110Y-127176431D01*
X198355541Y-127190086D01*
X198310853Y-127219946D01*
X197988946Y-127701715D01*
X197875907Y-128270000D01*
X197988946Y-128838285D01*
X198310853Y-129320054D01*
X198640026Y-129540000D01*
X198310853Y-129759946D01*
X197988946Y-130241715D01*
X197875907Y-130810000D01*
X197988946Y-131378285D01*
X198310853Y-131860054D01*
X198792622Y-132181961D01*
X199360907Y-132295000D01*
X199419093Y-132295000D01*
X199987378Y-132181961D01*
X200469147Y-131860054D01*
X200660000Y-131574422D01*
X200850853Y-131860054D01*
X201332622Y-132181961D01*
X201900907Y-132295000D01*
X201959093Y-132295000D01*
X202527378Y-132181961D01*
X203009147Y-131860054D01*
X203331054Y-131378285D01*
X203444093Y-130810000D01*
X203371679Y-130445952D01*
X203476632Y-130340999D01*
X204319197Y-130340999D01*
X204225907Y-130810000D01*
X204338946Y-131378285D01*
X204660853Y-131860054D01*
X205142622Y-132181961D01*
X205710907Y-132295000D01*
X205769093Y-132295000D01*
X206337378Y-132181961D01*
X206819147Y-131860054D01*
X207008345Y-131576899D01*
X207008355Y-131576924D01*
X207398642Y-132005183D01*
X207923108Y-132251486D01*
X208153000Y-132130819D01*
X208153000Y-130937000D01*
X208407000Y-130937000D01*
X208407000Y-132130819D01*
X208636892Y-132251486D01*
X209161358Y-132005183D01*
X209551645Y-131576924D01*
X209721476Y-131166890D01*
X209600155Y-130937000D01*
X208407000Y-130937000D01*
X208153000Y-130937000D01*
X208133000Y-130937000D01*
X208133000Y-130683000D01*
X208153000Y-130683000D01*
X208153000Y-130663000D01*
X208407000Y-130663000D01*
X208407000Y-130683000D01*
X209600155Y-130683000D01*
X209721476Y-130453110D01*
X209675041Y-130340999D01*
X209903249Y-130340999D01*
X210096999Y-130534750D01*
X210096999Y-135805692D01*
X209550000Y-135696887D01*
X209000849Y-135806120D01*
X208535302Y-136117189D01*
X208280000Y-136499275D01*
X208024698Y-136117189D01*
X207559151Y-135806120D01*
X207010000Y-135696887D01*
X206460849Y-135806120D01*
X205995302Y-136117189D01*
X205740000Y-136499275D01*
X205484698Y-136117189D01*
X205019151Y-135806120D01*
X204470000Y-135696887D01*
X203920849Y-135806120D01*
X203455302Y-136117189D01*
X203200000Y-136499275D01*
X202944698Y-136117189D01*
X202479151Y-135806120D01*
X201930000Y-135696887D01*
X201380849Y-135806120D01*
X200915302Y-136117189D01*
X200660000Y-136499275D01*
X200404698Y-136117189D01*
X199939151Y-135806120D01*
X199390000Y-135696887D01*
X198840849Y-135806120D01*
X198375302Y-136117189D01*
X198120000Y-136499275D01*
X197864698Y-136117189D01*
X197399151Y-135806120D01*
X196850000Y-135696887D01*
X196300849Y-135806120D01*
X195835302Y-136117189D01*
X195580000Y-136499275D01*
X195324698Y-136117189D01*
X194859151Y-135806120D01*
X194310000Y-135696887D01*
X193760849Y-135806120D01*
X193295302Y-136117189D01*
X193040000Y-136499275D01*
X192784698Y-136117189D01*
X192319151Y-135806120D01*
X191770000Y-135696887D01*
X191220849Y-135806120D01*
X190755302Y-136117189D01*
X190500000Y-136499275D01*
X190244698Y-136117189D01*
X189779151Y-135806120D01*
X189230000Y-135696887D01*
X188680849Y-135806120D01*
X188215302Y-136117189D01*
X187960000Y-136499275D01*
X187704698Y-136117189D01*
X187239151Y-135806120D01*
X186690000Y-135696887D01*
X186140849Y-135806120D01*
X185675302Y-136117189D01*
X185364233Y-136582736D01*
X185255000Y-137131887D01*
X185255000Y-137188113D01*
X185364233Y-137737264D01*
X185675302Y-138202811D01*
X186140849Y-138513880D01*
X186690000Y-138623113D01*
X187239151Y-138513880D01*
X187704698Y-138202811D01*
X187960000Y-137820725D01*
X188215302Y-138202811D01*
X188680849Y-138513880D01*
X189230000Y-138623113D01*
X189779151Y-138513880D01*
X190244698Y-138202811D01*
X190500000Y-137820725D01*
X190755302Y-138202811D01*
X191220849Y-138513880D01*
X191770000Y-138623113D01*
X192319151Y-138513880D01*
X192784698Y-138202811D01*
X193040000Y-137820725D01*
X193295302Y-138202811D01*
X193760849Y-138513880D01*
X194310000Y-138623113D01*
X194859151Y-138513880D01*
X195324698Y-138202811D01*
X195580000Y-137820725D01*
X195835302Y-138202811D01*
X196300849Y-138513880D01*
X196850000Y-138623113D01*
X197399151Y-138513880D01*
X197864698Y-138202811D01*
X198120000Y-137820725D01*
X198375302Y-138202811D01*
X198840849Y-138513880D01*
X199390000Y-138623113D01*
X199939151Y-138513880D01*
X200404698Y-138202811D01*
X200660000Y-137820725D01*
X200915302Y-138202811D01*
X201380849Y-138513880D01*
X201930000Y-138623113D01*
X202479151Y-138513880D01*
X202944698Y-138202811D01*
X203200000Y-137820725D01*
X203455302Y-138202811D01*
X203920849Y-138513880D01*
X204470000Y-138623113D01*
X205019151Y-138513880D01*
X205484698Y-138202811D01*
X205740000Y-137820725D01*
X205995302Y-138202811D01*
X206460849Y-138513880D01*
X207010000Y-138623113D01*
X207559151Y-138513880D01*
X208024698Y-138202811D01*
X208280000Y-137820725D01*
X208535302Y-138202811D01*
X209000849Y-138513880D01*
X209549380Y-138622990D01*
X206471185Y-141701185D01*
X206306004Y-141948395D01*
X206248000Y-142240000D01*
X206248000Y-143568341D01*
X205995302Y-143737189D01*
X205740000Y-144119275D01*
X205484698Y-143737189D01*
X205019151Y-143426120D01*
X204470000Y-143316887D01*
X204148474Y-143380843D01*
X201763016Y-140995386D01*
X201572428Y-140868039D01*
X201515806Y-140830205D01*
X201224201Y-140772201D01*
X183041714Y-140772201D01*
X180199696Y-137930184D01*
X180100639Y-137863996D01*
X179952486Y-137765003D01*
X179660881Y-137706999D01*
X178479119Y-137706999D01*
X178187514Y-137765003D01*
X177940303Y-137930184D01*
X177376195Y-138494293D01*
X177127378Y-138328039D01*
X176559093Y-138215000D01*
X176500907Y-138215000D01*
X175932622Y-138328039D01*
X175450853Y-138649946D01*
X175128946Y-139131715D01*
X175015907Y-139700000D01*
X175128946Y-140268285D01*
X175450853Y-140750054D01*
X175780026Y-140970000D01*
X175450853Y-141189946D01*
X175128946Y-141671715D01*
X175015907Y-142240000D01*
X175128946Y-142808285D01*
X175450853Y-143290054D01*
X175780026Y-143510000D01*
X175450853Y-143729946D01*
X175128946Y-144211715D01*
X175015907Y-144780000D01*
X175128946Y-145348285D01*
X175450853Y-145830054D01*
X175780026Y-146050000D01*
X175450853Y-146269946D01*
X175128946Y-146751715D01*
X175015907Y-147320000D01*
X175088321Y-147684049D01*
X174700000Y-148072370D01*
X174700000Y-134976890D01*
X176358524Y-134976890D01*
X176528355Y-135386924D01*
X176918642Y-135815183D01*
X177443108Y-136061486D01*
X177673000Y-135940819D01*
X177673000Y-134747000D01*
X177927000Y-134747000D01*
X177927000Y-135940819D01*
X178156892Y-136061486D01*
X178681358Y-135815183D01*
X179071645Y-135386924D01*
X179241476Y-134976890D01*
X179120155Y-134747000D01*
X177927000Y-134747000D01*
X177673000Y-134747000D01*
X176479845Y-134747000D01*
X176358524Y-134976890D01*
X174700000Y-134976890D01*
X174700000Y-131230000D01*
X176302560Y-131230000D01*
X176302560Y-132930000D01*
X176346838Y-133165317D01*
X176485910Y-133381441D01*
X176698110Y-133526431D01*
X176806107Y-133548301D01*
X176528355Y-133853076D01*
X176358524Y-134263110D01*
X176479845Y-134493000D01*
X177673000Y-134493000D01*
X177673000Y-134473000D01*
X177927000Y-134473000D01*
X177927000Y-134493000D01*
X179120155Y-134493000D01*
X179241476Y-134263110D01*
X179071645Y-133853076D01*
X178795499Y-133550063D01*
X178885317Y-133533162D01*
X179101441Y-133394090D01*
X179246431Y-133181890D01*
X179297440Y-132930000D01*
X179297440Y-131230000D01*
X179253162Y-130994683D01*
X179114090Y-130778559D01*
X178901890Y-130633569D01*
X178650000Y-130582560D01*
X176950000Y-130582560D01*
X176714683Y-130626838D01*
X176498559Y-130765910D01*
X176353569Y-130978110D01*
X176302560Y-131230000D01*
X174700000Y-131230000D01*
X174700000Y-127528172D01*
X175132538Y-127528172D01*
X175537709Y-128508761D01*
X176287293Y-129259655D01*
X177267173Y-129666536D01*
X178328172Y-129667462D01*
X179308761Y-129262291D01*
X180059655Y-128512707D01*
X180466536Y-127532827D01*
X180467462Y-126471828D01*
X180062291Y-125491239D01*
X179312707Y-124740345D01*
X178332827Y-124333464D01*
X177271828Y-124332538D01*
X176291239Y-124737709D01*
X175540345Y-125487293D01*
X175133464Y-126467173D01*
X175132538Y-127528172D01*
X174700000Y-127528172D01*
X174700000Y-123900000D01*
X200890375Y-123900000D01*
X200800303Y-123960184D01*
G36*
X211678186Y-123960183D02*
X211551185Y-124087185D01*
X211454048Y-124232560D01*
X211240000Y-124232560D01*
X211004683Y-124276838D01*
X210788559Y-124415910D01*
X210643569Y-124628110D01*
X210592560Y-124880000D01*
X210592560Y-126580000D01*
X210636838Y-126815317D01*
X210775910Y-127031441D01*
X210988110Y-127176431D01*
X211055541Y-127190086D01*
X211010853Y-127219946D01*
X210688946Y-127701715D01*
X210575907Y-128270000D01*
X210688946Y-128838285D01*
X210878506Y-129121982D01*
X210858999Y-129141488D01*
X210757694Y-129040184D01*
X210658637Y-128973996D01*
X210510484Y-128875003D01*
X210218879Y-128816999D01*
X209642735Y-128816999D01*
X209721476Y-128626890D01*
X209600155Y-128397000D01*
X208407000Y-128397000D01*
X208407000Y-128417000D01*
X208153000Y-128417000D01*
X208153000Y-128397000D01*
X208133000Y-128397000D01*
X208133000Y-128143000D01*
X208153000Y-128143000D01*
X208153000Y-125857000D01*
X208407000Y-125857000D01*
X208407000Y-128143000D01*
X209600155Y-128143000D01*
X209721476Y-127913110D01*
X209551645Y-127503076D01*
X209161358Y-127074817D01*
X209002046Y-127000000D01*
X209161358Y-126925183D01*
X209551645Y-126496924D01*
X209721476Y-126086890D01*
X209600155Y-125857000D01*
X208407000Y-125857000D01*
X208153000Y-125857000D01*
X208133000Y-125857000D01*
X208133000Y-125603000D01*
X208153000Y-125603000D01*
X208153000Y-124409181D01*
X208407000Y-124409181D01*
X208407000Y-125603000D01*
X209600155Y-125603000D01*
X209721476Y-125373110D01*
X209551645Y-124963076D01*
X209161358Y-124534817D01*
X208636892Y-124288514D01*
X208407000Y-124409181D01*
X208153000Y-124409181D01*
X207923108Y-124288514D01*
X207398642Y-124534817D01*
X207211192Y-124740504D01*
X207193162Y-124644683D01*
X207054090Y-124428559D01*
X206841890Y-124283569D01*
X206590000Y-124232560D01*
X204890000Y-124232560D01*
X204654683Y-124276838D01*
X204438559Y-124415910D01*
X204293569Y-124628110D01*
X204242560Y-124880000D01*
X204242560Y-125143047D01*
X203059696Y-123960184D01*
X203002556Y-123922004D01*
X202969625Y-123900000D01*
X211768256Y-123900000D01*
X211678186Y-123960183D01*
X211678186Y-123960183D01*
G37*
X211678186Y-123960183D02*
X211551185Y-124087185D01*
X211454048Y-124232560D01*
X211240000Y-124232560D01*
X211004683Y-124276838D01*
X210788559Y-124415910D01*
X210643569Y-124628110D01*
X210592560Y-124880000D01*
X210592560Y-126580000D01*
X210636838Y-126815317D01*
X210775910Y-127031441D01*
X210988110Y-127176431D01*
X211055541Y-127190086D01*
X211010853Y-127219946D01*
X210688946Y-127701715D01*
X210575907Y-128270000D01*
X210688946Y-128838285D01*
X210878506Y-129121982D01*
X210858999Y-129141488D01*
X210757694Y-129040184D01*
X210658637Y-128973996D01*
X210510484Y-128875003D01*
X210218879Y-128816999D01*
X209642735Y-128816999D01*
X209721476Y-128626890D01*
X209600155Y-128397000D01*
X208407000Y-128397000D01*
X208407000Y-128417000D01*
X208153000Y-128417000D01*
X208153000Y-128397000D01*
X208133000Y-128397000D01*
X208133000Y-128143000D01*
X208153000Y-128143000D01*
X208153000Y-125857000D01*
X208407000Y-125857000D01*
X208407000Y-128143000D01*
X209600155Y-128143000D01*
X209721476Y-127913110D01*
X209551645Y-127503076D01*
X209161358Y-127074817D01*
X209002046Y-127000000D01*
X209161358Y-126925183D01*
X209551645Y-126496924D01*
X209721476Y-126086890D01*
X209600155Y-125857000D01*
X208407000Y-125857000D01*
X208153000Y-125857000D01*
X208133000Y-125857000D01*
X208133000Y-125603000D01*
X208153000Y-125603000D01*
X208153000Y-124409181D01*
X208407000Y-124409181D01*
X208407000Y-125603000D01*
X209600155Y-125603000D01*
X209721476Y-125373110D01*
X209551645Y-124963076D01*
X209161358Y-124534817D01*
X208636892Y-124288514D01*
X208407000Y-124409181D01*
X208153000Y-124409181D01*
X207923108Y-124288514D01*
X207398642Y-124534817D01*
X207211192Y-124740504D01*
X207193162Y-124644683D01*
X207054090Y-124428559D01*
X206841890Y-124283569D01*
X206590000Y-124232560D01*
X204890000Y-124232560D01*
X204654683Y-124276838D01*
X204438559Y-124415910D01*
X204293569Y-124628110D01*
X204242560Y-124880000D01*
X204242560Y-125143047D01*
X203059696Y-123960184D01*
X203002556Y-123922004D01*
X202969625Y-123900000D01*
X211768256Y-123900000D01*
X211678186Y-123960183D01*
G36*
X230430000Y-168200000D02*
X174700000Y-168200000D01*
X174700000Y-165628172D01*
X175132538Y-165628172D01*
X175537709Y-166608761D01*
X176287293Y-167359655D01*
X177267173Y-167766536D01*
X178328172Y-167767462D01*
X179308761Y-167362291D01*
X180059655Y-166612707D01*
X180466536Y-165632827D01*
X180466751Y-165385750D01*
X183935000Y-165385750D01*
X183935000Y-166076309D01*
X184031673Y-166309698D01*
X184210301Y-166488327D01*
X184443690Y-166585000D01*
X185134250Y-166585000D01*
X185293000Y-166426250D01*
X185293000Y-165227000D01*
X184093750Y-165227000D01*
X183935000Y-165385750D01*
X180466751Y-165385750D01*
X180467462Y-164571828D01*
X180282296Y-164123691D01*
X183935000Y-164123691D01*
X183935000Y-164814250D01*
X184093750Y-164973000D01*
X185293000Y-164973000D01*
X185293000Y-163773750D01*
X185134250Y-163615000D01*
X184443690Y-163615000D01*
X184210301Y-163711673D01*
X184031673Y-163890302D01*
X183935000Y-164123691D01*
X180282296Y-164123691D01*
X180062291Y-163591239D01*
X179312707Y-162840345D01*
X178332827Y-162433464D01*
X177271828Y-162432538D01*
X176291239Y-162837709D01*
X175540345Y-163587293D01*
X175133464Y-164567173D01*
X175132538Y-165628172D01*
X174700000Y-165628172D01*
X174700000Y-159267946D01*
X175189880Y-159757826D01*
X175437090Y-159923007D01*
X175728695Y-159981011D01*
X180435226Y-159981010D01*
X180726831Y-159923006D01*
X180974041Y-159757825D01*
X188409816Y-152322050D01*
X188417199Y-152311001D01*
X188418717Y-152308729D01*
X188680849Y-152483880D01*
X189230000Y-152593113D01*
X189779151Y-152483880D01*
X190244698Y-152172811D01*
X190500000Y-151790725D01*
X190755302Y-152172811D01*
X190983249Y-152325121D01*
X186151185Y-157157185D01*
X186054048Y-157302560D01*
X185890000Y-157302560D01*
X185654683Y-157346838D01*
X185438559Y-157485910D01*
X185293569Y-157698110D01*
X185242560Y-157950000D01*
X185242560Y-159550000D01*
X185286838Y-159785317D01*
X185425910Y-160001441D01*
X185638110Y-160146431D01*
X185890000Y-160197440D01*
X187490000Y-160197440D01*
X187725317Y-160153162D01*
X187941441Y-160014090D01*
X188086431Y-159801890D01*
X188117815Y-159646911D01*
X188215302Y-159792811D01*
X188680849Y-160103880D01*
X189230000Y-160213113D01*
X189779151Y-160103880D01*
X190244698Y-159792811D01*
X190500000Y-159410725D01*
X190755302Y-159792811D01*
X191220849Y-160103880D01*
X191770000Y-160213113D01*
X192319151Y-160103880D01*
X192784698Y-159792811D01*
X193040000Y-159410725D01*
X193295302Y-159792811D01*
X193760849Y-160103880D01*
X194310000Y-160213113D01*
X194859151Y-160103880D01*
X195324698Y-159792811D01*
X195580000Y-159410725D01*
X195835302Y-159792811D01*
X196300849Y-160103880D01*
X196850000Y-160213113D01*
X197399151Y-160103880D01*
X197864698Y-159792811D01*
X198120000Y-159410725D01*
X198375302Y-159792811D01*
X198840849Y-160103880D01*
X199390000Y-160213113D01*
X199939151Y-160103880D01*
X200404698Y-159792811D01*
X200660000Y-159410725D01*
X200915302Y-159792811D01*
X201380849Y-160103880D01*
X201930000Y-160213113D01*
X202479151Y-160103880D01*
X202944698Y-159792811D01*
X203200000Y-159410725D01*
X203455302Y-159792811D01*
X203920849Y-160103880D01*
X204470000Y-160213113D01*
X205019151Y-160103880D01*
X205484698Y-159792811D01*
X205740000Y-159410725D01*
X205995302Y-159792811D01*
X206248000Y-159961659D01*
X206248000Y-163514369D01*
X206076455Y-163685914D01*
X206026691Y-163665250D01*
X205455813Y-163664752D01*
X205403852Y-163686222D01*
X205047814Y-163330184D01*
X204989448Y-163291185D01*
X204800604Y-163165003D01*
X204508999Y-163106999D01*
X191731001Y-163106999D01*
X191439396Y-163165003D01*
X191192185Y-163330184D01*
X190864049Y-163658321D01*
X190500000Y-163585907D01*
X189931715Y-163698946D01*
X189449946Y-164020853D01*
X189230000Y-164350026D01*
X189010054Y-164020853D01*
X188528285Y-163698946D01*
X187960000Y-163585907D01*
X187391715Y-163698946D01*
X186909946Y-164020853D01*
X186880597Y-164064777D01*
X186808327Y-163890302D01*
X186629699Y-163711673D01*
X186396310Y-163615000D01*
X185705750Y-163615000D01*
X185547000Y-163773750D01*
X185547000Y-164973000D01*
X185567000Y-164973000D01*
X185567000Y-165227000D01*
X185547000Y-165227000D01*
X185547000Y-166426250D01*
X185705750Y-166585000D01*
X186396310Y-166585000D01*
X186629699Y-166488327D01*
X186808327Y-166309698D01*
X186880597Y-166135223D01*
X186909946Y-166179147D01*
X187391715Y-166501054D01*
X187960000Y-166614093D01*
X188528285Y-166501054D01*
X189010054Y-166179147D01*
X189230000Y-165849974D01*
X189449946Y-166179147D01*
X189931715Y-166501054D01*
X190500000Y-166614093D01*
X191068285Y-166501054D01*
X191550054Y-166179147D01*
X191770000Y-165849974D01*
X191989946Y-166179147D01*
X192471715Y-166501054D01*
X193040000Y-166614093D01*
X193608285Y-166501054D01*
X194090054Y-166179147D01*
X194411961Y-165697378D01*
X194525000Y-165129093D01*
X194525000Y-165070907D01*
X194437497Y-164630999D01*
X204193369Y-164630999D01*
X204325914Y-164763544D01*
X204305250Y-164813309D01*
X204304752Y-165384187D01*
X204522757Y-165911800D01*
X204926077Y-166315824D01*
X205453309Y-166534750D01*
X206024187Y-166535248D01*
X206076148Y-166513778D01*
X206471184Y-166908815D01*
X206718395Y-167073996D01*
X207010000Y-167132000D01*
X217170000Y-167132000D01*
X217461605Y-167073996D01*
X217708815Y-166908815D01*
X218075951Y-166541679D01*
X218440000Y-166614093D01*
X219008285Y-166501054D01*
X219490054Y-166179147D01*
X219710000Y-165849974D01*
X219929946Y-166179147D01*
X220411715Y-166501054D01*
X220980000Y-166614093D01*
X221548285Y-166501054D01*
X222030054Y-166179147D01*
X222351961Y-165697378D01*
X222365726Y-165628172D01*
X224662538Y-165628172D01*
X225067709Y-166608761D01*
X225817293Y-167359655D01*
X226797173Y-167766536D01*
X227858172Y-167767462D01*
X228838761Y-167362291D01*
X229589655Y-166612707D01*
X229996536Y-165632827D01*
X229997462Y-164571828D01*
X229592291Y-163591239D01*
X228842707Y-162840345D01*
X227862827Y-162433464D01*
X226801828Y-162432538D01*
X225821239Y-162837709D01*
X225070345Y-163587293D01*
X224663464Y-164567173D01*
X224662538Y-165628172D01*
X222365726Y-165628172D01*
X222465000Y-165129093D01*
X222465000Y-165070907D01*
X222351961Y-164502622D01*
X222030054Y-164020853D01*
X221548285Y-163698946D01*
X220980000Y-163585907D01*
X220411715Y-163698946D01*
X219929946Y-164020853D01*
X219710000Y-164350026D01*
X219490054Y-164020853D01*
X219008285Y-163698946D01*
X218440000Y-163585907D01*
X217871715Y-163698946D01*
X217389946Y-164020853D01*
X217170000Y-164350026D01*
X216950054Y-164020853D01*
X216468285Y-163698946D01*
X215900000Y-163585907D01*
X215535951Y-163658321D01*
X215392000Y-163514370D01*
X215392000Y-159961659D01*
X215644698Y-159792811D01*
X215914986Y-159388297D01*
X216017611Y-159605134D01*
X216432577Y-159981041D01*
X216820961Y-160141904D01*
X217043000Y-160019915D01*
X217043000Y-158877000D01*
X217023000Y-158877000D01*
X217023000Y-158623000D01*
X217043000Y-158623000D01*
X217043000Y-157480085D01*
X216820961Y-157358096D01*
X216432577Y-157518959D01*
X216017611Y-157894866D01*
X215914986Y-158111703D01*
X215644698Y-157707189D01*
X215179151Y-157396120D01*
X214630000Y-157286887D01*
X214080849Y-157396120D01*
X213615302Y-157707189D01*
X213360000Y-158089275D01*
X213104698Y-157707189D01*
X212639151Y-157396120D01*
X212090000Y-157286887D01*
X211540849Y-157396120D01*
X211075302Y-157707189D01*
X210820000Y-158089275D01*
X210564698Y-157707189D01*
X210099151Y-157396120D01*
X209550000Y-157286887D01*
X209000849Y-157396120D01*
X208535302Y-157707189D01*
X208280000Y-158089275D01*
X208024698Y-157707189D01*
X207559151Y-157396120D01*
X207010620Y-157287010D01*
X207641938Y-156655692D01*
X217561990Y-156655692D01*
X217589001Y-156682703D01*
X217589001Y-157387073D01*
X217519039Y-157358096D01*
X217297000Y-157480085D01*
X217297000Y-158623000D01*
X217317000Y-158623000D01*
X217317000Y-158877000D01*
X217297000Y-158877000D01*
X217297000Y-160019915D01*
X217519039Y-160141904D01*
X217907423Y-159981041D01*
X218016615Y-159882127D01*
X218604304Y-160469816D01*
X218851514Y-160634997D01*
X219143119Y-160693001D01*
X227351080Y-160693001D01*
X227642685Y-160634997D01*
X227889895Y-160469816D01*
X229138816Y-159220896D01*
X229284672Y-159002606D01*
X229303996Y-158973686D01*
X229348263Y-158751143D01*
X229679147Y-158530054D01*
X230001054Y-158048285D01*
X230114093Y-157480000D01*
X230001054Y-156911715D01*
X229679147Y-156429946D01*
X229349974Y-156210000D01*
X229679147Y-155990054D01*
X230001054Y-155508285D01*
X230114093Y-154940000D01*
X230001054Y-154371715D01*
X229679147Y-153889946D01*
X229349974Y-153670000D01*
X229679147Y-153450054D01*
X230001054Y-152968285D01*
X230114093Y-152400000D01*
X230001054Y-151831715D01*
X229679147Y-151349946D01*
X229349974Y-151130000D01*
X229679147Y-150910054D01*
X230001054Y-150428285D01*
X230114093Y-149860000D01*
X230001054Y-149291715D01*
X229679147Y-148809946D01*
X229349974Y-148590000D01*
X229679147Y-148370054D01*
X230001054Y-147888285D01*
X230114093Y-147320000D01*
X230001054Y-146751715D01*
X229679147Y-146269946D01*
X229349974Y-146050000D01*
X229679147Y-145830054D01*
X230001054Y-145348285D01*
X230114093Y-144780000D01*
X230001054Y-144211715D01*
X229679147Y-143729946D01*
X229349974Y-143510000D01*
X229679147Y-143290054D01*
X230001054Y-142808285D01*
X230114093Y-142240000D01*
X230001054Y-141671715D01*
X229679147Y-141189946D01*
X229349974Y-140970000D01*
X229679147Y-140750054D01*
X230001054Y-140268285D01*
X230114093Y-139700000D01*
X230001054Y-139131715D01*
X229679147Y-138649946D01*
X229197378Y-138328039D01*
X228629093Y-138215000D01*
X228570907Y-138215000D01*
X228002622Y-138328039D01*
X227520853Y-138649946D01*
X227520029Y-138651179D01*
X227513162Y-138614683D01*
X227374090Y-138398559D01*
X227161890Y-138253569D01*
X226910000Y-138202560D01*
X225210000Y-138202560D01*
X224974683Y-138246838D01*
X224758559Y-138385910D01*
X224613569Y-138598110D01*
X224562560Y-138850000D01*
X224562560Y-140550000D01*
X224606838Y-140785317D01*
X224610100Y-140790387D01*
X221062642Y-144337846D01*
X221035767Y-144202736D01*
X220724698Y-143737189D01*
X220472000Y-143568341D01*
X220472000Y-140464642D01*
X220624622Y-140312286D01*
X220789313Y-139915668D01*
X220789687Y-139486216D01*
X220625689Y-139089311D01*
X220322286Y-138785378D01*
X219925668Y-138620687D01*
X219723083Y-138620511D01*
X220259151Y-138513880D01*
X220724698Y-138202811D01*
X221035767Y-137737264D01*
X221145000Y-137188113D01*
X221145000Y-137131887D01*
X221035767Y-136582736D01*
X220724698Y-136117189D01*
X220259151Y-135806120D01*
X219710000Y-135696887D01*
X219202000Y-135797935D01*
X219202000Y-134620000D01*
X225815907Y-134620000D01*
X225928946Y-135188285D01*
X226250853Y-135670054D01*
X226732622Y-135991961D01*
X227300907Y-136105000D01*
X227359093Y-136105000D01*
X227927378Y-135991961D01*
X228409147Y-135670054D01*
X228731054Y-135188285D01*
X228844093Y-134620000D01*
X228731054Y-134051715D01*
X228409147Y-133569946D01*
X228367548Y-133542150D01*
X228415317Y-133533162D01*
X228631441Y-133394090D01*
X228776431Y-133181890D01*
X228827440Y-132930000D01*
X228827440Y-131230000D01*
X228783162Y-130994683D01*
X228644090Y-130778559D01*
X228431890Y-130633569D01*
X228180000Y-130582560D01*
X226480000Y-130582560D01*
X226244683Y-130626838D01*
X226028559Y-130765910D01*
X225883569Y-130978110D01*
X225832560Y-131230000D01*
X225832560Y-132930000D01*
X225876838Y-133165317D01*
X226015910Y-133381441D01*
X226228110Y-133526431D01*
X226295541Y-133540086D01*
X226250853Y-133569946D01*
X225928946Y-134051715D01*
X225815907Y-134620000D01*
X219202000Y-134620000D01*
X219202000Y-132947512D01*
X220133805Y-132015707D01*
X220382622Y-132181961D01*
X220950907Y-132295000D01*
X221009093Y-132295000D01*
X221577378Y-132181961D01*
X222059147Y-131860054D01*
X222381054Y-131378285D01*
X222494093Y-130810000D01*
X222381054Y-130241715D01*
X222059147Y-129759946D01*
X221729974Y-129540000D01*
X222059147Y-129320054D01*
X222381054Y-128838285D01*
X222494093Y-128270000D01*
X222381054Y-127701715D01*
X222265097Y-127528172D01*
X224662538Y-127528172D01*
X225067709Y-128508761D01*
X225817293Y-129259655D01*
X226797173Y-129666536D01*
X227858172Y-129667462D01*
X228838761Y-129262291D01*
X229589655Y-128512707D01*
X229996536Y-127532827D01*
X229997462Y-126471828D01*
X229592291Y-125491239D01*
X228842707Y-124740345D01*
X227862827Y-124333464D01*
X226801828Y-124332538D01*
X225821239Y-124737709D01*
X225070345Y-125487293D01*
X224663464Y-126467173D01*
X224662538Y-127528172D01*
X222265097Y-127528172D01*
X222059147Y-127219946D01*
X221729974Y-127000000D01*
X222059147Y-126780054D01*
X222381054Y-126298285D01*
X222494093Y-125730000D01*
X222381054Y-125161715D01*
X222059147Y-124679946D01*
X221577378Y-124358039D01*
X221009093Y-124245000D01*
X220950907Y-124245000D01*
X220382622Y-124358039D01*
X219900853Y-124679946D01*
X219900029Y-124681179D01*
X219893162Y-124644683D01*
X219754090Y-124428559D01*
X219541890Y-124283569D01*
X219290000Y-124232560D01*
X217590000Y-124232560D01*
X217354683Y-124276838D01*
X217138559Y-124415910D01*
X217122721Y-124439090D01*
X216643814Y-123960184D01*
X216586674Y-123922004D01*
X216553743Y-123900000D01*
X230430000Y-123900000D01*
X230430000Y-168200000D01*
X230430000Y-168200000D01*
G37*
X230430000Y-168200000D02*
X174700000Y-168200000D01*
X174700000Y-165628172D01*
X175132538Y-165628172D01*
X175537709Y-166608761D01*
X176287293Y-167359655D01*
X177267173Y-167766536D01*
X178328172Y-167767462D01*
X179308761Y-167362291D01*
X180059655Y-166612707D01*
X180466536Y-165632827D01*
X180466751Y-165385750D01*
X183935000Y-165385750D01*
X183935000Y-166076309D01*
X184031673Y-166309698D01*
X184210301Y-166488327D01*
X184443690Y-166585000D01*
X185134250Y-166585000D01*
X185293000Y-166426250D01*
X185293000Y-165227000D01*
X184093750Y-165227000D01*
X183935000Y-165385750D01*
X180466751Y-165385750D01*
X180467462Y-164571828D01*
X180282296Y-164123691D01*
X183935000Y-164123691D01*
X183935000Y-164814250D01*
X184093750Y-164973000D01*
X185293000Y-164973000D01*
X185293000Y-163773750D01*
X185134250Y-163615000D01*
X184443690Y-163615000D01*
X184210301Y-163711673D01*
X184031673Y-163890302D01*
X183935000Y-164123691D01*
X180282296Y-164123691D01*
X180062291Y-163591239D01*
X179312707Y-162840345D01*
X178332827Y-162433464D01*
X177271828Y-162432538D01*
X176291239Y-162837709D01*
X175540345Y-163587293D01*
X175133464Y-164567173D01*
X175132538Y-165628172D01*
X174700000Y-165628172D01*
X174700000Y-159267946D01*
X175189880Y-159757826D01*
X175437090Y-159923007D01*
X175728695Y-159981011D01*
X180435226Y-159981010D01*
X180726831Y-159923006D01*
X180974041Y-159757825D01*
X188409816Y-152322050D01*
X188417199Y-152311001D01*
X188418717Y-152308729D01*
X188680849Y-152483880D01*
X189230000Y-152593113D01*
X189779151Y-152483880D01*
X190244698Y-152172811D01*
X190500000Y-151790725D01*
X190755302Y-152172811D01*
X190983249Y-152325121D01*
X186151185Y-157157185D01*
X186054048Y-157302560D01*
X185890000Y-157302560D01*
X185654683Y-157346838D01*
X185438559Y-157485910D01*
X185293569Y-157698110D01*
X185242560Y-157950000D01*
X185242560Y-159550000D01*
X185286838Y-159785317D01*
X185425910Y-160001441D01*
X185638110Y-160146431D01*
X185890000Y-160197440D01*
X187490000Y-160197440D01*
X187725317Y-160153162D01*
X187941441Y-160014090D01*
X188086431Y-159801890D01*
X188117815Y-159646911D01*
X188215302Y-159792811D01*
X188680849Y-160103880D01*
X189230000Y-160213113D01*
X189779151Y-160103880D01*
X190244698Y-159792811D01*
X190500000Y-159410725D01*
X190755302Y-159792811D01*
X191220849Y-160103880D01*
X191770000Y-160213113D01*
X192319151Y-160103880D01*
X192784698Y-159792811D01*
X193040000Y-159410725D01*
X193295302Y-159792811D01*
X193760849Y-160103880D01*
X194310000Y-160213113D01*
X194859151Y-160103880D01*
X195324698Y-159792811D01*
X195580000Y-159410725D01*
X195835302Y-159792811D01*
X196300849Y-160103880D01*
X196850000Y-160213113D01*
X197399151Y-160103880D01*
X197864698Y-159792811D01*
X198120000Y-159410725D01*
X198375302Y-159792811D01*
X198840849Y-160103880D01*
X199390000Y-160213113D01*
X199939151Y-160103880D01*
X200404698Y-159792811D01*
X200660000Y-159410725D01*
X200915302Y-159792811D01*
X201380849Y-160103880D01*
X201930000Y-160213113D01*
X202479151Y-160103880D01*
X202944698Y-159792811D01*
X203200000Y-159410725D01*
X203455302Y-159792811D01*
X203920849Y-160103880D01*
X204470000Y-160213113D01*
X205019151Y-160103880D01*
X205484698Y-159792811D01*
X205740000Y-159410725D01*
X205995302Y-159792811D01*
X206248000Y-159961659D01*
X206248000Y-163514369D01*
X206076455Y-163685914D01*
X206026691Y-163665250D01*
X205455813Y-163664752D01*
X205403852Y-163686222D01*
X205047814Y-163330184D01*
X204989448Y-163291185D01*
X204800604Y-163165003D01*
X204508999Y-163106999D01*
X191731001Y-163106999D01*
X191439396Y-163165003D01*
X191192185Y-163330184D01*
X190864049Y-163658321D01*
X190500000Y-163585907D01*
X189931715Y-163698946D01*
X189449946Y-164020853D01*
X189230000Y-164350026D01*
X189010054Y-164020853D01*
X188528285Y-163698946D01*
X187960000Y-163585907D01*
X187391715Y-163698946D01*
X186909946Y-164020853D01*
X186880597Y-164064777D01*
X186808327Y-163890302D01*
X186629699Y-163711673D01*
X186396310Y-163615000D01*
X185705750Y-163615000D01*
X185547000Y-163773750D01*
X185547000Y-164973000D01*
X185567000Y-164973000D01*
X185567000Y-165227000D01*
X185547000Y-165227000D01*
X185547000Y-166426250D01*
X185705750Y-166585000D01*
X186396310Y-166585000D01*
X186629699Y-166488327D01*
X186808327Y-166309698D01*
X186880597Y-166135223D01*
X186909946Y-166179147D01*
X187391715Y-166501054D01*
X187960000Y-166614093D01*
X188528285Y-166501054D01*
X189010054Y-166179147D01*
X189230000Y-165849974D01*
X189449946Y-166179147D01*
X189931715Y-166501054D01*
X190500000Y-166614093D01*
X191068285Y-166501054D01*
X191550054Y-166179147D01*
X191770000Y-165849974D01*
X191989946Y-166179147D01*
X192471715Y-166501054D01*
X193040000Y-166614093D01*
X193608285Y-166501054D01*
X194090054Y-166179147D01*
X194411961Y-165697378D01*
X194525000Y-165129093D01*
X194525000Y-165070907D01*
X194437497Y-164630999D01*
X204193369Y-164630999D01*
X204325914Y-164763544D01*
X204305250Y-164813309D01*
X204304752Y-165384187D01*
X204522757Y-165911800D01*
X204926077Y-166315824D01*
X205453309Y-166534750D01*
X206024187Y-166535248D01*
X206076148Y-166513778D01*
X206471184Y-166908815D01*
X206718395Y-167073996D01*
X207010000Y-167132000D01*
X217170000Y-167132000D01*
X217461605Y-167073996D01*
X217708815Y-166908815D01*
X218075951Y-166541679D01*
X218440000Y-166614093D01*
X219008285Y-166501054D01*
X219490054Y-166179147D01*
X219710000Y-165849974D01*
X219929946Y-166179147D01*
X220411715Y-166501054D01*
X220980000Y-166614093D01*
X221548285Y-166501054D01*
X222030054Y-166179147D01*
X222351961Y-165697378D01*
X222365726Y-165628172D01*
X224662538Y-165628172D01*
X225067709Y-166608761D01*
X225817293Y-167359655D01*
X226797173Y-167766536D01*
X227858172Y-167767462D01*
X228838761Y-167362291D01*
X229589655Y-166612707D01*
X229996536Y-165632827D01*
X229997462Y-164571828D01*
X229592291Y-163591239D01*
X228842707Y-162840345D01*
X227862827Y-162433464D01*
X226801828Y-162432538D01*
X225821239Y-162837709D01*
X225070345Y-163587293D01*
X224663464Y-164567173D01*
X224662538Y-165628172D01*
X222365726Y-165628172D01*
X222465000Y-165129093D01*
X222465000Y-165070907D01*
X222351961Y-164502622D01*
X222030054Y-164020853D01*
X221548285Y-163698946D01*
X220980000Y-163585907D01*
X220411715Y-163698946D01*
X219929946Y-164020853D01*
X219710000Y-164350026D01*
X219490054Y-164020853D01*
X219008285Y-163698946D01*
X218440000Y-163585907D01*
X217871715Y-163698946D01*
X217389946Y-164020853D01*
X217170000Y-164350026D01*
X216950054Y-164020853D01*
X216468285Y-163698946D01*
X215900000Y-163585907D01*
X215535951Y-163658321D01*
X215392000Y-163514370D01*
X215392000Y-159961659D01*
X215644698Y-159792811D01*
X215914986Y-159388297D01*
X216017611Y-159605134D01*
X216432577Y-159981041D01*
X216820961Y-160141904D01*
X217043000Y-160019915D01*
X217043000Y-158877000D01*
X217023000Y-158877000D01*
X217023000Y-158623000D01*
X217043000Y-158623000D01*
X217043000Y-157480085D01*
X216820961Y-157358096D01*
X216432577Y-157518959D01*
X216017611Y-157894866D01*
X215914986Y-158111703D01*
X215644698Y-157707189D01*
X215179151Y-157396120D01*
X214630000Y-157286887D01*
X214080849Y-157396120D01*
X213615302Y-157707189D01*
X213360000Y-158089275D01*
X213104698Y-157707189D01*
X212639151Y-157396120D01*
X212090000Y-157286887D01*
X211540849Y-157396120D01*
X211075302Y-157707189D01*
X210820000Y-158089275D01*
X210564698Y-157707189D01*
X210099151Y-157396120D01*
X209550000Y-157286887D01*
X209000849Y-157396120D01*
X208535302Y-157707189D01*
X208280000Y-158089275D01*
X208024698Y-157707189D01*
X207559151Y-157396120D01*
X207010620Y-157287010D01*
X207641938Y-156655692D01*
X217561990Y-156655692D01*
X217589001Y-156682703D01*
X217589001Y-157387073D01*
X217519039Y-157358096D01*
X217297000Y-157480085D01*
X217297000Y-158623000D01*
X217317000Y-158623000D01*
X217317000Y-158877000D01*
X217297000Y-158877000D01*
X217297000Y-160019915D01*
X217519039Y-160141904D01*
X217907423Y-159981041D01*
X218016615Y-159882127D01*
X218604304Y-160469816D01*
X218851514Y-160634997D01*
X219143119Y-160693001D01*
X227351080Y-160693001D01*
X227642685Y-160634997D01*
X227889895Y-160469816D01*
X229138816Y-159220896D01*
X229284672Y-159002606D01*
X229303996Y-158973686D01*
X229348263Y-158751143D01*
X229679147Y-158530054D01*
X230001054Y-158048285D01*
X230114093Y-157480000D01*
X230001054Y-156911715D01*
X229679147Y-156429946D01*
X229349974Y-156210000D01*
X229679147Y-155990054D01*
X230001054Y-155508285D01*
X230114093Y-154940000D01*
X230001054Y-154371715D01*
X229679147Y-153889946D01*
X229349974Y-153670000D01*
X229679147Y-153450054D01*
X230001054Y-152968285D01*
X230114093Y-152400000D01*
X230001054Y-151831715D01*
X229679147Y-151349946D01*
X229349974Y-151130000D01*
X229679147Y-150910054D01*
X230001054Y-150428285D01*
X230114093Y-149860000D01*
X230001054Y-149291715D01*
X229679147Y-148809946D01*
X229349974Y-148590000D01*
X229679147Y-148370054D01*
X230001054Y-147888285D01*
X230114093Y-147320000D01*
X230001054Y-146751715D01*
X229679147Y-146269946D01*
X229349974Y-146050000D01*
X229679147Y-145830054D01*
X230001054Y-145348285D01*
X230114093Y-144780000D01*
X230001054Y-144211715D01*
X229679147Y-143729946D01*
X229349974Y-143510000D01*
X229679147Y-143290054D01*
X230001054Y-142808285D01*
X230114093Y-142240000D01*
X230001054Y-141671715D01*
X229679147Y-141189946D01*
X229349974Y-140970000D01*
X229679147Y-140750054D01*
X230001054Y-140268285D01*
X230114093Y-139700000D01*
X230001054Y-139131715D01*
X229679147Y-138649946D01*
X229197378Y-138328039D01*
X228629093Y-138215000D01*
X228570907Y-138215000D01*
X228002622Y-138328039D01*
X227520853Y-138649946D01*
X227520029Y-138651179D01*
X227513162Y-138614683D01*
X227374090Y-138398559D01*
X227161890Y-138253569D01*
X226910000Y-138202560D01*
X225210000Y-138202560D01*
X224974683Y-138246838D01*
X224758559Y-138385910D01*
X224613569Y-138598110D01*
X224562560Y-138850000D01*
X224562560Y-140550000D01*
X224606838Y-140785317D01*
X224610100Y-140790387D01*
X221062642Y-144337846D01*
X221035767Y-144202736D01*
X220724698Y-143737189D01*
X220472000Y-143568341D01*
X220472000Y-140464642D01*
X220624622Y-140312286D01*
X220789313Y-139915668D01*
X220789687Y-139486216D01*
X220625689Y-139089311D01*
X220322286Y-138785378D01*
X219925668Y-138620687D01*
X219723083Y-138620511D01*
X220259151Y-138513880D01*
X220724698Y-138202811D01*
X221035767Y-137737264D01*
X221145000Y-137188113D01*
X221145000Y-137131887D01*
X221035767Y-136582736D01*
X220724698Y-136117189D01*
X220259151Y-135806120D01*
X219710000Y-135696887D01*
X219202000Y-135797935D01*
X219202000Y-134620000D01*
X225815907Y-134620000D01*
X225928946Y-135188285D01*
X226250853Y-135670054D01*
X226732622Y-135991961D01*
X227300907Y-136105000D01*
X227359093Y-136105000D01*
X227927378Y-135991961D01*
X228409147Y-135670054D01*
X228731054Y-135188285D01*
X228844093Y-134620000D01*
X228731054Y-134051715D01*
X228409147Y-133569946D01*
X228367548Y-133542150D01*
X228415317Y-133533162D01*
X228631441Y-133394090D01*
X228776431Y-133181890D01*
X228827440Y-132930000D01*
X228827440Y-131230000D01*
X228783162Y-130994683D01*
X228644090Y-130778559D01*
X228431890Y-130633569D01*
X228180000Y-130582560D01*
X226480000Y-130582560D01*
X226244683Y-130626838D01*
X226028559Y-130765910D01*
X225883569Y-130978110D01*
X225832560Y-131230000D01*
X225832560Y-132930000D01*
X225876838Y-133165317D01*
X226015910Y-133381441D01*
X226228110Y-133526431D01*
X226295541Y-133540086D01*
X226250853Y-133569946D01*
X225928946Y-134051715D01*
X225815907Y-134620000D01*
X219202000Y-134620000D01*
X219202000Y-132947512D01*
X220133805Y-132015707D01*
X220382622Y-132181961D01*
X220950907Y-132295000D01*
X221009093Y-132295000D01*
X221577378Y-132181961D01*
X222059147Y-131860054D01*
X222381054Y-131378285D01*
X222494093Y-130810000D01*
X222381054Y-130241715D01*
X222059147Y-129759946D01*
X221729974Y-129540000D01*
X222059147Y-129320054D01*
X222381054Y-128838285D01*
X222494093Y-128270000D01*
X222381054Y-127701715D01*
X222265097Y-127528172D01*
X224662538Y-127528172D01*
X225067709Y-128508761D01*
X225817293Y-129259655D01*
X226797173Y-129666536D01*
X227858172Y-129667462D01*
X228838761Y-129262291D01*
X229589655Y-128512707D01*
X229996536Y-127532827D01*
X229997462Y-126471828D01*
X229592291Y-125491239D01*
X228842707Y-124740345D01*
X227862827Y-124333464D01*
X226801828Y-124332538D01*
X225821239Y-124737709D01*
X225070345Y-125487293D01*
X224663464Y-126467173D01*
X224662538Y-127528172D01*
X222265097Y-127528172D01*
X222059147Y-127219946D01*
X221729974Y-127000000D01*
X222059147Y-126780054D01*
X222381054Y-126298285D01*
X222494093Y-125730000D01*
X222381054Y-125161715D01*
X222059147Y-124679946D01*
X221577378Y-124358039D01*
X221009093Y-124245000D01*
X220950907Y-124245000D01*
X220382622Y-124358039D01*
X219900853Y-124679946D01*
X219900029Y-124681179D01*
X219893162Y-124644683D01*
X219754090Y-124428559D01*
X219541890Y-124283569D01*
X219290000Y-124232560D01*
X217590000Y-124232560D01*
X217354683Y-124276838D01*
X217138559Y-124415910D01*
X217122721Y-124439090D01*
X216643814Y-123960184D01*
X216586674Y-123922004D01*
X216553743Y-123900000D01*
X230430000Y-123900000D01*
X230430000Y-168200000D01*
G36*
X213615302Y-159792811D02*
X213868000Y-159961659D01*
X213868000Y-163615000D01*
X213645750Y-163615000D01*
X213487000Y-163773750D01*
X213487000Y-164973000D01*
X213507000Y-164973000D01*
X213507000Y-165227000D01*
X213487000Y-165227000D01*
X213487000Y-165247000D01*
X213233000Y-165247000D01*
X213233000Y-165227000D01*
X212033750Y-165227000D01*
X211875000Y-165385750D01*
X211875000Y-165608000D01*
X209582854Y-165608000D01*
X209674750Y-165386691D01*
X209675248Y-164815813D01*
X209653778Y-164763852D01*
X210088816Y-164328815D01*
X210225875Y-164123691D01*
X211875000Y-164123691D01*
X211875000Y-164814250D01*
X212033750Y-164973000D01*
X213233000Y-164973000D01*
X213233000Y-163773750D01*
X213074250Y-163615000D01*
X212383690Y-163615000D01*
X212150301Y-163711673D01*
X211971673Y-163890302D01*
X211875000Y-164123691D01*
X210225875Y-164123691D01*
X210253996Y-164081605D01*
X210312000Y-163790000D01*
X210312000Y-159961659D01*
X210564698Y-159792811D01*
X210820000Y-159410725D01*
X211075302Y-159792811D01*
X211540849Y-160103880D01*
X212090000Y-160213113D01*
X212639151Y-160103880D01*
X213104698Y-159792811D01*
X213360000Y-159410725D01*
X213615302Y-159792811D01*
X213615302Y-159792811D01*
G37*
X213615302Y-159792811D02*
X213868000Y-159961659D01*
X213868000Y-163615000D01*
X213645750Y-163615000D01*
X213487000Y-163773750D01*
X213487000Y-164973000D01*
X213507000Y-164973000D01*
X213507000Y-165227000D01*
X213487000Y-165227000D01*
X213487000Y-165247000D01*
X213233000Y-165247000D01*
X213233000Y-165227000D01*
X212033750Y-165227000D01*
X211875000Y-165385750D01*
X211875000Y-165608000D01*
X209582854Y-165608000D01*
X209674750Y-165386691D01*
X209675248Y-164815813D01*
X209653778Y-164763852D01*
X210088816Y-164328815D01*
X210225875Y-164123691D01*
X211875000Y-164123691D01*
X211875000Y-164814250D01*
X212033750Y-164973000D01*
X213233000Y-164973000D01*
X213233000Y-163773750D01*
X213074250Y-163615000D01*
X212383690Y-163615000D01*
X212150301Y-163711673D01*
X211971673Y-163890302D01*
X211875000Y-164123691D01*
X210225875Y-164123691D01*
X210253996Y-164081605D01*
X210312000Y-163790000D01*
X210312000Y-159961659D01*
X210564698Y-159792811D01*
X210820000Y-159410725D01*
X211075302Y-159792811D01*
X211540849Y-160103880D01*
X212090000Y-160213113D01*
X212639151Y-160103880D01*
X213104698Y-159792811D01*
X213360000Y-159410725D01*
X213615302Y-159792811D01*
G36*
X217678000Y-143453935D02*
X217519039Y-143388096D01*
X217297000Y-143510085D01*
X217297000Y-144653000D01*
X217317000Y-144653000D01*
X217317000Y-144907000D01*
X217297000Y-144907000D01*
X217297000Y-146049915D01*
X217519039Y-146171904D01*
X217678000Y-146106065D01*
X217678000Y-149767935D01*
X217170000Y-149666887D01*
X216848473Y-149730843D01*
X216662000Y-149544370D01*
X216662000Y-146106065D01*
X216820961Y-146171904D01*
X217043000Y-146049915D01*
X217043000Y-144907000D01*
X217023000Y-144907000D01*
X217023000Y-144653000D01*
X217043000Y-144653000D01*
X217043000Y-143510085D01*
X216820961Y-143388096D01*
X216662000Y-143453935D01*
X216662000Y-138522065D01*
X217170000Y-138623113D01*
X217678000Y-138522065D01*
X217678000Y-143453935D01*
X217678000Y-143453935D01*
G37*
X217678000Y-143453935D02*
X217519039Y-143388096D01*
X217297000Y-143510085D01*
X217297000Y-144653000D01*
X217317000Y-144653000D01*
X217317000Y-144907000D01*
X217297000Y-144907000D01*
X217297000Y-146049915D01*
X217519039Y-146171904D01*
X217678000Y-146106065D01*
X217678000Y-149767935D01*
X217170000Y-149666887D01*
X216848473Y-149730843D01*
X216662000Y-149544370D01*
X216662000Y-146106065D01*
X216820961Y-146171904D01*
X217043000Y-146049915D01*
X217043000Y-144907000D01*
X217023000Y-144907000D01*
X217023000Y-144653000D01*
X217043000Y-144653000D01*
X217043000Y-143510085D01*
X216820961Y-143388096D01*
X216662000Y-143453935D01*
X216662000Y-138522065D01*
X217170000Y-138623113D01*
X217678000Y-138522065D01*
X217678000Y-143453935D01*
M02*
