# Blender v2.69 (sub 0) OBJ File: 'kernel.blend'
# www.blender.org
o thread-a.001
v 1.000000 1.000000 -1.200000
v 1.000000 1.141409 -1.141409
v 1.000000 1.200000 -1.000000
v 1.000000 1.141409 -0.858591
v 1.000000 1.000000 -0.800000
v 1.000000 0.858591 -0.858591
v 1.000000 0.800000 -1.000000
v 1.000000 0.858591 -1.141409
v 0.639885 1.000000 -1.112097
v 0.661293 1.141409 -1.057557
v 0.712963 1.200000 -0.925926
v 0.764633 1.141409 -0.794294
v 0.786041 1.000000 -0.739755
v 0.764633 0.858591 -0.794294
v 0.712963 0.800000 -0.925926
v 0.661293 0.858591 -1.057557
v 0.268236 1.000000 -0.912696
v 0.298157 1.141409 -0.862321
v 0.370370 1.200000 -0.740741
v 0.442584 1.141409 -0.619160
v 0.472504 1.000000 -0.568785
v 0.442584 0.858591 -0.619160
v 0.370370 0.800000 -0.740741
v 0.298157 0.858591 -0.862321
v -0.108998 1.000000 -0.667689
v -0.077066 1.141409 -0.618564
v 0.000000 1.200000 -0.500000
v 0.077067 1.141409 -0.381436
v 0.108998 1.000000 -0.332311
v 0.077067 0.858591 -0.381436
v 0.000000 0.800000 -0.500000
v -0.077066 0.858591 -0.618564
v -0.472504 1.000000 -0.431215
v -0.442584 1.141409 -0.380840
v -0.370370 1.200000 -0.259259
v -0.298157 1.141409 -0.137679
v -0.268236 1.000000 -0.087304
v -0.298157 0.858591 -0.137679
v -0.370370 0.800000 -0.259259
v -0.442584 0.858591 -0.380840
v -0.786041 1.000000 -0.260245
v -0.764633 1.141409 -0.205705
v -0.712963 1.200000 -0.074074
v -0.661293 1.141409 0.057558
v -0.639885 1.000000 0.112097
v -0.661293 0.858591 0.057558
v -0.712963 0.800000 -0.074074
v -0.764633 0.858591 -0.205705
v -1.000000 1.000000 -0.200000
v -1.000000 1.141409 -0.141409
v -1.000000 1.200000 0.000000
v -1.000000 1.141409 0.141409
v -1.000000 1.000000 0.200000
v -1.000000 0.858591 0.141409
v -1.000000 0.800000 -0.000000
v -1.000000 0.858591 -0.141409
vn 0.239457 0.000000 0.970907
vn 0.358318 0.000000 0.933561
vn 0.259194 0.691916 0.673788
vn 0.179954 -0.668540 0.721575
vn 0.259194 -0.691916 0.673788
vn 0.014519 -0.997926 0.062720
vn 0.010071 -0.999512 0.028596
vn -0.182237 -0.729738 -0.658993
vn -0.257637 -0.720969 -0.643269
vn -0.271033 -0.000000 -0.962570
vn -0.375164 0.000000 -0.926939
vn -0.182237 0.729738 -0.658993
vn -0.257637 0.720969 -0.643269
vn 0.014518 0.997926 0.062719
vn 0.010071 0.999512 0.028596
vn 0.179954 0.668540 0.721575
vn 0.509201 0.000000 0.860622
vn 0.362774 0.702017 0.612812
vn 0.362774 -0.702017 0.612812
vn 0.004913 -0.999939 0.008698
vn -0.359325 -0.711814 -0.603442
vn -0.512040 0.000000 -0.858943
vn -0.359325 0.711814 -0.603442
vn 0.004913 0.999939 0.008698
vn 0.544939 0.000000 0.838435
vn 0.385357 0.707053 0.592914
vn 0.385357 -0.707053 0.592914
vn 0.000000 -1.000000 0.000000
vn -0.385357 -0.707053 -0.592914
vn -0.544939 0.000000 -0.838435
vn -0.385357 0.707053 -0.592914
vn 0.000000 1.000000 0.000000
vn 0.512040 0.000000 0.858943
vn 0.359325 0.711814 0.603442
vn 0.359325 -0.711814 0.603442
vn -0.004913 -0.999939 -0.008698
vn -0.362774 -0.702017 -0.612812
vn -0.509201 0.000000 -0.860622
vn -0.362774 0.702017 -0.612812
vn -0.004913 0.999939 -0.008698
vn 0.375164 0.000000 0.926939
vn 0.257637 0.720969 0.643269
vn 0.257637 -0.720969 0.643269
vn -0.010071 -0.999512 -0.028596
vn -0.259194 -0.691916 -0.673788
vn -0.358318 0.000000 -0.933561
vn -0.259194 0.691916 -0.673788
vn -0.010071 0.999512 -0.028596
vn 0.271032 0.000000 0.962570
vn 0.182236 0.729738 0.658994
vn 0.182236 -0.729738 0.658993
vn -0.014519 -0.997926 -0.062719
vn -0.179953 -0.668540 -0.721576
vn -0.239456 0.000000 -0.970907
vn -0.179953 0.668540 -0.721575
vn -0.014519 0.997926 -0.062719
s 1
f 1//1 9//2 16//3
f 2//4 10//5 1//1
f 3//6 11//7 2//4
f 4//8 12//9 3//6
f 5//10 13//11 4//8
f 6//12 14//13 13//11
f 7//14 15//15 14//13
f 8//16 16//3 15//15
f 9//2 17//17 24//18
f 10//5 18//19 9//2
f 11//7 19//20 10//5
f 12//9 20//21 11//7
f 13//11 21//22 12//9
f 14//13 22//23 21//22
f 15//15 23//24 22//23
f 16//3 24//18 23//24
f 17//17 25//25 32//26
f 18//19 26//27 17//17
f 19//20 27//28 18//19
f 20//21 28//29 19//20
f 21//22 29//30 20//21
f 22//23 30//31 29//30
f 23//24 31//32 30//31
f 24//18 32//26 31//32
f 25//25 33//33 40//34
f 26//27 34//35 25//25
f 27//28 35//36 26//27
f 28//29 36//37 27//28
f 29//30 37//38 28//29
f 30//31 38//39 37//38
f 31//32 39//40 38//39
f 32//26 40//34 39//40
f 33//33 41//41 48//42
f 34//35 42//43 33//33
f 35//36 43//44 34//35
f 36//37 44//45 35//36
f 37//38 45//46 36//37
f 38//39 46//47 45//46
f 39//40 47//48 46//47
f 40//34 48//42 47//48
f 41//41 49//49 56//50
f 42//43 50//51 41//41
f 43//44 51//52 42//43
f 44//45 52//53 43//44
f 45//46 53//54 44//45
f 46//47 54//55 53//54
f 47//48 55//56 54//55
f 48//42 56//50 55//56
f 8//16 1//1 16//3
f 10//5 9//2 1//1
f 11//7 10//5 2//4
f 12//9 11//7 3//6
f 13//11 12//9 4//8
f 5//10 6//12 13//11
f 6//12 7//14 14//13
f 7//14 8//16 15//15
f 16//3 9//2 24//18
f 18//19 17//17 9//2
f 19//20 18//19 10//5
f 20//21 19//20 11//7
f 21//22 20//21 12//9
f 13//11 14//13 21//22
f 14//13 15//15 22//23
f 15//15 16//3 23//24
f 24//18 17//17 32//26
f 26//27 25//25 17//17
f 27//28 26//27 18//19
f 28//29 27//28 19//20
f 29//30 28//29 20//21
f 21//22 22//23 29//30
f 22//23 23//24 30//31
f 23//24 24//18 31//32
f 32//26 25//25 40//34
f 34//35 33//33 25//25
f 35//36 34//35 26//27
f 36//37 35//36 27//28
f 37//38 36//37 28//29
f 29//30 30//31 37//38
f 30//31 31//32 38//39
f 31//32 32//26 39//40
f 40//34 33//33 48//42
f 42//43 41//41 33//33
f 43//44 42//43 34//35
f 44//45 43//44 35//36
f 45//46 44//45 36//37
f 37//38 38//39 45//46
f 38//39 39//40 46//47
f 39//40 40//34 47//48
f 48//42 41//41 56//50
f 50//51 49//49 41//41
f 51//52 50//51 42//43
f 52//53 51//52 43//44
f 53//54 52//53 44//45
f 45//46 46//47 53//54
f 46//47 47//48 54//55
f 47//48 48//42 55//56
