# Blender v2.69 (sub 0) OBJ File: 'kernel.blend'
# www.blender.org
o thread-c_BezierCurve.002
v -1.000000 0.000000 -0.200000
v -1.000000 0.141409 -0.141409
v -1.000000 0.200000 0.000000
v -1.000000 0.141409 0.141409
v -1.000000 -0.000000 0.200000
v -1.000000 -0.141409 0.141409
v -1.000000 -0.200000 -0.000000
v -1.000000 -0.141409 -0.141409
v -0.786041 0.000000 -0.260245
v -0.764633 0.141409 -0.205706
v -0.712963 0.200000 -0.074074
v -0.661293 0.141409 0.057557
v -0.639885 -0.000000 0.112097
v -0.661293 -0.141409 0.057557
v -0.712963 -0.200000 -0.074074
v -0.764633 -0.141409 -0.205706
v -0.472504 0.000000 -0.431215
v -0.442584 0.141409 -0.380840
v -0.370370 0.200000 -0.259259
v -0.298157 0.141409 -0.137679
v -0.268236 -0.000000 -0.087304
v -0.298157 -0.141409 -0.137679
v -0.370370 -0.200000 -0.259259
v -0.442584 -0.141409 -0.380840
v -0.108998 0.000000 -0.667689
v -0.077067 0.141409 -0.618564
v -0.000000 0.200000 -0.500000
v 0.077066 0.141409 -0.381436
v 0.108998 -0.000000 -0.332311
v 0.077066 -0.141409 -0.381436
v -0.000000 -0.200000 -0.500000
v -0.077067 -0.141409 -0.618564
v 0.268236 0.000000 -0.912696
v 0.298157 0.141409 -0.862321
v 0.370370 0.200000 -0.740741
v 0.442584 0.141409 -0.619160
v 0.472504 -0.000000 -0.568785
v 0.442584 -0.141409 -0.619160
v 0.370370 -0.200000 -0.740741
v 0.298157 -0.141409 -0.862321
v 0.639885 0.000000 -1.112097
v 0.661293 0.141409 -1.057558
v 0.712963 0.200000 -0.925926
v 0.764633 0.141409 -0.794295
v 0.786041 -0.000000 -0.739755
v 0.764633 -0.141409 -0.794295
v 0.712963 -0.200000 -0.925926
v 0.661293 -0.141409 -1.057558
v 1.000000 0.000000 -1.200000
v 1.000000 0.141409 -1.141409
v 1.000000 0.200000 -1.000000
v 1.000000 0.141409 -0.858591
v 1.000000 -0.000000 -0.800000
v 1.000000 -0.141409 -0.858591
v 1.000000 -0.200000 -1.000000
v 1.000000 -0.141409 -1.141409
vn -0.271033 0.000000 -0.962570
vn -0.375164 0.000000 -0.926939
vn -0.182237 -0.729738 -0.658994
vn -0.182237 0.729738 -0.658994
vn -0.257637 0.720969 -0.643269
vn 0.014519 0.997926 0.062719
vn 0.010071 0.999512 0.028596
vn 0.179953 0.668540 0.721576
vn 0.259194 0.691916 0.673788
vn 0.239457 -0.000000 0.970907
vn 0.358318 0.000000 0.933561
vn 0.179953 -0.668540 0.721575
vn 0.259194 -0.691916 0.673788
vn 0.014519 -0.997926 0.062719
vn 0.010071 -0.999512 0.028596
vn -0.257637 -0.720969 -0.643269
vn -0.512040 0.000000 -0.858943
vn -0.359325 0.711814 -0.603442
vn 0.004913 0.999939 0.008698
vn 0.362774 0.702017 0.612812
vn 0.509201 0.000000 0.860622
vn 0.362774 -0.702017 0.612812
vn 0.004913 -0.999939 0.008698
vn -0.359325 -0.711814 -0.603442
vn -0.544939 0.000000 -0.838435
vn -0.385357 0.707053 -0.592914
vn 0.000000 1.000000 0.000000
vn 0.385357 0.707053 0.592914
vn 0.544939 0.000000 0.838435
vn 0.385357 -0.707053 0.592914
vn 0.000000 -1.000000 0.000000
vn -0.385357 -0.707053 -0.592914
vn -0.509201 0.000000 -0.860622
vn -0.362774 0.702017 -0.612812
vn -0.004913 0.999939 -0.008698
vn 0.359325 0.711814 0.603442
vn 0.512040 0.000000 0.858943
vn 0.359325 -0.711814 0.603442
vn -0.004913 -0.999939 -0.008698
vn -0.362774 -0.702017 -0.612812
vn -0.358318 0.000000 -0.933561
vn -0.259194 0.691916 -0.673788
vn -0.010071 0.999512 -0.028596
vn 0.257637 0.720969 0.643269
vn 0.375164 0.000000 0.926939
vn 0.257637 -0.720969 0.643269
vn -0.010071 -0.999512 -0.028596
vn -0.259194 -0.691916 -0.673788
vn -0.239457 -0.000000 -0.970907
vn -0.179953 0.668540 -0.721575
vn -0.014518 0.997926 -0.062719
vn 0.182236 0.729738 0.658994
vn 0.271032 -0.000000 0.962570
vn 0.182236 -0.729738 0.658994
vn -0.014519 -0.997926 -0.062719
vn -0.179953 -0.668540 -0.721575
s 1
f 1//1 9//2 8//3
f 2//4 10//5 9//2
f 3//6 11//7 10//5
f 4//8 12//9 11//7
f 5//10 13//11 12//9
f 6//12 14//13 5//10
f 7//14 15//15 6//12
f 8//3 16//16 7//14
f 9//2 17//17 16//16
f 10//5 18//18 17//17
f 11//7 19//19 18//18
f 12//9 20//20 19//19
f 13//11 21//21 20//20
f 14//13 22//22 13//11
f 15//15 23//23 14//13
f 16//16 24//24 15//15
f 17//17 25//25 24//24
f 18//18 26//26 25//25
f 19//19 27//27 26//26
f 20//20 28//28 27//27
f 21//21 29//29 28//28
f 22//22 30//30 21//21
f 23//23 31//31 22//22
f 24//24 32//32 23//23
f 25//25 33//33 32//32
f 26//26 34//34 33//33
f 27//27 35//35 34//34
f 28//28 36//36 35//35
f 29//29 37//37 36//36
f 30//30 38//38 29//29
f 31//31 39//39 30//30
f 32//32 40//40 31//31
f 33//33 41//41 40//40
f 34//34 42//42 41//41
f 35//35 43//43 42//42
f 36//36 44//44 43//43
f 37//37 45//45 44//44
f 38//38 46//46 37//37
f 39//39 47//47 38//38
f 40//40 48//48 39//39
f 41//41 49//49 48//48
f 42//42 50//50 49//49
f 43//43 51//51 50//50
f 44//44 52//52 51//51
f 45//45 53//53 52//52
f 46//46 54//54 45//45
f 47//47 55//55 46//46
f 48//48 56//56 47//47
f 9//2 16//16 8//3
f 1//1 2//4 9//2
f 2//4 3//6 10//5
f 3//6 4//8 11//7
f 4//8 5//10 12//9
f 14//13 13//11 5//10
f 15//15 14//13 6//12
f 16//16 15//15 7//14
f 17//17 24//24 16//16
f 9//2 10//5 17//17
f 10//5 11//7 18//18
f 11//7 12//9 19//19
f 12//9 13//11 20//20
f 22//22 21//21 13//11
f 23//23 22//22 14//13
f 24//24 23//23 15//15
f 25//25 32//32 24//24
f 17//17 18//18 25//25
f 18//18 19//19 26//26
f 19//19 20//20 27//27
f 20//20 21//21 28//28
f 30//30 29//29 21//21
f 31//31 30//30 22//22
f 32//32 31//31 23//23
f 33//33 40//40 32//32
f 25//25 26//26 33//33
f 26//26 27//27 34//34
f 27//27 28//28 35//35
f 28//28 29//29 36//36
f 38//38 37//37 29//29
f 39//39 38//38 30//30
f 40//40 39//39 31//31
f 41//41 48//48 40//40
f 33//33 34//34 41//41
f 34//34 35//35 42//42
f 35//35 36//36 43//43
f 36//36 37//37 44//44
f 46//46 45//45 37//37
f 47//47 46//46 38//38
f 48//48 47//47 39//39
f 49//49 56//56 48//48
f 41//41 42//42 49//49
f 42//42 43//43 50//50
f 43//43 44//44 51//51
f 44//44 45//45 52//52
f 54//54 53//53 45//45
f 55//55 54//54 46//46
f 56//56 55//55 47//47
