# Blender v2.69 (sub 0) OBJ File: 'kernel2.blend'
# www.blender.org
o thread-a.005
v 1.000000 1.500000 -1.400000
v 1.000000 1.782819 -1.282819
v 1.000000 1.900000 -1.000000
v 1.000000 1.782819 -0.717181
v 1.000000 1.500000 -0.600000
v 1.000000 1.217181 -0.717181
v 1.000000 1.100000 -1.000000
v 1.000000 1.217181 -1.282819
v 0.712963 1.462963 -1.400000
v 0.657845 1.740359 -1.282819
v 0.635008 1.855293 -1.000000
v 0.657845 1.740359 -0.717181
v 0.712963 1.462963 -0.600000
v 0.768081 1.185567 -0.717181
v 0.790918 1.070633 -1.000000
v 0.768081 1.185567 -1.282819
v 0.370370 1.370370 -1.400000
v 0.289742 1.641453 -1.282819
v 0.256335 1.753771 -1.000000
v 0.289742 1.641453 -0.717181
v 0.370370 1.370370 -0.600000
v 0.450999 1.099288 -0.717181
v 0.484405 0.986970 -1.000000
v 0.450999 1.099288 -1.282819
v 0.000000 1.250000 -1.400000
v -0.087415 1.518970 -1.282819
v -0.123634 1.630414 -1.000000
v -0.087415 1.518970 -0.717181
v 0.000000 1.250000 -0.600000
v 0.087415 0.981030 -0.717181
v 0.123635 0.869586 -1.000000
v 0.087415 0.981030 -1.282819
v -0.370370 1.129630 -1.400000
v -0.450998 1.400712 -1.282819
v -0.484405 1.513030 -1.000000
v -0.450998 1.400712 -0.717181
v -0.370370 1.129630 -0.600000
v -0.289742 0.858547 -0.717181
v -0.256335 0.746229 -1.000000
v -0.289742 0.858547 -1.282819
v -0.712963 1.037037 -1.400000
v -0.768081 1.314433 -1.282819
v -0.790918 1.429367 -1.000000
v -0.768081 1.314433 -0.717181
v -0.712963 1.037037 -0.600000
v -0.657845 0.759641 -0.717181
v -0.635008 0.644707 -1.000000
v -0.657845 0.759641 -1.282819
v -1.000000 1.000000 -1.400000
v -1.000000 1.282819 -1.282819
v -1.000000 1.400000 -1.000000
v -1.000000 1.282819 -0.717181
v -1.000000 1.000000 -0.600000
v -1.000000 0.717181 -0.717181
v -1.000000 0.600000 -1.000000
v -1.000000 0.717181 -1.282819
vt 0.000000 1.000000
vt 0.166667 1.000000
vt 0.166667 0.875000
vt 0.000000 0.125000
vt 0.166667 0.125000
vt 0.166667 0.000000
vt 0.000000 0.250000
vt 0.166667 0.250000
vt 0.000000 0.375000
vt 0.166667 0.375000
vt 0.000000 0.500000
vt 0.166667 0.500000
vt 0.000000 0.625000
vt 0.166667 0.625000
vt 0.000000 0.750000
vt 0.166667 0.750000
vt 0.000000 0.875000
vt 0.333333 1.000000
vt 0.333333 0.875000
vt 0.333333 0.125000
vt 0.333333 0.000000
vt 0.333333 0.250000
vt 0.333333 0.375000
vt 0.333333 0.500000
vt 0.333333 0.625000
vt 0.333333 0.750000
vt 0.500000 1.000000
vt 0.500000 0.875000
vt 0.500000 0.125000
vt 0.500000 0.000000
vt 0.500000 0.250000
vt 0.500000 0.375000
vt 0.500000 0.500000
vt 0.500000 0.625000
vt 0.500000 0.750000
vt 0.666667 1.000000
vt 0.666667 0.875000
vt 0.666667 0.125000
vt 0.666667 0.000000
vt 0.666667 0.250000
vt 0.666667 0.375000
vt 0.666667 0.500000
vt 0.666667 0.625000
vt 0.666667 0.750000
vt 0.833333 1.000000
vt 0.833333 0.875000
vt 0.833333 0.125000
vt 0.833333 0.000000
vt 0.833333 0.250000
vt 0.833333 0.375000
vt 0.833333 0.500000
vt 0.833333 0.625000
vt 0.833333 0.750000
vt 1.000000 1.000000
vt 1.000000 0.875000
vt 1.000000 0.125000
vt 1.000000 0.000000
vt 1.000000 0.250000
vt 1.000000 0.375000
vt 1.000000 0.500000
vt 1.000000 0.625000
vt 1.000000 0.750000
vt 0.000000 0.000000
vn 0.003524 -0.031811 0.999488
vn 0.002899 -0.016602 0.999847
vn -0.139012 0.685202 0.714927
vn 0.089606 -0.718320 0.689918
vn 0.137028 -0.702200 0.698630
vn 0.122423 -0.992478 -0.000000
vn 0.190924 -0.981597 0.000000
vn 0.089606 -0.718319 -0.689919
vn 0.137028 -0.702200 -0.698630
vn 0.003523 -0.031811 -0.999488
vn 0.002899 -0.016602 -0.999847
vn -0.094290 0.686214 -0.721263
vn -0.139012 0.685202 -0.714927
vn -0.139092 0.990279 0.000000
vn -0.200842 0.979614 0.000000
vn -0.094290 0.686214 0.721263
vn 0.001648 -0.005982 0.999969
vn -0.201300 0.674764 0.710013
vn 0.201819 -0.680960 0.703940
vn 0.283975 -0.958800 0.000000
vn 0.201819 -0.680960 -0.703940
vn 0.001648 -0.005982 -0.999969
vn -0.201300 0.674764 -0.710013
vn -0.286233 0.958129 0.000000
vn 0.000000 0.000000 0.999969
vn -0.218543 0.672506 0.707053
vn 0.218543 -0.672506 0.707053
vn 0.309061 -0.951018 0.000000
vn 0.218543 -0.672506 -0.707053
vn 0.000000 0.000000 -0.999969
vn -0.218543 0.672506 -0.707053
vn -0.309061 0.951018 0.000000
vn -0.001648 0.005982 0.999969
vn -0.201819 0.680960 0.703940
vn 0.201300 -0.674764 0.710013
vn 0.286233 -0.958129 0.000000
vn 0.201300 -0.674764 -0.710013
vn -0.001648 0.005982 -0.999969
vn -0.201819 0.680960 -0.703940
vn -0.283975 0.958800 0.000000
vn -0.002899 0.016602 0.999847
vn -0.137028 0.702200 0.698630
vn 0.139012 -0.685202 0.714927
vn 0.200842 -0.979614 0.000000
vn 0.139012 -0.685202 -0.714927
vn -0.002899 0.016602 -0.999847
vn -0.137028 0.702200 -0.698630
vn -0.190924 0.981597 0.000000
vn -0.003523 0.031811 0.999488
vn -0.089606 0.718320 0.689919
vn 0.094290 -0.686214 0.721263
vn 0.139092 -0.990280 0.000000
vn 0.094290 -0.686214 -0.721263
vn -0.003524 0.031811 -0.999488
vn -0.089606 0.718320 -0.689918
vn -0.122423 0.992478 0.000000
s 1
f 1/1/1 9/2/2 16/3/3
f 2/4/4 10/5/5 9/6/2
f 3/7/6 11/8/7 10/5/5
f 4/9/8 12/10/9 3/7/6
f 5/11/10 13/12/11 4/9/8
f 6/13/12 14/14/13 5/11/10
f 7/15/14 15/16/15 6/13/12
f 8/17/16 16/3/3 15/16/15
f 9/2/2 17/18/17 24/19/18
f 10/5/5 18/20/19 17/21/17
f 11/8/7 19/22/20 18/20/19
f 12/10/9 20/23/21 11/8/7
f 13/12/11 21/24/22 12/10/9
f 14/14/13 22/25/23 13/12/11
f 15/16/15 23/26/24 14/14/13
f 16/3/3 24/19/18 23/26/24
f 17/18/17 25/27/25 32/28/26
f 18/20/19 26/29/27 25/30/25
f 19/22/20 27/31/28 26/29/27
f 20/23/21 28/32/29 19/22/20
f 21/24/22 29/33/30 20/23/21
f 22/25/23 30/34/31 21/24/22
f 23/26/24 31/35/32 22/25/23
f 24/19/18 32/28/26 31/35/32
f 25/27/25 33/36/33 40/37/34
f 26/29/27 34/38/35 33/39/33
f 27/31/28 35/40/36 34/38/35
f 28/32/29 36/41/37 27/31/28
f 29/33/30 37/42/38 28/32/29
f 30/34/31 38/43/39 29/33/30
f 31/35/32 39/44/40 30/34/31
f 32/28/26 40/37/34 39/44/40
f 33/36/33 41/45/41 48/46/42
f 34/38/35 42/47/43 41/48/41
f 35/40/36 43/49/44 42/47/43
f 36/41/37 44/50/45 35/40/36
f 37/42/38 45/51/46 36/41/37
f 38/43/39 46/52/47 37/42/38
f 39/44/40 47/53/48 38/43/39
f 40/37/34 48/46/42 47/53/48
f 41/45/41 49/54/49 56/55/50
f 42/47/43 50/56/51 49/57/49
f 43/49/44 51/58/52 50/56/51
f 44/50/45 52/59/53 43/49/44
f 45/51/46 53/60/54 44/50/45
f 46/52/47 54/61/55 45/51/46
f 47/53/48 55/62/56 46/52/47
f 48/46/42 56/55/50 55/62/56
f 8/17/16 1/1/1 16/3/3
f 1/63/1 2/4/4 9/6/2
f 2/4/4 3/7/6 10/5/5
f 12/10/9 11/8/7 3/7/6
f 13/12/11 12/10/9 4/9/8
f 14/14/13 13/12/11 5/11/10
f 15/16/15 14/14/13 6/13/12
f 7/15/14 8/17/16 15/16/15
f 16/3/3 9/2/2 24/19/18
f 9/6/2 10/5/5 17/21/17
f 10/5/5 11/8/7 18/20/19
f 20/23/21 19/22/20 11/8/7
f 21/24/22 20/23/21 12/10/9
f 22/25/23 21/24/22 13/12/11
f 23/26/24 22/25/23 14/14/13
f 15/16/15 16/3/3 23/26/24
f 24/19/18 17/18/17 32/28/26
f 17/21/17 18/20/19 25/30/25
f 18/20/19 19/22/20 26/29/27
f 28/32/29 27/31/28 19/22/20
f 29/33/30 28/32/29 20/23/21
f 30/34/31 29/33/30 21/24/22
f 31/35/32 30/34/31 22/25/23
f 23/26/24 24/19/18 31/35/32
f 32/28/26 25/27/25 40/37/34
f 25/30/25 26/29/27 33/39/33
f 26/29/27 27/31/28 34/38/35
f 36/41/37 35/40/36 27/31/28
f 37/42/38 36/41/37 28/32/29
f 38/43/39 37/42/38 29/33/30
f 39/44/40 38/43/39 30/34/31
f 31/35/32 32/28/26 39/44/40
f 40/37/34 33/36/33 48/46/42
f 33/39/33 34/38/35 41/48/41
f 34/38/35 35/40/36 42/47/43
f 44/50/45 43/49/44 35/40/36
f 45/51/46 44/50/45 36/41/37
f 46/52/47 45/51/46 37/42/38
f 47/53/48 46/52/47 38/43/39
f 39/44/40 40/37/34 47/53/48
f 48/46/42 41/45/41 56/55/50
f 41/48/41 42/47/43 49/57/49
f 42/47/43 43/49/44 50/56/51
f 52/59/53 51/58/52 43/49/44
f 53/60/54 52/59/53 44/50/45
f 54/61/55 53/60/54 45/51/46
f 55/62/56 54/61/55 46/52/47
f 47/53/48 48/46/42 55/62/56
