# Blender v2.69 (sub 0) OBJ File: 'kernel2.blend'
# www.blender.org
o thread-b.005_BezierCurve.015
v 1.000000 1.000000 -1.400000
v 1.000000 1.282819 -1.282819
v 1.000000 1.400000 -1.000000
v 1.000000 1.282819 -0.717181
v 1.000000 1.000000 -0.600000
v 1.000000 0.717181 -0.717181
v 1.000000 0.600000 -1.000000
v 1.000000 0.717181 -1.282819
v 0.712963 0.925926 -1.400000
v 0.609623 1.189189 -1.282819
v 0.566807 1.298268 -1.000000
v 0.609624 1.189189 -0.717181
v 0.712963 0.925926 -0.600000
v 0.816303 0.662663 -0.717181
v 0.859119 0.553584 -1.000000
v 0.816302 0.662663 -1.282819
v 0.370370 0.740741 -1.400000
v 0.225943 0.983902 -1.282819
v 0.166103 1.084651 -1.000000
v 0.225943 0.983902 -0.717181
v 0.370371 0.740741 -0.600000
v 0.514797 0.497580 -0.717181
v 0.574638 0.396830 -1.000000
v 0.514797 0.497580 -1.282819
v 0.000000 0.500000 -1.400000
v -0.154133 0.737128 -1.282819
v -0.217995 0.835377 -1.000000
v -0.154133 0.737128 -0.717181
v 0.000000 0.500000 -0.600000
v 0.154133 0.262872 -0.717181
v 0.217995 0.164622 -1.000000
v 0.154133 0.262872 -1.282819
v -0.370370 0.259259 -1.400000
v -0.514797 0.502420 -1.282819
v -0.574638 0.603170 -1.000000
v -0.514797 0.502420 -0.717181
v -0.370370 0.259259 -0.600000
v -0.225943 0.016098 -0.717181
v -0.166102 -0.084652 -1.000000
v -0.225943 0.016098 -1.282819
v -0.712963 0.074074 -1.400000
v -0.816302 0.337337 -1.282819
v -0.859119 0.446416 -1.000000
v -0.816302 0.337337 -0.717181
v -0.712963 0.074074 -0.600000
v -0.609623 -0.189189 -0.717181
v -0.566807 -0.298268 -1.000000
v -0.609623 -0.189189 -1.282819
v -1.000000 0.000000 -1.400000
v -1.000000 0.282819 -1.282819
v -1.000000 0.400000 -1.000000
v -1.000000 0.282819 -0.717181
v -1.000000 -0.000000 -0.600000
v -1.000000 -0.282819 -0.717181
v -1.000000 -0.400000 -1.000000
v -1.000000 -0.282819 -1.282819
vt 0.000000 1.000000
vt 0.166667 1.000000
vt 0.166667 0.875000
vt 0.000000 0.125000
vt 0.166667 0.125000
vt 0.166667 0.000000
vt 0.000000 0.250000
vt 0.166667 0.250000
vt 0.000000 0.375000
vt 0.166667 0.375000
vt 0.000000 0.500000
vt 0.166667 0.500000
vt 0.000000 0.625000
vt 0.166667 0.625000
vt 0.000000 0.750000
vt 0.166667 0.750000
vt 0.000000 0.875000
vt 0.333333 1.000000
vt 0.333333 0.875000
vt 0.333333 0.125000
vt 0.333333 0.000000
vt 0.333333 0.250000
vt 0.333333 0.375000
vt 0.333333 0.500000
vt 0.333333 0.625000
vt 0.333333 0.750000
vt 0.500000 1.000000
vt 0.500000 0.875000
vt 0.500000 0.125000
vt 0.500000 0.000000
vt 0.500000 0.250000
vt 0.500000 0.375000
vt 0.500000 0.500000
vt 0.500000 0.625000
vt 0.500000 0.750000
vt 0.666667 1.000000
vt 0.666667 0.875000
vt 0.666667 0.125000
vt 0.666667 0.000000
vt 0.666667 0.250000
vt 0.666667 0.375000
vt 0.666667 0.500000
vt 0.666667 0.625000
vt 0.666667 0.750000
vt 0.833333 1.000000
vt 0.833333 0.875000
vt 0.833333 0.125000
vt 0.833333 0.000000
vt 0.833333 0.250000
vt 0.833333 0.375000
vt 0.833333 0.500000
vt 0.833333 0.625000
vt 0.833333 0.750000
vt 1.000000 1.000000
vt 1.000000 0.875000
vt 1.000000 0.125000
vt 1.000000 0.000000
vt 1.000000 0.250000
vt 1.000000 0.375000
vt 1.000000 0.500000
vt 1.000000 0.625000
vt 1.000000 0.750000
vt 0.000000 0.000000
vn 0.014010 -0.063711 0.997870
vn 0.009827 -0.029206 0.999512
vn -0.265572 0.642048 0.719138
vn 0.174627 -0.721264 0.670286
vn 0.256111 -0.675375 0.691549
vn 0.231308 -0.972880 -0.000000
vn 0.353282 -0.935514 0.000000
vn 0.174627 -0.721264 -0.670286
vn 0.256111 -0.675375 -0.691549
vn 0.014010 -0.063711 -0.997870
vn 0.009827 -0.029206 -0.999512
vn -0.197552 0.652055 -0.731982
vn -0.265572 0.642048 -0.719138
vn -0.312922 0.949779 0.000000
vn -0.395245 0.918546 0.000000
vn -0.197551 0.652054 0.731983
vn 0.004883 -0.008850 0.999939
vn -0.360302 0.603168 0.711570
vn 0.362102 -0.613392 0.701865
vn 0.507950 -0.861354 0.000000
vn 0.362102 -0.613392 -0.701865
vn 0.004883 -0.008850 -0.999939
vn -0.360302 0.603168 -0.711570
vn -0.513871 0.857845 0.000000
vn 0.000000 0.000000 1.000000
vn -0.385357 0.592975 0.706992
vn 0.385357 -0.592975 0.706992
vn 0.544939 -0.838466 0.000000
vn 0.385357 -0.592975 -0.706992
vn 0.000000 0.000000 -1.000000
vn -0.385357 0.592975 -0.706992
vn -0.544939 0.838466 0.000000
vn -0.004883 0.008850 0.999939
vn -0.362102 0.613392 0.701865
vn 0.360302 -0.603168 0.711570
vn 0.513871 -0.857845 0.000000
vn 0.360302 -0.603168 -0.711570
vn -0.004883 0.008850 -0.999939
vn -0.362102 0.613392 -0.701865
vn -0.507950 0.861354 0.000000
vn -0.009827 0.029206 0.999512
vn -0.256111 0.675375 0.691549
vn 0.265572 -0.642048 0.719138
vn 0.395245 -0.918546 0.000000
vn 0.265572 -0.642048 -0.719138
vn -0.009827 0.029206 -0.999512
vn -0.256111 0.675375 -0.691549
vn -0.353282 0.935514 0.000000
vn -0.014009 0.063711 0.997870
vn -0.174626 0.721264 0.670286
vn 0.197551 -0.652055 0.731982
vn 0.312921 -0.949779 -0.000000
vn 0.197551 -0.652055 -0.731982
vn -0.014010 0.063711 -0.997870
vn -0.174626 0.721264 -0.670286
vn -0.231308 0.972881 0.000000
s 1
f 1/1/1 9/2/2 16/3/3
f 2/4/4 10/5/5 9/6/2
f 3/7/6 11/8/7 10/5/5
f 4/9/8 12/10/9 3/7/6
f 5/11/10 13/12/11 4/9/8
f 6/13/12 14/14/13 5/11/10
f 7/15/14 15/16/15 6/13/12
f 8/17/16 16/3/3 15/16/15
f 9/2/2 17/18/17 24/19/18
f 10/5/5 18/20/19 17/21/17
f 11/8/7 19/22/20 18/20/19
f 12/10/9 20/23/21 11/8/7
f 13/12/11 21/24/22 12/10/9
f 14/14/13 22/25/23 13/12/11
f 15/16/15 23/26/24 14/14/13
f 16/3/3 24/19/18 23/26/24
f 17/18/17 25/27/25 32/28/26
f 18/20/19 26/29/27 25/30/25
f 19/22/20 27/31/28 26/29/27
f 20/23/21 28/32/29 19/22/20
f 21/24/22 29/33/30 20/23/21
f 22/25/23 30/34/31 21/24/22
f 23/26/24 31/35/32 22/25/23
f 24/19/18 32/28/26 31/35/32
f 25/27/25 33/36/33 40/37/34
f 26/29/27 34/38/35 33/39/33
f 27/31/28 35/40/36 34/38/35
f 28/32/29 36/41/37 27/31/28
f 29/33/30 37/42/38 28/32/29
f 30/34/31 38/43/39 29/33/30
f 31/35/32 39/44/40 30/34/31
f 32/28/26 40/37/34 39/44/40
f 33/36/33 41/45/41 48/46/42
f 34/38/35 42/47/43 41/48/41
f 35/40/36 43/49/44 42/47/43
f 36/41/37 44/50/45 35/40/36
f 37/42/38 45/51/46 36/41/37
f 38/43/39 46/52/47 37/42/38
f 39/44/40 47/53/48 38/43/39
f 40/37/34 48/46/42 47/53/48
f 41/45/41 49/54/49 56/55/50
f 42/47/43 50/56/51 49/57/49
f 43/49/44 51/58/52 50/56/51
f 44/50/45 52/59/53 43/49/44
f 45/51/46 53/60/54 44/50/45
f 46/52/47 54/61/55 45/51/46
f 47/53/48 55/62/56 46/52/47
f 48/46/42 56/55/50 55/62/56
f 8/17/16 1/1/1 16/3/3
f 1/63/1 2/4/4 9/6/2
f 2/4/4 3/7/6 10/5/5
f 12/10/9 11/8/7 3/7/6
f 13/12/11 12/10/9 4/9/8
f 14/14/13 13/12/11 5/11/10
f 15/16/15 14/14/13 6/13/12
f 7/15/14 8/17/16 15/16/15
f 16/3/3 9/2/2 24/19/18
f 9/6/2 10/5/5 17/21/17
f 10/5/5 11/8/7 18/20/19
f 20/23/21 19/22/20 11/8/7
f 21/24/22 20/23/21 12/10/9
f 22/25/23 21/24/22 13/12/11
f 23/26/24 22/25/23 14/14/13
f 15/16/15 16/3/3 23/26/24
f 24/19/18 17/18/17 32/28/26
f 17/21/17 18/20/19 25/30/25
f 18/20/19 19/22/20 26/29/27
f 28/32/29 27/31/28 19/22/20
f 29/33/30 28/32/29 20/23/21
f 30/34/31 29/33/30 21/24/22
f 31/35/32 30/34/31 22/25/23
f 23/26/24 24/19/18 31/35/32
f 32/28/26 25/27/25 40/37/34
f 25/30/25 26/29/27 33/39/33
f 26/29/27 27/31/28 34/38/35
f 36/41/37 35/40/36 27/31/28
f 37/42/38 36/41/37 28/32/29
f 38/43/39 37/42/38 29/33/30
f 39/44/40 38/43/39 30/34/31
f 31/35/32 32/28/26 39/44/40
f 40/37/34 33/36/33 48/46/42
f 33/39/33 34/38/35 41/48/41
f 34/38/35 35/40/36 42/47/43
f 44/50/45 43/49/44 35/40/36
f 45/51/46 44/50/45 36/41/37
f 46/52/47 45/51/46 37/42/38
f 47/53/48 46/52/47 38/43/39
f 39/44/40 40/37/34 47/53/48
f 48/46/42 41/45/41 56/55/50
f 41/48/41 42/47/43 49/57/49
f 42/47/43 43/49/44 50/56/51
f 52/59/53 51/58/52 43/49/44
f 53/60/54 52/59/53 44/50/45
f 54/61/55 53/60/54 45/51/46
f 55/62/56 54/61/55 46/52/47
f 47/53/48 48/46/42 55/62/56
