# Blender v2.69 (sub 0) OBJ File: 'kernel.blend'
# www.blender.org
o Cylinder.001
v 1.000000 0.700001 -1.500000
v 1.000000 0.699999 0.500000
v 1.141421 0.641422 -1.500000
v 1.141421 0.641421 0.500000
v 1.200000 0.500001 -1.500000
v 1.200000 0.499999 0.500000
v 1.141421 0.358579 -1.500000
v 1.141421 0.358578 0.500000
v 1.000000 0.300001 -1.500000
v 1.000000 0.299999 0.500000
v 0.858579 0.358579 -1.500000
v 0.858579 0.358578 0.500000
v 0.800000 0.500001 -1.500000
v 0.800000 0.499999 0.500000
v 0.858579 0.641422 -1.500000
v 0.858579 0.641421 0.500000
vn -0.000000 1.000000 0.000001
vn 0.707107 0.707106 0.000000
vn 0.707106 0.707107 0.000000
vn 1.000000 -0.000001 0.000000
vn 1.000000 0.000001 -0.000000
vn 0.707106 -0.707107 -0.000000
vn 0.707107 -0.707106 -0.000000
vn -0.000000 -1.000000 -0.000001
vn -0.707107 -0.707107 -0.000000
vn -1.000000 -0.000000 -0.000000
vn -0.707107 0.707107 0.000000
s 1
f 1//1 2//1 3//2
f 3//2 4//3 5//4
f 5//4 6//5 7//6
f 7//6 8//7 9//8
f 9//8 10//8 11//9
f 11//9 12//9 13//10
f 15//11 16//11 1//1
f 13//10 14//10 15//11
f 2//1 4//3 3//2
f 4//3 6//5 5//4
f 6//5 8//7 7//6
f 8//7 10//8 9//8
f 10//8 12//9 11//9
f 12//9 14//10 13//10
f 16//11 2//1 1//1
f 14//10 16//11 15//11
