G04 #@! TF.FileFunction,Legend,Top*
%FSLAX46Y46*%
G04 Gerber Fmt 4.6, Leading zero omitted, Abs format (unit mm)*
G04 Created by KiCad (PCBNEW 4.0.6-e0-6349~53~ubuntu14.04.1) date Wed May 31 17:07:56 2017*
%MOMM*%
%LPD*%
G01*
G04 APERTURE LIST*
%ADD10C,0.100000*%
%ADD11C,0.300000*%
%ADD12C,0.120000*%
%ADD13C,0.381000*%
%ADD14C,0.150000*%
%ADD15C,0.254000*%
G04 APERTURE END LIST*
D10*
D11*
X225458571Y-144422857D02*
X223958571Y-144422857D01*
X223958571Y-143851429D01*
X224030000Y-143708571D01*
X224101429Y-143637143D01*
X224244286Y-143565714D01*
X224458571Y-143565714D01*
X224601429Y-143637143D01*
X224672857Y-143708571D01*
X224744286Y-143851429D01*
X224744286Y-144422857D01*
X225387143Y-142351429D02*
X225458571Y-142494286D01*
X225458571Y-142780000D01*
X225387143Y-142922857D01*
X225244286Y-142994286D01*
X224672857Y-142994286D01*
X224530000Y-142922857D01*
X224458571Y-142780000D01*
X224458571Y-142494286D01*
X224530000Y-142351429D01*
X224672857Y-142280000D01*
X224815714Y-142280000D01*
X224958571Y-142994286D01*
X224458571Y-141637143D02*
X225458571Y-141637143D01*
X224601429Y-141637143D02*
X224530000Y-141565715D01*
X224458571Y-141422857D01*
X224458571Y-141208572D01*
X224530000Y-141065715D01*
X224672857Y-140994286D01*
X225458571Y-140994286D01*
X225387143Y-139708572D02*
X225458571Y-139851429D01*
X225458571Y-140137143D01*
X225387143Y-140280000D01*
X225244286Y-140351429D01*
X224672857Y-140351429D01*
X224530000Y-140280000D01*
X224458571Y-140137143D01*
X224458571Y-139851429D01*
X224530000Y-139708572D01*
X224672857Y-139637143D01*
X224815714Y-139637143D01*
X224958571Y-140351429D01*
X225458571Y-138780000D02*
X225387143Y-138922858D01*
X225244286Y-138994286D01*
X223958571Y-138994286D01*
X225458571Y-137994286D02*
X225387143Y-138137144D01*
X225315714Y-138208572D01*
X225172857Y-138280001D01*
X224744286Y-138280001D01*
X224601429Y-138208572D01*
X224530000Y-138137144D01*
X224458571Y-137994286D01*
X224458571Y-137780001D01*
X224530000Y-137637144D01*
X224601429Y-137565715D01*
X224744286Y-137494286D01*
X225172857Y-137494286D01*
X225315714Y-137565715D01*
X225387143Y-137637144D01*
X225458571Y-137780001D01*
X225458571Y-137994286D01*
X224458571Y-136851429D02*
X225958571Y-136851429D01*
X224530000Y-136851429D02*
X224458571Y-136708572D01*
X224458571Y-136422858D01*
X224530000Y-136280001D01*
X224601429Y-136208572D01*
X224744286Y-136137143D01*
X225172857Y-136137143D01*
X225315714Y-136208572D01*
X225387143Y-136280001D01*
X225458571Y-136422858D01*
X225458571Y-136708572D01*
X225387143Y-136851429D01*
X225387143Y-134922858D02*
X225458571Y-135065715D01*
X225458571Y-135351429D01*
X225387143Y-135494286D01*
X225244286Y-135565715D01*
X224672857Y-135565715D01*
X224530000Y-135494286D01*
X224458571Y-135351429D01*
X224458571Y-135065715D01*
X224530000Y-134922858D01*
X224672857Y-134851429D01*
X224815714Y-134851429D01*
X224958571Y-135565715D01*
X227222857Y-143922857D02*
X227222857Y-144422857D01*
X228008571Y-144422857D02*
X226508571Y-144422857D01*
X226508571Y-143708571D01*
X228008571Y-142922857D02*
X227937143Y-143065715D01*
X227865714Y-143137143D01*
X227722857Y-143208572D01*
X227294286Y-143208572D01*
X227151429Y-143137143D01*
X227080000Y-143065715D01*
X227008571Y-142922857D01*
X227008571Y-142708572D01*
X227080000Y-142565715D01*
X227151429Y-142494286D01*
X227294286Y-142422857D01*
X227722857Y-142422857D01*
X227865714Y-142494286D01*
X227937143Y-142565715D01*
X228008571Y-142708572D01*
X228008571Y-142922857D01*
X227580000Y-141851429D02*
X227580000Y-141137143D01*
X228008571Y-141994286D02*
X226508571Y-141494286D01*
X228008571Y-140994286D01*
X228008571Y-140494286D02*
X226508571Y-140494286D01*
X227580000Y-139994286D01*
X226508571Y-139494286D01*
X228008571Y-139494286D01*
X228008571Y-137637143D02*
X226508571Y-137637143D01*
X228008571Y-136780000D02*
X227151429Y-137422857D01*
X226508571Y-136780000D02*
X227365714Y-137637143D01*
X227937143Y-135565715D02*
X228008571Y-135708572D01*
X228008571Y-135994286D01*
X227937143Y-136137143D01*
X227794286Y-136208572D01*
X227222857Y-136208572D01*
X227080000Y-136137143D01*
X227008571Y-135994286D01*
X227008571Y-135708572D01*
X227080000Y-135565715D01*
X227222857Y-135494286D01*
X227365714Y-135494286D01*
X227508571Y-136208572D01*
X228008571Y-134851429D02*
X227008571Y-134851429D01*
X227294286Y-134851429D02*
X227151429Y-134780001D01*
X227080000Y-134708572D01*
X227008571Y-134565715D01*
X227008571Y-134422858D01*
X227008571Y-133922858D02*
X228008571Y-133922858D01*
X227151429Y-133922858D02*
X227080000Y-133851430D01*
X227008571Y-133708572D01*
X227008571Y-133494287D01*
X227080000Y-133351430D01*
X227222857Y-133280001D01*
X228008571Y-133280001D01*
X228008571Y-132351429D02*
X227937143Y-132494287D01*
X227865714Y-132565715D01*
X227722857Y-132637144D01*
X227294286Y-132637144D01*
X227151429Y-132565715D01*
X227080000Y-132494287D01*
X227008571Y-132351429D01*
X227008571Y-132137144D01*
X227080000Y-131994287D01*
X227151429Y-131922858D01*
X227294286Y-131851429D01*
X227722857Y-131851429D01*
X227865714Y-131922858D01*
X227937143Y-131994287D01*
X228008571Y-132137144D01*
X228008571Y-132351429D01*
X227008571Y-131351429D02*
X228008571Y-131065715D01*
X227294286Y-130780001D01*
X228008571Y-130494286D01*
X227008571Y-130208572D01*
X229058571Y-144137143D02*
X229058571Y-143851429D01*
X229130000Y-143708571D01*
X229272857Y-143565714D01*
X229558571Y-143494286D01*
X230058571Y-143494286D01*
X230344286Y-143565714D01*
X230487143Y-143708571D01*
X230558571Y-143851429D01*
X230558571Y-144137143D01*
X230487143Y-144280000D01*
X230344286Y-144422857D01*
X230058571Y-144494286D01*
X229558571Y-144494286D01*
X229272857Y-144422857D01*
X229130000Y-144280000D01*
X229058571Y-144137143D01*
X230487143Y-142922857D02*
X230558571Y-142708571D01*
X230558571Y-142351428D01*
X230487143Y-142208571D01*
X230415714Y-142137142D01*
X230272857Y-142065714D01*
X230130000Y-142065714D01*
X229987143Y-142137142D01*
X229915714Y-142208571D01*
X229844286Y-142351428D01*
X229772857Y-142637142D01*
X229701429Y-142780000D01*
X229630000Y-142851428D01*
X229487143Y-142922857D01*
X229344286Y-142922857D01*
X229201429Y-142851428D01*
X229130000Y-142780000D01*
X229058571Y-142637142D01*
X229058571Y-142280000D01*
X229130000Y-142065714D01*
X230558571Y-141422857D02*
X229058571Y-141422857D01*
X229772857Y-141422857D02*
X229772857Y-140565714D01*
X230558571Y-140565714D02*
X229058571Y-140565714D01*
X180008571Y-159662857D02*
X181508571Y-159662857D01*
X180080000Y-159662857D02*
X180008571Y-159520000D01*
X180008571Y-159234286D01*
X180080000Y-159091429D01*
X180151429Y-159020000D01*
X180294286Y-158948571D01*
X180722857Y-158948571D01*
X180865714Y-159020000D01*
X180937143Y-159091429D01*
X181008571Y-159234286D01*
X181008571Y-159520000D01*
X180937143Y-159662857D01*
X181008571Y-157662857D02*
X180222857Y-157662857D01*
X180080000Y-157734286D01*
X180008571Y-157877143D01*
X180008571Y-158162857D01*
X180080000Y-158305714D01*
X180937143Y-157662857D02*
X181008571Y-157805714D01*
X181008571Y-158162857D01*
X180937143Y-158305714D01*
X180794286Y-158377143D01*
X180651429Y-158377143D01*
X180508571Y-158305714D01*
X180437143Y-158162857D01*
X180437143Y-157805714D01*
X180365714Y-157662857D01*
X180008571Y-157162857D02*
X180008571Y-156591428D01*
X179508571Y-156948571D02*
X180794286Y-156948571D01*
X180937143Y-156877143D01*
X181008571Y-156734285D01*
X181008571Y-156591428D01*
X180008571Y-156305714D02*
X180008571Y-155734285D01*
X179508571Y-156091428D02*
X180794286Y-156091428D01*
X180937143Y-156020000D01*
X181008571Y-155877142D01*
X181008571Y-155734285D01*
X180937143Y-154662857D02*
X181008571Y-154805714D01*
X181008571Y-155091428D01*
X180937143Y-155234285D01*
X180794286Y-155305714D01*
X180222857Y-155305714D01*
X180080000Y-155234285D01*
X180008571Y-155091428D01*
X180008571Y-154805714D01*
X180080000Y-154662857D01*
X180222857Y-154591428D01*
X180365714Y-154591428D01*
X180508571Y-155305714D01*
X181008571Y-153948571D02*
X180008571Y-153948571D01*
X180294286Y-153948571D02*
X180151429Y-153877143D01*
X180080000Y-153805714D01*
X180008571Y-153662857D01*
X180008571Y-153520000D01*
X180008571Y-153020000D02*
X181008571Y-153020000D01*
X180151429Y-153020000D02*
X180080000Y-152948572D01*
X180008571Y-152805714D01*
X180008571Y-152591429D01*
X180080000Y-152448572D01*
X180222857Y-152377143D01*
X181008571Y-152377143D01*
X181008571Y-150520000D02*
X180008571Y-150520000D01*
X180151429Y-150520000D02*
X180080000Y-150448572D01*
X180008571Y-150305714D01*
X180008571Y-150091429D01*
X180080000Y-149948572D01*
X180222857Y-149877143D01*
X181008571Y-149877143D01*
X180222857Y-149877143D02*
X180080000Y-149805714D01*
X180008571Y-149662857D01*
X180008571Y-149448572D01*
X180080000Y-149305714D01*
X180222857Y-149234286D01*
X181008571Y-149234286D01*
X181008571Y-147877143D02*
X180222857Y-147877143D01*
X180080000Y-147948572D01*
X180008571Y-148091429D01*
X180008571Y-148377143D01*
X180080000Y-148520000D01*
X180937143Y-147877143D02*
X181008571Y-148020000D01*
X181008571Y-148377143D01*
X180937143Y-148520000D01*
X180794286Y-148591429D01*
X180651429Y-148591429D01*
X180508571Y-148520000D01*
X180437143Y-148377143D01*
X180437143Y-148020000D01*
X180365714Y-147877143D01*
X180008571Y-147377143D02*
X180008571Y-146805714D01*
X179508571Y-147162857D02*
X180794286Y-147162857D01*
X180937143Y-147091429D01*
X181008571Y-146948571D01*
X181008571Y-146805714D01*
X181008571Y-146305714D02*
X180008571Y-146305714D01*
X180294286Y-146305714D02*
X180151429Y-146234286D01*
X180080000Y-146162857D01*
X180008571Y-146020000D01*
X180008571Y-145877143D01*
X181008571Y-145377143D02*
X180008571Y-145377143D01*
X179508571Y-145377143D02*
X179580000Y-145448572D01*
X179651429Y-145377143D01*
X179580000Y-145305715D01*
X179508571Y-145377143D01*
X179651429Y-145377143D01*
X181008571Y-144805714D02*
X180008571Y-144020000D01*
X180008571Y-144805714D02*
X181008571Y-144020000D01*
X182558571Y-159877143D02*
X182558571Y-159305714D01*
X182058571Y-159662857D02*
X183344286Y-159662857D01*
X183487143Y-159591429D01*
X183558571Y-159448571D01*
X183558571Y-159305714D01*
X183558571Y-158162857D02*
X182772857Y-158162857D01*
X182630000Y-158234286D01*
X182558571Y-158377143D01*
X182558571Y-158662857D01*
X182630000Y-158805714D01*
X183487143Y-158162857D02*
X183558571Y-158305714D01*
X183558571Y-158662857D01*
X183487143Y-158805714D01*
X183344286Y-158877143D01*
X183201429Y-158877143D01*
X183058571Y-158805714D01*
X182987143Y-158662857D01*
X182987143Y-158305714D01*
X182915714Y-158162857D01*
X182558571Y-157448571D02*
X183558571Y-157448571D01*
X182701429Y-157448571D02*
X182630000Y-157377143D01*
X182558571Y-157234285D01*
X182558571Y-157020000D01*
X182630000Y-156877143D01*
X182772857Y-156805714D01*
X183558571Y-156805714D01*
X182558571Y-155448571D02*
X183772857Y-155448571D01*
X183915714Y-155520000D01*
X183987143Y-155591428D01*
X184058571Y-155734285D01*
X184058571Y-155948571D01*
X183987143Y-156091428D01*
X183487143Y-155448571D02*
X183558571Y-155591428D01*
X183558571Y-155877142D01*
X183487143Y-156020000D01*
X183415714Y-156091428D01*
X183272857Y-156162857D01*
X182844286Y-156162857D01*
X182701429Y-156091428D01*
X182630000Y-156020000D01*
X182558571Y-155877142D01*
X182558571Y-155591428D01*
X182630000Y-155448571D01*
X183558571Y-154734285D02*
X182558571Y-154734285D01*
X182058571Y-154734285D02*
X182130000Y-154805714D01*
X182201429Y-154734285D01*
X182130000Y-154662857D01*
X182058571Y-154734285D01*
X182201429Y-154734285D01*
X183558571Y-154019999D02*
X182058571Y-154019999D01*
X182630000Y-154019999D02*
X182558571Y-153877142D01*
X182558571Y-153591428D01*
X182630000Y-153448571D01*
X182701429Y-153377142D01*
X182844286Y-153305713D01*
X183272857Y-153305713D01*
X183415714Y-153377142D01*
X183487143Y-153448571D01*
X183558571Y-153591428D01*
X183558571Y-153877142D01*
X183487143Y-154019999D01*
X183558571Y-152448570D02*
X183487143Y-152591428D01*
X183344286Y-152662856D01*
X182058571Y-152662856D01*
X183487143Y-151305714D02*
X183558571Y-151448571D01*
X183558571Y-151734285D01*
X183487143Y-151877142D01*
X183344286Y-151948571D01*
X182772857Y-151948571D01*
X182630000Y-151877142D01*
X182558571Y-151734285D01*
X182558571Y-151448571D01*
X182630000Y-151305714D01*
X182772857Y-151234285D01*
X182915714Y-151234285D01*
X183058571Y-151948571D01*
X183487143Y-149520000D02*
X183558571Y-149377143D01*
X183558571Y-149091428D01*
X183487143Y-148948571D01*
X183344286Y-148877143D01*
X183272857Y-148877143D01*
X183130000Y-148948571D01*
X183058571Y-149091428D01*
X183058571Y-149305714D01*
X182987143Y-149448571D01*
X182844286Y-149520000D01*
X182772857Y-149520000D01*
X182630000Y-149448571D01*
X182558571Y-149305714D01*
X182558571Y-149091428D01*
X182630000Y-148948571D01*
X183487143Y-147662857D02*
X183558571Y-147805714D01*
X183558571Y-148091428D01*
X183487143Y-148234285D01*
X183344286Y-148305714D01*
X182772857Y-148305714D01*
X182630000Y-148234285D01*
X182558571Y-148091428D01*
X182558571Y-147805714D01*
X182630000Y-147662857D01*
X182772857Y-147591428D01*
X182915714Y-147591428D01*
X183058571Y-148305714D01*
X182558571Y-146948571D02*
X183558571Y-146948571D01*
X182701429Y-146948571D02*
X182630000Y-146877143D01*
X182558571Y-146734285D01*
X182558571Y-146520000D01*
X182630000Y-146377143D01*
X182772857Y-146305714D01*
X183558571Y-146305714D01*
X183487143Y-145662857D02*
X183558571Y-145520000D01*
X183558571Y-145234285D01*
X183487143Y-145091428D01*
X183344286Y-145020000D01*
X183272857Y-145020000D01*
X183130000Y-145091428D01*
X183058571Y-145234285D01*
X183058571Y-145448571D01*
X182987143Y-145591428D01*
X182844286Y-145662857D01*
X182772857Y-145662857D01*
X182630000Y-145591428D01*
X182558571Y-145448571D01*
X182558571Y-145234285D01*
X182630000Y-145091428D01*
X183558571Y-144162856D02*
X183487143Y-144305714D01*
X183415714Y-144377142D01*
X183272857Y-144448571D01*
X182844286Y-144448571D01*
X182701429Y-144377142D01*
X182630000Y-144305714D01*
X182558571Y-144162856D01*
X182558571Y-143948571D01*
X182630000Y-143805714D01*
X182701429Y-143734285D01*
X182844286Y-143662856D01*
X183272857Y-143662856D01*
X183415714Y-143734285D01*
X183487143Y-143805714D01*
X183558571Y-143948571D01*
X183558571Y-144162856D01*
X183558571Y-143019999D02*
X182558571Y-143019999D01*
X182844286Y-143019999D02*
X182701429Y-142948571D01*
X182630000Y-142877142D01*
X182558571Y-142734285D01*
X182558571Y-142591428D01*
X183558571Y-140948571D02*
X182558571Y-140948571D01*
X182058571Y-140948571D02*
X182130000Y-141020000D01*
X182201429Y-140948571D01*
X182130000Y-140877143D01*
X182058571Y-140948571D01*
X182201429Y-140948571D01*
X182201429Y-140305714D02*
X182130000Y-140234285D01*
X182058571Y-140091428D01*
X182058571Y-139734285D01*
X182130000Y-139591428D01*
X182201429Y-139519999D01*
X182344286Y-139448571D01*
X182487143Y-139448571D01*
X182701429Y-139519999D01*
X183558571Y-140377142D01*
X183558571Y-139448571D01*
X183487143Y-138162857D02*
X183558571Y-138305714D01*
X183558571Y-138591428D01*
X183487143Y-138734286D01*
X183415714Y-138805714D01*
X183272857Y-138877143D01*
X182844286Y-138877143D01*
X182701429Y-138805714D01*
X182630000Y-138734286D01*
X182558571Y-138591428D01*
X182558571Y-138305714D01*
X182630000Y-138162857D01*
X184751429Y-159734286D02*
X184680000Y-159662857D01*
X184608571Y-159520000D01*
X184608571Y-159162857D01*
X184680000Y-159020000D01*
X184751429Y-158948571D01*
X184894286Y-158877143D01*
X185037143Y-158877143D01*
X185251429Y-158948571D01*
X186108571Y-159805714D01*
X186108571Y-158877143D01*
X185965714Y-158234286D02*
X186037143Y-158162858D01*
X186108571Y-158234286D01*
X186037143Y-158305715D01*
X185965714Y-158234286D01*
X186108571Y-158234286D01*
X184608571Y-157234286D02*
X184608571Y-157091429D01*
X184680000Y-156948572D01*
X184751429Y-156877143D01*
X184894286Y-156805714D01*
X185180000Y-156734286D01*
X185537143Y-156734286D01*
X185822857Y-156805714D01*
X185965714Y-156877143D01*
X186037143Y-156948572D01*
X186108571Y-157091429D01*
X186108571Y-157234286D01*
X186037143Y-157377143D01*
X185965714Y-157448572D01*
X185822857Y-157520000D01*
X185537143Y-157591429D01*
X185180000Y-157591429D01*
X184894286Y-157520000D01*
X184751429Y-157448572D01*
X184680000Y-157377143D01*
X184608571Y-157234286D01*
X185965714Y-156091429D02*
X186037143Y-156020001D01*
X186108571Y-156091429D01*
X186037143Y-156162858D01*
X185965714Y-156091429D01*
X186108571Y-156091429D01*
X186108571Y-154591429D02*
X186108571Y-155448572D01*
X186108571Y-155020000D02*
X184608571Y-155020000D01*
X184822857Y-155162857D01*
X184965714Y-155305715D01*
X185037143Y-155448572D01*
X186520000Y-160627143D02*
X186662857Y-160698571D01*
X186948572Y-160698571D01*
X187091429Y-160627143D01*
X187162857Y-160484286D01*
X187162857Y-160412857D01*
X187091429Y-160270000D01*
X186948572Y-160198571D01*
X186734286Y-160198571D01*
X186591429Y-160127143D01*
X186520000Y-159984286D01*
X186520000Y-159912857D01*
X186591429Y-159770000D01*
X186734286Y-159698571D01*
X186948572Y-159698571D01*
X187091429Y-159770000D01*
X188377143Y-160627143D02*
X188234286Y-160698571D01*
X187948572Y-160698571D01*
X187805715Y-160627143D01*
X187734286Y-160484286D01*
X187734286Y-159912857D01*
X187805715Y-159770000D01*
X187948572Y-159698571D01*
X188234286Y-159698571D01*
X188377143Y-159770000D01*
X188448572Y-159912857D01*
X188448572Y-160055714D01*
X187734286Y-160198571D01*
X189091429Y-159698571D02*
X189091429Y-160698571D01*
X189091429Y-159841429D02*
X189162857Y-159770000D01*
X189305715Y-159698571D01*
X189520000Y-159698571D01*
X189662857Y-159770000D01*
X189734286Y-159912857D01*
X189734286Y-160698571D01*
X190377143Y-160627143D02*
X190520000Y-160698571D01*
X190805715Y-160698571D01*
X190948572Y-160627143D01*
X191020000Y-160484286D01*
X191020000Y-160412857D01*
X190948572Y-160270000D01*
X190805715Y-160198571D01*
X190591429Y-160198571D01*
X190448572Y-160127143D01*
X190377143Y-159984286D01*
X190377143Y-159912857D01*
X190448572Y-159770000D01*
X190591429Y-159698571D01*
X190805715Y-159698571D01*
X190948572Y-159770000D01*
X191877144Y-160698571D02*
X191734286Y-160627143D01*
X191662858Y-160555714D01*
X191591429Y-160412857D01*
X191591429Y-159984286D01*
X191662858Y-159841429D01*
X191734286Y-159770000D01*
X191877144Y-159698571D01*
X192091429Y-159698571D01*
X192234286Y-159770000D01*
X192305715Y-159841429D01*
X192377144Y-159984286D01*
X192377144Y-160412857D01*
X192305715Y-160555714D01*
X192234286Y-160627143D01*
X192091429Y-160698571D01*
X191877144Y-160698571D01*
X193020001Y-160698571D02*
X193020001Y-159698571D01*
X193020001Y-159984286D02*
X193091429Y-159841429D01*
X193162858Y-159770000D01*
X193305715Y-159698571D01*
X193448572Y-159698571D01*
X193877143Y-160627143D02*
X194020000Y-160698571D01*
X194305715Y-160698571D01*
X194448572Y-160627143D01*
X194520000Y-160484286D01*
X194520000Y-160412857D01*
X194448572Y-160270000D01*
X194305715Y-160198571D01*
X194091429Y-160198571D01*
X193948572Y-160127143D01*
X193877143Y-159984286D01*
X193877143Y-159912857D01*
X193948572Y-159770000D01*
X194091429Y-159698571D01*
X194305715Y-159698571D01*
X194448572Y-159770000D01*
X196948572Y-160698571D02*
X196948572Y-159912857D01*
X196877143Y-159770000D01*
X196734286Y-159698571D01*
X196448572Y-159698571D01*
X196305715Y-159770000D01*
X196948572Y-160627143D02*
X196805715Y-160698571D01*
X196448572Y-160698571D01*
X196305715Y-160627143D01*
X196234286Y-160484286D01*
X196234286Y-160341429D01*
X196305715Y-160198571D01*
X196448572Y-160127143D01*
X196805715Y-160127143D01*
X196948572Y-160055714D01*
X208110000Y-160627143D02*
X208252857Y-160698571D01*
X208538572Y-160698571D01*
X208681429Y-160627143D01*
X208752857Y-160484286D01*
X208752857Y-160412857D01*
X208681429Y-160270000D01*
X208538572Y-160198571D01*
X208324286Y-160198571D01*
X208181429Y-160127143D01*
X208110000Y-159984286D01*
X208110000Y-159912857D01*
X208181429Y-159770000D01*
X208324286Y-159698571D01*
X208538572Y-159698571D01*
X208681429Y-159770000D01*
X209967143Y-160627143D02*
X209824286Y-160698571D01*
X209538572Y-160698571D01*
X209395715Y-160627143D01*
X209324286Y-160484286D01*
X209324286Y-159912857D01*
X209395715Y-159770000D01*
X209538572Y-159698571D01*
X209824286Y-159698571D01*
X209967143Y-159770000D01*
X210038572Y-159912857D01*
X210038572Y-160055714D01*
X209324286Y-160198571D01*
X210681429Y-159698571D02*
X210681429Y-160698571D01*
X210681429Y-159841429D02*
X210752857Y-159770000D01*
X210895715Y-159698571D01*
X211110000Y-159698571D01*
X211252857Y-159770000D01*
X211324286Y-159912857D01*
X211324286Y-160698571D01*
X211967143Y-160627143D02*
X212110000Y-160698571D01*
X212395715Y-160698571D01*
X212538572Y-160627143D01*
X212610000Y-160484286D01*
X212610000Y-160412857D01*
X212538572Y-160270000D01*
X212395715Y-160198571D01*
X212181429Y-160198571D01*
X212038572Y-160127143D01*
X211967143Y-159984286D01*
X211967143Y-159912857D01*
X212038572Y-159770000D01*
X212181429Y-159698571D01*
X212395715Y-159698571D01*
X212538572Y-159770000D01*
X213467144Y-160698571D02*
X213324286Y-160627143D01*
X213252858Y-160555714D01*
X213181429Y-160412857D01*
X213181429Y-159984286D01*
X213252858Y-159841429D01*
X213324286Y-159770000D01*
X213467144Y-159698571D01*
X213681429Y-159698571D01*
X213824286Y-159770000D01*
X213895715Y-159841429D01*
X213967144Y-159984286D01*
X213967144Y-160412857D01*
X213895715Y-160555714D01*
X213824286Y-160627143D01*
X213681429Y-160698571D01*
X213467144Y-160698571D01*
X214610001Y-160698571D02*
X214610001Y-159698571D01*
X214610001Y-159984286D02*
X214681429Y-159841429D01*
X214752858Y-159770000D01*
X214895715Y-159698571D01*
X215038572Y-159698571D01*
X215467143Y-160627143D02*
X215610000Y-160698571D01*
X215895715Y-160698571D01*
X216038572Y-160627143D01*
X216110000Y-160484286D01*
X216110000Y-160412857D01*
X216038572Y-160270000D01*
X215895715Y-160198571D01*
X215681429Y-160198571D01*
X215538572Y-160127143D01*
X215467143Y-159984286D01*
X215467143Y-159912857D01*
X215538572Y-159770000D01*
X215681429Y-159698571D01*
X215895715Y-159698571D01*
X216038572Y-159770000D01*
X217895715Y-160698571D02*
X217895715Y-159198571D01*
X217895715Y-159770000D02*
X218038572Y-159698571D01*
X218324286Y-159698571D01*
X218467143Y-159770000D01*
X218538572Y-159841429D01*
X218610001Y-159984286D01*
X218610001Y-160412857D01*
X218538572Y-160555714D01*
X218467143Y-160627143D01*
X218324286Y-160698571D01*
X218038572Y-160698571D01*
X217895715Y-160627143D01*
X191218572Y-134028571D02*
X191218572Y-132528571D01*
X191218572Y-133100000D02*
X191361429Y-133028571D01*
X191647143Y-133028571D01*
X191790000Y-133100000D01*
X191861429Y-133171429D01*
X191932858Y-133314286D01*
X191932858Y-133742857D01*
X191861429Y-133885714D01*
X191790000Y-133957143D01*
X191647143Y-134028571D01*
X191361429Y-134028571D01*
X191218572Y-133957143D01*
X193647143Y-132457143D02*
X192361429Y-134385714D01*
X194932858Y-134028571D02*
X194075715Y-134028571D01*
X194504287Y-134028571D02*
X194504287Y-132528571D01*
X194361430Y-132742857D01*
X194218572Y-132885714D01*
X194075715Y-132957143D01*
X200108572Y-134028571D02*
X200108572Y-132528571D01*
X200108572Y-133100000D02*
X200251429Y-133028571D01*
X200537143Y-133028571D01*
X200680000Y-133100000D01*
X200751429Y-133171429D01*
X200822858Y-133314286D01*
X200822858Y-133742857D01*
X200751429Y-133885714D01*
X200680000Y-133957143D01*
X200537143Y-134028571D01*
X200251429Y-134028571D01*
X200108572Y-133957143D01*
X202537143Y-132457143D02*
X201251429Y-134385714D01*
X203322858Y-132528571D02*
X203465715Y-132528571D01*
X203608572Y-132600000D01*
X203680001Y-132671429D01*
X203751430Y-132814286D01*
X203822858Y-133100000D01*
X203822858Y-133457143D01*
X203751430Y-133742857D01*
X203680001Y-133885714D01*
X203608572Y-133957143D01*
X203465715Y-134028571D01*
X203322858Y-134028571D01*
X203180001Y-133957143D01*
X203108572Y-133885714D01*
X203037144Y-133742857D01*
X202965715Y-133457143D01*
X202965715Y-133100000D01*
X203037144Y-132814286D01*
X203108572Y-132671429D01*
X203180001Y-132600000D01*
X203322858Y-132528571D01*
X209641429Y-134028571D02*
X209641429Y-133242857D01*
X209570000Y-133100000D01*
X209427143Y-133028571D01*
X209141429Y-133028571D01*
X208998572Y-133100000D01*
X209641429Y-133957143D02*
X209498572Y-134028571D01*
X209141429Y-134028571D01*
X208998572Y-133957143D01*
X208927143Y-133814286D01*
X208927143Y-133671429D01*
X208998572Y-133528571D01*
X209141429Y-133457143D01*
X209498572Y-133457143D01*
X209641429Y-133385714D01*
X211427143Y-132457143D02*
X210141429Y-134385714D01*
X212712858Y-134028571D02*
X211855715Y-134028571D01*
X212284287Y-134028571D02*
X212284287Y-132528571D01*
X212141430Y-132742857D01*
X211998572Y-132885714D01*
X211855715Y-132957143D01*
X218531429Y-134028571D02*
X218531429Y-133242857D01*
X218460000Y-133100000D01*
X218317143Y-133028571D01*
X218031429Y-133028571D01*
X217888572Y-133100000D01*
X218531429Y-133957143D02*
X218388572Y-134028571D01*
X218031429Y-134028571D01*
X217888572Y-133957143D01*
X217817143Y-133814286D01*
X217817143Y-133671429D01*
X217888572Y-133528571D01*
X218031429Y-133457143D01*
X218388572Y-133457143D01*
X218531429Y-133385714D01*
X220317143Y-132457143D02*
X219031429Y-134385714D01*
X221102858Y-132528571D02*
X221245715Y-132528571D01*
X221388572Y-132600000D01*
X221460001Y-132671429D01*
X221531430Y-132814286D01*
X221602858Y-133100000D01*
X221602858Y-133457143D01*
X221531430Y-133742857D01*
X221460001Y-133885714D01*
X221388572Y-133957143D01*
X221245715Y-134028571D01*
X221102858Y-134028571D01*
X220960001Y-133957143D01*
X220888572Y-133885714D01*
X220817144Y-133742857D01*
X220745715Y-133457143D01*
X220745715Y-133100000D01*
X220817144Y-132814286D01*
X220888572Y-132671429D01*
X220960001Y-132600000D01*
X221102858Y-132528571D01*
D12*
X181020000Y-131220000D02*
X184740000Y-131220000D01*
X181020000Y-132940000D02*
X184740000Y-132940000D01*
X178667665Y-138238608D02*
G75*
G03X181900000Y-138395516I1672335J1078608D01*
G01*
X178667665Y-136081392D02*
G75*
G02X181900000Y-135924484I1672335J-1078608D01*
G01*
X179298870Y-138239837D02*
G75*
G03X181380961Y-138240000I1041130J1079837D01*
G01*
X179298870Y-136080163D02*
G75*
G02X181380961Y-136080000I1041130J-1079837D01*
G01*
X181900000Y-138396000D02*
X181900000Y-138240000D01*
X181900000Y-136080000D02*
X181900000Y-135924000D01*
D13*
X180086000Y-127000000D02*
G75*
G03X180086000Y-127000000I-2286000J0D01*
G01*
X229616000Y-127000000D02*
G75*
G03X229616000Y-127000000I-2286000J0D01*
G01*
X229616000Y-165100000D02*
G75*
G03X229616000Y-165100000I-2286000J0D01*
G01*
D12*
X187205000Y-152765000D02*
X187205000Y-154535000D01*
X187205000Y-154535000D02*
X223005000Y-154535000D01*
X223005000Y-154535000D02*
X223005000Y-148995000D01*
X223005000Y-148995000D02*
X187205000Y-148995000D01*
X187205000Y-148995000D02*
X187205000Y-150765000D01*
X187205000Y-150765000D02*
G75*
G02X187205000Y-152765000I0J-1000000D01*
G01*
X187205000Y-141970000D02*
X187205000Y-143740000D01*
X187205000Y-143740000D02*
X223005000Y-143740000D01*
X223005000Y-143740000D02*
X223005000Y-138200000D01*
X223005000Y-138200000D02*
X187205000Y-138200000D01*
X187205000Y-138200000D02*
X187205000Y-139970000D01*
X187205000Y-139970000D02*
G75*
G02X187205000Y-141970000I0J-1000000D01*
G01*
X226469000Y-147927000D02*
X226469000Y-146753000D01*
X228191000Y-147927000D02*
X228191000Y-146753000D01*
X180086000Y-165100000D02*
G75*
G03X180086000Y-165100000I-2286000J0D01*
G01*
X217110000Y-127000000D02*
X217110000Y-132140000D01*
X217110000Y-132140000D02*
X222310000Y-132140000D01*
X222310000Y-132140000D02*
X222310000Y-124400000D01*
X222310000Y-124400000D02*
X219710000Y-124400000D01*
X219710000Y-124400000D02*
X219710000Y-127000000D01*
X219710000Y-127000000D02*
X217110000Y-127000000D01*
X217110000Y-125730000D02*
X217110000Y-124400000D01*
X217110000Y-124400000D02*
X218440000Y-124400000D01*
X208220000Y-127000000D02*
X208220000Y-132140000D01*
X208220000Y-132140000D02*
X213420000Y-132140000D01*
X213420000Y-132140000D02*
X213420000Y-124400000D01*
X213420000Y-124400000D02*
X210820000Y-124400000D01*
X210820000Y-124400000D02*
X210820000Y-127000000D01*
X210820000Y-127000000D02*
X208220000Y-127000000D01*
X208220000Y-125730000D02*
X208220000Y-124400000D01*
X208220000Y-124400000D02*
X209550000Y-124400000D01*
X206375000Y-167065000D02*
X224215000Y-167065000D01*
X224215000Y-167065000D02*
X224215000Y-161865000D01*
X224215000Y-161865000D02*
X203775000Y-161865000D01*
X203775000Y-161865000D02*
X203775000Y-164465000D01*
X203775000Y-164465000D02*
X206375000Y-164465000D01*
X206375000Y-164465000D02*
X206375000Y-167065000D01*
X205105000Y-167065000D02*
X203775000Y-167065000D01*
X203775000Y-167065000D02*
X203775000Y-165735000D01*
X199330000Y-127000000D02*
X199330000Y-132140000D01*
X199330000Y-132140000D02*
X204530000Y-132140000D01*
X204530000Y-132140000D02*
X204530000Y-124400000D01*
X204530000Y-124400000D02*
X201930000Y-124400000D01*
X201930000Y-124400000D02*
X201930000Y-127000000D01*
X201930000Y-127000000D02*
X199330000Y-127000000D01*
X199330000Y-125730000D02*
X199330000Y-124400000D01*
X199330000Y-124400000D02*
X200660000Y-124400000D01*
X189805000Y-127000000D02*
X189805000Y-132140000D01*
X189805000Y-132140000D02*
X195005000Y-132140000D01*
X195005000Y-132140000D02*
X195005000Y-124400000D01*
X195005000Y-124400000D02*
X192405000Y-124400000D01*
X192405000Y-124400000D02*
X192405000Y-127000000D01*
X192405000Y-127000000D02*
X189805000Y-127000000D01*
X189805000Y-125730000D02*
X189805000Y-124400000D01*
X189805000Y-124400000D02*
X191135000Y-124400000D01*
X184785000Y-167065000D02*
X202625000Y-167065000D01*
X202625000Y-167065000D02*
X202625000Y-161865000D01*
X202625000Y-161865000D02*
X182185000Y-161865000D01*
X182185000Y-161865000D02*
X182185000Y-164465000D01*
X182185000Y-164465000D02*
X184785000Y-164465000D01*
X184785000Y-164465000D02*
X184785000Y-167065000D01*
X183515000Y-167065000D02*
X182185000Y-167065000D01*
X182185000Y-167065000D02*
X182185000Y-165735000D01*
X226000000Y-153670000D02*
X226000000Y-161350000D01*
X226000000Y-161350000D02*
X228660000Y-161350000D01*
X228660000Y-161350000D02*
X228660000Y-153670000D01*
X228660000Y-153670000D02*
X226000000Y-153670000D01*
X226000000Y-152400000D02*
X226000000Y-151070000D01*
X226000000Y-151070000D02*
X227330000Y-151070000D01*
X176470000Y-153670000D02*
X176470000Y-161350000D01*
X176470000Y-161350000D02*
X179130000Y-161350000D01*
X179130000Y-161350000D02*
X179130000Y-153670000D01*
X179130000Y-153670000D02*
X176470000Y-153670000D01*
X176470000Y-152400000D02*
X176470000Y-151070000D01*
X176470000Y-151070000D02*
X177800000Y-151070000D01*
D14*
X182713334Y-130672381D02*
X182380000Y-130196190D01*
X182141905Y-130672381D02*
X182141905Y-129672381D01*
X182522858Y-129672381D01*
X182618096Y-129720000D01*
X182665715Y-129767619D01*
X182713334Y-129862857D01*
X182713334Y-130005714D01*
X182665715Y-130100952D01*
X182618096Y-130148571D01*
X182522858Y-130196190D01*
X182141905Y-130196190D01*
X183665715Y-130672381D02*
X183094286Y-130672381D01*
X183380000Y-130672381D02*
X183380000Y-129672381D01*
X183284762Y-129815238D01*
X183189524Y-129910476D01*
X183094286Y-129958095D01*
X179601905Y-140572381D02*
X179601905Y-139572381D01*
X179840000Y-139572381D01*
X179982858Y-139620000D01*
X180078096Y-139715238D01*
X180125715Y-139810476D01*
X180173334Y-140000952D01*
X180173334Y-140143810D01*
X180125715Y-140334286D01*
X180078096Y-140429524D01*
X179982858Y-140524762D01*
X179840000Y-140572381D01*
X179601905Y-140572381D01*
X181125715Y-140572381D02*
X180554286Y-140572381D01*
X180840000Y-140572381D02*
X180840000Y-139572381D01*
X180744762Y-139715238D01*
X180649524Y-139810476D01*
X180554286Y-139858095D01*
D15*
D14*
X186657381Y-152741190D02*
X185657381Y-152741190D01*
X186562143Y-151693571D02*
X186609762Y-151741190D01*
X186657381Y-151884047D01*
X186657381Y-151979285D01*
X186609762Y-152122143D01*
X186514524Y-152217381D01*
X186419286Y-152265000D01*
X186228810Y-152312619D01*
X186085952Y-152312619D01*
X185895476Y-152265000D01*
X185800238Y-152217381D01*
X185705000Y-152122143D01*
X185657381Y-151979285D01*
X185657381Y-151884047D01*
X185705000Y-151741190D01*
X185752619Y-151693571D01*
X186657381Y-150741190D02*
X186657381Y-151312619D01*
X186657381Y-151026905D02*
X185657381Y-151026905D01*
X185800238Y-151122143D01*
X185895476Y-151217381D01*
X185943095Y-151312619D01*
X186657381Y-141946190D02*
X185657381Y-141946190D01*
X186562143Y-140898571D02*
X186609762Y-140946190D01*
X186657381Y-141089047D01*
X186657381Y-141184285D01*
X186609762Y-141327143D01*
X186514524Y-141422381D01*
X186419286Y-141470000D01*
X186228810Y-141517619D01*
X186085952Y-141517619D01*
X185895476Y-141470000D01*
X185800238Y-141422381D01*
X185705000Y-141327143D01*
X185657381Y-141184285D01*
X185657381Y-141089047D01*
X185705000Y-140946190D01*
X185752619Y-140898571D01*
X185752619Y-140517619D02*
X185705000Y-140470000D01*
X185657381Y-140374762D01*
X185657381Y-140136666D01*
X185705000Y-140041428D01*
X185752619Y-139993809D01*
X185847857Y-139946190D01*
X185943095Y-139946190D01*
X186085952Y-139993809D01*
X186657381Y-140565238D01*
X186657381Y-139946190D01*
X225827143Y-147506666D02*
X225874762Y-147554285D01*
X225922381Y-147697142D01*
X225922381Y-147792380D01*
X225874762Y-147935238D01*
X225779524Y-148030476D01*
X225684286Y-148078095D01*
X225493810Y-148125714D01*
X225350952Y-148125714D01*
X225160476Y-148078095D01*
X225065238Y-148030476D01*
X224970000Y-147935238D01*
X224922381Y-147792380D01*
X224922381Y-147697142D01*
X224970000Y-147554285D01*
X225017619Y-147506666D01*
X225922381Y-146554285D02*
X225922381Y-147125714D01*
X225922381Y-146840000D02*
X224922381Y-146840000D01*
X225065238Y-146935238D01*
X225160476Y-147030476D01*
X225208095Y-147125714D01*
X215566667Y-125182381D02*
X215566667Y-125896667D01*
X215519047Y-126039524D01*
X215423809Y-126134762D01*
X215280952Y-126182381D01*
X215185714Y-126182381D01*
X215995238Y-125277619D02*
X216042857Y-125230000D01*
X216138095Y-125182381D01*
X216376191Y-125182381D01*
X216471429Y-125230000D01*
X216519048Y-125277619D01*
X216566667Y-125372857D01*
X216566667Y-125468095D01*
X216519048Y-125610952D01*
X215947619Y-126182381D01*
X216566667Y-126182381D01*
X206676667Y-125182381D02*
X206676667Y-125896667D01*
X206629047Y-126039524D01*
X206533809Y-126134762D01*
X206390952Y-126182381D01*
X206295714Y-126182381D01*
X207057619Y-125182381D02*
X207676667Y-125182381D01*
X207343333Y-125563333D01*
X207486191Y-125563333D01*
X207581429Y-125610952D01*
X207629048Y-125658571D01*
X207676667Y-125753810D01*
X207676667Y-125991905D01*
X207629048Y-126087143D01*
X207581429Y-126134762D01*
X207486191Y-126182381D01*
X207200476Y-126182381D01*
X207105238Y-126134762D01*
X207057619Y-126087143D01*
X202227381Y-164798333D02*
X202941667Y-164798333D01*
X203084524Y-164845953D01*
X203179762Y-164941191D01*
X203227381Y-165084048D01*
X203227381Y-165179286D01*
X202560714Y-163893571D02*
X203227381Y-163893571D01*
X202179762Y-164131667D02*
X202894048Y-164369762D01*
X202894048Y-163750714D01*
X197786667Y-125182381D02*
X197786667Y-125896667D01*
X197739047Y-126039524D01*
X197643809Y-126134762D01*
X197500952Y-126182381D01*
X197405714Y-126182381D01*
X198739048Y-125182381D02*
X198262857Y-125182381D01*
X198215238Y-125658571D01*
X198262857Y-125610952D01*
X198358095Y-125563333D01*
X198596191Y-125563333D01*
X198691429Y-125610952D01*
X198739048Y-125658571D01*
X198786667Y-125753810D01*
X198786667Y-125991905D01*
X198739048Y-126087143D01*
X198691429Y-126134762D01*
X198596191Y-126182381D01*
X198358095Y-126182381D01*
X198262857Y-126134762D01*
X198215238Y-126087143D01*
X188896667Y-125182381D02*
X188896667Y-125896667D01*
X188849047Y-126039524D01*
X188753809Y-126134762D01*
X188610952Y-126182381D01*
X188515714Y-126182381D01*
X189801429Y-125182381D02*
X189610952Y-125182381D01*
X189515714Y-125230000D01*
X189468095Y-125277619D01*
X189372857Y-125420476D01*
X189325238Y-125610952D01*
X189325238Y-125991905D01*
X189372857Y-126087143D01*
X189420476Y-126134762D01*
X189515714Y-126182381D01*
X189706191Y-126182381D01*
X189801429Y-126134762D01*
X189849048Y-126087143D01*
X189896667Y-125991905D01*
X189896667Y-125753810D01*
X189849048Y-125658571D01*
X189801429Y-125610952D01*
X189706191Y-125563333D01*
X189515714Y-125563333D01*
X189420476Y-125610952D01*
X189372857Y-125658571D01*
X189325238Y-125753810D01*
X180637381Y-164798333D02*
X181351667Y-164798333D01*
X181494524Y-164845953D01*
X181589762Y-164941191D01*
X181637381Y-165084048D01*
X181637381Y-165179286D01*
X180637381Y-164417381D02*
X180637381Y-163750714D01*
X181637381Y-164179286D01*
X226996667Y-149522381D02*
X226996667Y-150236667D01*
X226949047Y-150379524D01*
X226853809Y-150474762D01*
X226710952Y-150522381D01*
X226615714Y-150522381D01*
X227996667Y-150522381D02*
X227425238Y-150522381D01*
X227710952Y-150522381D02*
X227710952Y-149522381D01*
X227615714Y-149665238D01*
X227520476Y-149760476D01*
X227425238Y-149808095D01*
X177466667Y-149522381D02*
X177466667Y-150236667D01*
X177419047Y-150379524D01*
X177323809Y-150474762D01*
X177180952Y-150522381D01*
X177085714Y-150522381D01*
X178085714Y-149950952D02*
X177990476Y-149903333D01*
X177942857Y-149855714D01*
X177895238Y-149760476D01*
X177895238Y-149712857D01*
X177942857Y-149617619D01*
X177990476Y-149570000D01*
X178085714Y-149522381D01*
X178276191Y-149522381D01*
X178371429Y-149570000D01*
X178419048Y-149617619D01*
X178466667Y-149712857D01*
X178466667Y-149760476D01*
X178419048Y-149855714D01*
X178371429Y-149903333D01*
X178276191Y-149950952D01*
X178085714Y-149950952D01*
X177990476Y-149998571D01*
X177942857Y-150046190D01*
X177895238Y-150141429D01*
X177895238Y-150331905D01*
X177942857Y-150427143D01*
X177990476Y-150474762D01*
X178085714Y-150522381D01*
X178276191Y-150522381D01*
X178371429Y-150474762D01*
X178419048Y-150427143D01*
X178466667Y-150331905D01*
X178466667Y-150141429D01*
X178419048Y-150046190D01*
X178371429Y-149998571D01*
X178276191Y-149950952D01*
M02*
