M48
INCH,TZ
T1C0.028
T2C0.031
T3C0.035
T4C0.039
T5C0.120
%
G90
G05
T1
X7.1Y-5.2
X7.3Y-5.2
T2
X7.425Y-5.4
X7.425Y-5.7
X7.425Y-5.825
X7.425Y-6.125
X7.525Y-5.4
X7.525Y-5.7
X7.525Y-5.825
X7.525Y-6.125
X7.625Y-5.4
X7.625Y-5.7
X7.625Y-5.825
X7.625Y-6.125
X7.725Y-5.4
X7.725Y-5.7
X7.725Y-5.825
X7.725Y-6.125
X7.825Y-5.4
X7.825Y-5.7
X7.825Y-5.825
X7.825Y-6.125
X7.925Y-5.4
X7.925Y-5.7
X7.925Y-5.825
X7.925Y-6.125
X8.025Y-5.4
X8.025Y-5.7
X8.025Y-5.825
X8.025Y-6.125
X8.125Y-5.4
X8.125Y-5.7
X8.125Y-5.825
X8.125Y-6.125
X8.225Y-5.4
X8.225Y-5.7
X8.225Y-5.825
X8.225Y-6.125
X8.325Y-5.4
X8.325Y-5.7
X8.325Y-5.825
X8.325Y-6.125
X8.425Y-5.4
X8.425Y-5.7
X8.425Y-5.825
X8.425Y-6.125
X8.525Y-5.4
X8.525Y-5.7
X8.525Y-5.825
X8.525Y-6.125
X8.625Y-5.4
X8.625Y-5.7
X8.625Y-5.825
X8.625Y-6.125
X8.725Y-5.4
X8.725Y-5.7
X8.725Y-5.825
X8.725Y-6.125
X8.95Y-5.7516
X8.95Y-5.85
T3
X7.05Y-5.4
X7.15Y-5.4
T4
X7.Y-6.
X7.Y-6.1
X7.Y-6.2
X7.Y-6.3
X7.225Y-6.425
X7.225Y-6.525
X7.325Y-6.425
X7.325Y-6.525
X7.425Y-6.425
X7.425Y-6.525
X7.525Y-4.95
X7.525Y-5.05
X7.525Y-5.15
X7.525Y-6.425
X7.525Y-6.525
X7.625Y-4.95
X7.625Y-5.05
X7.625Y-5.15
X7.625Y-6.425
X7.625Y-6.525
X7.725Y-6.425
X7.725Y-6.525
X7.825Y-6.425
X7.825Y-6.525
X7.9Y-4.95
X7.9Y-5.05
X7.9Y-5.15
X7.925Y-6.425
X7.925Y-6.525
X8.Y-4.95
X8.Y-5.05
X8.Y-5.15
X8.075Y-6.425
X8.075Y-6.525
X8.175Y-6.425
X8.175Y-6.525
X8.25Y-4.95
X8.25Y-5.05
X8.25Y-5.15
X8.275Y-6.425
X8.275Y-6.525
X8.35Y-4.95
X8.35Y-5.05
X8.35Y-5.15
X8.375Y-6.425
X8.375Y-6.525
X8.475Y-6.425
X8.475Y-6.525
X8.575Y-6.425
X8.575Y-6.525
X8.6Y-4.95
X8.6Y-5.05
X8.6Y-5.15
X8.675Y-6.425
X8.675Y-6.525
X8.7Y-4.95
X8.7Y-5.05
X8.7Y-5.15
X8.775Y-6.425
X8.775Y-6.525
X8.95Y-6.
X8.95Y-6.1
X8.95Y-6.2
X8.95Y-6.3
T5
X7.Y-5.
X7.Y-6.5
X8.95Y-5.
X8.95Y-6.5
T0
M30
