G04 #@! TF.FileFunction,Copper,L2,Bot,Signal*
%FSLAX46Y46*%
G04 Gerber Fmt 4.6, Leading zero omitted, Abs format (unit mm)*
G04 Created by KiCad (PCBNEW 4.0.6-e0-6349~53~ubuntu14.04.1) date Wed May 31 17:07:56 2017*
%MOMM*%
%LPD*%
G01*
G04 APERTURE LIST*
%ADD10C,0.100000*%
%ADD11C,1.400000*%
%ADD12O,1.400000X1.400000*%
%ADD13R,1.800000X1.800000*%
%ADD14C,1.800000*%
%ADD15C,4.064000*%
%ADD16R,1.600000X1.600000*%
%ADD17O,1.600000X1.600000*%
%ADD18C,1.600000*%
%ADD19R,1.700000X1.700000*%
%ADD20O,1.700000X1.700000*%
%ADD21C,0.254000*%
G04 APERTURE END LIST*
D10*
D11*
X180340000Y-132080000D03*
D12*
X185420000Y-132080000D03*
D13*
X181610000Y-137160000D03*
D14*
X179070000Y-137160000D03*
D15*
X177800000Y-127000000D03*
X227330000Y-127000000D03*
X227330000Y-165100000D03*
D16*
X188595000Y-155575000D03*
D17*
X221615000Y-147955000D03*
X191135000Y-155575000D03*
X219075000Y-147955000D03*
X193675000Y-155575000D03*
X216535000Y-147955000D03*
X196215000Y-155575000D03*
X213995000Y-147955000D03*
X198755000Y-155575000D03*
X211455000Y-147955000D03*
X201295000Y-155575000D03*
X208915000Y-147955000D03*
X203835000Y-155575000D03*
X206375000Y-147955000D03*
X206375000Y-155575000D03*
X203835000Y-147955000D03*
X208915000Y-155575000D03*
X201295000Y-147955000D03*
X211455000Y-155575000D03*
X198755000Y-147955000D03*
X213995000Y-155575000D03*
X196215000Y-147955000D03*
X216535000Y-155575000D03*
X193675000Y-147955000D03*
X219075000Y-155575000D03*
X191135000Y-147955000D03*
X221615000Y-155575000D03*
X188595000Y-147955000D03*
D16*
X188595000Y-144780000D03*
D17*
X221615000Y-137160000D03*
X191135000Y-144780000D03*
X219075000Y-137160000D03*
X193675000Y-144780000D03*
X216535000Y-137160000D03*
X196215000Y-144780000D03*
X213995000Y-137160000D03*
X198755000Y-144780000D03*
X211455000Y-137160000D03*
X201295000Y-144780000D03*
X208915000Y-137160000D03*
X203835000Y-144780000D03*
X206375000Y-137160000D03*
X206375000Y-144780000D03*
X203835000Y-137160000D03*
X208915000Y-144780000D03*
X201295000Y-137160000D03*
X211455000Y-144780000D03*
X198755000Y-137160000D03*
X213995000Y-144780000D03*
X196215000Y-137160000D03*
X216535000Y-144780000D03*
X193675000Y-137160000D03*
X219075000Y-144780000D03*
X191135000Y-137160000D03*
X221615000Y-144780000D03*
X188595000Y-137160000D03*
D18*
X227330000Y-148590000D03*
X227330000Y-146090000D03*
D15*
X177800000Y-165100000D03*
D19*
X218440000Y-125730000D03*
D20*
X220980000Y-125730000D03*
X218440000Y-128270000D03*
X220980000Y-128270000D03*
X218440000Y-130810000D03*
X220980000Y-130810000D03*
D19*
X209550000Y-125730000D03*
D20*
X212090000Y-125730000D03*
X209550000Y-128270000D03*
X212090000Y-128270000D03*
X209550000Y-130810000D03*
X212090000Y-130810000D03*
D19*
X205105000Y-165735000D03*
D20*
X205105000Y-163195000D03*
X207645000Y-165735000D03*
X207645000Y-163195000D03*
X210185000Y-165735000D03*
X210185000Y-163195000D03*
X212725000Y-165735000D03*
X212725000Y-163195000D03*
X215265000Y-165735000D03*
X215265000Y-163195000D03*
X217805000Y-165735000D03*
X217805000Y-163195000D03*
X220345000Y-165735000D03*
X220345000Y-163195000D03*
X222885000Y-165735000D03*
X222885000Y-163195000D03*
D19*
X200660000Y-125730000D03*
D20*
X203200000Y-125730000D03*
X200660000Y-128270000D03*
X203200000Y-128270000D03*
X200660000Y-130810000D03*
X203200000Y-130810000D03*
D19*
X191135000Y-125730000D03*
D20*
X193675000Y-125730000D03*
X191135000Y-128270000D03*
X193675000Y-128270000D03*
X191135000Y-130810000D03*
X193675000Y-130810000D03*
D19*
X183515000Y-165735000D03*
D20*
X183515000Y-163195000D03*
X186055000Y-165735000D03*
X186055000Y-163195000D03*
X188595000Y-165735000D03*
X188595000Y-163195000D03*
X191135000Y-165735000D03*
X191135000Y-163195000D03*
X193675000Y-165735000D03*
X193675000Y-163195000D03*
X196215000Y-165735000D03*
X196215000Y-163195000D03*
X198755000Y-165735000D03*
X198755000Y-163195000D03*
X201295000Y-165735000D03*
X201295000Y-163195000D03*
D19*
X227330000Y-152400000D03*
D20*
X227330000Y-154940000D03*
X227330000Y-157480000D03*
X227330000Y-160020000D03*
D19*
X177800000Y-152400000D03*
D20*
X177800000Y-154940000D03*
X177800000Y-157480000D03*
X177800000Y-160020000D03*
D21*
X227330000Y-146090000D02*
X227330000Y-146099543D01*
X227330000Y-146099543D02*
X229870000Y-148639543D01*
X229870000Y-148639543D02*
X229870000Y-154940000D01*
X229870000Y-154940000D02*
X227330000Y-157480000D01*
X213995000Y-147955000D02*
X215900000Y-149860000D01*
X215900000Y-149860000D02*
X223560000Y-149860000D01*
X223560000Y-149860000D02*
X227330000Y-146090000D01*
X208915000Y-144780000D02*
X208915000Y-145415000D01*
X212725000Y-146685000D02*
X213995000Y-147955000D01*
X210185000Y-146685000D02*
X212725000Y-146685000D01*
X208915000Y-145415000D02*
X210185000Y-146685000D01*
X219075000Y-155575000D02*
X224116001Y-160616001D01*
X224116001Y-160616001D02*
X224116001Y-166325881D01*
X224116001Y-166325881D02*
X222523138Y-167918744D01*
X179070000Y-152400000D02*
X177800000Y-152400000D01*
X222523138Y-167918744D02*
X182607010Y-167918744D01*
X181687619Y-153913619D02*
X180174000Y-152400000D01*
X182607010Y-167918744D02*
X181687620Y-166999354D01*
X180174000Y-152400000D02*
X179070000Y-152400000D01*
X181687620Y-166999354D02*
X181687619Y-153913619D01*
X218440000Y-125730000D02*
X218440000Y-126834000D01*
X224790000Y-130258118D02*
X224790000Y-144780000D01*
X218440000Y-126834000D02*
X218644999Y-127038999D01*
X218644999Y-127038999D02*
X221570881Y-127038999D01*
X221570881Y-127038999D02*
X224790000Y-130258118D01*
X222313499Y-147256501D02*
X221615000Y-147955000D01*
X224790000Y-144780000D02*
X222313499Y-147256501D01*
X209550000Y-125730000D02*
X209550000Y-126834000D01*
X209550000Y-126834000D02*
X209677001Y-126961001D01*
X209677001Y-126961001D02*
X216104999Y-126961001D01*
X216104999Y-126961001D02*
X217336000Y-125730000D01*
X217336000Y-125730000D02*
X218440000Y-125730000D01*
X218440000Y-128270000D02*
X219748999Y-129578999D01*
X219748999Y-129578999D02*
X221570881Y-129578999D01*
X220345000Y-142875000D02*
X220345000Y-146685000D01*
X220345000Y-146685000D02*
X219773499Y-147256501D01*
X221570881Y-129578999D02*
X224155000Y-132163118D01*
X224155000Y-132163118D02*
X224155000Y-139065000D01*
X224155000Y-139065000D02*
X220345000Y-142875000D01*
X219773499Y-147256501D02*
X219075000Y-147955000D01*
X209550000Y-128270000D02*
X210781001Y-129501001D01*
X210781001Y-129501001D02*
X217208999Y-129501001D01*
X217208999Y-129501001D02*
X217590001Y-129119999D01*
X217590001Y-129119999D02*
X218440000Y-128270000D01*
X223576597Y-134620000D02*
X223576597Y-135890000D01*
X223576597Y-135890000D02*
X223576597Y-138373403D01*
X218440000Y-130810000D02*
X219710000Y-132080000D01*
X219710000Y-132080000D02*
X221531882Y-132080000D01*
X221531882Y-132080000D02*
X223520000Y-134068118D01*
X223520000Y-134068118D02*
X223520000Y-135833403D01*
X223520000Y-135833403D02*
X223576597Y-135890000D01*
X209550000Y-130810000D02*
X210820000Y-132080000D01*
X210820000Y-132080000D02*
X217170000Y-132080000D01*
X217170000Y-132080000D02*
X217590001Y-131659999D01*
X217590001Y-131659999D02*
X218440000Y-130810000D01*
X217805000Y-144145000D02*
X217805000Y-146685000D01*
X217805000Y-146685000D02*
X216535000Y-147955000D01*
X223576597Y-138373403D02*
X217805000Y-144145000D01*
X218440000Y-157480000D02*
X211455000Y-157480000D01*
X211455000Y-157480000D02*
X210185000Y-156210000D01*
X222885000Y-165735000D02*
X222885000Y-165100000D01*
X222885000Y-165100000D02*
X221615000Y-163830000D01*
X221615000Y-163830000D02*
X221615000Y-160655000D01*
X221615000Y-160655000D02*
X218440000Y-157480000D01*
X210185000Y-156210000D02*
X210185000Y-151765000D01*
X210185000Y-151765000D02*
X206375000Y-147955000D01*
X216408011Y-157988011D02*
X219075000Y-160655000D01*
X219075000Y-160655000D02*
X219075000Y-164465000D01*
X209423011Y-157988011D02*
X216408011Y-157988011D01*
X207645000Y-151765000D02*
X207645000Y-156210000D01*
X207645000Y-156210000D02*
X209423011Y-157988011D01*
X203835000Y-147955000D02*
X207645000Y-151765000D01*
X219075000Y-164465000D02*
X219583001Y-164973001D01*
X219583001Y-164973001D02*
X220345000Y-165735000D01*
X215646022Y-158496022D02*
X216535000Y-159385000D01*
X216535000Y-159385000D02*
X216535000Y-164465000D01*
X207391022Y-158496022D02*
X215646022Y-158496022D01*
X216535000Y-164465000D02*
X217043001Y-164973001D01*
X217043001Y-164973001D02*
X217805000Y-165735000D01*
X201295000Y-147955000D02*
X205105000Y-151765000D01*
X205105000Y-151765000D02*
X205105000Y-156210000D01*
X205105000Y-156210000D02*
X207391022Y-158496022D01*
X214503001Y-164973001D02*
X215265000Y-165735000D01*
X213995000Y-162175308D02*
X213995000Y-164465000D01*
X213995000Y-164465000D02*
X214503001Y-164973001D01*
X205359033Y-159004033D02*
X210823725Y-159004033D01*
X198755000Y-147955000D02*
X202565000Y-151765000D01*
X202565000Y-151765000D02*
X202565000Y-156210000D01*
X202565000Y-156210000D02*
X205359033Y-159004033D01*
X210823725Y-159004033D02*
X213995000Y-162175308D01*
X211963001Y-164973001D02*
X212725000Y-165735000D01*
X208791736Y-159512044D02*
X211455000Y-162175308D01*
X196215000Y-147955000D02*
X200025000Y-151765000D01*
X211455000Y-162175308D02*
X211455000Y-164465000D01*
X200025000Y-151765000D02*
X200025000Y-156210000D01*
X211455000Y-164465000D02*
X211963001Y-164973001D01*
X200025000Y-156210000D02*
X203327044Y-159512044D01*
X203327044Y-159512044D02*
X208791736Y-159512044D01*
X202565055Y-160020055D02*
X206759747Y-160020055D01*
X206759747Y-160020055D02*
X208915000Y-162175308D01*
X200025000Y-157480000D02*
X202565055Y-160020055D01*
X198755000Y-157480000D02*
X200025000Y-157480000D01*
X197485000Y-156210000D02*
X198755000Y-157480000D01*
X193675000Y-147955000D02*
X197485000Y-151765000D01*
X208915000Y-162175308D02*
X208915000Y-164465000D01*
X197485000Y-151765000D02*
X197485000Y-156210000D01*
X208915000Y-164465000D02*
X209423001Y-164973001D01*
X209423001Y-164973001D02*
X210185000Y-165735000D01*
X191135000Y-147955000D02*
X191135000Y-151130000D01*
X206375000Y-164465000D02*
X207645000Y-165735000D01*
X206375000Y-161925000D02*
X206375000Y-164465000D01*
X205105000Y-160655000D02*
X206375000Y-161925000D01*
X201930000Y-160655000D02*
X205105000Y-160655000D01*
X199390000Y-158115000D02*
X201930000Y-160655000D01*
X196850000Y-158115000D02*
X199390000Y-158115000D01*
X194945000Y-156210000D02*
X196850000Y-158115000D01*
X194945000Y-154940000D02*
X194945000Y-156210000D01*
X191135000Y-151130000D02*
X194945000Y-154940000D01*
X188595000Y-147955000D02*
X188595000Y-150495000D01*
X205105000Y-165100000D02*
X205105000Y-165735000D01*
X199390000Y-159385000D02*
X205105000Y-165100000D01*
X195580000Y-159385000D02*
X199390000Y-159385000D01*
X192405000Y-156210000D02*
X195580000Y-159385000D01*
X192405000Y-154305000D02*
X192405000Y-156210000D01*
X188595000Y-150495000D02*
X192405000Y-154305000D01*
X200660000Y-125730000D02*
X200660000Y-126834000D01*
X200660000Y-126834000D02*
X200864999Y-127038999D01*
X200864999Y-127038999D02*
X203790881Y-127038999D01*
X203790881Y-127038999D02*
X210355862Y-133603980D01*
X210355862Y-133603980D02*
X218058980Y-133603980D01*
X218058980Y-133603980D02*
X220815001Y-136360001D01*
X220815001Y-136360001D02*
X221615000Y-137160000D01*
X191135000Y-125730000D02*
X191135000Y-125011882D01*
X191135000Y-125011882D02*
X193084119Y-126961001D01*
X193084119Y-126961001D02*
X198324999Y-126961001D01*
X198324999Y-126961001D02*
X199556000Y-125730000D01*
X199556000Y-125730000D02*
X200660000Y-125730000D01*
X200660000Y-128270000D02*
X201968999Y-129578999D01*
X201968999Y-129578999D02*
X205612447Y-129578999D01*
X205612447Y-129578999D02*
X210145438Y-134111990D01*
X210145438Y-134111990D02*
X216026990Y-134111990D01*
X191135000Y-128270000D02*
X192366001Y-129501001D01*
X192366001Y-129501001D02*
X199428999Y-129501001D01*
X199428999Y-129501001D02*
X199810001Y-129119999D01*
X199810001Y-129119999D02*
X200660000Y-128270000D01*
X216026990Y-134111990D02*
X218376501Y-136461501D01*
X218376501Y-136461501D02*
X219075000Y-137160000D01*
X200660000Y-133350000D02*
X200025000Y-133985000D01*
X200025000Y-133985000D02*
X200025000Y-134620000D01*
X200660000Y-130810000D02*
X200660000Y-133350000D01*
X191135000Y-130810000D02*
X191135000Y-132012081D01*
X191135000Y-132012081D02*
X193742919Y-134620000D01*
X193742919Y-134620000D02*
X200025000Y-134620000D01*
X200025000Y-134620000D02*
X200933425Y-135528425D01*
X214903425Y-135528425D02*
X216535000Y-137160000D01*
X200933425Y-135528425D02*
X214903425Y-135528425D01*
X200025000Y-164465000D02*
X200533001Y-164973001D01*
X200533001Y-164973001D02*
X201295000Y-165735000D01*
X201126287Y-142408713D02*
X187162552Y-142408713D01*
X190500000Y-160020000D02*
X197485000Y-160020000D01*
X185243693Y-154763693D02*
X190500000Y-160020000D01*
X200025000Y-162560000D02*
X200025000Y-164465000D01*
X185243693Y-144327572D02*
X185243693Y-154763693D01*
X197485000Y-160020000D02*
X200025000Y-162560000D01*
X206375000Y-137160000D02*
X201126287Y-142408713D01*
X187162552Y-142408713D02*
X185243693Y-144327572D01*
X186952127Y-141900702D02*
X184735682Y-144117147D01*
X184735682Y-144117147D02*
X184735682Y-155525674D01*
X197485000Y-162560000D02*
X197485000Y-164465000D01*
X195580000Y-160655000D02*
X197485000Y-162560000D01*
X189865000Y-160655000D02*
X195580000Y-160655000D01*
X184735682Y-155525674D02*
X189865000Y-160655000D01*
X203835000Y-137160000D02*
X199094298Y-141900702D01*
X197993001Y-164973001D02*
X198755000Y-165735000D01*
X197485000Y-164465000D02*
X197993001Y-164973001D01*
X199094298Y-141900702D02*
X186952127Y-141900702D01*
X193675000Y-161290000D02*
X194945000Y-162560000D01*
X184227672Y-143906721D02*
X184227672Y-156287672D01*
X194945000Y-164465000D02*
X195453001Y-164973001D01*
X194945000Y-162560000D02*
X194945000Y-164465000D01*
X189230000Y-161290000D02*
X193675000Y-161290000D01*
X195453001Y-164973001D02*
X196215000Y-165735000D01*
X186741702Y-141392691D02*
X184227672Y-143906721D01*
X184227672Y-156287672D02*
X189230000Y-161290000D01*
X197062309Y-141392691D02*
X186741702Y-141392691D01*
X201295000Y-137160000D02*
X197062309Y-141392691D01*
X183719662Y-143696295D02*
X183719662Y-157049662D01*
X192913001Y-164973001D02*
X193675000Y-165735000D01*
X192405000Y-164465000D02*
X192913001Y-164973001D01*
X192405000Y-162560000D02*
X192405000Y-164465000D01*
X191770000Y-161925000D02*
X192405000Y-162560000D01*
X188595000Y-161925000D02*
X191770000Y-161925000D01*
X183719662Y-157049662D02*
X188595000Y-161925000D01*
X195030320Y-140884680D02*
X186531277Y-140884680D01*
X198755000Y-137160000D02*
X195030320Y-140884680D01*
X186531277Y-140884680D02*
X183719662Y-143696295D01*
X190373001Y-164973001D02*
X191135000Y-165735000D01*
X187325000Y-163830000D02*
X187959990Y-164464990D01*
X196215000Y-137160000D02*
X192998331Y-140376669D01*
X189864990Y-164464990D02*
X190373001Y-164973001D01*
X183211651Y-143485870D02*
X183211651Y-157811651D01*
X186320852Y-140376669D02*
X183211651Y-143485870D01*
X187959990Y-164464990D02*
X189864990Y-164464990D01*
X183211651Y-157811651D02*
X187325000Y-161925000D01*
X187325000Y-161925000D02*
X187325000Y-163830000D01*
X192998331Y-140376669D02*
X186320852Y-140376669D01*
X182703640Y-143275445D02*
X186110427Y-139868658D01*
X187833001Y-164973001D02*
X187198001Y-164973001D01*
X184785000Y-163830000D02*
X184785000Y-160655000D01*
X185420000Y-164465000D02*
X184785000Y-163830000D01*
X192976501Y-137858499D02*
X193675000Y-137160000D01*
X190966342Y-139868658D02*
X192976501Y-137858499D01*
X186110427Y-139868658D02*
X190966342Y-139868658D01*
X187198001Y-164973001D02*
X186690000Y-164465000D01*
X188595000Y-165735000D02*
X187833001Y-164973001D01*
X182703640Y-158573640D02*
X182703640Y-143275445D01*
X186690000Y-164465000D02*
X185420000Y-164465000D01*
X184785000Y-160655000D02*
X182703640Y-158573640D01*
X191135000Y-137160000D02*
X188934353Y-139360647D01*
X188934353Y-139360647D02*
X185899994Y-139360647D01*
X182195629Y-143065012D02*
X182195629Y-166788929D01*
X185899994Y-139360647D02*
X182195629Y-143065012D01*
X185293001Y-166496999D02*
X186055000Y-165735000D01*
X182195629Y-166788929D02*
X182817434Y-167410734D01*
X182817434Y-167410734D02*
X184379266Y-167410734D01*
X184379266Y-167410734D02*
X185293001Y-166496999D01*
G36*
X230430000Y-148132433D02*
X230408815Y-148100727D01*
X228741286Y-146433199D01*
X228764750Y-146376691D01*
X228765248Y-145805813D01*
X228547243Y-145278200D01*
X228143923Y-144874176D01*
X227616691Y-144655250D01*
X227045813Y-144654752D01*
X226518200Y-144872757D01*
X226114176Y-145276077D01*
X225895250Y-145803309D01*
X225894752Y-146374187D01*
X225916222Y-146426148D01*
X223244370Y-149098000D01*
X222479755Y-149098000D01*
X222629698Y-148997811D01*
X222940767Y-148532264D01*
X223050000Y-147983113D01*
X223050000Y-147926887D01*
X222995373Y-147652257D01*
X225328815Y-145318816D01*
X225493996Y-145071605D01*
X225501960Y-145031568D01*
X225552000Y-144780000D01*
X225552000Y-130258118D01*
X225493996Y-129966513D01*
X225377795Y-129792606D01*
X225328816Y-129719303D01*
X223137685Y-127528172D01*
X224662538Y-127528172D01*
X225067709Y-128508761D01*
X225817293Y-129259655D01*
X226797173Y-129666536D01*
X227858172Y-129667462D01*
X228838761Y-129262291D01*
X229589655Y-128512707D01*
X229996536Y-127532827D01*
X229997462Y-126471828D01*
X229592291Y-125491239D01*
X228842707Y-124740345D01*
X227862827Y-124333464D01*
X226801828Y-124332538D01*
X225821239Y-124737709D01*
X225070345Y-125487293D01*
X224663464Y-126467173D01*
X224662538Y-127528172D01*
X223137685Y-127528172D01*
X222182409Y-126572897D01*
X222251645Y-126496924D01*
X222421476Y-126086890D01*
X222300155Y-125857000D01*
X221107000Y-125857000D01*
X221107000Y-125877000D01*
X220853000Y-125877000D01*
X220853000Y-125857000D01*
X220833000Y-125857000D01*
X220833000Y-125603000D01*
X220853000Y-125603000D01*
X220853000Y-124409181D01*
X221107000Y-124409181D01*
X221107000Y-125603000D01*
X222300155Y-125603000D01*
X222421476Y-125373110D01*
X222251645Y-124963076D01*
X221861358Y-124534817D01*
X221336892Y-124288514D01*
X221107000Y-124409181D01*
X220853000Y-124409181D01*
X220623108Y-124288514D01*
X220098642Y-124534817D01*
X219911192Y-124740504D01*
X219893162Y-124644683D01*
X219754090Y-124428559D01*
X219541890Y-124283569D01*
X219290000Y-124232560D01*
X217590000Y-124232560D01*
X217354683Y-124276838D01*
X217138559Y-124415910D01*
X216993569Y-124628110D01*
X216942560Y-124880000D01*
X216942560Y-125094048D01*
X216797184Y-125191185D01*
X215789369Y-126199001D01*
X213510803Y-126199001D01*
X213604093Y-125730000D01*
X213491054Y-125161715D01*
X213169147Y-124679946D01*
X212687378Y-124358039D01*
X212119093Y-124245000D01*
X212060907Y-124245000D01*
X211492622Y-124358039D01*
X211010853Y-124679946D01*
X211010029Y-124681179D01*
X211003162Y-124644683D01*
X210864090Y-124428559D01*
X210651890Y-124283569D01*
X210400000Y-124232560D01*
X208700000Y-124232560D01*
X208464683Y-124276838D01*
X208248559Y-124415910D01*
X208103569Y-124628110D01*
X208052560Y-124880000D01*
X208052560Y-126580000D01*
X208096838Y-126815317D01*
X208235910Y-127031441D01*
X208448110Y-127176431D01*
X208515541Y-127190086D01*
X208470853Y-127219946D01*
X208148946Y-127701715D01*
X208035907Y-128270000D01*
X208148946Y-128838285D01*
X208470853Y-129320054D01*
X208800026Y-129540000D01*
X208470853Y-129759946D01*
X208148946Y-130241715D01*
X208136052Y-130306540D01*
X204402409Y-126572897D01*
X204471645Y-126496924D01*
X204641476Y-126086890D01*
X204520155Y-125857000D01*
X203327000Y-125857000D01*
X203327000Y-125877000D01*
X203073000Y-125877000D01*
X203073000Y-125857000D01*
X203053000Y-125857000D01*
X203053000Y-125603000D01*
X203073000Y-125603000D01*
X203073000Y-124409181D01*
X203327000Y-124409181D01*
X203327000Y-125603000D01*
X204520155Y-125603000D01*
X204641476Y-125373110D01*
X204471645Y-124963076D01*
X204081358Y-124534817D01*
X203556892Y-124288514D01*
X203327000Y-124409181D01*
X203073000Y-124409181D01*
X202843108Y-124288514D01*
X202318642Y-124534817D01*
X202131192Y-124740504D01*
X202113162Y-124644683D01*
X201974090Y-124428559D01*
X201761890Y-124283569D01*
X201510000Y-124232560D01*
X199810000Y-124232560D01*
X199574683Y-124276838D01*
X199358559Y-124415910D01*
X199213569Y-124628110D01*
X199162560Y-124880000D01*
X199162560Y-125094048D01*
X199017184Y-125191185D01*
X198009369Y-126199001D01*
X195095803Y-126199001D01*
X195189093Y-125730000D01*
X195076054Y-125161715D01*
X194754147Y-124679946D01*
X194272378Y-124358039D01*
X193704093Y-124245000D01*
X193645907Y-124245000D01*
X193077622Y-124358039D01*
X192595853Y-124679946D01*
X192595029Y-124681179D01*
X192588162Y-124644683D01*
X192449090Y-124428559D01*
X192236890Y-124283569D01*
X191985000Y-124232560D01*
X190285000Y-124232560D01*
X190049683Y-124276838D01*
X189833559Y-124415910D01*
X189688569Y-124628110D01*
X189637560Y-124880000D01*
X189637560Y-126580000D01*
X189681838Y-126815317D01*
X189820910Y-127031441D01*
X190033110Y-127176431D01*
X190100541Y-127190086D01*
X190055853Y-127219946D01*
X189733946Y-127701715D01*
X189620907Y-128270000D01*
X189733946Y-128838285D01*
X190055853Y-129320054D01*
X190385026Y-129540000D01*
X190055853Y-129759946D01*
X189733946Y-130241715D01*
X189620907Y-130810000D01*
X189733946Y-131378285D01*
X190055853Y-131860054D01*
X190386737Y-132081143D01*
X190431004Y-132303686D01*
X190596185Y-132550896D01*
X193204103Y-135158815D01*
X193407302Y-135294588D01*
X193451314Y-135323996D01*
X193742919Y-135382000D01*
X199709370Y-135382000D01*
X200378767Y-136051397D01*
X200280302Y-136117189D01*
X200025000Y-136499275D01*
X199769698Y-136117189D01*
X199304151Y-135806120D01*
X198755000Y-135696887D01*
X198205849Y-135806120D01*
X197740302Y-136117189D01*
X197485000Y-136499275D01*
X197229698Y-136117189D01*
X196764151Y-135806120D01*
X196215000Y-135696887D01*
X195665849Y-135806120D01*
X195200302Y-136117189D01*
X194945000Y-136499275D01*
X194689698Y-136117189D01*
X194224151Y-135806120D01*
X193675000Y-135696887D01*
X193125849Y-135806120D01*
X192660302Y-136117189D01*
X192405000Y-136499275D01*
X192149698Y-136117189D01*
X191684151Y-135806120D01*
X191135000Y-135696887D01*
X190585849Y-135806120D01*
X190120302Y-136117189D01*
X189865000Y-136499275D01*
X189609698Y-136117189D01*
X189144151Y-135806120D01*
X188595000Y-135696887D01*
X188045849Y-135806120D01*
X187580302Y-136117189D01*
X187269233Y-136582736D01*
X187160000Y-137131887D01*
X187160000Y-137188113D01*
X187269233Y-137737264D01*
X187580302Y-138202811D01*
X188045849Y-138513880D01*
X188472001Y-138598647D01*
X185899994Y-138598647D01*
X185608389Y-138656651D01*
X185361178Y-138821832D01*
X181656814Y-142526197D01*
X181491633Y-142773407D01*
X181433629Y-143065012D01*
X181433629Y-152581999D01*
X180712815Y-151861185D01*
X180568864Y-151765000D01*
X180465605Y-151696004D01*
X180174000Y-151638000D01*
X179297440Y-151638000D01*
X179297440Y-151550000D01*
X179253162Y-151314683D01*
X179114090Y-151098559D01*
X178901890Y-150953569D01*
X178650000Y-150902560D01*
X176950000Y-150902560D01*
X176714683Y-150946838D01*
X176498559Y-151085910D01*
X176353569Y-151298110D01*
X176302560Y-151550000D01*
X176302560Y-153250000D01*
X176346838Y-153485317D01*
X176485910Y-153701441D01*
X176698110Y-153846431D01*
X176765541Y-153860086D01*
X176720853Y-153889946D01*
X176398946Y-154371715D01*
X176285907Y-154940000D01*
X176398946Y-155508285D01*
X176720853Y-155990054D01*
X177050026Y-156210000D01*
X176720853Y-156429946D01*
X176398946Y-156911715D01*
X176285907Y-157480000D01*
X176398946Y-158048285D01*
X176720853Y-158530054D01*
X177061553Y-158757702D01*
X176918642Y-158824817D01*
X176528355Y-159253076D01*
X176358524Y-159663110D01*
X176479845Y-159893000D01*
X177673000Y-159893000D01*
X177673000Y-159873000D01*
X177927000Y-159873000D01*
X177927000Y-159893000D01*
X179120155Y-159893000D01*
X179241476Y-159663110D01*
X179071645Y-159253076D01*
X178681358Y-158824817D01*
X178538447Y-158757702D01*
X178879147Y-158530054D01*
X179201054Y-158048285D01*
X179314093Y-157480000D01*
X179201054Y-156911715D01*
X178879147Y-156429946D01*
X178549974Y-156210000D01*
X178879147Y-155990054D01*
X179201054Y-155508285D01*
X179314093Y-154940000D01*
X179201054Y-154371715D01*
X178879147Y-153889946D01*
X178837548Y-153862150D01*
X178885317Y-153853162D01*
X179101441Y-153714090D01*
X179246431Y-153501890D01*
X179297440Y-153250000D01*
X179297440Y-153162000D01*
X179858370Y-153162000D01*
X180925619Y-154229250D01*
X180925620Y-166999354D01*
X180983624Y-167290959D01*
X181118574Y-167492925D01*
X181148805Y-167538169D01*
X181810635Y-168200000D01*
X174700000Y-168200000D01*
X174700000Y-165628172D01*
X175132538Y-165628172D01*
X175537709Y-166608761D01*
X176287293Y-167359655D01*
X177267173Y-167766536D01*
X178328172Y-167767462D01*
X179308761Y-167362291D01*
X180059655Y-166612707D01*
X180466536Y-165632827D01*
X180467462Y-164571828D01*
X180062291Y-163591239D01*
X179312707Y-162840345D01*
X178332827Y-162433464D01*
X177271828Y-162432538D01*
X176291239Y-162837709D01*
X175540345Y-163587293D01*
X175133464Y-164567173D01*
X175132538Y-165628172D01*
X174700000Y-165628172D01*
X174700000Y-160376890D01*
X176358524Y-160376890D01*
X176528355Y-160786924D01*
X176918642Y-161215183D01*
X177443108Y-161461486D01*
X177673000Y-161340819D01*
X177673000Y-160147000D01*
X177927000Y-160147000D01*
X177927000Y-161340819D01*
X178156892Y-161461486D01*
X178681358Y-161215183D01*
X179071645Y-160786924D01*
X179241476Y-160376890D01*
X179120155Y-160147000D01*
X177927000Y-160147000D01*
X177673000Y-160147000D01*
X176479845Y-160147000D01*
X176358524Y-160376890D01*
X174700000Y-160376890D01*
X174700000Y-137463991D01*
X177534735Y-137463991D01*
X177767932Y-138028371D01*
X178199357Y-138460551D01*
X178763330Y-138694733D01*
X179373991Y-138695265D01*
X179938371Y-138462068D01*
X180115841Y-138284908D01*
X180171673Y-138419699D01*
X180350302Y-138598327D01*
X180583691Y-138695000D01*
X181324250Y-138695000D01*
X181483000Y-138536250D01*
X181483000Y-137287000D01*
X181737000Y-137287000D01*
X181737000Y-138536250D01*
X181895750Y-138695000D01*
X182636309Y-138695000D01*
X182869698Y-138598327D01*
X183048327Y-138419699D01*
X183145000Y-138186310D01*
X183145000Y-137445750D01*
X182986250Y-137287000D01*
X181737000Y-137287000D01*
X181483000Y-137287000D01*
X181463000Y-137287000D01*
X181463000Y-137033000D01*
X181483000Y-137033000D01*
X181483000Y-135783750D01*
X181737000Y-135783750D01*
X181737000Y-137033000D01*
X182986250Y-137033000D01*
X183145000Y-136874250D01*
X183145000Y-136133690D01*
X183048327Y-135900301D01*
X182869698Y-135721673D01*
X182636309Y-135625000D01*
X181895750Y-135625000D01*
X181737000Y-135783750D01*
X181483000Y-135783750D01*
X181324250Y-135625000D01*
X180583691Y-135625000D01*
X180350302Y-135721673D01*
X180171673Y-135900301D01*
X180115881Y-136034994D01*
X179940643Y-135859449D01*
X179376670Y-135625267D01*
X178766009Y-135624735D01*
X178201629Y-135857932D01*
X177769449Y-136289357D01*
X177535267Y-136853330D01*
X177534735Y-137463991D01*
X174700000Y-137463991D01*
X174700000Y-132344383D01*
X179004769Y-132344383D01*
X179207582Y-132835229D01*
X179582796Y-133211098D01*
X180073287Y-133414768D01*
X180604383Y-133415231D01*
X181095229Y-133212418D01*
X181471098Y-132837204D01*
X181674768Y-132346713D01*
X181675000Y-132080000D01*
X184058846Y-132080000D01*
X184160467Y-132590882D01*
X184449858Y-133023988D01*
X184882964Y-133313379D01*
X185393846Y-133415000D01*
X185446154Y-133415000D01*
X185957036Y-133313379D01*
X186390142Y-133023988D01*
X186679533Y-132590882D01*
X186781154Y-132080000D01*
X186679533Y-131569118D01*
X186390142Y-131136012D01*
X185957036Y-130846621D01*
X185446154Y-130745000D01*
X185393846Y-130745000D01*
X184882964Y-130846621D01*
X184449858Y-131136012D01*
X184160467Y-131569118D01*
X184058846Y-132080000D01*
X181675000Y-132080000D01*
X181675231Y-131815617D01*
X181472418Y-131324771D01*
X181097204Y-130948902D01*
X180606713Y-130745232D01*
X180075617Y-130744769D01*
X179584771Y-130947582D01*
X179208902Y-131322796D01*
X179005232Y-131813287D01*
X179004769Y-132344383D01*
X174700000Y-132344383D01*
X174700000Y-127528172D01*
X175132538Y-127528172D01*
X175537709Y-128508761D01*
X176287293Y-129259655D01*
X177267173Y-129666536D01*
X178328172Y-129667462D01*
X179308761Y-129262291D01*
X180059655Y-128512707D01*
X180466536Y-127532827D01*
X180467462Y-126471828D01*
X180062291Y-125491239D01*
X179312707Y-124740345D01*
X178332827Y-124333464D01*
X177271828Y-124332538D01*
X176291239Y-124737709D01*
X175540345Y-125487293D01*
X175133464Y-126467173D01*
X175132538Y-127528172D01*
X174700000Y-127528172D01*
X174700000Y-123900000D01*
X230430000Y-123900000D01*
X230430000Y-148132433D01*
X230430000Y-148132433D01*
G37*
X230430000Y-148132433D02*
X230408815Y-148100727D01*
X228741286Y-146433199D01*
X228764750Y-146376691D01*
X228765248Y-145805813D01*
X228547243Y-145278200D01*
X228143923Y-144874176D01*
X227616691Y-144655250D01*
X227045813Y-144654752D01*
X226518200Y-144872757D01*
X226114176Y-145276077D01*
X225895250Y-145803309D01*
X225894752Y-146374187D01*
X225916222Y-146426148D01*
X223244370Y-149098000D01*
X222479755Y-149098000D01*
X222629698Y-148997811D01*
X222940767Y-148532264D01*
X223050000Y-147983113D01*
X223050000Y-147926887D01*
X222995373Y-147652257D01*
X225328815Y-145318816D01*
X225493996Y-145071605D01*
X225501960Y-145031568D01*
X225552000Y-144780000D01*
X225552000Y-130258118D01*
X225493996Y-129966513D01*
X225377795Y-129792606D01*
X225328816Y-129719303D01*
X223137685Y-127528172D01*
X224662538Y-127528172D01*
X225067709Y-128508761D01*
X225817293Y-129259655D01*
X226797173Y-129666536D01*
X227858172Y-129667462D01*
X228838761Y-129262291D01*
X229589655Y-128512707D01*
X229996536Y-127532827D01*
X229997462Y-126471828D01*
X229592291Y-125491239D01*
X228842707Y-124740345D01*
X227862827Y-124333464D01*
X226801828Y-124332538D01*
X225821239Y-124737709D01*
X225070345Y-125487293D01*
X224663464Y-126467173D01*
X224662538Y-127528172D01*
X223137685Y-127528172D01*
X222182409Y-126572897D01*
X222251645Y-126496924D01*
X222421476Y-126086890D01*
X222300155Y-125857000D01*
X221107000Y-125857000D01*
X221107000Y-125877000D01*
X220853000Y-125877000D01*
X220853000Y-125857000D01*
X220833000Y-125857000D01*
X220833000Y-125603000D01*
X220853000Y-125603000D01*
X220853000Y-124409181D01*
X221107000Y-124409181D01*
X221107000Y-125603000D01*
X222300155Y-125603000D01*
X222421476Y-125373110D01*
X222251645Y-124963076D01*
X221861358Y-124534817D01*
X221336892Y-124288514D01*
X221107000Y-124409181D01*
X220853000Y-124409181D01*
X220623108Y-124288514D01*
X220098642Y-124534817D01*
X219911192Y-124740504D01*
X219893162Y-124644683D01*
X219754090Y-124428559D01*
X219541890Y-124283569D01*
X219290000Y-124232560D01*
X217590000Y-124232560D01*
X217354683Y-124276838D01*
X217138559Y-124415910D01*
X216993569Y-124628110D01*
X216942560Y-124880000D01*
X216942560Y-125094048D01*
X216797184Y-125191185D01*
X215789369Y-126199001D01*
X213510803Y-126199001D01*
X213604093Y-125730000D01*
X213491054Y-125161715D01*
X213169147Y-124679946D01*
X212687378Y-124358039D01*
X212119093Y-124245000D01*
X212060907Y-124245000D01*
X211492622Y-124358039D01*
X211010853Y-124679946D01*
X211010029Y-124681179D01*
X211003162Y-124644683D01*
X210864090Y-124428559D01*
X210651890Y-124283569D01*
X210400000Y-124232560D01*
X208700000Y-124232560D01*
X208464683Y-124276838D01*
X208248559Y-124415910D01*
X208103569Y-124628110D01*
X208052560Y-124880000D01*
X208052560Y-126580000D01*
X208096838Y-126815317D01*
X208235910Y-127031441D01*
X208448110Y-127176431D01*
X208515541Y-127190086D01*
X208470853Y-127219946D01*
X208148946Y-127701715D01*
X208035907Y-128270000D01*
X208148946Y-128838285D01*
X208470853Y-129320054D01*
X208800026Y-129540000D01*
X208470853Y-129759946D01*
X208148946Y-130241715D01*
X208136052Y-130306540D01*
X204402409Y-126572897D01*
X204471645Y-126496924D01*
X204641476Y-126086890D01*
X204520155Y-125857000D01*
X203327000Y-125857000D01*
X203327000Y-125877000D01*
X203073000Y-125877000D01*
X203073000Y-125857000D01*
X203053000Y-125857000D01*
X203053000Y-125603000D01*
X203073000Y-125603000D01*
X203073000Y-124409181D01*
X203327000Y-124409181D01*
X203327000Y-125603000D01*
X204520155Y-125603000D01*
X204641476Y-125373110D01*
X204471645Y-124963076D01*
X204081358Y-124534817D01*
X203556892Y-124288514D01*
X203327000Y-124409181D01*
X203073000Y-124409181D01*
X202843108Y-124288514D01*
X202318642Y-124534817D01*
X202131192Y-124740504D01*
X202113162Y-124644683D01*
X201974090Y-124428559D01*
X201761890Y-124283569D01*
X201510000Y-124232560D01*
X199810000Y-124232560D01*
X199574683Y-124276838D01*
X199358559Y-124415910D01*
X199213569Y-124628110D01*
X199162560Y-124880000D01*
X199162560Y-125094048D01*
X199017184Y-125191185D01*
X198009369Y-126199001D01*
X195095803Y-126199001D01*
X195189093Y-125730000D01*
X195076054Y-125161715D01*
X194754147Y-124679946D01*
X194272378Y-124358039D01*
X193704093Y-124245000D01*
X193645907Y-124245000D01*
X193077622Y-124358039D01*
X192595853Y-124679946D01*
X192595029Y-124681179D01*
X192588162Y-124644683D01*
X192449090Y-124428559D01*
X192236890Y-124283569D01*
X191985000Y-124232560D01*
X190285000Y-124232560D01*
X190049683Y-124276838D01*
X189833559Y-124415910D01*
X189688569Y-124628110D01*
X189637560Y-124880000D01*
X189637560Y-126580000D01*
X189681838Y-126815317D01*
X189820910Y-127031441D01*
X190033110Y-127176431D01*
X190100541Y-127190086D01*
X190055853Y-127219946D01*
X189733946Y-127701715D01*
X189620907Y-128270000D01*
X189733946Y-128838285D01*
X190055853Y-129320054D01*
X190385026Y-129540000D01*
X190055853Y-129759946D01*
X189733946Y-130241715D01*
X189620907Y-130810000D01*
X189733946Y-131378285D01*
X190055853Y-131860054D01*
X190386737Y-132081143D01*
X190431004Y-132303686D01*
X190596185Y-132550896D01*
X193204103Y-135158815D01*
X193407302Y-135294588D01*
X193451314Y-135323996D01*
X193742919Y-135382000D01*
X199709370Y-135382000D01*
X200378767Y-136051397D01*
X200280302Y-136117189D01*
X200025000Y-136499275D01*
X199769698Y-136117189D01*
X199304151Y-135806120D01*
X198755000Y-135696887D01*
X198205849Y-135806120D01*
X197740302Y-136117189D01*
X197485000Y-136499275D01*
X197229698Y-136117189D01*
X196764151Y-135806120D01*
X196215000Y-135696887D01*
X195665849Y-135806120D01*
X195200302Y-136117189D01*
X194945000Y-136499275D01*
X194689698Y-136117189D01*
X194224151Y-135806120D01*
X193675000Y-135696887D01*
X193125849Y-135806120D01*
X192660302Y-136117189D01*
X192405000Y-136499275D01*
X192149698Y-136117189D01*
X191684151Y-135806120D01*
X191135000Y-135696887D01*
X190585849Y-135806120D01*
X190120302Y-136117189D01*
X189865000Y-136499275D01*
X189609698Y-136117189D01*
X189144151Y-135806120D01*
X188595000Y-135696887D01*
X188045849Y-135806120D01*
X187580302Y-136117189D01*
X187269233Y-136582736D01*
X187160000Y-137131887D01*
X187160000Y-137188113D01*
X187269233Y-137737264D01*
X187580302Y-138202811D01*
X188045849Y-138513880D01*
X188472001Y-138598647D01*
X185899994Y-138598647D01*
X185608389Y-138656651D01*
X185361178Y-138821832D01*
X181656814Y-142526197D01*
X181491633Y-142773407D01*
X181433629Y-143065012D01*
X181433629Y-152581999D01*
X180712815Y-151861185D01*
X180568864Y-151765000D01*
X180465605Y-151696004D01*
X180174000Y-151638000D01*
X179297440Y-151638000D01*
X179297440Y-151550000D01*
X179253162Y-151314683D01*
X179114090Y-151098559D01*
X178901890Y-150953569D01*
X178650000Y-150902560D01*
X176950000Y-150902560D01*
X176714683Y-150946838D01*
X176498559Y-151085910D01*
X176353569Y-151298110D01*
X176302560Y-151550000D01*
X176302560Y-153250000D01*
X176346838Y-153485317D01*
X176485910Y-153701441D01*
X176698110Y-153846431D01*
X176765541Y-153860086D01*
X176720853Y-153889946D01*
X176398946Y-154371715D01*
X176285907Y-154940000D01*
X176398946Y-155508285D01*
X176720853Y-155990054D01*
X177050026Y-156210000D01*
X176720853Y-156429946D01*
X176398946Y-156911715D01*
X176285907Y-157480000D01*
X176398946Y-158048285D01*
X176720853Y-158530054D01*
X177061553Y-158757702D01*
X176918642Y-158824817D01*
X176528355Y-159253076D01*
X176358524Y-159663110D01*
X176479845Y-159893000D01*
X177673000Y-159893000D01*
X177673000Y-159873000D01*
X177927000Y-159873000D01*
X177927000Y-159893000D01*
X179120155Y-159893000D01*
X179241476Y-159663110D01*
X179071645Y-159253076D01*
X178681358Y-158824817D01*
X178538447Y-158757702D01*
X178879147Y-158530054D01*
X179201054Y-158048285D01*
X179314093Y-157480000D01*
X179201054Y-156911715D01*
X178879147Y-156429946D01*
X178549974Y-156210000D01*
X178879147Y-155990054D01*
X179201054Y-155508285D01*
X179314093Y-154940000D01*
X179201054Y-154371715D01*
X178879147Y-153889946D01*
X178837548Y-153862150D01*
X178885317Y-153853162D01*
X179101441Y-153714090D01*
X179246431Y-153501890D01*
X179297440Y-153250000D01*
X179297440Y-153162000D01*
X179858370Y-153162000D01*
X180925619Y-154229250D01*
X180925620Y-166999354D01*
X180983624Y-167290959D01*
X181118574Y-167492925D01*
X181148805Y-167538169D01*
X181810635Y-168200000D01*
X174700000Y-168200000D01*
X174700000Y-165628172D01*
X175132538Y-165628172D01*
X175537709Y-166608761D01*
X176287293Y-167359655D01*
X177267173Y-167766536D01*
X178328172Y-167767462D01*
X179308761Y-167362291D01*
X180059655Y-166612707D01*
X180466536Y-165632827D01*
X180467462Y-164571828D01*
X180062291Y-163591239D01*
X179312707Y-162840345D01*
X178332827Y-162433464D01*
X177271828Y-162432538D01*
X176291239Y-162837709D01*
X175540345Y-163587293D01*
X175133464Y-164567173D01*
X175132538Y-165628172D01*
X174700000Y-165628172D01*
X174700000Y-160376890D01*
X176358524Y-160376890D01*
X176528355Y-160786924D01*
X176918642Y-161215183D01*
X177443108Y-161461486D01*
X177673000Y-161340819D01*
X177673000Y-160147000D01*
X177927000Y-160147000D01*
X177927000Y-161340819D01*
X178156892Y-161461486D01*
X178681358Y-161215183D01*
X179071645Y-160786924D01*
X179241476Y-160376890D01*
X179120155Y-160147000D01*
X177927000Y-160147000D01*
X177673000Y-160147000D01*
X176479845Y-160147000D01*
X176358524Y-160376890D01*
X174700000Y-160376890D01*
X174700000Y-137463991D01*
X177534735Y-137463991D01*
X177767932Y-138028371D01*
X178199357Y-138460551D01*
X178763330Y-138694733D01*
X179373991Y-138695265D01*
X179938371Y-138462068D01*
X180115841Y-138284908D01*
X180171673Y-138419699D01*
X180350302Y-138598327D01*
X180583691Y-138695000D01*
X181324250Y-138695000D01*
X181483000Y-138536250D01*
X181483000Y-137287000D01*
X181737000Y-137287000D01*
X181737000Y-138536250D01*
X181895750Y-138695000D01*
X182636309Y-138695000D01*
X182869698Y-138598327D01*
X183048327Y-138419699D01*
X183145000Y-138186310D01*
X183145000Y-137445750D01*
X182986250Y-137287000D01*
X181737000Y-137287000D01*
X181483000Y-137287000D01*
X181463000Y-137287000D01*
X181463000Y-137033000D01*
X181483000Y-137033000D01*
X181483000Y-135783750D01*
X181737000Y-135783750D01*
X181737000Y-137033000D01*
X182986250Y-137033000D01*
X183145000Y-136874250D01*
X183145000Y-136133690D01*
X183048327Y-135900301D01*
X182869698Y-135721673D01*
X182636309Y-135625000D01*
X181895750Y-135625000D01*
X181737000Y-135783750D01*
X181483000Y-135783750D01*
X181324250Y-135625000D01*
X180583691Y-135625000D01*
X180350302Y-135721673D01*
X180171673Y-135900301D01*
X180115881Y-136034994D01*
X179940643Y-135859449D01*
X179376670Y-135625267D01*
X178766009Y-135624735D01*
X178201629Y-135857932D01*
X177769449Y-136289357D01*
X177535267Y-136853330D01*
X177534735Y-137463991D01*
X174700000Y-137463991D01*
X174700000Y-132344383D01*
X179004769Y-132344383D01*
X179207582Y-132835229D01*
X179582796Y-133211098D01*
X180073287Y-133414768D01*
X180604383Y-133415231D01*
X181095229Y-133212418D01*
X181471098Y-132837204D01*
X181674768Y-132346713D01*
X181675000Y-132080000D01*
X184058846Y-132080000D01*
X184160467Y-132590882D01*
X184449858Y-133023988D01*
X184882964Y-133313379D01*
X185393846Y-133415000D01*
X185446154Y-133415000D01*
X185957036Y-133313379D01*
X186390142Y-133023988D01*
X186679533Y-132590882D01*
X186781154Y-132080000D01*
X186679533Y-131569118D01*
X186390142Y-131136012D01*
X185957036Y-130846621D01*
X185446154Y-130745000D01*
X185393846Y-130745000D01*
X184882964Y-130846621D01*
X184449858Y-131136012D01*
X184160467Y-131569118D01*
X184058846Y-132080000D01*
X181675000Y-132080000D01*
X181675231Y-131815617D01*
X181472418Y-131324771D01*
X181097204Y-130948902D01*
X180606713Y-130745232D01*
X180075617Y-130744769D01*
X179584771Y-130947582D01*
X179208902Y-131322796D01*
X179005232Y-131813287D01*
X179004769Y-132344383D01*
X174700000Y-132344383D01*
X174700000Y-127528172D01*
X175132538Y-127528172D01*
X175537709Y-128508761D01*
X176287293Y-129259655D01*
X177267173Y-129666536D01*
X178328172Y-129667462D01*
X179308761Y-129262291D01*
X180059655Y-128512707D01*
X180466536Y-127532827D01*
X180467462Y-126471828D01*
X180062291Y-125491239D01*
X179312707Y-124740345D01*
X178332827Y-124333464D01*
X177271828Y-124332538D01*
X176291239Y-124737709D01*
X175540345Y-125487293D01*
X175133464Y-126467173D01*
X175132538Y-127528172D01*
X174700000Y-127528172D01*
X174700000Y-123900000D01*
X230430000Y-123900000D01*
X230430000Y-148132433D01*
G36*
X227523748Y-148575858D02*
X227509605Y-148590000D01*
X228337745Y-149418139D01*
X228583864Y-149344005D01*
X228776965Y-148806777D01*
X228767821Y-148614995D01*
X229108000Y-148955174D01*
X229108000Y-154624369D01*
X228835511Y-154896858D01*
X228731054Y-154371715D01*
X228409147Y-153889946D01*
X228367548Y-153862150D01*
X228415317Y-153853162D01*
X228631441Y-153714090D01*
X228776431Y-153501890D01*
X228827440Y-153250000D01*
X228827440Y-151550000D01*
X228783162Y-151314683D01*
X228644090Y-151098559D01*
X228431890Y-150953569D01*
X228180000Y-150902560D01*
X226480000Y-150902560D01*
X226244683Y-150946838D01*
X226028559Y-151085910D01*
X225883569Y-151298110D01*
X225832560Y-151550000D01*
X225832560Y-153250000D01*
X225876838Y-153485317D01*
X226015910Y-153701441D01*
X226228110Y-153846431D01*
X226295541Y-153860086D01*
X226250853Y-153889946D01*
X225928946Y-154371715D01*
X225815907Y-154940000D01*
X225928946Y-155508285D01*
X226250853Y-155990054D01*
X226580026Y-156210000D01*
X226250853Y-156429946D01*
X225928946Y-156911715D01*
X225815907Y-157480000D01*
X225928946Y-158048285D01*
X226250853Y-158530054D01*
X226591553Y-158757702D01*
X226448642Y-158824817D01*
X226058355Y-159253076D01*
X225888524Y-159663110D01*
X226009845Y-159893000D01*
X227203000Y-159893000D01*
X227203000Y-159873000D01*
X227457000Y-159873000D01*
X227457000Y-159893000D01*
X228650155Y-159893000D01*
X228771476Y-159663110D01*
X228601645Y-159253076D01*
X228211358Y-158824817D01*
X228068447Y-158757702D01*
X228409147Y-158530054D01*
X228731054Y-158048285D01*
X228844093Y-157480000D01*
X228771679Y-157115951D01*
X230408815Y-155478816D01*
X230430000Y-155447110D01*
X230430000Y-168200000D01*
X223319512Y-168200000D01*
X224654816Y-166864697D01*
X224819997Y-166617486D01*
X224820948Y-166612707D01*
X224878001Y-166325881D01*
X224878001Y-166149632D01*
X225067709Y-166608761D01*
X225817293Y-167359655D01*
X226797173Y-167766536D01*
X227858172Y-167767462D01*
X228838761Y-167362291D01*
X229589655Y-166612707D01*
X229996536Y-165632827D01*
X229997462Y-164571828D01*
X229592291Y-163591239D01*
X228842707Y-162840345D01*
X227862827Y-162433464D01*
X226801828Y-162432538D01*
X225821239Y-162837709D01*
X225070345Y-163587293D01*
X224878001Y-164050510D01*
X224878001Y-160616001D01*
X224830439Y-160376890D01*
X225888524Y-160376890D01*
X226058355Y-160786924D01*
X226448642Y-161215183D01*
X226973108Y-161461486D01*
X227203000Y-161340819D01*
X227203000Y-160147000D01*
X227457000Y-160147000D01*
X227457000Y-161340819D01*
X227686892Y-161461486D01*
X228211358Y-161215183D01*
X228601645Y-160786924D01*
X228771476Y-160376890D01*
X228650155Y-160147000D01*
X227457000Y-160147000D01*
X227203000Y-160147000D01*
X226009845Y-160147000D01*
X225888524Y-160376890D01*
X224830439Y-160376890D01*
X224819997Y-160324396D01*
X224654816Y-160077186D01*
X221615620Y-157037990D01*
X222164151Y-156928880D01*
X222629698Y-156617811D01*
X222940767Y-156152264D01*
X223050000Y-155603113D01*
X223050000Y-155546887D01*
X222940767Y-154997736D01*
X222629698Y-154532189D01*
X222164151Y-154221120D01*
X221615000Y-154111887D01*
X221065849Y-154221120D01*
X220600302Y-154532189D01*
X220345000Y-154914275D01*
X220089698Y-154532189D01*
X219624151Y-154221120D01*
X219075000Y-154111887D01*
X218525849Y-154221120D01*
X218060302Y-154532189D01*
X217805000Y-154914275D01*
X217549698Y-154532189D01*
X217084151Y-154221120D01*
X216535000Y-154111887D01*
X215985849Y-154221120D01*
X215520302Y-154532189D01*
X215265000Y-154914275D01*
X215009698Y-154532189D01*
X214544151Y-154221120D01*
X213995000Y-154111887D01*
X213445849Y-154221120D01*
X212980302Y-154532189D01*
X212710014Y-154936703D01*
X212607389Y-154719866D01*
X212192423Y-154343959D01*
X211804039Y-154183096D01*
X211582000Y-154305085D01*
X211582000Y-155448000D01*
X211602000Y-155448000D01*
X211602000Y-155702000D01*
X211582000Y-155702000D01*
X211582000Y-155722000D01*
X211328000Y-155722000D01*
X211328000Y-155702000D01*
X211308000Y-155702000D01*
X211308000Y-155448000D01*
X211328000Y-155448000D01*
X211328000Y-154305085D01*
X211105961Y-154183096D01*
X210947000Y-154248935D01*
X210947000Y-151765000D01*
X210888996Y-151473395D01*
X210771874Y-151298110D01*
X210723816Y-151226185D01*
X208915620Y-149417990D01*
X209464151Y-149308880D01*
X209929698Y-148997811D01*
X210185000Y-148615725D01*
X210440302Y-148997811D01*
X210905849Y-149308880D01*
X211455000Y-149418113D01*
X212004151Y-149308880D01*
X212469698Y-148997811D01*
X212725000Y-148615725D01*
X212980302Y-148997811D01*
X213445849Y-149308880D01*
X213995000Y-149418113D01*
X214316527Y-149354157D01*
X215361185Y-150398815D01*
X215608395Y-150563996D01*
X215900000Y-150622000D01*
X223560000Y-150622000D01*
X223851605Y-150563996D01*
X224098815Y-150398815D01*
X224899885Y-149597745D01*
X226501861Y-149597745D01*
X226575995Y-149843864D01*
X227113223Y-150036965D01*
X227683454Y-150009778D01*
X228084005Y-149843864D01*
X228158139Y-149597745D01*
X227330000Y-148769605D01*
X226501861Y-149597745D01*
X224899885Y-149597745D01*
X225894019Y-148603611D01*
X225910222Y-148943454D01*
X226076136Y-149344005D01*
X226322255Y-149418139D01*
X227150395Y-148590000D01*
X227136252Y-148575858D01*
X227315858Y-148396252D01*
X227330000Y-148410395D01*
X227344142Y-148396252D01*
X227523748Y-148575858D01*
X227523748Y-148575858D01*
G37*
X227523748Y-148575858D02*
X227509605Y-148590000D01*
X228337745Y-149418139D01*
X228583864Y-149344005D01*
X228776965Y-148806777D01*
X228767821Y-148614995D01*
X229108000Y-148955174D01*
X229108000Y-154624369D01*
X228835511Y-154896858D01*
X228731054Y-154371715D01*
X228409147Y-153889946D01*
X228367548Y-153862150D01*
X228415317Y-153853162D01*
X228631441Y-153714090D01*
X228776431Y-153501890D01*
X228827440Y-153250000D01*
X228827440Y-151550000D01*
X228783162Y-151314683D01*
X228644090Y-151098559D01*
X228431890Y-150953569D01*
X228180000Y-150902560D01*
X226480000Y-150902560D01*
X226244683Y-150946838D01*
X226028559Y-151085910D01*
X225883569Y-151298110D01*
X225832560Y-151550000D01*
X225832560Y-153250000D01*
X225876838Y-153485317D01*
X226015910Y-153701441D01*
X226228110Y-153846431D01*
X226295541Y-153860086D01*
X226250853Y-153889946D01*
X225928946Y-154371715D01*
X225815907Y-154940000D01*
X225928946Y-155508285D01*
X226250853Y-155990054D01*
X226580026Y-156210000D01*
X226250853Y-156429946D01*
X225928946Y-156911715D01*
X225815907Y-157480000D01*
X225928946Y-158048285D01*
X226250853Y-158530054D01*
X226591553Y-158757702D01*
X226448642Y-158824817D01*
X226058355Y-159253076D01*
X225888524Y-159663110D01*
X226009845Y-159893000D01*
X227203000Y-159893000D01*
X227203000Y-159873000D01*
X227457000Y-159873000D01*
X227457000Y-159893000D01*
X228650155Y-159893000D01*
X228771476Y-159663110D01*
X228601645Y-159253076D01*
X228211358Y-158824817D01*
X228068447Y-158757702D01*
X228409147Y-158530054D01*
X228731054Y-158048285D01*
X228844093Y-157480000D01*
X228771679Y-157115951D01*
X230408815Y-155478816D01*
X230430000Y-155447110D01*
X230430000Y-168200000D01*
X223319512Y-168200000D01*
X224654816Y-166864697D01*
X224819997Y-166617486D01*
X224820948Y-166612707D01*
X224878001Y-166325881D01*
X224878001Y-166149632D01*
X225067709Y-166608761D01*
X225817293Y-167359655D01*
X226797173Y-167766536D01*
X227858172Y-167767462D01*
X228838761Y-167362291D01*
X229589655Y-166612707D01*
X229996536Y-165632827D01*
X229997462Y-164571828D01*
X229592291Y-163591239D01*
X228842707Y-162840345D01*
X227862827Y-162433464D01*
X226801828Y-162432538D01*
X225821239Y-162837709D01*
X225070345Y-163587293D01*
X224878001Y-164050510D01*
X224878001Y-160616001D01*
X224830439Y-160376890D01*
X225888524Y-160376890D01*
X226058355Y-160786924D01*
X226448642Y-161215183D01*
X226973108Y-161461486D01*
X227203000Y-161340819D01*
X227203000Y-160147000D01*
X227457000Y-160147000D01*
X227457000Y-161340819D01*
X227686892Y-161461486D01*
X228211358Y-161215183D01*
X228601645Y-160786924D01*
X228771476Y-160376890D01*
X228650155Y-160147000D01*
X227457000Y-160147000D01*
X227203000Y-160147000D01*
X226009845Y-160147000D01*
X225888524Y-160376890D01*
X224830439Y-160376890D01*
X224819997Y-160324396D01*
X224654816Y-160077186D01*
X221615620Y-157037990D01*
X222164151Y-156928880D01*
X222629698Y-156617811D01*
X222940767Y-156152264D01*
X223050000Y-155603113D01*
X223050000Y-155546887D01*
X222940767Y-154997736D01*
X222629698Y-154532189D01*
X222164151Y-154221120D01*
X221615000Y-154111887D01*
X221065849Y-154221120D01*
X220600302Y-154532189D01*
X220345000Y-154914275D01*
X220089698Y-154532189D01*
X219624151Y-154221120D01*
X219075000Y-154111887D01*
X218525849Y-154221120D01*
X218060302Y-154532189D01*
X217805000Y-154914275D01*
X217549698Y-154532189D01*
X217084151Y-154221120D01*
X216535000Y-154111887D01*
X215985849Y-154221120D01*
X215520302Y-154532189D01*
X215265000Y-154914275D01*
X215009698Y-154532189D01*
X214544151Y-154221120D01*
X213995000Y-154111887D01*
X213445849Y-154221120D01*
X212980302Y-154532189D01*
X212710014Y-154936703D01*
X212607389Y-154719866D01*
X212192423Y-154343959D01*
X211804039Y-154183096D01*
X211582000Y-154305085D01*
X211582000Y-155448000D01*
X211602000Y-155448000D01*
X211602000Y-155702000D01*
X211582000Y-155702000D01*
X211582000Y-155722000D01*
X211328000Y-155722000D01*
X211328000Y-155702000D01*
X211308000Y-155702000D01*
X211308000Y-155448000D01*
X211328000Y-155448000D01*
X211328000Y-154305085D01*
X211105961Y-154183096D01*
X210947000Y-154248935D01*
X210947000Y-151765000D01*
X210888996Y-151473395D01*
X210771874Y-151298110D01*
X210723816Y-151226185D01*
X208915620Y-149417990D01*
X209464151Y-149308880D01*
X209929698Y-148997811D01*
X210185000Y-148615725D01*
X210440302Y-148997811D01*
X210905849Y-149308880D01*
X211455000Y-149418113D01*
X212004151Y-149308880D01*
X212469698Y-148997811D01*
X212725000Y-148615725D01*
X212980302Y-148997811D01*
X213445849Y-149308880D01*
X213995000Y-149418113D01*
X214316527Y-149354157D01*
X215361185Y-150398815D01*
X215608395Y-150563996D01*
X215900000Y-150622000D01*
X223560000Y-150622000D01*
X223851605Y-150563996D01*
X224098815Y-150398815D01*
X224899885Y-149597745D01*
X226501861Y-149597745D01*
X226575995Y-149843864D01*
X227113223Y-150036965D01*
X227683454Y-150009778D01*
X228084005Y-149843864D01*
X228158139Y-149597745D01*
X227330000Y-148769605D01*
X226501861Y-149597745D01*
X224899885Y-149597745D01*
X225894019Y-148603611D01*
X225910222Y-148943454D01*
X226076136Y-149344005D01*
X226322255Y-149418139D01*
X227150395Y-148590000D01*
X227136252Y-148575858D01*
X227315858Y-148396252D01*
X227330000Y-148410395D01*
X227344142Y-148396252D01*
X227523748Y-148575858D01*
G36*
X220600302Y-138202811D02*
X221065849Y-138513880D01*
X221615000Y-138623113D01*
X222164151Y-138513880D01*
X222629698Y-138202811D01*
X222814597Y-137926090D01*
X222814597Y-138057772D01*
X217301213Y-143571157D01*
X217084151Y-143426120D01*
X216535000Y-143316887D01*
X215985849Y-143426120D01*
X215520302Y-143737189D01*
X215265000Y-144119275D01*
X215009698Y-143737189D01*
X214544151Y-143426120D01*
X213995000Y-143316887D01*
X213445849Y-143426120D01*
X212980302Y-143737189D01*
X212710014Y-144141703D01*
X212607389Y-143924866D01*
X212192423Y-143548959D01*
X211804039Y-143388096D01*
X211582000Y-143510085D01*
X211582000Y-144653000D01*
X211602000Y-144653000D01*
X211602000Y-144907000D01*
X211582000Y-144907000D01*
X211582000Y-144927000D01*
X211328000Y-144927000D01*
X211328000Y-144907000D01*
X211308000Y-144907000D01*
X211308000Y-144653000D01*
X211328000Y-144653000D01*
X211328000Y-143510085D01*
X211105961Y-143388096D01*
X210717577Y-143548959D01*
X210302611Y-143924866D01*
X210199986Y-144141703D01*
X209929698Y-143737189D01*
X209464151Y-143426120D01*
X208915000Y-143316887D01*
X208365849Y-143426120D01*
X207900302Y-143737189D01*
X207645000Y-144119275D01*
X207389698Y-143737189D01*
X206924151Y-143426120D01*
X206375000Y-143316887D01*
X205825849Y-143426120D01*
X205360302Y-143737189D01*
X205105000Y-144119275D01*
X204849698Y-143737189D01*
X204384151Y-143426120D01*
X203835000Y-143316887D01*
X203285849Y-143426120D01*
X202820302Y-143737189D01*
X202565000Y-144119275D01*
X202309698Y-143737189D01*
X201844151Y-143426120D01*
X201295000Y-143316887D01*
X200745849Y-143426120D01*
X200280302Y-143737189D01*
X200025000Y-144119275D01*
X199769698Y-143737189D01*
X199304151Y-143426120D01*
X198755000Y-143316887D01*
X198205849Y-143426120D01*
X197740302Y-143737189D01*
X197485000Y-144119275D01*
X197229698Y-143737189D01*
X196764151Y-143426120D01*
X196215000Y-143316887D01*
X195665849Y-143426120D01*
X195200302Y-143737189D01*
X194945000Y-144119275D01*
X194689698Y-143737189D01*
X194224151Y-143426120D01*
X193675000Y-143316887D01*
X193125849Y-143426120D01*
X192660302Y-143737189D01*
X192405000Y-144119275D01*
X192149698Y-143737189D01*
X191684151Y-143426120D01*
X191135000Y-143316887D01*
X190585849Y-143426120D01*
X190120302Y-143737189D01*
X190023899Y-143881465D01*
X189998162Y-143744683D01*
X189859090Y-143528559D01*
X189646890Y-143383569D01*
X189395000Y-143332560D01*
X187795000Y-143332560D01*
X187559683Y-143376838D01*
X187343559Y-143515910D01*
X187198569Y-143728110D01*
X187147560Y-143980000D01*
X187147560Y-145580000D01*
X187191838Y-145815317D01*
X187330910Y-146031441D01*
X187543110Y-146176431D01*
X187795000Y-146227440D01*
X189395000Y-146227440D01*
X189630317Y-146183162D01*
X189846441Y-146044090D01*
X189991431Y-145831890D01*
X190022815Y-145676911D01*
X190120302Y-145822811D01*
X190585849Y-146133880D01*
X191135000Y-146243113D01*
X191684151Y-146133880D01*
X192149698Y-145822811D01*
X192405000Y-145440725D01*
X192660302Y-145822811D01*
X193125849Y-146133880D01*
X193675000Y-146243113D01*
X194224151Y-146133880D01*
X194689698Y-145822811D01*
X194945000Y-145440725D01*
X195200302Y-145822811D01*
X195665849Y-146133880D01*
X196215000Y-146243113D01*
X196764151Y-146133880D01*
X197229698Y-145822811D01*
X197485000Y-145440725D01*
X197740302Y-145822811D01*
X198205849Y-146133880D01*
X198755000Y-146243113D01*
X199304151Y-146133880D01*
X199769698Y-145822811D01*
X200025000Y-145440725D01*
X200280302Y-145822811D01*
X200745849Y-146133880D01*
X201295000Y-146243113D01*
X201844151Y-146133880D01*
X202309698Y-145822811D01*
X202565000Y-145440725D01*
X202820302Y-145822811D01*
X203285849Y-146133880D01*
X203835000Y-146243113D01*
X204384151Y-146133880D01*
X204849698Y-145822811D01*
X205105000Y-145440725D01*
X205360302Y-145822811D01*
X205825849Y-146133880D01*
X206375000Y-146243113D01*
X206924151Y-146133880D01*
X207389698Y-145822811D01*
X207645000Y-145440725D01*
X207900302Y-145822811D01*
X208365849Y-146133880D01*
X208603527Y-146181157D01*
X208914380Y-146492010D01*
X208365849Y-146601120D01*
X207900302Y-146912189D01*
X207645000Y-147294275D01*
X207389698Y-146912189D01*
X206924151Y-146601120D01*
X206375000Y-146491887D01*
X205825849Y-146601120D01*
X205360302Y-146912189D01*
X205105000Y-147294275D01*
X204849698Y-146912189D01*
X204384151Y-146601120D01*
X203835000Y-146491887D01*
X203285849Y-146601120D01*
X202820302Y-146912189D01*
X202565000Y-147294275D01*
X202309698Y-146912189D01*
X201844151Y-146601120D01*
X201295000Y-146491887D01*
X200745849Y-146601120D01*
X200280302Y-146912189D01*
X200025000Y-147294275D01*
X199769698Y-146912189D01*
X199304151Y-146601120D01*
X198755000Y-146491887D01*
X198205849Y-146601120D01*
X197740302Y-146912189D01*
X197485000Y-147294275D01*
X197229698Y-146912189D01*
X196764151Y-146601120D01*
X196215000Y-146491887D01*
X195665849Y-146601120D01*
X195200302Y-146912189D01*
X194945000Y-147294275D01*
X194689698Y-146912189D01*
X194224151Y-146601120D01*
X193675000Y-146491887D01*
X193125849Y-146601120D01*
X192660302Y-146912189D01*
X192405000Y-147294275D01*
X192149698Y-146912189D01*
X191684151Y-146601120D01*
X191135000Y-146491887D01*
X190585849Y-146601120D01*
X190120302Y-146912189D01*
X189865000Y-147294275D01*
X189609698Y-146912189D01*
X189144151Y-146601120D01*
X188595000Y-146491887D01*
X188045849Y-146601120D01*
X187580302Y-146912189D01*
X187269233Y-147377736D01*
X187160000Y-147926887D01*
X187160000Y-147983113D01*
X187269233Y-148532264D01*
X187580302Y-148997811D01*
X187833000Y-149166659D01*
X187833000Y-150495000D01*
X187891004Y-150786605D01*
X187925610Y-150838396D01*
X188056185Y-151033815D01*
X191134380Y-154112010D01*
X190585849Y-154221120D01*
X190120302Y-154532189D01*
X190023899Y-154676465D01*
X189998162Y-154539683D01*
X189859090Y-154323559D01*
X189646890Y-154178569D01*
X189395000Y-154127560D01*
X187795000Y-154127560D01*
X187559683Y-154171838D01*
X187343559Y-154310910D01*
X187198569Y-154523110D01*
X187147560Y-154775000D01*
X187147560Y-155589930D01*
X186005693Y-154448063D01*
X186005693Y-144643202D01*
X187478183Y-143170713D01*
X201126287Y-143170713D01*
X201417892Y-143112709D01*
X201665102Y-142947528D01*
X206053473Y-138559157D01*
X206375000Y-138623113D01*
X206924151Y-138513880D01*
X207389698Y-138202811D01*
X207645000Y-137820725D01*
X207900302Y-138202811D01*
X208365849Y-138513880D01*
X208915000Y-138623113D01*
X209464151Y-138513880D01*
X209929698Y-138202811D01*
X210185000Y-137820725D01*
X210440302Y-138202811D01*
X210905849Y-138513880D01*
X211455000Y-138623113D01*
X212004151Y-138513880D01*
X212469698Y-138202811D01*
X212725000Y-137820725D01*
X212980302Y-138202811D01*
X213445849Y-138513880D01*
X213995000Y-138623113D01*
X214544151Y-138513880D01*
X215009698Y-138202811D01*
X215265000Y-137820725D01*
X215520302Y-138202811D01*
X215985849Y-138513880D01*
X216535000Y-138623113D01*
X217084151Y-138513880D01*
X217549698Y-138202811D01*
X217805000Y-137820725D01*
X218060302Y-138202811D01*
X218525849Y-138513880D01*
X219075000Y-138623113D01*
X219624151Y-138513880D01*
X220089698Y-138202811D01*
X220345000Y-137820725D01*
X220600302Y-138202811D01*
X220600302Y-138202811D01*
G37*
X220600302Y-138202811D02*
X221065849Y-138513880D01*
X221615000Y-138623113D01*
X222164151Y-138513880D01*
X222629698Y-138202811D01*
X222814597Y-137926090D01*
X222814597Y-138057772D01*
X217301213Y-143571157D01*
X217084151Y-143426120D01*
X216535000Y-143316887D01*
X215985849Y-143426120D01*
X215520302Y-143737189D01*
X215265000Y-144119275D01*
X215009698Y-143737189D01*
X214544151Y-143426120D01*
X213995000Y-143316887D01*
X213445849Y-143426120D01*
X212980302Y-143737189D01*
X212710014Y-144141703D01*
X212607389Y-143924866D01*
X212192423Y-143548959D01*
X211804039Y-143388096D01*
X211582000Y-143510085D01*
X211582000Y-144653000D01*
X211602000Y-144653000D01*
X211602000Y-144907000D01*
X211582000Y-144907000D01*
X211582000Y-144927000D01*
X211328000Y-144927000D01*
X211328000Y-144907000D01*
X211308000Y-144907000D01*
X211308000Y-144653000D01*
X211328000Y-144653000D01*
X211328000Y-143510085D01*
X211105961Y-143388096D01*
X210717577Y-143548959D01*
X210302611Y-143924866D01*
X210199986Y-144141703D01*
X209929698Y-143737189D01*
X209464151Y-143426120D01*
X208915000Y-143316887D01*
X208365849Y-143426120D01*
X207900302Y-143737189D01*
X207645000Y-144119275D01*
X207389698Y-143737189D01*
X206924151Y-143426120D01*
X206375000Y-143316887D01*
X205825849Y-143426120D01*
X205360302Y-143737189D01*
X205105000Y-144119275D01*
X204849698Y-143737189D01*
X204384151Y-143426120D01*
X203835000Y-143316887D01*
X203285849Y-143426120D01*
X202820302Y-143737189D01*
X202565000Y-144119275D01*
X202309698Y-143737189D01*
X201844151Y-143426120D01*
X201295000Y-143316887D01*
X200745849Y-143426120D01*
X200280302Y-143737189D01*
X200025000Y-144119275D01*
X199769698Y-143737189D01*
X199304151Y-143426120D01*
X198755000Y-143316887D01*
X198205849Y-143426120D01*
X197740302Y-143737189D01*
X197485000Y-144119275D01*
X197229698Y-143737189D01*
X196764151Y-143426120D01*
X196215000Y-143316887D01*
X195665849Y-143426120D01*
X195200302Y-143737189D01*
X194945000Y-144119275D01*
X194689698Y-143737189D01*
X194224151Y-143426120D01*
X193675000Y-143316887D01*
X193125849Y-143426120D01*
X192660302Y-143737189D01*
X192405000Y-144119275D01*
X192149698Y-143737189D01*
X191684151Y-143426120D01*
X191135000Y-143316887D01*
X190585849Y-143426120D01*
X190120302Y-143737189D01*
X190023899Y-143881465D01*
X189998162Y-143744683D01*
X189859090Y-143528559D01*
X189646890Y-143383569D01*
X189395000Y-143332560D01*
X187795000Y-143332560D01*
X187559683Y-143376838D01*
X187343559Y-143515910D01*
X187198569Y-143728110D01*
X187147560Y-143980000D01*
X187147560Y-145580000D01*
X187191838Y-145815317D01*
X187330910Y-146031441D01*
X187543110Y-146176431D01*
X187795000Y-146227440D01*
X189395000Y-146227440D01*
X189630317Y-146183162D01*
X189846441Y-146044090D01*
X189991431Y-145831890D01*
X190022815Y-145676911D01*
X190120302Y-145822811D01*
X190585849Y-146133880D01*
X191135000Y-146243113D01*
X191684151Y-146133880D01*
X192149698Y-145822811D01*
X192405000Y-145440725D01*
X192660302Y-145822811D01*
X193125849Y-146133880D01*
X193675000Y-146243113D01*
X194224151Y-146133880D01*
X194689698Y-145822811D01*
X194945000Y-145440725D01*
X195200302Y-145822811D01*
X195665849Y-146133880D01*
X196215000Y-146243113D01*
X196764151Y-146133880D01*
X197229698Y-145822811D01*
X197485000Y-145440725D01*
X197740302Y-145822811D01*
X198205849Y-146133880D01*
X198755000Y-146243113D01*
X199304151Y-146133880D01*
X199769698Y-145822811D01*
X200025000Y-145440725D01*
X200280302Y-145822811D01*
X200745849Y-146133880D01*
X201295000Y-146243113D01*
X201844151Y-146133880D01*
X202309698Y-145822811D01*
X202565000Y-145440725D01*
X202820302Y-145822811D01*
X203285849Y-146133880D01*
X203835000Y-146243113D01*
X204384151Y-146133880D01*
X204849698Y-145822811D01*
X205105000Y-145440725D01*
X205360302Y-145822811D01*
X205825849Y-146133880D01*
X206375000Y-146243113D01*
X206924151Y-146133880D01*
X207389698Y-145822811D01*
X207645000Y-145440725D01*
X207900302Y-145822811D01*
X208365849Y-146133880D01*
X208603527Y-146181157D01*
X208914380Y-146492010D01*
X208365849Y-146601120D01*
X207900302Y-146912189D01*
X207645000Y-147294275D01*
X207389698Y-146912189D01*
X206924151Y-146601120D01*
X206375000Y-146491887D01*
X205825849Y-146601120D01*
X205360302Y-146912189D01*
X205105000Y-147294275D01*
X204849698Y-146912189D01*
X204384151Y-146601120D01*
X203835000Y-146491887D01*
X203285849Y-146601120D01*
X202820302Y-146912189D01*
X202565000Y-147294275D01*
X202309698Y-146912189D01*
X201844151Y-146601120D01*
X201295000Y-146491887D01*
X200745849Y-146601120D01*
X200280302Y-146912189D01*
X200025000Y-147294275D01*
X199769698Y-146912189D01*
X199304151Y-146601120D01*
X198755000Y-146491887D01*
X198205849Y-146601120D01*
X197740302Y-146912189D01*
X197485000Y-147294275D01*
X197229698Y-146912189D01*
X196764151Y-146601120D01*
X196215000Y-146491887D01*
X195665849Y-146601120D01*
X195200302Y-146912189D01*
X194945000Y-147294275D01*
X194689698Y-146912189D01*
X194224151Y-146601120D01*
X193675000Y-146491887D01*
X193125849Y-146601120D01*
X192660302Y-146912189D01*
X192405000Y-147294275D01*
X192149698Y-146912189D01*
X191684151Y-146601120D01*
X191135000Y-146491887D01*
X190585849Y-146601120D01*
X190120302Y-146912189D01*
X189865000Y-147294275D01*
X189609698Y-146912189D01*
X189144151Y-146601120D01*
X188595000Y-146491887D01*
X188045849Y-146601120D01*
X187580302Y-146912189D01*
X187269233Y-147377736D01*
X187160000Y-147926887D01*
X187160000Y-147983113D01*
X187269233Y-148532264D01*
X187580302Y-148997811D01*
X187833000Y-149166659D01*
X187833000Y-150495000D01*
X187891004Y-150786605D01*
X187925610Y-150838396D01*
X188056185Y-151033815D01*
X191134380Y-154112010D01*
X190585849Y-154221120D01*
X190120302Y-154532189D01*
X190023899Y-154676465D01*
X189998162Y-154539683D01*
X189859090Y-154323559D01*
X189646890Y-154178569D01*
X189395000Y-154127560D01*
X187795000Y-154127560D01*
X187559683Y-154171838D01*
X187343559Y-154310910D01*
X187198569Y-154523110D01*
X187147560Y-154775000D01*
X187147560Y-155589930D01*
X186005693Y-154448063D01*
X186005693Y-144643202D01*
X187478183Y-143170713D01*
X201126287Y-143170713D01*
X201417892Y-143112709D01*
X201665102Y-142947528D01*
X206053473Y-138559157D01*
X206375000Y-138623113D01*
X206924151Y-138513880D01*
X207389698Y-138202811D01*
X207645000Y-137820725D01*
X207900302Y-138202811D01*
X208365849Y-138513880D01*
X208915000Y-138623113D01*
X209464151Y-138513880D01*
X209929698Y-138202811D01*
X210185000Y-137820725D01*
X210440302Y-138202811D01*
X210905849Y-138513880D01*
X211455000Y-138623113D01*
X212004151Y-138513880D01*
X212469698Y-138202811D01*
X212725000Y-137820725D01*
X212980302Y-138202811D01*
X213445849Y-138513880D01*
X213995000Y-138623113D01*
X214544151Y-138513880D01*
X215009698Y-138202811D01*
X215265000Y-137820725D01*
X215520302Y-138202811D01*
X215985849Y-138513880D01*
X216535000Y-138623113D01*
X217084151Y-138513880D01*
X217549698Y-138202811D01*
X217805000Y-137820725D01*
X218060302Y-138202811D01*
X218525849Y-138513880D01*
X219075000Y-138623113D01*
X219624151Y-138513880D01*
X220089698Y-138202811D01*
X220345000Y-137820725D01*
X220600302Y-138202811D01*
G36*
X209606622Y-134650805D02*
X209750587Y-134746999D01*
X209779660Y-134766425D01*
X201249055Y-134766425D01*
X200787000Y-134304370D01*
X200787000Y-134300630D01*
X201198816Y-133888815D01*
X201329391Y-133693395D01*
X201363996Y-133641605D01*
X201422000Y-133350000D01*
X201422000Y-132071964D01*
X201739147Y-131860054D01*
X201928345Y-131576899D01*
X201928355Y-131576924D01*
X202318642Y-132005183D01*
X202843108Y-132251486D01*
X203073000Y-132130819D01*
X203073000Y-130937000D01*
X203327000Y-130937000D01*
X203327000Y-132130819D01*
X203556892Y-132251486D01*
X204081358Y-132005183D01*
X204471645Y-131576924D01*
X204641476Y-131166890D01*
X204520155Y-130937000D01*
X203327000Y-130937000D01*
X203073000Y-130937000D01*
X203053000Y-130937000D01*
X203053000Y-130683000D01*
X203073000Y-130683000D01*
X203073000Y-130663000D01*
X203327000Y-130663000D01*
X203327000Y-130683000D01*
X204520155Y-130683000D01*
X204641476Y-130453110D01*
X204595041Y-130340999D01*
X205296817Y-130340999D01*
X209606622Y-134650805D01*
X209606622Y-134650805D01*
G37*
X209606622Y-134650805D02*
X209750587Y-134746999D01*
X209779660Y-134766425D01*
X201249055Y-134766425D01*
X200787000Y-134304370D01*
X200787000Y-134300630D01*
X201198816Y-133888815D01*
X201329391Y-133693395D01*
X201363996Y-133641605D01*
X201422000Y-133350000D01*
X201422000Y-132071964D01*
X201739147Y-131860054D01*
X201928345Y-131576899D01*
X201928355Y-131576924D01*
X202318642Y-132005183D01*
X202843108Y-132251486D01*
X203073000Y-132130819D01*
X203073000Y-130937000D01*
X203327000Y-130937000D01*
X203327000Y-132130819D01*
X203556892Y-132251486D01*
X204081358Y-132005183D01*
X204471645Y-131576924D01*
X204641476Y-131166890D01*
X204520155Y-130937000D01*
X203327000Y-130937000D01*
X203073000Y-130937000D01*
X203053000Y-130937000D01*
X203053000Y-130683000D01*
X203073000Y-130683000D01*
X203073000Y-130663000D01*
X203327000Y-130663000D01*
X203327000Y-130683000D01*
X204520155Y-130683000D01*
X204641476Y-130453110D01*
X204595041Y-130340999D01*
X205296817Y-130340999D01*
X209606622Y-134650805D01*
G36*
X221107000Y-130683000D02*
X221127000Y-130683000D01*
X221127000Y-130937000D01*
X221107000Y-130937000D01*
X221107000Y-130957000D01*
X220853000Y-130957000D01*
X220853000Y-130937000D01*
X220833000Y-130937000D01*
X220833000Y-130683000D01*
X220853000Y-130683000D01*
X220853000Y-130663000D01*
X221107000Y-130663000D01*
X221107000Y-130683000D01*
X221107000Y-130683000D01*
G37*
X221107000Y-130683000D02*
X221127000Y-130683000D01*
X221127000Y-130937000D01*
X221107000Y-130937000D01*
X221107000Y-130957000D01*
X220853000Y-130957000D01*
X220853000Y-130937000D01*
X220833000Y-130937000D01*
X220833000Y-130683000D01*
X220853000Y-130683000D01*
X220853000Y-130663000D01*
X221107000Y-130663000D01*
X221107000Y-130683000D01*
G36*
X221107000Y-128143000D02*
X221127000Y-128143000D01*
X221127000Y-128397000D01*
X221107000Y-128397000D01*
X221107000Y-128417000D01*
X220853000Y-128417000D01*
X220853000Y-128397000D01*
X220833000Y-128397000D01*
X220833000Y-128143000D01*
X220853000Y-128143000D01*
X220853000Y-128123000D01*
X221107000Y-128123000D01*
X221107000Y-128143000D01*
X221107000Y-128143000D01*
G37*
X221107000Y-128143000D02*
X221127000Y-128143000D01*
X221127000Y-128397000D01*
X221107000Y-128397000D01*
X221107000Y-128417000D01*
X220853000Y-128417000D01*
X220853000Y-128397000D01*
X220833000Y-128397000D01*
X220833000Y-128143000D01*
X220853000Y-128143000D01*
X220853000Y-128123000D01*
X221107000Y-128123000D01*
X221107000Y-128143000D01*
G36*
X203327000Y-128143000D02*
X203347000Y-128143000D01*
X203347000Y-128397000D01*
X203327000Y-128397000D01*
X203327000Y-128417000D01*
X203073000Y-128417000D01*
X203073000Y-128397000D01*
X203053000Y-128397000D01*
X203053000Y-128143000D01*
X203073000Y-128143000D01*
X203073000Y-128123000D01*
X203327000Y-128123000D01*
X203327000Y-128143000D01*
X203327000Y-128143000D01*
G37*
X203327000Y-128143000D02*
X203347000Y-128143000D01*
X203347000Y-128397000D01*
X203327000Y-128397000D01*
X203327000Y-128417000D01*
X203073000Y-128417000D01*
X203073000Y-128397000D01*
X203053000Y-128397000D01*
X203053000Y-128143000D01*
X203073000Y-128143000D01*
X203073000Y-128123000D01*
X203327000Y-128123000D01*
X203327000Y-128143000D01*
M02*
