G04 #@! TF.FileFunction,Copper,L1,Top,Signal*
%FSLAX46Y46*%
G04 Gerber Fmt 4.6, Leading zero omitted, Abs format (unit mm)*
G04 Created by KiCad (PCBNEW 4.0.6-e0-6349~53~ubuntu14.04.1) date Wed May 31 17:07:56 2017*
%MOMM*%
%LPD*%
G01*
G04 APERTURE LIST*
%ADD10C,0.100000*%
%ADD11C,1.400000*%
%ADD12O,1.400000X1.400000*%
%ADD13R,1.800000X1.800000*%
%ADD14C,1.800000*%
%ADD15C,4.064000*%
%ADD16R,1.600000X1.600000*%
%ADD17O,1.600000X1.600000*%
%ADD18C,1.600000*%
%ADD19R,1.700000X1.700000*%
%ADD20O,1.700000X1.700000*%
%ADD21C,0.254000*%
G04 APERTURE END LIST*
D10*
D11*
X180340000Y-132080000D03*
D12*
X185420000Y-132080000D03*
D13*
X181610000Y-137160000D03*
D14*
X179070000Y-137160000D03*
D15*
X177800000Y-127000000D03*
X227330000Y-127000000D03*
X227330000Y-165100000D03*
D16*
X188595000Y-155575000D03*
D17*
X221615000Y-147955000D03*
X191135000Y-155575000D03*
X219075000Y-147955000D03*
X193675000Y-155575000D03*
X216535000Y-147955000D03*
X196215000Y-155575000D03*
X213995000Y-147955000D03*
X198755000Y-155575000D03*
X211455000Y-147955000D03*
X201295000Y-155575000D03*
X208915000Y-147955000D03*
X203835000Y-155575000D03*
X206375000Y-147955000D03*
X206375000Y-155575000D03*
X203835000Y-147955000D03*
X208915000Y-155575000D03*
X201295000Y-147955000D03*
X211455000Y-155575000D03*
X198755000Y-147955000D03*
X213995000Y-155575000D03*
X196215000Y-147955000D03*
X216535000Y-155575000D03*
X193675000Y-147955000D03*
X219075000Y-155575000D03*
X191135000Y-147955000D03*
X221615000Y-155575000D03*
X188595000Y-147955000D03*
D16*
X188595000Y-144780000D03*
D17*
X221615000Y-137160000D03*
X191135000Y-144780000D03*
X219075000Y-137160000D03*
X193675000Y-144780000D03*
X216535000Y-137160000D03*
X196215000Y-144780000D03*
X213995000Y-137160000D03*
X198755000Y-144780000D03*
X211455000Y-137160000D03*
X201295000Y-144780000D03*
X208915000Y-137160000D03*
X203835000Y-144780000D03*
X206375000Y-137160000D03*
X206375000Y-144780000D03*
X203835000Y-137160000D03*
X208915000Y-144780000D03*
X201295000Y-137160000D03*
X211455000Y-144780000D03*
X198755000Y-137160000D03*
X213995000Y-144780000D03*
X196215000Y-137160000D03*
X216535000Y-144780000D03*
X193675000Y-137160000D03*
X219075000Y-144780000D03*
X191135000Y-137160000D03*
X221615000Y-144780000D03*
X188595000Y-137160000D03*
D18*
X227330000Y-148590000D03*
X227330000Y-146090000D03*
D15*
X177800000Y-165100000D03*
D19*
X218440000Y-125730000D03*
D20*
X220980000Y-125730000D03*
X218440000Y-128270000D03*
X220980000Y-128270000D03*
X218440000Y-130810000D03*
X220980000Y-130810000D03*
D19*
X209550000Y-125730000D03*
D20*
X212090000Y-125730000D03*
X209550000Y-128270000D03*
X212090000Y-128270000D03*
X209550000Y-130810000D03*
X212090000Y-130810000D03*
D19*
X205105000Y-165735000D03*
D20*
X205105000Y-163195000D03*
X207645000Y-165735000D03*
X207645000Y-163195000D03*
X210185000Y-165735000D03*
X210185000Y-163195000D03*
X212725000Y-165735000D03*
X212725000Y-163195000D03*
X215265000Y-165735000D03*
X215265000Y-163195000D03*
X217805000Y-165735000D03*
X217805000Y-163195000D03*
X220345000Y-165735000D03*
X220345000Y-163195000D03*
X222885000Y-165735000D03*
X222885000Y-163195000D03*
D19*
X200660000Y-125730000D03*
D20*
X203200000Y-125730000D03*
X200660000Y-128270000D03*
X203200000Y-128270000D03*
X200660000Y-130810000D03*
X203200000Y-130810000D03*
D19*
X191135000Y-125730000D03*
D20*
X193675000Y-125730000D03*
X191135000Y-128270000D03*
X193675000Y-128270000D03*
X191135000Y-130810000D03*
X193675000Y-130810000D03*
D19*
X183515000Y-165735000D03*
D20*
X183515000Y-163195000D03*
X186055000Y-165735000D03*
X186055000Y-163195000D03*
X188595000Y-165735000D03*
X188595000Y-163195000D03*
X191135000Y-165735000D03*
X191135000Y-163195000D03*
X193675000Y-165735000D03*
X193675000Y-163195000D03*
X196215000Y-165735000D03*
X196215000Y-163195000D03*
X198755000Y-165735000D03*
X198755000Y-163195000D03*
X201295000Y-165735000D03*
X201295000Y-163195000D03*
D19*
X227330000Y-152400000D03*
D20*
X227330000Y-154940000D03*
X227330000Y-157480000D03*
X227330000Y-160020000D03*
D19*
X177800000Y-152400000D03*
D20*
X177800000Y-154940000D03*
X177800000Y-157480000D03*
X177800000Y-160020000D03*
D21*
X176530000Y-147201558D02*
X176530000Y-148590000D01*
X176530000Y-148590000D02*
X176530000Y-156210000D01*
X185420000Y-132080000D02*
X185420000Y-135835802D01*
X185420000Y-135835802D02*
X176530000Y-144725802D01*
X176530000Y-144725802D02*
X176530000Y-148590000D01*
X193675000Y-130810000D02*
X192405000Y-132080000D01*
X192405000Y-132080000D02*
X185420000Y-132080000D01*
X176950001Y-156630001D02*
X177800000Y-157480000D01*
X176530000Y-156210000D02*
X176950001Y-156630001D01*
X193675000Y-130810000D02*
X193183678Y-130810000D01*
X185420000Y-132080000D02*
X185423360Y-132080000D01*
X212090000Y-130810000D02*
X212090000Y-132715000D01*
X212090000Y-125730000D02*
X212090000Y-128270000D01*
X193675000Y-125730000D02*
X193675000Y-128270000D01*
X212090000Y-132715000D02*
X195580000Y-132715000D01*
X195580000Y-132715000D02*
X193675000Y-130810000D01*
X212090000Y-125730000D02*
X212090000Y-132715000D01*
X212090000Y-132715000D02*
X213995000Y-134620000D01*
X193675000Y-125730000D02*
X193675000Y-126932081D01*
X193675000Y-126932081D02*
X193675000Y-130810000D01*
X208915000Y-144780000D02*
X208915000Y-142240000D01*
X208915000Y-142240000D02*
X213995000Y-137160000D01*
X213995000Y-137160000D02*
X213995000Y-134620000D01*
X208915000Y-155575000D02*
X208915000Y-153035000D01*
X208915000Y-153035000D02*
X213995000Y-147955000D01*
X191135000Y-155575000D02*
X191770000Y-155575000D01*
X205740000Y-161290000D02*
X207645000Y-163195000D01*
X202565000Y-161290000D02*
X205740000Y-161290000D01*
X200025000Y-158750000D02*
X202565000Y-161290000D01*
X194945000Y-158750000D02*
X200025000Y-158750000D01*
X191770000Y-155575000D02*
X194945000Y-158750000D01*
X210185000Y-163195000D02*
X210185000Y-161290000D01*
X196215000Y-158115000D02*
X193675000Y-155575000D01*
X200660000Y-158115000D02*
X196215000Y-158115000D01*
X202565000Y-160020000D02*
X200660000Y-158115000D01*
X208915000Y-160020000D02*
X202565000Y-160020000D01*
X210185000Y-161290000D02*
X208915000Y-160020000D01*
X196215000Y-155575000D02*
X198120000Y-157480000D01*
X212725000Y-161290000D02*
X212725000Y-163195000D01*
X210820000Y-159385000D02*
X212725000Y-161290000D01*
X203200000Y-159385000D02*
X210820000Y-159385000D01*
X201295000Y-157480000D02*
X203200000Y-159385000D01*
X198120000Y-157480000D02*
X201295000Y-157480000D01*
X203835000Y-158750000D02*
X212725000Y-158750000D01*
X198755000Y-155575000D02*
X200025000Y-156845000D01*
X215265000Y-161290000D02*
X215265000Y-163195000D01*
X212725000Y-158750000D02*
X215265000Y-161290000D01*
X201930000Y-156845000D02*
X203835000Y-158750000D01*
X200025000Y-156845000D02*
X201930000Y-156845000D01*
X217805000Y-160655000D02*
X217805000Y-163195000D01*
X201295000Y-155575000D02*
X201930000Y-155575000D01*
X215265000Y-158115000D02*
X217805000Y-160655000D01*
X204470000Y-158115000D02*
X215265000Y-158115000D01*
X201930000Y-155575000D02*
X204470000Y-158115000D01*
X203835000Y-155575000D02*
X205740000Y-157480000D01*
X220345000Y-160655000D02*
X220345000Y-163195000D01*
X217170000Y-157480000D02*
X220345000Y-160655000D01*
X205740000Y-157480000D02*
X217170000Y-157480000D01*
X222885000Y-163195000D02*
X222885000Y-161925000D01*
X207645000Y-156845000D02*
X206375000Y-155575000D01*
X217805000Y-156845000D02*
X207645000Y-156845000D01*
X222885000Y-161925000D02*
X217805000Y-156845000D01*
X179070000Y-154940000D02*
X178308010Y-154940000D01*
X227330000Y-154940000D02*
X226619280Y-154940000D01*
X224155000Y-157404280D02*
X224155000Y-157480000D01*
X226619280Y-154940000D02*
X224155000Y-157404280D01*
X179070000Y-154940000D02*
X181711949Y-157581949D01*
X182360199Y-166966001D02*
X223475881Y-166966001D01*
X181711949Y-157581949D02*
X181711949Y-166317751D01*
X181711949Y-166317751D02*
X182360199Y-166966001D01*
X223475881Y-166966001D02*
X224155000Y-166286882D01*
X224155000Y-166286882D02*
X224155000Y-157480000D01*
X216535000Y-155575000D02*
X217253424Y-155575000D01*
X219158424Y-157480000D02*
X224155000Y-157480000D01*
X217253424Y-155575000D02*
X219158424Y-157480000D01*
X216535000Y-144780000D02*
X216535000Y-145415000D01*
X217805000Y-154305000D02*
X216535000Y-155575000D01*
X217805000Y-146685000D02*
X217805000Y-154305000D01*
X216535000Y-145415000D02*
X217805000Y-146685000D01*
X227330000Y-152400000D02*
X226695000Y-152400000D01*
X219710000Y-155575000D02*
X219075000Y-155575000D01*
X226695000Y-152400000D02*
X222250000Y-156845000D01*
X222250000Y-156845000D02*
X220980000Y-156845000D01*
X220980000Y-156845000D02*
X219710000Y-155575000D01*
X219075000Y-144780000D02*
X219075000Y-145415000D01*
X220345000Y-154305000D02*
X219075000Y-155575000D01*
X220345000Y-146685000D02*
X220345000Y-154305000D01*
X219075000Y-145415000D02*
X220345000Y-146685000D01*
X188595000Y-155575000D02*
X189230000Y-155575000D01*
X203200000Y-163195000D02*
X205105000Y-163195000D01*
X199390000Y-159385000D02*
X203200000Y-163195000D01*
X194310000Y-159385000D02*
X199390000Y-159385000D01*
X191770000Y-156845000D02*
X194310000Y-159385000D01*
X190500000Y-156845000D02*
X191770000Y-156845000D01*
X189230000Y-155575000D02*
X190500000Y-156845000D01*
X183425647Y-160565647D02*
X183425647Y-157256256D01*
X185021492Y-149970902D02*
X191024098Y-149970902D01*
X192405000Y-148590000D02*
X192405000Y-146050000D01*
X183235981Y-151756413D02*
X185021492Y-149970902D01*
X183235980Y-156847480D02*
X183235981Y-151756413D01*
X191024098Y-149970902D02*
X192405000Y-148590000D01*
X191833499Y-145478499D02*
X191135000Y-144780000D01*
X192405000Y-146050000D02*
X191833499Y-145478499D01*
X186055000Y-163195000D02*
X183425647Y-160565647D01*
X183425647Y-157256256D02*
X183235979Y-157066587D01*
X183235979Y-157066587D02*
X183235980Y-156847480D01*
X194945000Y-149225000D02*
X194945000Y-146050000D01*
X194373499Y-145478499D02*
X193675000Y-144780000D01*
X185231917Y-150478913D02*
X193691087Y-150478913D01*
X186055000Y-160655000D02*
X184785000Y-160655000D01*
X183743991Y-151966839D02*
X185231917Y-150478913D01*
X183743990Y-156856164D02*
X183743991Y-151966839D01*
X183933657Y-157045833D02*
X183743990Y-156856164D01*
X184785000Y-160655000D02*
X183933657Y-159803657D01*
X183933657Y-159803657D02*
X183933657Y-157045833D01*
X188595000Y-163195000D02*
X186055000Y-160655000D01*
X194945000Y-146050000D02*
X194373499Y-145478499D01*
X193691087Y-150478913D02*
X194945000Y-149225000D01*
X197485000Y-146050000D02*
X196913499Y-145478499D01*
X191135000Y-163195000D02*
X190373001Y-162433001D01*
X196358076Y-150986924D02*
X197485000Y-149860000D01*
X184252001Y-152177265D02*
X185442342Y-150986924D01*
X197485000Y-149860000D02*
X197485000Y-146050000D01*
X185442342Y-150986924D02*
X196358076Y-150986924D01*
X190373001Y-162433001D02*
X190039261Y-162433001D01*
X196913499Y-145478499D02*
X196215000Y-144780000D01*
X184252000Y-156645740D02*
X184252001Y-152177265D01*
X190039261Y-162433001D02*
X184252000Y-156645740D01*
X187709694Y-159385000D02*
X184760010Y-156435316D01*
X199025065Y-151494935D02*
X200025000Y-150495000D01*
X189230000Y-159385000D02*
X187709694Y-159385000D01*
X200025000Y-146050000D02*
X199453499Y-145478499D01*
X185652767Y-151494935D02*
X199025065Y-151494935D01*
X192278001Y-162433001D02*
X189230000Y-159385000D01*
X193675000Y-163195000D02*
X192913001Y-162433001D01*
X192913001Y-162433001D02*
X192278001Y-162433001D01*
X184760011Y-152387691D02*
X185652767Y-151494935D01*
X199453499Y-145478499D02*
X198755000Y-144780000D01*
X184760010Y-156435316D02*
X184760011Y-152387691D01*
X200025000Y-150495000D02*
X200025000Y-146050000D01*
X185863192Y-152002946D02*
X201692054Y-152002946D01*
X201993499Y-145478499D02*
X201295000Y-144780000D01*
X202565000Y-151130000D02*
X202565000Y-146050000D01*
X192405000Y-161290000D02*
X189865000Y-158750000D01*
X202565000Y-146050000D02*
X201993499Y-145478499D01*
X185268020Y-156224892D02*
X185268021Y-152598117D01*
X201692054Y-152002946D02*
X202565000Y-151130000D01*
X194310000Y-161290000D02*
X192405000Y-161290000D01*
X187793128Y-158750000D02*
X185268020Y-156224892D01*
X196215000Y-163195000D02*
X194310000Y-161290000D01*
X189865000Y-158750000D02*
X187793128Y-158750000D01*
X185268021Y-152598117D02*
X185863192Y-152002946D01*
X185776031Y-156014467D02*
X185776031Y-152808543D01*
X185776031Y-152808543D02*
X186073617Y-152510957D01*
X186073617Y-152510957D02*
X204359043Y-152510957D01*
X187876564Y-158115000D02*
X185776031Y-156014467D01*
X190500000Y-158115000D02*
X187876564Y-158115000D01*
X198755000Y-163195000D02*
X196215000Y-160655000D01*
X193040000Y-160655000D02*
X190500000Y-158115000D01*
X196215000Y-160655000D02*
X193040000Y-160655000D01*
X205105000Y-146050000D02*
X204533499Y-145478499D01*
X205105000Y-151765000D02*
X205105000Y-146050000D01*
X204533499Y-145478499D02*
X203835000Y-144780000D01*
X204359043Y-152510957D02*
X205105000Y-151765000D01*
X201295000Y-163195000D02*
X201295000Y-162560000D01*
X201295000Y-162560000D02*
X198755000Y-160020000D01*
X207645000Y-152400000D02*
X207645000Y-146685000D01*
X198755000Y-160020000D02*
X193675000Y-160020000D01*
X207645000Y-146685000D02*
X206375000Y-145415000D01*
X187960000Y-157480000D02*
X186284042Y-155804042D01*
X186284042Y-153018968D02*
X207026032Y-153018968D01*
X207026032Y-153018968D02*
X207645000Y-152400000D01*
X193675000Y-160020000D02*
X191135000Y-157480000D01*
X191135000Y-157480000D02*
X187960000Y-157480000D01*
X186284042Y-155804042D02*
X186284042Y-153018968D01*
X206375000Y-145415000D02*
X206375000Y-144780000D01*
X182727970Y-156637054D02*
X182727971Y-151545987D01*
X188595000Y-145732500D02*
X188595000Y-144780000D01*
X184811067Y-149462891D02*
X184864609Y-149462891D01*
X184864609Y-149462891D02*
X188595000Y-145732500D01*
X182880000Y-157429044D02*
X182727969Y-157277009D01*
X182880000Y-161290000D02*
X182880000Y-157429044D01*
X183515000Y-161925000D02*
X182880000Y-161290000D01*
X183515000Y-163195000D02*
X183515000Y-161925000D01*
X182727969Y-157277009D02*
X182727970Y-156637054D01*
X182727971Y-151545987D02*
X184811067Y-149462891D01*
X188595000Y-137160000D02*
X188589285Y-137160000D01*
X182219959Y-165455959D02*
X182499000Y-165735000D01*
X188589285Y-137160000D02*
X182219959Y-143529326D01*
X182219959Y-143529326D02*
X182219959Y-165455959D01*
X182499000Y-165735000D02*
X183515000Y-165735000D01*
X180340000Y-132080000D02*
X180340000Y-135890000D01*
X180340000Y-135890000D02*
X179070000Y-137160000D01*
G36*
X230430000Y-168200000D02*
X174700000Y-168200000D01*
X174700000Y-165628172D01*
X175132538Y-165628172D01*
X175537709Y-166608761D01*
X176287293Y-167359655D01*
X177267173Y-167766536D01*
X178328172Y-167767462D01*
X179308761Y-167362291D01*
X180059655Y-166612707D01*
X180466536Y-165632827D01*
X180467462Y-164571828D01*
X180062291Y-163591239D01*
X179312707Y-162840345D01*
X178332827Y-162433464D01*
X177271828Y-162432538D01*
X176291239Y-162837709D01*
X175540345Y-163587293D01*
X175133464Y-164567173D01*
X175132538Y-165628172D01*
X174700000Y-165628172D01*
X174700000Y-160376890D01*
X176358524Y-160376890D01*
X176528355Y-160786924D01*
X176918642Y-161215183D01*
X177443108Y-161461486D01*
X177673000Y-161340819D01*
X177673000Y-160147000D01*
X177927000Y-160147000D01*
X177927000Y-161340819D01*
X178156892Y-161461486D01*
X178681358Y-161215183D01*
X179071645Y-160786924D01*
X179241476Y-160376890D01*
X179120155Y-160147000D01*
X177927000Y-160147000D01*
X177673000Y-160147000D01*
X176479845Y-160147000D01*
X176358524Y-160376890D01*
X174700000Y-160376890D01*
X174700000Y-144725802D01*
X175768000Y-144725802D01*
X175768000Y-156210000D01*
X175826004Y-156501605D01*
X175970222Y-156717442D01*
X175991185Y-156748815D01*
X176358321Y-157115951D01*
X176285907Y-157480000D01*
X176398946Y-158048285D01*
X176720853Y-158530054D01*
X177061553Y-158757702D01*
X176918642Y-158824817D01*
X176528355Y-159253076D01*
X176358524Y-159663110D01*
X176479845Y-159893000D01*
X177673000Y-159893000D01*
X177673000Y-159873000D01*
X177927000Y-159873000D01*
X177927000Y-159893000D01*
X179120155Y-159893000D01*
X179241476Y-159663110D01*
X179071645Y-159253076D01*
X178681358Y-158824817D01*
X178538447Y-158757702D01*
X178879147Y-158530054D01*
X179201054Y-158048285D01*
X179314093Y-157480000D01*
X179201054Y-156911715D01*
X178879147Y-156429946D01*
X178549974Y-156210000D01*
X178879147Y-155990054D01*
X178944547Y-155892177D01*
X180949949Y-157897579D01*
X180949949Y-166317751D01*
X181007953Y-166609356D01*
X181148913Y-166820317D01*
X181173134Y-166856566D01*
X181821384Y-167504816D01*
X182068594Y-167669997D01*
X182360199Y-167728001D01*
X223475881Y-167728001D01*
X223767486Y-167669997D01*
X224014696Y-167504816D01*
X224693815Y-166825698D01*
X224858996Y-166578487D01*
X224886742Y-166438997D01*
X224917000Y-166286882D01*
X224917000Y-166244017D01*
X225067709Y-166608761D01*
X225817293Y-167359655D01*
X226797173Y-167766536D01*
X227858172Y-167767462D01*
X228838761Y-167362291D01*
X229589655Y-166612707D01*
X229996536Y-165632827D01*
X229997462Y-164571828D01*
X229592291Y-163591239D01*
X228842707Y-162840345D01*
X227862827Y-162433464D01*
X226801828Y-162432538D01*
X225821239Y-162837709D01*
X225070345Y-163587293D01*
X224917000Y-163956589D01*
X224917000Y-160376890D01*
X225888524Y-160376890D01*
X226058355Y-160786924D01*
X226448642Y-161215183D01*
X226973108Y-161461486D01*
X227203000Y-161340819D01*
X227203000Y-160147000D01*
X227457000Y-160147000D01*
X227457000Y-161340819D01*
X227686892Y-161461486D01*
X228211358Y-161215183D01*
X228601645Y-160786924D01*
X228771476Y-160376890D01*
X228650155Y-160147000D01*
X227457000Y-160147000D01*
X227203000Y-160147000D01*
X226009845Y-160147000D01*
X225888524Y-160376890D01*
X224917000Y-160376890D01*
X224917000Y-157719910D01*
X226488240Y-156148671D01*
X226580026Y-156210000D01*
X226250853Y-156429946D01*
X225928946Y-156911715D01*
X225815907Y-157480000D01*
X225928946Y-158048285D01*
X226250853Y-158530054D01*
X226591553Y-158757702D01*
X226448642Y-158824817D01*
X226058355Y-159253076D01*
X225888524Y-159663110D01*
X226009845Y-159893000D01*
X227203000Y-159893000D01*
X227203000Y-159873000D01*
X227457000Y-159873000D01*
X227457000Y-159893000D01*
X228650155Y-159893000D01*
X228771476Y-159663110D01*
X228601645Y-159253076D01*
X228211358Y-158824817D01*
X228068447Y-158757702D01*
X228409147Y-158530054D01*
X228731054Y-158048285D01*
X228844093Y-157480000D01*
X228731054Y-156911715D01*
X228409147Y-156429946D01*
X228079974Y-156210000D01*
X228409147Y-155990054D01*
X228731054Y-155508285D01*
X228844093Y-154940000D01*
X228731054Y-154371715D01*
X228409147Y-153889946D01*
X228367548Y-153862150D01*
X228415317Y-153853162D01*
X228631441Y-153714090D01*
X228776431Y-153501890D01*
X228827440Y-153250000D01*
X228827440Y-151550000D01*
X228783162Y-151314683D01*
X228644090Y-151098559D01*
X228431890Y-150953569D01*
X228180000Y-150902560D01*
X226480000Y-150902560D01*
X226244683Y-150946838D01*
X226028559Y-151085910D01*
X225883569Y-151298110D01*
X225832560Y-151550000D01*
X225832560Y-152184809D01*
X222953852Y-155063518D01*
X222940767Y-154997736D01*
X222629698Y-154532189D01*
X222164151Y-154221120D01*
X221615000Y-154111887D01*
X221107000Y-154212935D01*
X221107000Y-149597745D01*
X226501861Y-149597745D01*
X226575995Y-149843864D01*
X227113223Y-150036965D01*
X227683454Y-150009778D01*
X228084005Y-149843864D01*
X228158139Y-149597745D01*
X227330000Y-148769605D01*
X226501861Y-149597745D01*
X221107000Y-149597745D01*
X221107000Y-149317065D01*
X221615000Y-149418113D01*
X222164151Y-149308880D01*
X222629698Y-148997811D01*
X222940767Y-148532264D01*
X222972402Y-148373223D01*
X225883035Y-148373223D01*
X225910222Y-148943454D01*
X226076136Y-149344005D01*
X226322255Y-149418139D01*
X227150395Y-148590000D01*
X227509605Y-148590000D01*
X228337745Y-149418139D01*
X228583864Y-149344005D01*
X228776965Y-148806777D01*
X228749778Y-148236546D01*
X228583864Y-147835995D01*
X228337745Y-147761861D01*
X227509605Y-148590000D01*
X227150395Y-148590000D01*
X226322255Y-147761861D01*
X226076136Y-147835995D01*
X225883035Y-148373223D01*
X222972402Y-148373223D01*
X223050000Y-147983113D01*
X223050000Y-147926887D01*
X222940767Y-147377736D01*
X222629698Y-146912189D01*
X222164151Y-146601120D01*
X221615000Y-146491887D01*
X221089384Y-146596439D01*
X221048996Y-146393395D01*
X221036162Y-146374187D01*
X225894752Y-146374187D01*
X226112757Y-146901800D01*
X226516077Y-147305824D01*
X226582544Y-147333423D01*
X226575995Y-147336136D01*
X226501861Y-147582255D01*
X227330000Y-148410395D01*
X228158139Y-147582255D01*
X228084005Y-147336136D01*
X228077517Y-147333804D01*
X228141800Y-147307243D01*
X228545824Y-146903923D01*
X228764750Y-146376691D01*
X228765248Y-145805813D01*
X228547243Y-145278200D01*
X228143923Y-144874176D01*
X227616691Y-144655250D01*
X227045813Y-144654752D01*
X226518200Y-144872757D01*
X226114176Y-145276077D01*
X225895250Y-145803309D01*
X225894752Y-146374187D01*
X221036162Y-146374187D01*
X221014390Y-146341604D01*
X220883815Y-146146184D01*
X220278252Y-145540621D01*
X220345000Y-145440725D01*
X220600302Y-145822811D01*
X221065849Y-146133880D01*
X221615000Y-146243113D01*
X222164151Y-146133880D01*
X222629698Y-145822811D01*
X222940767Y-145357264D01*
X223050000Y-144808113D01*
X223050000Y-144751887D01*
X222940767Y-144202736D01*
X222629698Y-143737189D01*
X222164151Y-143426120D01*
X221615000Y-143316887D01*
X221065849Y-143426120D01*
X220600302Y-143737189D01*
X220345000Y-144119275D01*
X220089698Y-143737189D01*
X219624151Y-143426120D01*
X219075000Y-143316887D01*
X218525849Y-143426120D01*
X218060302Y-143737189D01*
X217805000Y-144119275D01*
X217549698Y-143737189D01*
X217084151Y-143426120D01*
X216535000Y-143316887D01*
X215985849Y-143426120D01*
X215520302Y-143737189D01*
X215265000Y-144119275D01*
X215009698Y-143737189D01*
X214544151Y-143426120D01*
X213995000Y-143316887D01*
X213445849Y-143426120D01*
X212980302Y-143737189D01*
X212710014Y-144141703D01*
X212607389Y-143924866D01*
X212192423Y-143548959D01*
X211804039Y-143388096D01*
X211582000Y-143510085D01*
X211582000Y-144653000D01*
X211602000Y-144653000D01*
X211602000Y-144907000D01*
X211582000Y-144907000D01*
X211582000Y-146049915D01*
X211804039Y-146171904D01*
X212192423Y-146011041D01*
X212607389Y-145635134D01*
X212710014Y-145418297D01*
X212980302Y-145822811D01*
X213445849Y-146133880D01*
X213995000Y-146243113D01*
X214544151Y-146133880D01*
X215009698Y-145822811D01*
X215265000Y-145440725D01*
X215520302Y-145822811D01*
X215985849Y-146133880D01*
X216223527Y-146181157D01*
X216534380Y-146492010D01*
X215985849Y-146601120D01*
X215520302Y-146912189D01*
X215265000Y-147294275D01*
X215009698Y-146912189D01*
X214544151Y-146601120D01*
X213995000Y-146491887D01*
X213445849Y-146601120D01*
X212980302Y-146912189D01*
X212725000Y-147294275D01*
X212469698Y-146912189D01*
X212004151Y-146601120D01*
X211455000Y-146491887D01*
X210905849Y-146601120D01*
X210440302Y-146912189D01*
X210185000Y-147294275D01*
X209929698Y-146912189D01*
X209464151Y-146601120D01*
X208915000Y-146491887D01*
X208389384Y-146596439D01*
X208348996Y-146393395D01*
X208314390Y-146341604D01*
X208183815Y-146146184D01*
X207578252Y-145540621D01*
X207645000Y-145440725D01*
X207900302Y-145822811D01*
X208365849Y-146133880D01*
X208915000Y-146243113D01*
X209464151Y-146133880D01*
X209929698Y-145822811D01*
X210199986Y-145418297D01*
X210302611Y-145635134D01*
X210717577Y-146011041D01*
X211105961Y-146171904D01*
X211328000Y-146049915D01*
X211328000Y-144907000D01*
X211308000Y-144907000D01*
X211308000Y-144653000D01*
X211328000Y-144653000D01*
X211328000Y-143510085D01*
X211105961Y-143388096D01*
X210717577Y-143548959D01*
X210302611Y-143924866D01*
X210199986Y-144141703D01*
X209929698Y-143737189D01*
X209677000Y-143568341D01*
X209677000Y-142555630D01*
X213673473Y-138559157D01*
X213995000Y-138623113D01*
X214544151Y-138513880D01*
X215009698Y-138202811D01*
X215265000Y-137820725D01*
X215520302Y-138202811D01*
X215985849Y-138513880D01*
X216535000Y-138623113D01*
X217084151Y-138513880D01*
X217549698Y-138202811D01*
X217805000Y-137820725D01*
X218060302Y-138202811D01*
X218525849Y-138513880D01*
X219075000Y-138623113D01*
X219624151Y-138513880D01*
X220089698Y-138202811D01*
X220345000Y-137820725D01*
X220600302Y-138202811D01*
X221065849Y-138513880D01*
X221615000Y-138623113D01*
X222164151Y-138513880D01*
X222629698Y-138202811D01*
X222940767Y-137737264D01*
X223050000Y-137188113D01*
X223050000Y-137131887D01*
X222940767Y-136582736D01*
X222629698Y-136117189D01*
X222164151Y-135806120D01*
X221615000Y-135696887D01*
X221065849Y-135806120D01*
X220600302Y-136117189D01*
X220345000Y-136499275D01*
X220089698Y-136117189D01*
X219624151Y-135806120D01*
X219075000Y-135696887D01*
X218525849Y-135806120D01*
X218060302Y-136117189D01*
X217805000Y-136499275D01*
X217549698Y-136117189D01*
X217084151Y-135806120D01*
X216535000Y-135696887D01*
X215985849Y-135806120D01*
X215520302Y-136117189D01*
X215265000Y-136499275D01*
X215009698Y-136117189D01*
X214757000Y-135948341D01*
X214757000Y-134620000D01*
X214698996Y-134328395D01*
X214533815Y-134081185D01*
X212852000Y-132399370D01*
X212852000Y-132071964D01*
X213169147Y-131860054D01*
X213491054Y-131378285D01*
X213604093Y-130810000D01*
X213491054Y-130241715D01*
X213169147Y-129759946D01*
X212852000Y-129548036D01*
X212852000Y-129531964D01*
X213169147Y-129320054D01*
X213491054Y-128838285D01*
X213604093Y-128270000D01*
X216925907Y-128270000D01*
X217038946Y-128838285D01*
X217360853Y-129320054D01*
X217690026Y-129540000D01*
X217360853Y-129759946D01*
X217038946Y-130241715D01*
X216925907Y-130810000D01*
X217038946Y-131378285D01*
X217360853Y-131860054D01*
X217842622Y-132181961D01*
X218410907Y-132295000D01*
X218469093Y-132295000D01*
X219037378Y-132181961D01*
X219519147Y-131860054D01*
X219708345Y-131576899D01*
X219708355Y-131576924D01*
X220098642Y-132005183D01*
X220623108Y-132251486D01*
X220853000Y-132130819D01*
X220853000Y-130937000D01*
X221107000Y-130937000D01*
X221107000Y-132130819D01*
X221336892Y-132251486D01*
X221861358Y-132005183D01*
X222251645Y-131576924D01*
X222421476Y-131166890D01*
X222300155Y-130937000D01*
X221107000Y-130937000D01*
X220853000Y-130937000D01*
X220833000Y-130937000D01*
X220833000Y-130683000D01*
X220853000Y-130683000D01*
X220853000Y-128397000D01*
X221107000Y-128397000D01*
X221107000Y-130683000D01*
X222300155Y-130683000D01*
X222421476Y-130453110D01*
X222251645Y-130043076D01*
X221861358Y-129614817D01*
X221702046Y-129540000D01*
X221861358Y-129465183D01*
X222251645Y-129036924D01*
X222421476Y-128626890D01*
X222300155Y-128397000D01*
X221107000Y-128397000D01*
X220853000Y-128397000D01*
X220833000Y-128397000D01*
X220833000Y-128143000D01*
X220853000Y-128143000D01*
X220853000Y-125857000D01*
X221107000Y-125857000D01*
X221107000Y-128143000D01*
X222300155Y-128143000D01*
X222421476Y-127913110D01*
X222262040Y-127528172D01*
X224662538Y-127528172D01*
X225067709Y-128508761D01*
X225817293Y-129259655D01*
X226797173Y-129666536D01*
X227858172Y-129667462D01*
X228838761Y-129262291D01*
X229589655Y-128512707D01*
X229996536Y-127532827D01*
X229997462Y-126471828D01*
X229592291Y-125491239D01*
X228842707Y-124740345D01*
X227862827Y-124333464D01*
X226801828Y-124332538D01*
X225821239Y-124737709D01*
X225070345Y-125487293D01*
X224663464Y-126467173D01*
X224662538Y-127528172D01*
X222262040Y-127528172D01*
X222251645Y-127503076D01*
X221861358Y-127074817D01*
X221702046Y-127000000D01*
X221861358Y-126925183D01*
X222251645Y-126496924D01*
X222421476Y-126086890D01*
X222300155Y-125857000D01*
X221107000Y-125857000D01*
X220853000Y-125857000D01*
X220833000Y-125857000D01*
X220833000Y-125603000D01*
X220853000Y-125603000D01*
X220853000Y-124409181D01*
X221107000Y-124409181D01*
X221107000Y-125603000D01*
X222300155Y-125603000D01*
X222421476Y-125373110D01*
X222251645Y-124963076D01*
X221861358Y-124534817D01*
X221336892Y-124288514D01*
X221107000Y-124409181D01*
X220853000Y-124409181D01*
X220623108Y-124288514D01*
X220098642Y-124534817D01*
X219911192Y-124740504D01*
X219893162Y-124644683D01*
X219754090Y-124428559D01*
X219541890Y-124283569D01*
X219290000Y-124232560D01*
X217590000Y-124232560D01*
X217354683Y-124276838D01*
X217138559Y-124415910D01*
X216993569Y-124628110D01*
X216942560Y-124880000D01*
X216942560Y-126580000D01*
X216986838Y-126815317D01*
X217125910Y-127031441D01*
X217338110Y-127176431D01*
X217405541Y-127190086D01*
X217360853Y-127219946D01*
X217038946Y-127701715D01*
X216925907Y-128270000D01*
X213604093Y-128270000D01*
X213491054Y-127701715D01*
X213169147Y-127219946D01*
X212852000Y-127008036D01*
X212852000Y-126991964D01*
X213169147Y-126780054D01*
X213491054Y-126298285D01*
X213604093Y-125730000D01*
X213491054Y-125161715D01*
X213169147Y-124679946D01*
X212687378Y-124358039D01*
X212119093Y-124245000D01*
X212060907Y-124245000D01*
X211492622Y-124358039D01*
X211010853Y-124679946D01*
X211010029Y-124681179D01*
X211003162Y-124644683D01*
X210864090Y-124428559D01*
X210651890Y-124283569D01*
X210400000Y-124232560D01*
X208700000Y-124232560D01*
X208464683Y-124276838D01*
X208248559Y-124415910D01*
X208103569Y-124628110D01*
X208052560Y-124880000D01*
X208052560Y-126580000D01*
X208096838Y-126815317D01*
X208235910Y-127031441D01*
X208448110Y-127176431D01*
X208515541Y-127190086D01*
X208470853Y-127219946D01*
X208148946Y-127701715D01*
X208035907Y-128270000D01*
X208148946Y-128838285D01*
X208470853Y-129320054D01*
X208800026Y-129540000D01*
X208470853Y-129759946D01*
X208148946Y-130241715D01*
X208035907Y-130810000D01*
X208148946Y-131378285D01*
X208470853Y-131860054D01*
X208609957Y-131953000D01*
X204128914Y-131953000D01*
X204471645Y-131576924D01*
X204641476Y-131166890D01*
X204520155Y-130937000D01*
X203327000Y-130937000D01*
X203327000Y-130957000D01*
X203073000Y-130957000D01*
X203073000Y-130937000D01*
X203053000Y-130937000D01*
X203053000Y-130683000D01*
X203073000Y-130683000D01*
X203073000Y-128397000D01*
X203327000Y-128397000D01*
X203327000Y-130683000D01*
X204520155Y-130683000D01*
X204641476Y-130453110D01*
X204471645Y-130043076D01*
X204081358Y-129614817D01*
X203922046Y-129540000D01*
X204081358Y-129465183D01*
X204471645Y-129036924D01*
X204641476Y-128626890D01*
X204520155Y-128397000D01*
X203327000Y-128397000D01*
X203073000Y-128397000D01*
X203053000Y-128397000D01*
X203053000Y-128143000D01*
X203073000Y-128143000D01*
X203073000Y-125857000D01*
X203327000Y-125857000D01*
X203327000Y-128143000D01*
X204520155Y-128143000D01*
X204641476Y-127913110D01*
X204471645Y-127503076D01*
X204081358Y-127074817D01*
X203922046Y-127000000D01*
X204081358Y-126925183D01*
X204471645Y-126496924D01*
X204641476Y-126086890D01*
X204520155Y-125857000D01*
X203327000Y-125857000D01*
X203073000Y-125857000D01*
X203053000Y-125857000D01*
X203053000Y-125603000D01*
X203073000Y-125603000D01*
X203073000Y-124409181D01*
X203327000Y-124409181D01*
X203327000Y-125603000D01*
X204520155Y-125603000D01*
X204641476Y-125373110D01*
X204471645Y-124963076D01*
X204081358Y-124534817D01*
X203556892Y-124288514D01*
X203327000Y-124409181D01*
X203073000Y-124409181D01*
X202843108Y-124288514D01*
X202318642Y-124534817D01*
X202131192Y-124740504D01*
X202113162Y-124644683D01*
X201974090Y-124428559D01*
X201761890Y-124283569D01*
X201510000Y-124232560D01*
X199810000Y-124232560D01*
X199574683Y-124276838D01*
X199358559Y-124415910D01*
X199213569Y-124628110D01*
X199162560Y-124880000D01*
X199162560Y-126580000D01*
X199206838Y-126815317D01*
X199345910Y-127031441D01*
X199558110Y-127176431D01*
X199625541Y-127190086D01*
X199580853Y-127219946D01*
X199258946Y-127701715D01*
X199145907Y-128270000D01*
X199258946Y-128838285D01*
X199580853Y-129320054D01*
X199910026Y-129540000D01*
X199580853Y-129759946D01*
X199258946Y-130241715D01*
X199145907Y-130810000D01*
X199258946Y-131378285D01*
X199580853Y-131860054D01*
X199719957Y-131953000D01*
X195895630Y-131953000D01*
X195116679Y-131174049D01*
X195189093Y-130810000D01*
X195076054Y-130241715D01*
X194754147Y-129759946D01*
X194437000Y-129548036D01*
X194437000Y-129531964D01*
X194754147Y-129320054D01*
X195076054Y-128838285D01*
X195189093Y-128270000D01*
X195076054Y-127701715D01*
X194754147Y-127219946D01*
X194437000Y-127008036D01*
X194437000Y-126991964D01*
X194754147Y-126780054D01*
X195076054Y-126298285D01*
X195189093Y-125730000D01*
X195076054Y-125161715D01*
X194754147Y-124679946D01*
X194272378Y-124358039D01*
X193704093Y-124245000D01*
X193645907Y-124245000D01*
X193077622Y-124358039D01*
X192595853Y-124679946D01*
X192595029Y-124681179D01*
X192588162Y-124644683D01*
X192449090Y-124428559D01*
X192236890Y-124283569D01*
X191985000Y-124232560D01*
X190285000Y-124232560D01*
X190049683Y-124276838D01*
X189833559Y-124415910D01*
X189688569Y-124628110D01*
X189637560Y-124880000D01*
X189637560Y-126580000D01*
X189681838Y-126815317D01*
X189820910Y-127031441D01*
X190033110Y-127176431D01*
X190100541Y-127190086D01*
X190055853Y-127219946D01*
X189733946Y-127701715D01*
X189620907Y-128270000D01*
X189733946Y-128838285D01*
X190055853Y-129320054D01*
X190385026Y-129540000D01*
X190055853Y-129759946D01*
X189733946Y-130241715D01*
X189620907Y-130810000D01*
X189721955Y-131318000D01*
X186511742Y-131318000D01*
X186390142Y-131136012D01*
X185957036Y-130846621D01*
X185446154Y-130745000D01*
X185393846Y-130745000D01*
X184882964Y-130846621D01*
X184449858Y-131136012D01*
X184160467Y-131569118D01*
X184058846Y-132080000D01*
X184160467Y-132590882D01*
X184449858Y-133023988D01*
X184658000Y-133163063D01*
X184658000Y-135520171D01*
X183145000Y-137033171D01*
X183145000Y-137032998D01*
X182986252Y-137032998D01*
X183145000Y-136874250D01*
X183145000Y-136133690D01*
X183048327Y-135900301D01*
X182869698Y-135721673D01*
X182636309Y-135625000D01*
X181895750Y-135625000D01*
X181737000Y-135783750D01*
X181737000Y-137033000D01*
X181757000Y-137033000D01*
X181757000Y-137287000D01*
X181737000Y-137287000D01*
X181737000Y-137307000D01*
X181483000Y-137307000D01*
X181483000Y-137287000D01*
X181463000Y-137287000D01*
X181463000Y-137033000D01*
X181483000Y-137033000D01*
X181483000Y-135783750D01*
X181324250Y-135625000D01*
X181102000Y-135625000D01*
X181102000Y-133205659D01*
X181471098Y-132837204D01*
X181674768Y-132346713D01*
X181675231Y-131815617D01*
X181472418Y-131324771D01*
X181097204Y-130948902D01*
X180606713Y-130745232D01*
X180075617Y-130744769D01*
X179584771Y-130947582D01*
X179208902Y-131322796D01*
X179005232Y-131813287D01*
X179004769Y-132344383D01*
X179207582Y-132835229D01*
X179578000Y-133206294D01*
X179578000Y-135574369D01*
X179482965Y-135669404D01*
X179376670Y-135625267D01*
X178766009Y-135624735D01*
X178201629Y-135857932D01*
X177769449Y-136289357D01*
X177535267Y-136853330D01*
X177534735Y-137463991D01*
X177767932Y-138028371D01*
X178199357Y-138460551D01*
X178763330Y-138694733D01*
X179373991Y-138695265D01*
X179938371Y-138462068D01*
X180115841Y-138284908D01*
X180171673Y-138419699D01*
X180350302Y-138598327D01*
X180583691Y-138695000D01*
X181324250Y-138695000D01*
X181482998Y-138536252D01*
X181482998Y-138695000D01*
X181483171Y-138695000D01*
X175991185Y-144186987D01*
X175826004Y-144434197D01*
X175768000Y-144725802D01*
X174700000Y-144725802D01*
X174700000Y-127528172D01*
X175132538Y-127528172D01*
X175537709Y-128508761D01*
X176287293Y-129259655D01*
X177267173Y-129666536D01*
X178328172Y-129667462D01*
X179308761Y-129262291D01*
X180059655Y-128512707D01*
X180466536Y-127532827D01*
X180467462Y-126471828D01*
X180062291Y-125491239D01*
X179312707Y-124740345D01*
X178332827Y-124333464D01*
X177271828Y-124332538D01*
X176291239Y-124737709D01*
X175540345Y-125487293D01*
X175133464Y-126467173D01*
X175132538Y-127528172D01*
X174700000Y-127528172D01*
X174700000Y-123900000D01*
X230430000Y-123900000D01*
X230430000Y-168200000D01*
X230430000Y-168200000D01*
G37*
X230430000Y-168200000D02*
X174700000Y-168200000D01*
X174700000Y-165628172D01*
X175132538Y-165628172D01*
X175537709Y-166608761D01*
X176287293Y-167359655D01*
X177267173Y-167766536D01*
X178328172Y-167767462D01*
X179308761Y-167362291D01*
X180059655Y-166612707D01*
X180466536Y-165632827D01*
X180467462Y-164571828D01*
X180062291Y-163591239D01*
X179312707Y-162840345D01*
X178332827Y-162433464D01*
X177271828Y-162432538D01*
X176291239Y-162837709D01*
X175540345Y-163587293D01*
X175133464Y-164567173D01*
X175132538Y-165628172D01*
X174700000Y-165628172D01*
X174700000Y-160376890D01*
X176358524Y-160376890D01*
X176528355Y-160786924D01*
X176918642Y-161215183D01*
X177443108Y-161461486D01*
X177673000Y-161340819D01*
X177673000Y-160147000D01*
X177927000Y-160147000D01*
X177927000Y-161340819D01*
X178156892Y-161461486D01*
X178681358Y-161215183D01*
X179071645Y-160786924D01*
X179241476Y-160376890D01*
X179120155Y-160147000D01*
X177927000Y-160147000D01*
X177673000Y-160147000D01*
X176479845Y-160147000D01*
X176358524Y-160376890D01*
X174700000Y-160376890D01*
X174700000Y-144725802D01*
X175768000Y-144725802D01*
X175768000Y-156210000D01*
X175826004Y-156501605D01*
X175970222Y-156717442D01*
X175991185Y-156748815D01*
X176358321Y-157115951D01*
X176285907Y-157480000D01*
X176398946Y-158048285D01*
X176720853Y-158530054D01*
X177061553Y-158757702D01*
X176918642Y-158824817D01*
X176528355Y-159253076D01*
X176358524Y-159663110D01*
X176479845Y-159893000D01*
X177673000Y-159893000D01*
X177673000Y-159873000D01*
X177927000Y-159873000D01*
X177927000Y-159893000D01*
X179120155Y-159893000D01*
X179241476Y-159663110D01*
X179071645Y-159253076D01*
X178681358Y-158824817D01*
X178538447Y-158757702D01*
X178879147Y-158530054D01*
X179201054Y-158048285D01*
X179314093Y-157480000D01*
X179201054Y-156911715D01*
X178879147Y-156429946D01*
X178549974Y-156210000D01*
X178879147Y-155990054D01*
X178944547Y-155892177D01*
X180949949Y-157897579D01*
X180949949Y-166317751D01*
X181007953Y-166609356D01*
X181148913Y-166820317D01*
X181173134Y-166856566D01*
X181821384Y-167504816D01*
X182068594Y-167669997D01*
X182360199Y-167728001D01*
X223475881Y-167728001D01*
X223767486Y-167669997D01*
X224014696Y-167504816D01*
X224693815Y-166825698D01*
X224858996Y-166578487D01*
X224886742Y-166438997D01*
X224917000Y-166286882D01*
X224917000Y-166244017D01*
X225067709Y-166608761D01*
X225817293Y-167359655D01*
X226797173Y-167766536D01*
X227858172Y-167767462D01*
X228838761Y-167362291D01*
X229589655Y-166612707D01*
X229996536Y-165632827D01*
X229997462Y-164571828D01*
X229592291Y-163591239D01*
X228842707Y-162840345D01*
X227862827Y-162433464D01*
X226801828Y-162432538D01*
X225821239Y-162837709D01*
X225070345Y-163587293D01*
X224917000Y-163956589D01*
X224917000Y-160376890D01*
X225888524Y-160376890D01*
X226058355Y-160786924D01*
X226448642Y-161215183D01*
X226973108Y-161461486D01*
X227203000Y-161340819D01*
X227203000Y-160147000D01*
X227457000Y-160147000D01*
X227457000Y-161340819D01*
X227686892Y-161461486D01*
X228211358Y-161215183D01*
X228601645Y-160786924D01*
X228771476Y-160376890D01*
X228650155Y-160147000D01*
X227457000Y-160147000D01*
X227203000Y-160147000D01*
X226009845Y-160147000D01*
X225888524Y-160376890D01*
X224917000Y-160376890D01*
X224917000Y-157719910D01*
X226488240Y-156148671D01*
X226580026Y-156210000D01*
X226250853Y-156429946D01*
X225928946Y-156911715D01*
X225815907Y-157480000D01*
X225928946Y-158048285D01*
X226250853Y-158530054D01*
X226591553Y-158757702D01*
X226448642Y-158824817D01*
X226058355Y-159253076D01*
X225888524Y-159663110D01*
X226009845Y-159893000D01*
X227203000Y-159893000D01*
X227203000Y-159873000D01*
X227457000Y-159873000D01*
X227457000Y-159893000D01*
X228650155Y-159893000D01*
X228771476Y-159663110D01*
X228601645Y-159253076D01*
X228211358Y-158824817D01*
X228068447Y-158757702D01*
X228409147Y-158530054D01*
X228731054Y-158048285D01*
X228844093Y-157480000D01*
X228731054Y-156911715D01*
X228409147Y-156429946D01*
X228079974Y-156210000D01*
X228409147Y-155990054D01*
X228731054Y-155508285D01*
X228844093Y-154940000D01*
X228731054Y-154371715D01*
X228409147Y-153889946D01*
X228367548Y-153862150D01*
X228415317Y-153853162D01*
X228631441Y-153714090D01*
X228776431Y-153501890D01*
X228827440Y-153250000D01*
X228827440Y-151550000D01*
X228783162Y-151314683D01*
X228644090Y-151098559D01*
X228431890Y-150953569D01*
X228180000Y-150902560D01*
X226480000Y-150902560D01*
X226244683Y-150946838D01*
X226028559Y-151085910D01*
X225883569Y-151298110D01*
X225832560Y-151550000D01*
X225832560Y-152184809D01*
X222953852Y-155063518D01*
X222940767Y-154997736D01*
X222629698Y-154532189D01*
X222164151Y-154221120D01*
X221615000Y-154111887D01*
X221107000Y-154212935D01*
X221107000Y-149597745D01*
X226501861Y-149597745D01*
X226575995Y-149843864D01*
X227113223Y-150036965D01*
X227683454Y-150009778D01*
X228084005Y-149843864D01*
X228158139Y-149597745D01*
X227330000Y-148769605D01*
X226501861Y-149597745D01*
X221107000Y-149597745D01*
X221107000Y-149317065D01*
X221615000Y-149418113D01*
X222164151Y-149308880D01*
X222629698Y-148997811D01*
X222940767Y-148532264D01*
X222972402Y-148373223D01*
X225883035Y-148373223D01*
X225910222Y-148943454D01*
X226076136Y-149344005D01*
X226322255Y-149418139D01*
X227150395Y-148590000D01*
X227509605Y-148590000D01*
X228337745Y-149418139D01*
X228583864Y-149344005D01*
X228776965Y-148806777D01*
X228749778Y-148236546D01*
X228583864Y-147835995D01*
X228337745Y-147761861D01*
X227509605Y-148590000D01*
X227150395Y-148590000D01*
X226322255Y-147761861D01*
X226076136Y-147835995D01*
X225883035Y-148373223D01*
X222972402Y-148373223D01*
X223050000Y-147983113D01*
X223050000Y-147926887D01*
X222940767Y-147377736D01*
X222629698Y-146912189D01*
X222164151Y-146601120D01*
X221615000Y-146491887D01*
X221089384Y-146596439D01*
X221048996Y-146393395D01*
X221036162Y-146374187D01*
X225894752Y-146374187D01*
X226112757Y-146901800D01*
X226516077Y-147305824D01*
X226582544Y-147333423D01*
X226575995Y-147336136D01*
X226501861Y-147582255D01*
X227330000Y-148410395D01*
X228158139Y-147582255D01*
X228084005Y-147336136D01*
X228077517Y-147333804D01*
X228141800Y-147307243D01*
X228545824Y-146903923D01*
X228764750Y-146376691D01*
X228765248Y-145805813D01*
X228547243Y-145278200D01*
X228143923Y-144874176D01*
X227616691Y-144655250D01*
X227045813Y-144654752D01*
X226518200Y-144872757D01*
X226114176Y-145276077D01*
X225895250Y-145803309D01*
X225894752Y-146374187D01*
X221036162Y-146374187D01*
X221014390Y-146341604D01*
X220883815Y-146146184D01*
X220278252Y-145540621D01*
X220345000Y-145440725D01*
X220600302Y-145822811D01*
X221065849Y-146133880D01*
X221615000Y-146243113D01*
X222164151Y-146133880D01*
X222629698Y-145822811D01*
X222940767Y-145357264D01*
X223050000Y-144808113D01*
X223050000Y-144751887D01*
X222940767Y-144202736D01*
X222629698Y-143737189D01*
X222164151Y-143426120D01*
X221615000Y-143316887D01*
X221065849Y-143426120D01*
X220600302Y-143737189D01*
X220345000Y-144119275D01*
X220089698Y-143737189D01*
X219624151Y-143426120D01*
X219075000Y-143316887D01*
X218525849Y-143426120D01*
X218060302Y-143737189D01*
X217805000Y-144119275D01*
X217549698Y-143737189D01*
X217084151Y-143426120D01*
X216535000Y-143316887D01*
X215985849Y-143426120D01*
X215520302Y-143737189D01*
X215265000Y-144119275D01*
X215009698Y-143737189D01*
X214544151Y-143426120D01*
X213995000Y-143316887D01*
X213445849Y-143426120D01*
X212980302Y-143737189D01*
X212710014Y-144141703D01*
X212607389Y-143924866D01*
X212192423Y-143548959D01*
X211804039Y-143388096D01*
X211582000Y-143510085D01*
X211582000Y-144653000D01*
X211602000Y-144653000D01*
X211602000Y-144907000D01*
X211582000Y-144907000D01*
X211582000Y-146049915D01*
X211804039Y-146171904D01*
X212192423Y-146011041D01*
X212607389Y-145635134D01*
X212710014Y-145418297D01*
X212980302Y-145822811D01*
X213445849Y-146133880D01*
X213995000Y-146243113D01*
X214544151Y-146133880D01*
X215009698Y-145822811D01*
X215265000Y-145440725D01*
X215520302Y-145822811D01*
X215985849Y-146133880D01*
X216223527Y-146181157D01*
X216534380Y-146492010D01*
X215985849Y-146601120D01*
X215520302Y-146912189D01*
X215265000Y-147294275D01*
X215009698Y-146912189D01*
X214544151Y-146601120D01*
X213995000Y-146491887D01*
X213445849Y-146601120D01*
X212980302Y-146912189D01*
X212725000Y-147294275D01*
X212469698Y-146912189D01*
X212004151Y-146601120D01*
X211455000Y-146491887D01*
X210905849Y-146601120D01*
X210440302Y-146912189D01*
X210185000Y-147294275D01*
X209929698Y-146912189D01*
X209464151Y-146601120D01*
X208915000Y-146491887D01*
X208389384Y-146596439D01*
X208348996Y-146393395D01*
X208314390Y-146341604D01*
X208183815Y-146146184D01*
X207578252Y-145540621D01*
X207645000Y-145440725D01*
X207900302Y-145822811D01*
X208365849Y-146133880D01*
X208915000Y-146243113D01*
X209464151Y-146133880D01*
X209929698Y-145822811D01*
X210199986Y-145418297D01*
X210302611Y-145635134D01*
X210717577Y-146011041D01*
X211105961Y-146171904D01*
X211328000Y-146049915D01*
X211328000Y-144907000D01*
X211308000Y-144907000D01*
X211308000Y-144653000D01*
X211328000Y-144653000D01*
X211328000Y-143510085D01*
X211105961Y-143388096D01*
X210717577Y-143548959D01*
X210302611Y-143924866D01*
X210199986Y-144141703D01*
X209929698Y-143737189D01*
X209677000Y-143568341D01*
X209677000Y-142555630D01*
X213673473Y-138559157D01*
X213995000Y-138623113D01*
X214544151Y-138513880D01*
X215009698Y-138202811D01*
X215265000Y-137820725D01*
X215520302Y-138202811D01*
X215985849Y-138513880D01*
X216535000Y-138623113D01*
X217084151Y-138513880D01*
X217549698Y-138202811D01*
X217805000Y-137820725D01*
X218060302Y-138202811D01*
X218525849Y-138513880D01*
X219075000Y-138623113D01*
X219624151Y-138513880D01*
X220089698Y-138202811D01*
X220345000Y-137820725D01*
X220600302Y-138202811D01*
X221065849Y-138513880D01*
X221615000Y-138623113D01*
X222164151Y-138513880D01*
X222629698Y-138202811D01*
X222940767Y-137737264D01*
X223050000Y-137188113D01*
X223050000Y-137131887D01*
X222940767Y-136582736D01*
X222629698Y-136117189D01*
X222164151Y-135806120D01*
X221615000Y-135696887D01*
X221065849Y-135806120D01*
X220600302Y-136117189D01*
X220345000Y-136499275D01*
X220089698Y-136117189D01*
X219624151Y-135806120D01*
X219075000Y-135696887D01*
X218525849Y-135806120D01*
X218060302Y-136117189D01*
X217805000Y-136499275D01*
X217549698Y-136117189D01*
X217084151Y-135806120D01*
X216535000Y-135696887D01*
X215985849Y-135806120D01*
X215520302Y-136117189D01*
X215265000Y-136499275D01*
X215009698Y-136117189D01*
X214757000Y-135948341D01*
X214757000Y-134620000D01*
X214698996Y-134328395D01*
X214533815Y-134081185D01*
X212852000Y-132399370D01*
X212852000Y-132071964D01*
X213169147Y-131860054D01*
X213491054Y-131378285D01*
X213604093Y-130810000D01*
X213491054Y-130241715D01*
X213169147Y-129759946D01*
X212852000Y-129548036D01*
X212852000Y-129531964D01*
X213169147Y-129320054D01*
X213491054Y-128838285D01*
X213604093Y-128270000D01*
X216925907Y-128270000D01*
X217038946Y-128838285D01*
X217360853Y-129320054D01*
X217690026Y-129540000D01*
X217360853Y-129759946D01*
X217038946Y-130241715D01*
X216925907Y-130810000D01*
X217038946Y-131378285D01*
X217360853Y-131860054D01*
X217842622Y-132181961D01*
X218410907Y-132295000D01*
X218469093Y-132295000D01*
X219037378Y-132181961D01*
X219519147Y-131860054D01*
X219708345Y-131576899D01*
X219708355Y-131576924D01*
X220098642Y-132005183D01*
X220623108Y-132251486D01*
X220853000Y-132130819D01*
X220853000Y-130937000D01*
X221107000Y-130937000D01*
X221107000Y-132130819D01*
X221336892Y-132251486D01*
X221861358Y-132005183D01*
X222251645Y-131576924D01*
X222421476Y-131166890D01*
X222300155Y-130937000D01*
X221107000Y-130937000D01*
X220853000Y-130937000D01*
X220833000Y-130937000D01*
X220833000Y-130683000D01*
X220853000Y-130683000D01*
X220853000Y-128397000D01*
X221107000Y-128397000D01*
X221107000Y-130683000D01*
X222300155Y-130683000D01*
X222421476Y-130453110D01*
X222251645Y-130043076D01*
X221861358Y-129614817D01*
X221702046Y-129540000D01*
X221861358Y-129465183D01*
X222251645Y-129036924D01*
X222421476Y-128626890D01*
X222300155Y-128397000D01*
X221107000Y-128397000D01*
X220853000Y-128397000D01*
X220833000Y-128397000D01*
X220833000Y-128143000D01*
X220853000Y-128143000D01*
X220853000Y-125857000D01*
X221107000Y-125857000D01*
X221107000Y-128143000D01*
X222300155Y-128143000D01*
X222421476Y-127913110D01*
X222262040Y-127528172D01*
X224662538Y-127528172D01*
X225067709Y-128508761D01*
X225817293Y-129259655D01*
X226797173Y-129666536D01*
X227858172Y-129667462D01*
X228838761Y-129262291D01*
X229589655Y-128512707D01*
X229996536Y-127532827D01*
X229997462Y-126471828D01*
X229592291Y-125491239D01*
X228842707Y-124740345D01*
X227862827Y-124333464D01*
X226801828Y-124332538D01*
X225821239Y-124737709D01*
X225070345Y-125487293D01*
X224663464Y-126467173D01*
X224662538Y-127528172D01*
X222262040Y-127528172D01*
X222251645Y-127503076D01*
X221861358Y-127074817D01*
X221702046Y-127000000D01*
X221861358Y-126925183D01*
X222251645Y-126496924D01*
X222421476Y-126086890D01*
X222300155Y-125857000D01*
X221107000Y-125857000D01*
X220853000Y-125857000D01*
X220833000Y-125857000D01*
X220833000Y-125603000D01*
X220853000Y-125603000D01*
X220853000Y-124409181D01*
X221107000Y-124409181D01*
X221107000Y-125603000D01*
X222300155Y-125603000D01*
X222421476Y-125373110D01*
X222251645Y-124963076D01*
X221861358Y-124534817D01*
X221336892Y-124288514D01*
X221107000Y-124409181D01*
X220853000Y-124409181D01*
X220623108Y-124288514D01*
X220098642Y-124534817D01*
X219911192Y-124740504D01*
X219893162Y-124644683D01*
X219754090Y-124428559D01*
X219541890Y-124283569D01*
X219290000Y-124232560D01*
X217590000Y-124232560D01*
X217354683Y-124276838D01*
X217138559Y-124415910D01*
X216993569Y-124628110D01*
X216942560Y-124880000D01*
X216942560Y-126580000D01*
X216986838Y-126815317D01*
X217125910Y-127031441D01*
X217338110Y-127176431D01*
X217405541Y-127190086D01*
X217360853Y-127219946D01*
X217038946Y-127701715D01*
X216925907Y-128270000D01*
X213604093Y-128270000D01*
X213491054Y-127701715D01*
X213169147Y-127219946D01*
X212852000Y-127008036D01*
X212852000Y-126991964D01*
X213169147Y-126780054D01*
X213491054Y-126298285D01*
X213604093Y-125730000D01*
X213491054Y-125161715D01*
X213169147Y-124679946D01*
X212687378Y-124358039D01*
X212119093Y-124245000D01*
X212060907Y-124245000D01*
X211492622Y-124358039D01*
X211010853Y-124679946D01*
X211010029Y-124681179D01*
X211003162Y-124644683D01*
X210864090Y-124428559D01*
X210651890Y-124283569D01*
X210400000Y-124232560D01*
X208700000Y-124232560D01*
X208464683Y-124276838D01*
X208248559Y-124415910D01*
X208103569Y-124628110D01*
X208052560Y-124880000D01*
X208052560Y-126580000D01*
X208096838Y-126815317D01*
X208235910Y-127031441D01*
X208448110Y-127176431D01*
X208515541Y-127190086D01*
X208470853Y-127219946D01*
X208148946Y-127701715D01*
X208035907Y-128270000D01*
X208148946Y-128838285D01*
X208470853Y-129320054D01*
X208800026Y-129540000D01*
X208470853Y-129759946D01*
X208148946Y-130241715D01*
X208035907Y-130810000D01*
X208148946Y-131378285D01*
X208470853Y-131860054D01*
X208609957Y-131953000D01*
X204128914Y-131953000D01*
X204471645Y-131576924D01*
X204641476Y-131166890D01*
X204520155Y-130937000D01*
X203327000Y-130937000D01*
X203327000Y-130957000D01*
X203073000Y-130957000D01*
X203073000Y-130937000D01*
X203053000Y-130937000D01*
X203053000Y-130683000D01*
X203073000Y-130683000D01*
X203073000Y-128397000D01*
X203327000Y-128397000D01*
X203327000Y-130683000D01*
X204520155Y-130683000D01*
X204641476Y-130453110D01*
X204471645Y-130043076D01*
X204081358Y-129614817D01*
X203922046Y-129540000D01*
X204081358Y-129465183D01*
X204471645Y-129036924D01*
X204641476Y-128626890D01*
X204520155Y-128397000D01*
X203327000Y-128397000D01*
X203073000Y-128397000D01*
X203053000Y-128397000D01*
X203053000Y-128143000D01*
X203073000Y-128143000D01*
X203073000Y-125857000D01*
X203327000Y-125857000D01*
X203327000Y-128143000D01*
X204520155Y-128143000D01*
X204641476Y-127913110D01*
X204471645Y-127503076D01*
X204081358Y-127074817D01*
X203922046Y-127000000D01*
X204081358Y-126925183D01*
X204471645Y-126496924D01*
X204641476Y-126086890D01*
X204520155Y-125857000D01*
X203327000Y-125857000D01*
X203073000Y-125857000D01*
X203053000Y-125857000D01*
X203053000Y-125603000D01*
X203073000Y-125603000D01*
X203073000Y-124409181D01*
X203327000Y-124409181D01*
X203327000Y-125603000D01*
X204520155Y-125603000D01*
X204641476Y-125373110D01*
X204471645Y-124963076D01*
X204081358Y-124534817D01*
X203556892Y-124288514D01*
X203327000Y-124409181D01*
X203073000Y-124409181D01*
X202843108Y-124288514D01*
X202318642Y-124534817D01*
X202131192Y-124740504D01*
X202113162Y-124644683D01*
X201974090Y-124428559D01*
X201761890Y-124283569D01*
X201510000Y-124232560D01*
X199810000Y-124232560D01*
X199574683Y-124276838D01*
X199358559Y-124415910D01*
X199213569Y-124628110D01*
X199162560Y-124880000D01*
X199162560Y-126580000D01*
X199206838Y-126815317D01*
X199345910Y-127031441D01*
X199558110Y-127176431D01*
X199625541Y-127190086D01*
X199580853Y-127219946D01*
X199258946Y-127701715D01*
X199145907Y-128270000D01*
X199258946Y-128838285D01*
X199580853Y-129320054D01*
X199910026Y-129540000D01*
X199580853Y-129759946D01*
X199258946Y-130241715D01*
X199145907Y-130810000D01*
X199258946Y-131378285D01*
X199580853Y-131860054D01*
X199719957Y-131953000D01*
X195895630Y-131953000D01*
X195116679Y-131174049D01*
X195189093Y-130810000D01*
X195076054Y-130241715D01*
X194754147Y-129759946D01*
X194437000Y-129548036D01*
X194437000Y-129531964D01*
X194754147Y-129320054D01*
X195076054Y-128838285D01*
X195189093Y-128270000D01*
X195076054Y-127701715D01*
X194754147Y-127219946D01*
X194437000Y-127008036D01*
X194437000Y-126991964D01*
X194754147Y-126780054D01*
X195076054Y-126298285D01*
X195189093Y-125730000D01*
X195076054Y-125161715D01*
X194754147Y-124679946D01*
X194272378Y-124358039D01*
X193704093Y-124245000D01*
X193645907Y-124245000D01*
X193077622Y-124358039D01*
X192595853Y-124679946D01*
X192595029Y-124681179D01*
X192588162Y-124644683D01*
X192449090Y-124428559D01*
X192236890Y-124283569D01*
X191985000Y-124232560D01*
X190285000Y-124232560D01*
X190049683Y-124276838D01*
X189833559Y-124415910D01*
X189688569Y-124628110D01*
X189637560Y-124880000D01*
X189637560Y-126580000D01*
X189681838Y-126815317D01*
X189820910Y-127031441D01*
X190033110Y-127176431D01*
X190100541Y-127190086D01*
X190055853Y-127219946D01*
X189733946Y-127701715D01*
X189620907Y-128270000D01*
X189733946Y-128838285D01*
X190055853Y-129320054D01*
X190385026Y-129540000D01*
X190055853Y-129759946D01*
X189733946Y-130241715D01*
X189620907Y-130810000D01*
X189721955Y-131318000D01*
X186511742Y-131318000D01*
X186390142Y-131136012D01*
X185957036Y-130846621D01*
X185446154Y-130745000D01*
X185393846Y-130745000D01*
X184882964Y-130846621D01*
X184449858Y-131136012D01*
X184160467Y-131569118D01*
X184058846Y-132080000D01*
X184160467Y-132590882D01*
X184449858Y-133023988D01*
X184658000Y-133163063D01*
X184658000Y-135520171D01*
X183145000Y-137033171D01*
X183145000Y-137032998D01*
X182986252Y-137032998D01*
X183145000Y-136874250D01*
X183145000Y-136133690D01*
X183048327Y-135900301D01*
X182869698Y-135721673D01*
X182636309Y-135625000D01*
X181895750Y-135625000D01*
X181737000Y-135783750D01*
X181737000Y-137033000D01*
X181757000Y-137033000D01*
X181757000Y-137287000D01*
X181737000Y-137287000D01*
X181737000Y-137307000D01*
X181483000Y-137307000D01*
X181483000Y-137287000D01*
X181463000Y-137287000D01*
X181463000Y-137033000D01*
X181483000Y-137033000D01*
X181483000Y-135783750D01*
X181324250Y-135625000D01*
X181102000Y-135625000D01*
X181102000Y-133205659D01*
X181471098Y-132837204D01*
X181674768Y-132346713D01*
X181675231Y-131815617D01*
X181472418Y-131324771D01*
X181097204Y-130948902D01*
X180606713Y-130745232D01*
X180075617Y-130744769D01*
X179584771Y-130947582D01*
X179208902Y-131322796D01*
X179005232Y-131813287D01*
X179004769Y-132344383D01*
X179207582Y-132835229D01*
X179578000Y-133206294D01*
X179578000Y-135574369D01*
X179482965Y-135669404D01*
X179376670Y-135625267D01*
X178766009Y-135624735D01*
X178201629Y-135857932D01*
X177769449Y-136289357D01*
X177535267Y-136853330D01*
X177534735Y-137463991D01*
X177767932Y-138028371D01*
X178199357Y-138460551D01*
X178763330Y-138694733D01*
X179373991Y-138695265D01*
X179938371Y-138462068D01*
X180115841Y-138284908D01*
X180171673Y-138419699D01*
X180350302Y-138598327D01*
X180583691Y-138695000D01*
X181324250Y-138695000D01*
X181482998Y-138536252D01*
X181482998Y-138695000D01*
X181483171Y-138695000D01*
X175991185Y-144186987D01*
X175826004Y-144434197D01*
X175768000Y-144725802D01*
X174700000Y-144725802D01*
X174700000Y-127528172D01*
X175132538Y-127528172D01*
X175537709Y-128508761D01*
X176287293Y-129259655D01*
X177267173Y-129666536D01*
X178328172Y-129667462D01*
X179308761Y-129262291D01*
X180059655Y-128512707D01*
X180466536Y-127532827D01*
X180467462Y-126471828D01*
X180062291Y-125491239D01*
X179312707Y-124740345D01*
X178332827Y-124333464D01*
X177271828Y-124332538D01*
X176291239Y-124737709D01*
X175540345Y-125487293D01*
X175133464Y-126467173D01*
X175132538Y-127528172D01*
X174700000Y-127528172D01*
X174700000Y-123900000D01*
X230430000Y-123900000D01*
X230430000Y-168200000D01*
G36*
X215520302Y-148997811D02*
X215985849Y-149308880D01*
X216535000Y-149418113D01*
X217043000Y-149317065D01*
X217043000Y-153989369D01*
X216856527Y-154175843D01*
X216535000Y-154111887D01*
X215985849Y-154221120D01*
X215520302Y-154532189D01*
X215265000Y-154914275D01*
X215009698Y-154532189D01*
X214544151Y-154221120D01*
X213995000Y-154111887D01*
X213445849Y-154221120D01*
X212980302Y-154532189D01*
X212710014Y-154936703D01*
X212607389Y-154719866D01*
X212192423Y-154343959D01*
X211804039Y-154183096D01*
X211582000Y-154305085D01*
X211582000Y-155448000D01*
X211602000Y-155448000D01*
X211602000Y-155702000D01*
X211582000Y-155702000D01*
X211582000Y-155722000D01*
X211328000Y-155722000D01*
X211328000Y-155702000D01*
X211308000Y-155702000D01*
X211308000Y-155448000D01*
X211328000Y-155448000D01*
X211328000Y-154305085D01*
X211105961Y-154183096D01*
X210717577Y-154343959D01*
X210302611Y-154719866D01*
X210199986Y-154936703D01*
X209929698Y-154532189D01*
X209677000Y-154363341D01*
X209677000Y-153350630D01*
X213673473Y-149354157D01*
X213995000Y-149418113D01*
X214544151Y-149308880D01*
X215009698Y-148997811D01*
X215265000Y-148615725D01*
X215520302Y-148997811D01*
X215520302Y-148997811D01*
G37*
X215520302Y-148997811D02*
X215985849Y-149308880D01*
X216535000Y-149418113D01*
X217043000Y-149317065D01*
X217043000Y-153989369D01*
X216856527Y-154175843D01*
X216535000Y-154111887D01*
X215985849Y-154221120D01*
X215520302Y-154532189D01*
X215265000Y-154914275D01*
X215009698Y-154532189D01*
X214544151Y-154221120D01*
X213995000Y-154111887D01*
X213445849Y-154221120D01*
X212980302Y-154532189D01*
X212710014Y-154936703D01*
X212607389Y-154719866D01*
X212192423Y-154343959D01*
X211804039Y-154183096D01*
X211582000Y-154305085D01*
X211582000Y-155448000D01*
X211602000Y-155448000D01*
X211602000Y-155702000D01*
X211582000Y-155702000D01*
X211582000Y-155722000D01*
X211328000Y-155722000D01*
X211328000Y-155702000D01*
X211308000Y-155702000D01*
X211308000Y-155448000D01*
X211328000Y-155448000D01*
X211328000Y-154305085D01*
X211105961Y-154183096D01*
X210717577Y-154343959D01*
X210302611Y-154719866D01*
X210199986Y-154936703D01*
X209929698Y-154532189D01*
X209677000Y-154363341D01*
X209677000Y-153350630D01*
X213673473Y-149354157D01*
X213995000Y-149418113D01*
X214544151Y-149308880D01*
X215009698Y-148997811D01*
X215265000Y-148615725D01*
X215520302Y-148997811D01*
M02*
