G04 #@! TF.FileFunction,Soldermask,Top*
%FSLAX46Y46*%
G04 Gerber Fmt 4.6, Leading zero omitted, Abs format (unit mm)*
G04 Created by KiCad (PCBNEW 4.0.6-e0-6349~53~ubuntu14.04.1) date Wed May 31 17:07:56 2017*
%MOMM*%
%LPD*%
G01*
G04 APERTURE LIST*
%ADD10C,0.100000*%
%ADD11C,1.800000*%
%ADD12O,1.800000X1.800000*%
%ADD13R,2.200000X2.200000*%
%ADD14C,2.200000*%
%ADD15C,4.464000*%
%ADD16R,2.000000X2.000000*%
%ADD17O,2.000000X2.000000*%
%ADD18C,2.000000*%
%ADD19R,2.100000X2.100000*%
%ADD20O,2.100000X2.100000*%
G04 APERTURE END LIST*
D10*
D11*
X180340000Y-132080000D03*
D12*
X185420000Y-132080000D03*
D13*
X181610000Y-137160000D03*
D14*
X179070000Y-137160000D03*
D15*
X177800000Y-127000000D03*
X227330000Y-127000000D03*
X227330000Y-165100000D03*
D16*
X188595000Y-155575000D03*
D17*
X221615000Y-147955000D03*
X191135000Y-155575000D03*
X219075000Y-147955000D03*
X193675000Y-155575000D03*
X216535000Y-147955000D03*
X196215000Y-155575000D03*
X213995000Y-147955000D03*
X198755000Y-155575000D03*
X211455000Y-147955000D03*
X201295000Y-155575000D03*
X208915000Y-147955000D03*
X203835000Y-155575000D03*
X206375000Y-147955000D03*
X206375000Y-155575000D03*
X203835000Y-147955000D03*
X208915000Y-155575000D03*
X201295000Y-147955000D03*
X211455000Y-155575000D03*
X198755000Y-147955000D03*
X213995000Y-155575000D03*
X196215000Y-147955000D03*
X216535000Y-155575000D03*
X193675000Y-147955000D03*
X219075000Y-155575000D03*
X191135000Y-147955000D03*
X221615000Y-155575000D03*
X188595000Y-147955000D03*
D16*
X188595000Y-144780000D03*
D17*
X221615000Y-137160000D03*
X191135000Y-144780000D03*
X219075000Y-137160000D03*
X193675000Y-144780000D03*
X216535000Y-137160000D03*
X196215000Y-144780000D03*
X213995000Y-137160000D03*
X198755000Y-144780000D03*
X211455000Y-137160000D03*
X201295000Y-144780000D03*
X208915000Y-137160000D03*
X203835000Y-144780000D03*
X206375000Y-137160000D03*
X206375000Y-144780000D03*
X203835000Y-137160000D03*
X208915000Y-144780000D03*
X201295000Y-137160000D03*
X211455000Y-144780000D03*
X198755000Y-137160000D03*
X213995000Y-144780000D03*
X196215000Y-137160000D03*
X216535000Y-144780000D03*
X193675000Y-137160000D03*
X219075000Y-144780000D03*
X191135000Y-137160000D03*
X221615000Y-144780000D03*
X188595000Y-137160000D03*
D18*
X227330000Y-148590000D03*
X227330000Y-146090000D03*
D15*
X177800000Y-165100000D03*
D19*
X218440000Y-125730000D03*
D20*
X220980000Y-125730000D03*
X218440000Y-128270000D03*
X220980000Y-128270000D03*
X218440000Y-130810000D03*
X220980000Y-130810000D03*
D19*
X209550000Y-125730000D03*
D20*
X212090000Y-125730000D03*
X209550000Y-128270000D03*
X212090000Y-128270000D03*
X209550000Y-130810000D03*
X212090000Y-130810000D03*
D19*
X205105000Y-165735000D03*
D20*
X205105000Y-163195000D03*
X207645000Y-165735000D03*
X207645000Y-163195000D03*
X210185000Y-165735000D03*
X210185000Y-163195000D03*
X212725000Y-165735000D03*
X212725000Y-163195000D03*
X215265000Y-165735000D03*
X215265000Y-163195000D03*
X217805000Y-165735000D03*
X217805000Y-163195000D03*
X220345000Y-165735000D03*
X220345000Y-163195000D03*
X222885000Y-165735000D03*
X222885000Y-163195000D03*
D19*
X200660000Y-125730000D03*
D20*
X203200000Y-125730000D03*
X200660000Y-128270000D03*
X203200000Y-128270000D03*
X200660000Y-130810000D03*
X203200000Y-130810000D03*
D19*
X191135000Y-125730000D03*
D20*
X193675000Y-125730000D03*
X191135000Y-128270000D03*
X193675000Y-128270000D03*
X191135000Y-130810000D03*
X193675000Y-130810000D03*
D19*
X183515000Y-165735000D03*
D20*
X183515000Y-163195000D03*
X186055000Y-165735000D03*
X186055000Y-163195000D03*
X188595000Y-165735000D03*
X188595000Y-163195000D03*
X191135000Y-165735000D03*
X191135000Y-163195000D03*
X193675000Y-165735000D03*
X193675000Y-163195000D03*
X196215000Y-165735000D03*
X196215000Y-163195000D03*
X198755000Y-165735000D03*
X198755000Y-163195000D03*
X201295000Y-165735000D03*
X201295000Y-163195000D03*
D19*
X227330000Y-152400000D03*
D20*
X227330000Y-154940000D03*
X227330000Y-157480000D03*
X227330000Y-160020000D03*
D19*
X177800000Y-152400000D03*
D20*
X177800000Y-154940000D03*
X177800000Y-157480000D03*
X177800000Y-160020000D03*
M02*
