G04 #@! TF.FileFunction,Copper,L2,Bot,Signal*
%FSLAX46Y46*%
G04 Gerber Fmt 4.6, Leading zero omitted, Abs format (unit mm)*
G04 Created by KiCad (PCBNEW 4.0.7-e2-6376~58~ubuntu14.04.1) date Sun Sep 23 12:10:29 2018*
%MOMM*%
%LPD*%
G01*
G04 APERTURE LIST*
%ADD10C,0.100000*%
%ADD11C,0.900000*%
%ADD12R,1.700000X1.700000*%
%ADD13O,1.700000X1.700000*%
%ADD14C,3.000000*%
%ADD15C,0.500000*%
%ADD16C,0.254000*%
G04 APERTURE END LIST*
D10*
D11*
X66252132Y-103927868D02*
X65827868Y-104352132D01*
X65354107Y-103029843D02*
X64929843Y-103454107D01*
D10*
G36*
X66089498Y-105250158D02*
X67150158Y-104189498D01*
X67786554Y-104825894D01*
X66725894Y-105886554D01*
X66089498Y-105250158D01*
X66089498Y-105250158D01*
G37*
D11*
X66252132Y-81492132D02*
X65827868Y-81067868D01*
X67150157Y-80594107D02*
X66725893Y-80169843D01*
D10*
G36*
X64929842Y-81329498D02*
X65990502Y-82390158D01*
X65354106Y-83026554D01*
X64293446Y-81965894D01*
X64929842Y-81329498D01*
X64929842Y-81329498D01*
G37*
D11*
X88687868Y-103927868D02*
X89112132Y-104352132D01*
X87789843Y-104825893D02*
X88214107Y-105250157D01*
D10*
G36*
X90010158Y-104090502D02*
X88949498Y-103029842D01*
X89585894Y-102393446D01*
X90646554Y-103454106D01*
X90010158Y-104090502D01*
X90010158Y-104090502D01*
G37*
D11*
X88687868Y-81492132D02*
X89112132Y-81067868D01*
X89585893Y-82390157D02*
X90010157Y-81965893D01*
D10*
G36*
X88850502Y-80169842D02*
X87789842Y-81230502D01*
X87153446Y-80594106D01*
X88214106Y-79533446D01*
X88850502Y-80169842D01*
X88850502Y-80169842D01*
G37*
D12*
X71120000Y-105410000D03*
D13*
X73660000Y-105410000D03*
X76200000Y-105410000D03*
X78740000Y-105410000D03*
X81280000Y-105410000D03*
X83820000Y-105410000D03*
D14*
X62230000Y-92710000D03*
X92710000Y-92710000D03*
X77470000Y-77470000D03*
D15*
X66938026Y-105038026D02*
X70570324Y-101405728D01*
X70570324Y-101405728D02*
X74115121Y-101405728D01*
X74115121Y-101405728D02*
X76176917Y-103467524D01*
X76176917Y-103467524D02*
X76176917Y-105386917D01*
X76176917Y-105386917D02*
X76200000Y-105410000D01*
X65141974Y-82178026D02*
X78740000Y-95776052D01*
X78740000Y-95776052D02*
X78740000Y-105410000D01*
X81280000Y-105410000D02*
X81130698Y-105260698D01*
X81130698Y-105260698D02*
X81130698Y-87253250D01*
X81130698Y-87253250D02*
X87400934Y-80983014D01*
X87400934Y-80983014D02*
X88001974Y-80381974D01*
D16*
X88001974Y-80381974D02*
X88145378Y-80238570D01*
D15*
X83820000Y-105410000D02*
X83820000Y-103521526D01*
X83820000Y-103521526D02*
X85962296Y-101379230D01*
X85962296Y-101379230D02*
X87935282Y-101379230D01*
X87935282Y-101379230D02*
X89798026Y-103241974D01*
X66040000Y-81280000D02*
X65339488Y-80579488D01*
X66572560Y-103607440D02*
X66040000Y-104140000D01*
X65339488Y-80579488D02*
X64619176Y-80579488D01*
X64619176Y-80579488D02*
X62594826Y-82603838D01*
X62594826Y-82603838D02*
X62594826Y-86680178D01*
X62594826Y-86680178D02*
X66572560Y-90657912D01*
X66572560Y-90657912D02*
X66572560Y-103607440D01*
X66641040Y-81881040D02*
X66040000Y-81280000D01*
X79429588Y-81881040D02*
X66641040Y-81881040D01*
X82907220Y-78403408D02*
X79429588Y-81881040D01*
X88351457Y-78403408D02*
X82907220Y-78403408D01*
X89939143Y-79991094D02*
X88351457Y-78403408D01*
X89939143Y-80240857D02*
X89939143Y-79991094D01*
X88900000Y-81280000D02*
X89939143Y-80240857D01*
X88900000Y-81280000D02*
X88298960Y-81881040D01*
X88298960Y-81881040D02*
X88298960Y-100045836D01*
X88298960Y-100045836D02*
X91396564Y-103143440D01*
X91396564Y-103143440D02*
X91396564Y-104545052D01*
X89501040Y-104741040D02*
X88900000Y-104140000D01*
X91396564Y-104545052D02*
X90863440Y-105078176D01*
X90863440Y-105078176D02*
X89838176Y-105078176D01*
X89838176Y-105078176D02*
X89501040Y-104741040D01*
X65438960Y-104741040D02*
X66040000Y-104140000D01*
X66040000Y-104140000D02*
X65339488Y-104840512D01*
X69770000Y-105410000D02*
X71120000Y-105410000D01*
X65339488Y-104840512D02*
X65339488Y-105560824D01*
X65339488Y-105560824D02*
X66415228Y-106636564D01*
X66415228Y-106636564D02*
X68543436Y-106636564D01*
X68543436Y-106636564D02*
X69770000Y-105410000D01*
X88001975Y-105038025D02*
X89254007Y-106290057D01*
X89254007Y-106290057D02*
X91065788Y-106290057D01*
X89927999Y-99596497D02*
X89927999Y-82307999D01*
X91065788Y-106290057D02*
X92396575Y-104959270D01*
X92396575Y-104959270D02*
X92396575Y-102065073D01*
X92396575Y-102065073D02*
X89927999Y-99596497D01*
X89927999Y-82307999D02*
X89798025Y-82178025D01*
X65141975Y-103241975D02*
X64339478Y-104044472D01*
X72967679Y-108785526D02*
X73660000Y-108093205D01*
X64339478Y-104044472D02*
X64339478Y-105975041D01*
X73660000Y-106612081D02*
X73660000Y-105410000D01*
X64339478Y-105975041D02*
X67149963Y-108785526D01*
X67149963Y-108785526D02*
X72967679Y-108785526D01*
X73660000Y-108093205D02*
X73660000Y-106612081D01*
X67020889Y-80464839D02*
X79431561Y-80464839D01*
X88765674Y-77403397D02*
X90939154Y-79576877D01*
X66938025Y-80381975D02*
X67020889Y-80464839D01*
X79431561Y-80464839D02*
X82493003Y-77403397D01*
X82493003Y-77403397D02*
X88765674Y-77403397D01*
X90939154Y-79576877D02*
X90939154Y-81036896D01*
X90939154Y-81036896D02*
X89798025Y-82178025D01*
X73660000Y-105410000D02*
X73660000Y-108095840D01*
X74338206Y-108774046D02*
X84265954Y-108774046D01*
X87613067Y-105426933D02*
X88001975Y-105038025D01*
X73660000Y-108095840D02*
X74338206Y-108774046D01*
X84265954Y-108774046D02*
X87613067Y-105426933D01*
M02*
