<?xml version="1.0" standalone="no"?>
<!DOCTYPE svg PUBLIC "-//W3C//DTD SVG 1.1//EN"
"http://www.w3.org/Graphics/SVG/1.1/DTD/svg11.dtd">
<svg width="2636" height="2602" viewBox="0 0 2636 2602" version="1.1"
xmlns="http://www.w3.org/2000/svg"
xmlns:xlink="http://www.w3.org/1999/xlink">
<g fill-rule="evenodd"><path d="M 0,1316 L 2,1292 L 10,1268 L 22,1247 L 39,1229 L 59,1214 L 81,1204 L 106,1199 L 130,1199 L 154,1204 L 177,1214 L 197,1229 L 213,1247 L 226,1268 L 233,1292 L 236,1316 L 233,1341 L 226,1365 L 213,1386 L 197,1404 L 177,1419 L 154,1429 L 130,1434 L 106,1434 L 81,1429 L 59,1419 L 39,1404 L 22,1386 L 10,1365 L 2,1341 L 0,1316 z " style="fill-opacity:1.000000;fill:rgb(103,198,105);stroke:rgb(0,0,0);stroke-width:2"/></g>
<g fill-rule="evenodd"><path d="M 2635,1316 L 2633,1341 L 2625,1365 L 2613,1386 L 2596,1404 L 2576,1419 L 2554,1429 L 2529,1434 L 2505,1434 L 2481,1429 L 2458,1419 L 2438,1404 L 2422,1386 L 2409,1365 L 2402,1341 L 2399,1316 L 2402,1292 L 2409,1268 L 2422,1247 L 2438,1229 L 2458,1214 L 2481,1204 L 2505,1199 L 2529,1199 L 2554,1204 L 2576,1214 L 2596,1229 L 2613,1247 L 2625,1268 L 2633,1292 L 2635,1316 z " style="fill-opacity:1.000000;fill:rgb(115,81,255);stroke:rgb(0,0,0);stroke-width:2"/></g>
<g fill-rule="evenodd"><path d="M 1305,0 L 1330,0 L 1354,5 L 1377,15 L 1397,29 L 1413,48 L 1425,69 L 1433,92 L 1436,117 L 1433,141 L 1425,165 L 1413,186 L 1397,205 L 1377,219 L 1354,229 L 1330,234 L 1305,234 L 1281,229 L 1258,219 L 1238,205 L 1222,186 L 1210,165 L 1202,141 L 1199,117 L 1202,92 L 1210,69 L 1222,48 L 1238,29 L 1258,15 L 1281,5 L 1305,0 z " style="fill-opacity:1.000000;fill:rgb(74,236,41);stroke:rgb(0,0,0);stroke-width:2"/></g>
<g fill-rule="evenodd"><path d="M 375,543 L 364,554 L 280,471 L 330,421 L 414,504 L 403,515 L 1431,1544 L 1435,1548 L 1436,1553 L 1437,1558 L 1437,2253 L 1444,2255 L 1456,2261 L 1466,2270 L 1474,2281 L 1480,2293 L 1484,2306 L 1484,2320 L 1482,2333 L 1478,2346 L 1470,2357 L 1461,2367 L 1450,2375 L 1437,2380 L 1424,2383 L 1417,2383 L 1404,2382 L 1391,2378 L 1379,2371 L 1369,2362 L 1361,2352 L 1355,2339 L 1351,2326 L 1351,2313 L 1353,2299 L 1357,2287 L 1365,2275 L 1374,2265 L 1385,2258 L 1398,2252 L 1398,1566 L 375,543 z " style="fill-opacity:1.000000;fill:rgb(205,186,171);stroke:rgb(0,0,0);stroke-width:2"/></g>
<g fill-rule="evenodd"><path d="M 544,2259 L 555,2270 L 472,2354 L 422,2304 L 505,2220 L 516,2231 L 760,1987 L 765,1984 L 769,1982 L 774,1981 L 1053,1981 L 1059,1982 L 1063,1984 L 1067,1987 L 1230,2149 L 1233,2153 L 1235,2158 L 1235,2163 L 1235,2252 L 1244,2255 L 1256,2261 L 1266,2270 L 1274,2281 L 1280,2293 L 1284,2306 L 1284,2320 L 1282,2333 L 1278,2346 L 1270,2357 L 1261,2367 L 1250,2375 L 1238,2380 L 1224,2383 L 1218,2383 L 1204,2382 L 1191,2378 L 1179,2371 L 1169,2362 L 1161,2352 L 1155,2339 L 1151,2326 L 1151,2313 L 1153,2299 L 1157,2287 L 1165,2275 L 1174,2265 L 1185,2258 L 1196,2253 L 1196,2171 L 1045,2021 L 783,2021 L 544,2259 z " style="fill-opacity:1.000000;fill:rgb(242,251,227);stroke:rgb(0,0,0);stroke-width:2"/></g>
<g fill-rule="evenodd"><path d="M 1586,2257 L 1586,887 L 1587,882 L 1589,877 L 1592,873 L 2091,374 L 2080,363 L 2163,279 L 2213,329 L 2130,413 L 2119,402 L 1625,895 L 1625,2250 L 1631,2251 L 1644,2255 L 1656,2261 L 1666,2270 L 1674,2281 L 1680,2293 L 1684,2306 L 1684,2320 L 1682,2333 L 1677,2346 L 1670,2357 L 1661,2367 L 1650,2375 L 1637,2380 L 1624,2383 L 1617,2383 L 1604,2382 L 1591,2378 L 1579,2371 L 1569,2362 L 1561,2352 L 1555,2339 L 1551,2326 L 1551,2313 L 1553,2299 L 1557,2287 L 1564,2275 L 1574,2265 L 1585,2258 L 1586,2257 z " style="fill-opacity:1.000000;fill:rgb(70,124,194);stroke:rgb(0,0,0);stroke-width:2"/></g>
<g fill-rule="evenodd"><path d="M 1837,2253 L 1844,2255 L 1856,2261 L 1866,2270 L 1874,2281 L 1880,2293 L 1883,2306 L 1884,2320 L 1882,2333 L 1877,2346 L 1870,2357 L 1861,2367 L 1850,2375 L 1837,2380 L 1824,2383 L 1817,2383 L 1804,2382 L 1791,2378 L 1779,2371 L 1769,2362 L 1761,2352 L 1755,2339 L 1751,2326 L 1751,2313 L 1753,2299 L 1757,2287 L 1764,2275 L 1774,2265 L 1785,2258 L 1798,2252 L 1798,2167 L 1798,2162 L 1800,2158 L 1803,2154 L 1972,1985 L 1976,1982 L 1981,1980 L 1986,1979 L 2141,1979 L 2146,1980 L 2151,1982 L 2155,1985 L 2260,2090 L 2271,2079 L 2355,2162 L 2305,2212 L 2221,2129 L 2232,2118 L 2133,2019 L 1994,2019 L 1837,2176 L 1837,2253 z " style="fill-opacity:1.000000;fill:rgb(84,248,27);stroke:rgb(0,0,0);stroke-width:2"/></g>
<g fill-rule="evenodd"><path d="M 963,2602 L 505,2602 L 501,2601 L 497,2600 L 494,2598 L 491,2596 L 270,2375 L 267,2370 L 265,2366 L 264,2361 L 264,2209 L 265,2204 L 267,2199 L 270,2195 L 296,2169 L 295,2164 L 295,2157 L 297,2149 L 301,2143 L 305,2137 L 339,2104 L 345,2099 L 351,2096 L 358,2094 L 366,2093 L 373,2095 L 380,2097 L 386,2101 L 391,2106 L 395,2113 L 398,2120 L 399,2127 L 399,2134 L 397,2141 L 394,2148 L 389,2154 L 355,2187 L 350,2192 L 343,2195 L 336,2197 L 329,2198 L 324,2197 L 304,2217 L 304,2352 L 513,2562 L 955,2562 L 998,2519 L 998,2380 L 991,2378 L 979,2371 L 969,2362 L 961,2352 L 955,2339 L 951,2326 L 951,2313 L 953,2299 L 958,2287 L 965,2275 L 974,2265 L 985,2258 L 998,2252 L 1011,2250 L 1018,2249 L 1031,2251 L 1044,2255 L 1056,2261 L 1066,2270 L 1074,2281 L 1080,2293 L 1084,2306 L 1084,2320 L 1082,2333 L 1078,2346 L 1071,2357 L 1061,2367 L 1050,2375 L 1037,2380 L 1037,2519 L 1079,2561 L 1844,2561 L 2108,2298 L 2105,2295 L 2100,2289 L 2097,2283 L 2095,2276 L 2094,2268 L 2096,2261 L 2098,2254 L 2102,2248 L 2108,2243 L 2114,2239 L 2121,2236 L 2128,2235 L 2135,2235 L 2142,2237 L 2149,2240 L 2155,2245 L 2188,2279 L 2193,2284 L 2196,2291 L 2198,2298 L 2199,2305 L 2198,2310 L 2253,2366 L 2379,2366 L 2473,2272 L 2473,2061 L 2284,1872 L 2281,1868 L 2279,1864 L 2278,1859 L 2278,539 L 2277,539 L 2269,540 L 2262,538 L 2255,536 L 2249,532 L 2244,526 L 2240,520 L 2237,513 L 2236,506 L 2236,499 L 2238,492 L 2241,485 L 2246,479 L 2280,446 L 2285,441 L 2292,438 L 2299,436 L 2306,435 L 2311,436 L 2358,390 L 2358,291 L 2198,131 L 1721,131 L 1486,367 L 1482,370 L 1477,372 L 1472,372 L 539,372 L 537,379 L 533,385 L 527,390 L 521,394 L 514,397 L 507,398 L 500,398 L 493,396 L 486,393 L 480,388 L 447,354 L 442,349 L 439,342 L 437,335 L 436,328 L 438,320 L 440,313 L 444,307 L 450,302 L 456,298 L 463,295 L 470,294 L 477,294 L 485,296 L 491,300 L 497,304 L 525,333 L 1464,333 L 1699,98 L 1702,95 L 1705,94 L 1709,92 L 1713,92 L 2207,92 L 2212,93 L 2216,95 L 2221,98 L 2392,269 L 2395,273 L 2397,278 L 2397,283 L 2397,398 L 2397,403 L 2395,408 L 2392,412 L 2339,464 L 2340,469 L 2340,476 L 2338,483 L 2334,490 L 2330,496 L 2318,508 L 2318,1850 L 2506,2039 L 2508,2041 L 2510,2045 L 2512,2049 L 2512,2053 L 2512,2281 L 2511,2286 L 2509,2290 L 2506,2295 L 2402,2399 L 2397,2402 L 2393,2404 L 2388,2405 L 2245,2405 L 2240,2404 L 2235,2402 L 2231,2399 L 2170,2338 L 2165,2339 L 2158,2339 L 2150,2337 L 2144,2333 L 2138,2329 L 2135,2326 L 1866,2595 L 1862,2598 L 1858,2600 L 1852,2601 L 1071,2601 L 1066,2600 L 1061,2598 L 1057,2595 L 1018,2555 L 977,2596 L 973,2599 L 968,2601 L 963,2602 z " style="fill-opacity:1.000000;fill:rgb(232,231,141);stroke:rgb(0,0,0);stroke-width:2"/></g>
<g fill-rule="evenodd"><path d="M 440,2165 L 440,1163 L 133,856 L 130,852 L 128,847 L 127,842 L 127,521 L 128,516 L 130,511 L 133,507 L 292,348 L 296,345 L 301,343 L 306,342 L 363,342 L 368,343 L 373,345 L 377,348 L 394,366 L 399,365 L 407,365 L 414,367 L 420,370 L 426,375 L 460,408 L 464,414 L 468,421 L 470,428 L 470,435 L 469,440 L 473,444 L 1464,444 L 1732,176 L 1736,173 L 1740,171 L 1745,171 L 2174,171 L 2179,171 L 2184,173 L 2188,176 L 2313,301 L 2316,306 L 2318,310 L 2319,315 L 2319,335 L 2318,340 L 2316,345 L 2313,349 L 2268,393 L 2269,398 L 2269,406 L 2267,413 L 2264,419 L 2259,425 L 2226,459 L 2220,463 L 2213,467 L 2206,468 L 2199,469 L 2194,468 L 2190,472 L 2190,1886 L 2428,2124 L 2431,2128 L 2433,2133 L 2433,2138 L 2433,2248 L 2433,2253 L 2431,2258 L 2428,2262 L 2386,2304 L 2382,2307 L 2377,2309 L 2372,2310 L 2291,2310 L 2287,2309 L 2283,2308 L 2279,2306 L 2277,2304 L 2241,2267 L 2236,2268 L 2228,2268 L 2221,2266 L 2215,2263 L 2209,2258 L 2175,2225 L 2171,2219 L 2167,2212 L 2165,2205 L 2165,2198 L 2166,2190 L 2169,2183 L 2173,2177 L 2178,2172 L 2184,2168 L 2191,2165 L 2199,2164 L 2206,2164 L 2213,2166 L 2220,2170 L 2226,2174 L 2259,2208 L 2264,2214 L 2267,2220 L 2269,2227 L 2269,2235 L 2268,2240 L 2299,2270 L 2364,2270 L 2394,2240 L 2394,2146 L 2156,1908 L 2153,1904 L 2151,1899 L 2150,1894 L 2150,464 L 2151,459 L 2153,454 L 2156,450 L 2166,440 L 2165,435 L 2165,428 L 2167,421 L 2171,414 L 2175,408 L 2209,375 L 2215,370 L 2221,367 L 2228,365 L 2236,365 L 2241,366 L 2279,327 L 2279,324 L 2166,210 L 1754,210 L 1486,478 L 1482,481 L 1477,483 L 1472,484 L 465,484 L 460,483 L 455,481 L 451,478 L 441,468 L 436,469 L 429,468 L 422,467 L 415,463 L 409,459 L 376,425 L 371,419 L 368,413 L 366,406 L 366,398 L 367,393 L 355,381 L 314,381 L 166,529 L 166,834 L 474,1141 L 476,1143 L 478,1147 L 479,1152 L 479,1155 L 479,2174 L 479,2179 L 477,2184 L 474,2188 L 469,2193 L 470,2198 L 470,2205 L 468,2212 L 464,2219 L 460,2225 L 426,2258 L 420,2263 L 414,2266 L 407,2268 L 399,2268 L 394,2267 L 382,2279 L 382,2320 L 456,2393 L 607,2393 L 698,2302 L 702,2299 L 706,2297 L 711,2296 L 751,2296 L 751,2249 L 885,2249 L 885,2383 L 751,2383 L 751,2336 L 720,2336 L 629,2427 L 626,2429 L 622,2431 L 619,2432 L 615,2432 L 447,2432 L 442,2432 L 438,2430 L 433,2427 L 349,2342 L 346,2338 L 344,2333 L 343,2328 L 343,2271 L 344,2266 L 346,2261 L 349,2257 L 367,2240 L 366,2235 L 366,2227 L 368,2220 L 371,2214 L 376,2208 L 409,2174 L 415,2170 L 422,2166 L 429,2164 L 436,2164 L 440,2165 z " style="fill-opacity:1.000000;fill:rgb(118,90,46);stroke:rgb(0,0,0);stroke-width:2"/></g>
</svg>
