<?xml version="1.0" standalone="no"?>
<!DOCTYPE svg PUBLIC "-//W3C//DTD SVG 1.1//EN"
"http://www.w3.org/Graphics/SVG/1.1/DTD/svg11.dtd">
<svg width="3214" height="3197" viewBox="0 0 3214 3197" version="1.1"
xmlns="http://www.w3.org/2000/svg"
xmlns:xlink="http://www.w3.org/1999/xlink">
<g fill-rule="evenodd"><path d="M 1444,7 L 1770,8 L 1778,8 L 2096,76 L 2104,78 L 2403,212 L 2410,216 L 2673,407 L 2679,412 L 2897,654 L 2902,661 L 3066,944 L 3069,952 L 3169,1261 L 3171,1269 L 3205,1593 L 3205,1602 L 3171,1927 L 3169,1935 L 3069,2244 L 3066,2252 L 2903,2534 L 2898,2541 L 2680,2783 L 2674,2789 L 2409,2981 L 2402,2985 L 2104,3118 L 2096,3120 L 1777,3188 L 1769,3189 L 1444,3189 L 1436,3188 L 1117,3120 L 1109,3118 L 810,2984 L 803,2980 L 540,2789 L 534,2784 L 316,2542 L 311,2535 L 147,2252 L 144,2244 L 44,1935 L 42,1927 L 8,1603 L 8,1594 L 42,1269 L 44,1261 L 144,952 L 147,944 L 310,662 L 315,655 L 533,413 L 539,407 L 804,215 L 811,211 L 1109,78 L 1117,76 L 1436,8 L 1444,7 z " style="fill-opacity:1.000000;fill:rgb(103,198,105);stroke:rgb(0,0,0);stroke-width:2"/></g>
</svg>
