<?xml version="1.0" standalone="no"?>
<!DOCTYPE svg PUBLIC "-//W3C//DTD SVG 1.1//EN"
"http://www.w3.org/Graphics/SVG/1.1/DTD/svg11.dtd">
<svg width="3135" height="3118" viewBox="0 0 3135 3118" version="1.1"
xmlns="http://www.w3.org/2000/svg"
xmlns:xlink="http://www.w3.org/1999/xlink">
<g fill-rule="evenodd"><path d="M 1405,7 L 1731,8 L 2048,75 L 2347,208 L 2610,399 L 2828,641 L 2992,925 L 3092,1234 L 3127,1558 L 3092,1883 L 2992,2192 L 2829,2475 L 2611,2717 L 2346,2909 L 2048,3042 L 1729,3110 L 1405,3110 L 1086,3042 L 787,2909 L 524,2718 L 306,2476 L 142,2192 L 42,1883 L 7,1559 L 42,1234 L 142,925 L 305,642 L 523,400 L 788,208 L 1086,75 L 1405,7 z " style="fill-opacity:1.000000;fill:rgb(103,198,105);stroke:rgb(0,0,0);stroke-width:2"/></g>
</svg>
