<?xml version="1.0" standalone="no"?>
<!DOCTYPE svg PUBLIC "-//W3C//DTD SVG 1.1//EN"
"http://www.w3.org/Graphics/SVG/1.1/DTD/svg11.dtd">
<svg width="3135" height="3118" viewBox="0 0 3135 3118" version="1.1"
xmlns="http://www.w3.org/2000/svg"
xmlns:xlink="http://www.w3.org/1999/xlink">
<g fill-rule="evenodd"><path d="M 1730,3117 L 1404,3117 L 1083,3049 L 783,2916 L 519,2724 L 299,2480 L 135,2195 L 34,1885 L 0,1559 L 34,1232 L 135,922 L 299,638 L 518,394 L 784,201 L 1083,68 L 1404,0 L 1731,0 L 2051,68 L 2351,201 L 2615,393 L 2835,637 L 2999,922 L 3100,1232 L 3135,1558 L 3100,1885 L 2999,2195 L 2835,2479 L 2616,2723 L 2350,2916 L 2051,3049 L 1730,3117M 1404,11 L 1086,79 L 789,211 L 526,402 L 308,644 L 146,926 L 45,1235 L 11,1559 L 45,1882 L 146,2191 L 308,2473 L 526,2715 L 789,2906 L 1086,3038 L 1404,3106 L 1730,3106 L 2048,3038 L 2345,2906 L 2608,2715 L 2826,2473 L 2988,2191 L 3089,1882 L 3123,1559 L 3089,1235 L 2988,926 L 2826,644 L 2608,402 L 2345,211 L 2048,79 L 1730,11 L 1404,11 z " style="fill-opacity:1.000000;fill:rgb(103,198,105);stroke:rgb(0,0,0);stroke-width:2"/></g>
</svg>
