<?xml version="1.0" standalone="no"?>
<!DOCTYPE svg PUBLIC "-//W3C//DTD SVG 1.1//EN"
"http://www.w3.org/Graphics/SVG/1.1/DTD/svg11.dtd">
<svg width="2675" height="2642" viewBox="0 0 2675 2642" version="1.1"
xmlns="http://www.w3.org/2000/svg"
xmlns:xlink="http://www.w3.org/1999/xlink">
<g fill-rule="evenodd"><path d="M 275,1339 L 272,1363 L 271,1367 L 264,1391 L 262,1394 L 250,1416 L 247,1419 L 231,1437 L 228,1440 L 208,1455 L 204,1457 L 182,1467 L 178,1468 L 154,1473 L 150,1474 L 125,1474 L 121,1473 L 97,1468 L 93,1467 L 70,1457 L 67,1455 L 47,1440 L 44,1437 L 27,1419 L 25,1416 L 12,1394 L 11,1391 L 3,1367 L 2,1363 L 0,1339 L 0,1334 L 2,1310 L 3,1306 L 11,1282 L 12,1279 L 25,1257 L 27,1254 L 44,1236 L 47,1233 L 67,1218 L 70,1216 L 93,1206 L 97,1205 L 121,1200 L 125,1199 L 150,1199 L 154,1200 L 178,1205 L 182,1206 L 204,1216 L 208,1218 L 228,1233 L 231,1236 L 247,1254 L 250,1257 L 262,1279 L 264,1282 L 271,1306 L 272,1310 L 275,1334 L 275,1339 z " style="fill-opacity:1.000000;fill:rgb(103,198,105);stroke:rgb(0,0,0);stroke-width:2"/></g>
<g fill-rule="evenodd"><path d="M 2674,1339 L 2672,1363 L 2671,1367 L 2663,1391 L 2662,1394 L 2649,1416 L 2647,1419 L 2630,1437 L 2627,1440 L 2607,1455 L 2604,1457 L 2581,1467 L 2577,1468 L 2553,1473 L 2549,1474 L 2524,1474 L 2520,1473 L 2496,1468 L 2492,1467 L 2470,1457 L 2466,1455 L 2446,1440 L 2443,1437 L 2427,1419 L 2424,1416 L 2412,1394 L 2410,1391 L 2403,1367 L 2402,1363 L 2399,1339 L 2399,1334 L 2402,1310 L 2403,1306 L 2410,1282 L 2412,1279 L 2424,1257 L 2427,1254 L 2443,1236 L 2446,1233 L 2466,1218 L 2470,1216 L 2492,1206 L 2496,1205 L 2520,1200 L 2524,1199 L 2549,1199 L 2553,1200 L 2577,1205 L 2581,1206 L 2604,1216 L 2607,1218 L 2627,1233 L 2630,1236 L 2647,1254 L 2649,1257 L 2662,1279 L 2663,1282 L 2671,1306 L 2672,1310 L 2674,1334 L 2674,1339 z " style="fill-opacity:1.000000;fill:rgb(115,81,255);stroke:rgb(0,0,0);stroke-width:2"/></g>
<g fill-rule="evenodd"><path d="M 1325,0 L 1349,0 L 1353,0 L 1378,5 L 1381,6 L 1404,17 L 1408,19 L 1428,33 L 1431,36 L 1447,54 L 1450,58 L 1462,79 L 1464,83 L 1471,106 L 1472,110 L 1475,135 L 1475,139 L 1472,163 L 1471,167 L 1464,191 L 1462,195 L 1450,216 L 1447,219 L 1431,238 L 1428,240 L 1408,255 L 1404,257 L 1381,267 L 1378,268 L 1353,273 L 1349,274 L 1325,274 L 1321,273 L 1296,268 L 1293,267 L 1270,257 L 1266,255 L 1246,240 L 1243,238 L 1227,219 L 1224,216 L 1212,195 L 1210,191 L 1203,167 L 1202,163 L 1199,139 L 1199,135 L 1202,110 L 1203,106 L 1210,83 L 1212,79 L 1224,58 L 1227,54 L 1243,36 L 1246,33 L 1266,19 L 1270,17 L 1293,6 L 1296,5 L 1321,0 L 1325,0 z " style="fill-opacity:1.000000;fill:rgb(74,236,41);stroke:rgb(0,0,0);stroke-width:2"/></g>
<g fill-rule="evenodd"><path d="M 283,480 L 286,477 L 286,477 L 336,427 L 339,424 L 343,422 L 346,421 L 352,421 L 356,422 L 360,424 L 364,427 L 366,429 L 367,431 L 371,437 L 373,440 L 377,446 L 379,449 L 384,454 L 385,455 L 419,489 L 420,490 L 425,495 L 428,497 L 434,501 L 437,503 L 443,507 L 445,508 L 447,510 L 450,514 L 452,518 L 453,522 L 453,526 L 452,531 L 450,535 L 450,535 L 1465,1550 L 1467,1552 L 1470,1556 L 1472,1560 L 1474,1565 L 1475,1570 L 1476,1575 L 1476,1578 L 1476,2259 L 1485,2264 L 1488,2266 L 1498,2275 L 1501,2278 L 1509,2289 L 1511,2292 L 1517,2304 L 1519,2308 L 1522,2321 L 1523,2325 L 1523,2339 L 1523,2343 L 1521,2356 L 1520,2360 L 1516,2373 L 1514,2376 L 1507,2388 L 1504,2391 L 1495,2401 L 1492,2403 L 1481,2411 L 1477,2413 L 1465,2418 L 1461,2419 L 1448,2422 L 1445,2422 L 1438,2423 L 1435,2423 L 1422,2421 L 1418,2421 L 1405,2417 L 1401,2415 L 1389,2408 L 1386,2406 L 1376,2397 L 1373,2394 L 1365,2384 L 1363,2380 L 1357,2368 L 1355,2364 L 1352,2351 L 1351,2347 L 1350,2334 L 1351,2330 L 1353,2317 L 1354,2313 L 1358,2300 L 1360,2296 L 1367,2285 L 1370,2282 L 1379,2272 L 1382,2269 L 1393,2262 L 1397,2260 L 1398,2259 L 1398,1594 L 394,591 L 394,591 L 390,593 L 385,594 L 381,594 L 377,593 L 373,591 L 369,588 L 286,505 L 283,501 L 281,497 L 280,493 L 280,488 L 281,484 L 283,480 z " style="fill-opacity:1.000000;fill:rgb(205,186,171);stroke:rgb(0,0,0);stroke-width:2"/></g>
<g fill-rule="evenodd"><path d="M 494,2393 L 487,2393 L 485,2392 L 481,2390 L 477,2388 L 427,2338 L 424,2334 L 423,2330 L 422,2328 L 422,2321 L 423,2317 L 424,2313 L 427,2310 L 430,2307 L 431,2307 L 438,2303 L 441,2301 L 447,2296 L 449,2294 L 455,2289 L 456,2288 L 489,2255 L 490,2254 L 495,2248 L 497,2246 L 502,2240 L 504,2237 L 507,2230 L 508,2229 L 511,2226 L 514,2224 L 518,2222 L 522,2221 L 527,2221 L 531,2222 L 535,2224 L 535,2224 L 766,1993 L 768,1992 L 772,1988 L 776,1986 L 781,1984 L 786,1983 L 791,1982 L 794,1982 L 1073,1982 L 1075,1982 L 1081,1983 L 1086,1984 L 1090,1986 L 1095,1988 L 1099,1992 L 1101,1993 L 1263,2156 L 1265,2157 L 1268,2162 L 1270,2166 L 1272,2171 L 1274,2176 L 1274,2181 L 1275,2183 L 1275,2258 L 1285,2264 L 1288,2266 L 1298,2275 L 1301,2278 L 1309,2289 L 1311,2292 L 1317,2304 L 1319,2308 L 1322,2321 L 1323,2325 L 1324,2339 L 1323,2343 L 1321,2356 L 1320,2360 L 1316,2373 L 1314,2376 L 1307,2388 L 1304,2391 L 1295,2401 L 1292,2403 L 1281,2411 L 1277,2413 L 1265,2418 L 1261,2419 L 1248,2422 L 1245,2422 L 1238,2423 L 1235,2423 L 1222,2421 L 1218,2421 L 1205,2417 L 1201,2415 L 1189,2408 L 1186,2406 L 1176,2397 L 1173,2394 L 1165,2384 L 1163,2380 L 1157,2368 L 1155,2364 L 1152,2351 L 1151,2347 L 1151,2334 L 1151,2330 L 1153,2317 L 1154,2313 L 1158,2300 L 1160,2296 L 1167,2285 L 1170,2282 L 1179,2272 L 1182,2269 L 1193,2262 L 1196,2260 L 1196,2200 L 1057,2060 L 810,2060 L 591,2279 L 591,2280 L 593,2284 L 594,2288 L 594,2292 L 593,2297 L 591,2301 L 589,2304 L 505,2388 L 502,2390 L 498,2392 L 494,2393 z " style="fill-opacity:1.000000;fill:rgb(242,251,227);stroke:rgb(0,0,0);stroke-width:2"/></g>
<g fill-rule="evenodd"><path d="M 2244,366 L 2243,366 L 2236,370 L 2233,372 L 2227,377 L 2225,379 L 2219,384 L 2218,385 L 2185,418 L 2184,419 L 2179,425 L 2177,427 L 2172,433 L 2170,436 L 2167,443 L 2166,444 L 2163,447 L 2160,449 L 2156,451 L 2152,452 L 2147,452 L 2143,451 L 2139,449 L 2139,449 L 1665,923 L 1665,2255 L 1669,2256 L 1673,2258 L 1685,2264 L 1688,2266 L 1698,2275 L 1701,2278 L 1709,2289 L 1711,2292 L 1717,2304 L 1719,2308 L 1722,2321 L 1723,2325 L 1723,2339 L 1723,2343 L 1721,2356 L 1720,2360 L 1715,2373 L 1714,2376 L 1707,2388 L 1704,2391 L 1695,2401 L 1692,2403 L 1681,2411 L 1677,2413 L 1665,2418 L 1661,2419 L 1648,2422 L 1645,2422 L 1638,2423 L 1635,2423 L 1621,2421 L 1618,2421 L 1605,2417 L 1601,2415 L 1589,2408 L 1586,2406 L 1576,2397 L 1573,2394 L 1565,2384 L 1562,2380 L 1557,2368 L 1555,2364 L 1552,2351 L 1551,2347 L 1550,2334 L 1551,2330 L 1553,2317 L 1554,2313 L 1558,2300 L 1560,2296 L 1567,2285 L 1570,2282 L 1579,2272 L 1582,2269 L 1586,2267 L 1586,907 L 1586,904 L 1587,899 L 1588,894 L 1590,890 L 1593,885 L 1596,881 L 1597,879 L 2083,394 L 2083,393 L 2081,389 L 2080,385 L 2080,380 L 2081,376 L 2083,372 L 2085,369 L 2169,285 L 2172,283 L 2176,281 L 2181,280 L 2185,280 L 2189,281 L 2193,283 L 2197,285 L 2247,335 L 2250,339 L 2251,343 L 2252,347 L 2252,351 L 2251,356 L 2250,360 L 2247,363 L 2244,366 z " style="fill-opacity:1.000000;fill:rgb(70,124,194);stroke:rgb(0,0,0);stroke-width:2"/></g>
<g fill-rule="evenodd"><path d="M 2300,2082 L 2305,2085 L 2305,2085 L 2388,2168 L 2391,2172 L 2393,2176 L 2393,2178 L 2394,2185 L 2393,2189 L 2391,2193 L 2388,2196 L 2338,2246 L 2335,2249 L 2331,2251 L 2326,2252 L 2322,2252 L 2318,2251 L 2314,2249 L 2310,2246 L 2308,2244 L 2307,2242 L 2303,2236 L 2301,2233 L 2297,2227 L 2295,2224 L 2290,2219 L 2289,2218 L 2255,2184 L 2254,2183 L 2249,2178 L 2246,2176 L 2240,2172 L 2237,2170 L 2231,2166 L 2229,2165 L 2227,2163 L 2224,2159 L 2222,2155 L 2221,2151 L 2221,2147 L 2222,2142 L 2224,2138 L 2224,2138 L 2145,2058 L 2022,2058 L 1876,2204 L 1876,2259 L 1885,2264 L 1888,2266 L 1898,2275 L 1901,2278 L 1909,2289 L 1911,2292 L 1917,2304 L 1919,2308 L 1922,2321 L 1923,2325 L 1923,2339 L 1923,2343 L 1921,2356 L 1920,2360 L 1915,2373 L 1914,2376 L 1907,2388 L 1904,2391 L 1895,2401 L 1892,2403 L 1881,2411 L 1877,2413 L 1865,2418 L 1861,2419 L 1848,2422 L 1845,2422 L 1838,2423 L 1835,2423 L 1821,2421 L 1818,2421 L 1805,2417 L 1801,2415 L 1789,2408 L 1786,2406 L 1776,2397 L 1773,2394 L 1765,2384 L 1762,2380 L 1756,2368 L 1755,2364 L 1752,2351 L 1751,2347 L 1750,2334 L 1751,2330 L 1753,2317 L 1754,2313 L 1758,2300 L 1760,2296 L 1767,2285 L 1770,2282 L 1779,2272 L 1782,2269 L 1793,2262 L 1797,2260 L 1798,2259 L 1798,2188 L 1798,2185 L 1798,2180 L 1800,2175 L 1802,2170 L 1804,2166 L 1807,2162 L 1809,2160 L 1978,1991 L 1980,1989 L 1984,1986 L 1988,1984 L 1993,1982 L 1998,1980 L 2003,1980 L 2006,1980 L 2161,1980 L 2163,1980 L 2169,1980 L 2173,1982 L 2178,1984 L 2183,1986 L 2187,1989 L 2189,1991 L 2280,2082 L 2280,2082 L 2284,2080 L 2289,2079 L 2293,2079 L 2297,2080 L 2300,2082 z " style="fill-opacity:1.000000;fill:rgb(84,248,27);stroke:rgb(0,0,0);stroke-width:2"/></g>
<g fill-rule="evenodd"><path d="M 983,2641 L 525,2641 L 523,2641 L 518,2641 L 514,2640 L 510,2639 L 507,2637 L 503,2635 L 500,2633 L 498,2631 L 497,2630 L 275,2409 L 274,2407 L 271,2403 L 268,2398 L 266,2393 L 265,2388 L 264,2383 L 264,2381 L 264,2229 L 264,2226 L 265,2221 L 266,2216 L 268,2211 L 271,2207 L 274,2203 L 275,2201 L 295,2182 L 295,2176 L 296,2172 L 298,2165 L 299,2161 L 303,2154 L 305,2151 L 309,2145 L 311,2143 L 344,2110 L 346,2109 L 352,2104 L 355,2102 L 362,2098 L 365,2097 L 373,2095 L 377,2094 L 384,2094 L 388,2094 L 395,2095 L 399,2096 L 406,2099 L 410,2101 L 416,2105 L 419,2107 L 425,2113 L 427,2116 L 431,2122 L 433,2126 L 436,2133 L 437,2137 L 438,2144 L 438,2148 L 438,2155 L 437,2160 L 435,2167 L 435,2168 L 433,2170 L 427,2176 L 425,2178 L 420,2183 L 419,2184 L 385,2218 L 384,2219 L 379,2224 L 376,2226 L 371,2232 L 369,2234 L 368,2234 L 360,2236 L 356,2237 L 351,2237 L 343,2245 L 343,2364 L 541,2563 L 966,2563 L 998,2531 L 998,2413 L 989,2408 L 986,2406 L 976,2397 L 973,2394 L 965,2384 L 963,2380 L 957,2368 L 955,2364 L 952,2351 L 951,2347 L 951,2334 L 951,2330 L 953,2317 L 954,2313 L 959,2300 L 960,2296 L 967,2285 L 970,2282 L 979,2272 L 982,2269 L 993,2262 L 997,2260 L 1009,2254 L 1013,2253 L 1026,2250 L 1029,2250 L 1036,2250 L 1039,2250 L 1053,2251 L 1056,2252 L 1069,2256 L 1073,2258 L 1085,2264 L 1088,2266 L 1098,2275 L 1101,2278 L 1109,2289 L 1112,2292 L 1117,2304 L 1119,2308 L 1122,2321 L 1123,2325 L 1124,2339 L 1123,2343 L 1121,2356 L 1120,2360 L 1116,2373 L 1114,2376 L 1107,2388 L 1104,2391 L 1095,2401 L 1092,2403 L 1081,2411 L 1077,2413 L 1076,2413 L 1076,2531 L 1107,2562 L 1856,2562 L 2101,2316 L 2099,2312 L 2097,2308 L 2095,2301 L 2095,2297 L 2094,2289 L 2095,2285 L 2096,2278 L 2097,2274 L 2099,2267 L 2101,2263 L 2105,2257 L 2108,2254 L 2113,2249 L 2116,2246 L 2123,2242 L 2126,2240 L 2133,2238 L 2137,2237 L 2144,2235 L 2149,2235 L 2156,2236 L 2160,2236 L 2167,2238 L 2169,2239 L 2171,2241 L 2171,2241 L 2176,2246 L 2176,2246 L 2178,2249 L 2178,2249 L 2184,2254 L 2185,2255 L 2218,2288 L 2219,2289 L 2224,2295 L 2225,2295 L 2227,2297 L 2227,2297 L 2232,2303 L 2232,2303 L 2234,2305 L 2235,2306 L 2237,2313 L 2237,2317 L 2238,2323 L 2281,2366 L 2391,2366 L 2473,2284 L 2473,2089 L 2290,1906 L 2288,1905 L 2285,1900 L 2283,1896 L 2281,1891 L 2279,1886 L 2279,1881 L 2278,1879 L 2278,578 L 2275,577 L 2268,574 L 2264,572 L 2258,568 L 2255,566 L 2249,560 L 2247,557 L 2243,551 L 2241,547 L 2238,540 L 2237,536 L 2236,529 L 2236,525 L 2236,518 L 2237,513 L 2239,506 L 2239,505 L 2241,503 L 2247,497 L 2249,495 L 2254,490 L 2255,489 L 2289,455 L 2290,454 L 2295,449 L 2298,447 L 2303,441 L 2305,439 L 2306,439 L 2314,437 L 2318,436 L 2323,436 L 2358,401 L 2358,319 L 2210,171 L 1749,171 L 1519,400 L 1517,402 L 1513,405 L 1509,408 L 1504,410 L 1499,411 L 1494,412 L 1491,412 L 571,412 L 569,416 L 566,419 L 561,424 L 558,427 L 551,431 L 548,433 L 541,435 L 537,436 L 530,438 L 525,438 L 518,437 L 514,437 L 507,435 L 505,434 L 503,432 L 503,432 L 498,427 L 498,427 L 496,424 L 496,424 L 490,419 L 489,418 L 456,385 L 455,384 L 449,378 L 449,378 L 447,376 L 447,376 L 442,370 L 442,370 L 440,368 L 439,367 L 437,360 L 437,356 L 436,348 L 436,344 L 438,337 L 439,333 L 441,326 L 443,322 L 447,316 L 450,313 L 455,308 L 458,305 L 464,301 L 468,299 L 475,297 L 479,296 L 486,294 L 490,294 L 498,295 L 502,295 L 509,297 L 513,299 L 519,302 L 523,304 L 529,309 L 530,310 L 553,333 L 1475,333 L 1705,104 L 1706,102 L 1709,100 L 1712,98 L 1715,96 L 1718,95 L 1722,94 L 1726,93 L 1730,92 L 1732,92 L 2226,92 L 2229,92 L 2234,93 L 2239,94 L 2244,96 L 2248,99 L 2252,102 L 2254,104 L 2425,275 L 2427,277 L 2430,281 L 2433,285 L 2435,290 L 2436,295 L 2437,300 L 2437,303 L 2437,418 L 2437,420 L 2436,425 L 2435,430 L 2433,435 L 2430,439 L 2427,443 L 2425,445 L 2379,491 L 2379,497 L 2378,501 L 2376,508 L 2375,512 L 2371,519 L 2369,522 L 2365,528 L 2363,530 L 2357,536 L 2357,1862 L 2540,2045 L 2541,2046 L 2543,2049 L 2545,2052 L 2547,2055 L 2549,2059 L 2550,2063 L 2551,2067 L 2551,2071 L 2551,2073 L 2551,2301 L 2551,2303 L 2551,2308 L 2549,2313 L 2547,2318 L 2545,2323 L 2542,2327 L 2540,2329 L 2435,2433 L 2433,2435 L 2429,2438 L 2425,2441 L 2420,2443 L 2415,2444 L 2410,2445 L 2407,2445 L 2265,2445 L 2262,2445 L 2257,2444 L 2252,2443 L 2247,2441 L 2243,2438 L 2239,2435 L 2237,2433 L 2182,2379 L 2176,2378 L 2172,2378 L 2165,2376 L 2161,2374 L 2157,2372 L 1900,2629 L 1898,2631 L 1894,2634 L 1889,2636 L 1885,2638 L 1880,2640 L 1875,2640 L 1872,2640 L 1090,2640 L 1088,2640 L 1083,2640 L 1078,2638 L 1073,2636 L 1069,2634 L 1065,2631 L 1063,2629 L 1037,2603 L 1010,2630 L 1008,2632 L 1004,2635 L 1000,2637 L 995,2639 L 990,2641 L 985,2641 L 983,2641 z " style="fill-opacity:1.000000;fill:rgb(232,231,141);stroke:rgb(0,0,0);stroke-width:2"/></g>
<g fill-rule="evenodd"><path d="M 1519,400 L 1737,182 L 1739,181 L 1743,178 L 1748,175 L 1752,173 L 1757,172 L 1762,171 L 1765,171 L 2194,171 L 2196,171 L 2201,172 L 2206,173 L 2211,175 L 2215,178 L 2220,181 L 2221,182 L 2346,307 L 2348,309 L 2351,313 L 2354,318 L 2356,323 L 2357,328 L 2358,333 L 2358,335 L 2358,355 L 2358,357 L 2357,363 L 2356,368 L 2354,372 L 2351,377 L 2348,381 L 2346,383 L 2308,421 L 2308,427 L 2307,431 L 2306,438 L 2305,439 L 2303,441 L 2298,447 L 2295,449 L 2290,454 L 2289,455 L 2255,489 L 2254,490 L 2249,495 L 2247,497 L 2241,503 L 2239,505 L 2238,505 L 2231,507 L 2229,508 L 2229,1898 L 2461,2130 L 2463,2132 L 2466,2136 L 2469,2140 L 2471,2145 L 2472,2150 L 2473,2155 L 2473,2158 L 2473,2268 L 2473,2271 L 2472,2276 L 2471,2281 L 2469,2286 L 2466,2290 L 2463,2294 L 2461,2296 L 2419,2338 L 2417,2340 L 2413,2343 L 2409,2345 L 2404,2347 L 2399,2349 L 2394,2349 L 2391,2350 L 2311,2350 L 2309,2349 L 2304,2349 L 2300,2348 L 2297,2347 L 2293,2345 L 2289,2343 L 2286,2341 L 2284,2339 L 2283,2338 L 2253,2308 L 2247,2308 L 2243,2307 L 2236,2305 L 2234,2305 L 2232,2303 L 2232,2303 L 2227,2297 L 2227,2297 L 2225,2295 L 2224,2295 L 2219,2289 L 2218,2288 L 2185,2255 L 2184,2254 L 2178,2249 L 2178,2249 L 2176,2246 L 2176,2246 L 2171,2241 L 2171,2241 L 2169,2239 L 2168,2237 L 2166,2230 L 2165,2226 L 2165,2219 L 2165,2215 L 2166,2207 L 2168,2203 L 2170,2196 L 2172,2193 L 2176,2187 L 2179,2183 L 2184,2178 L 2187,2176 L 2193,2172 L 2197,2170 L 2204,2167 L 2208,2166 L 2215,2165 L 2219,2165 L 2227,2165 L 2229,2165 L 2231,2166 L 2237,2170 L 2240,2172 L 2246,2176 L 2249,2178 L 2254,2183 L 2255,2184 L 2289,2218 L 2290,2219 L 2295,2224 L 2297,2227 L 2301,2233 L 2303,2236 L 2307,2242 L 2308,2244 L 2308,2246 L 2308,2252 L 2327,2271 L 2375,2271 L 2394,2252 L 2394,2174 L 2162,1942 L 2160,1940 L 2157,1936 L 2154,1931 L 2152,1927 L 2151,1922 L 2150,1917 L 2150,1914 L 2150,484 L 2150,481 L 2151,476 L 2152,471 L 2154,467 L 2157,462 L 2160,458 L 2162,456 L 2165,453 L 2165,447 L 2166,444 L 2167,443 L 2170,436 L 2172,433 L 2177,427 L 2179,425 L 2184,419 L 2185,418 L 2218,385 L 2219,384 L 2225,379 L 2227,377 L 2233,372 L 2236,370 L 2243,366 L 2244,366 L 2247,365 L 2253,365 L 2273,345 L 2177,250 L 1781,250 L 1519,512 L 1517,514 L 1513,517 L 1509,519 L 1504,521 L 1499,523 L 1494,523 L 1491,523 L 485,523 L 482,523 L 477,523 L 472,521 L 467,519 L 463,517 L 459,514 L 457,512 L 453,508 L 447,508 L 445,508 L 443,507 L 437,503 L 434,501 L 428,497 L 425,495 L 420,490 L 419,489 L 385,455 L 384,454 L 379,449 L 377,446 L 373,440 L 371,437 L 367,431 L 366,429 L 366,427 L 366,421 L 342,421 L 205,557 L 205,846 L 507,1147 L 508,1148 L 510,1151 L 512,1154 L 514,1157 L 516,1161 L 517,1166 L 518,1170 L 518,1173 L 518,1175 L 518,2194 L 518,2197 L 518,2202 L 516,2207 L 514,2212 L 512,2216 L 509,2220 L 509,2226 L 508,2229 L 507,2230 L 504,2237 L 502,2240 L 497,2246 L 495,2248 L 490,2254 L 489,2255 L 456,2288 L 455,2289 L 449,2294 L 447,2296 L 441,2301 L 438,2303 L 431,2307 L 430,2307 L 427,2308 L 421,2308 L 421,2332 L 483,2393 L 618,2393 L 703,2308 L 705,2307 L 709,2304 L 713,2301 L 718,2299 L 723,2298 L 728,2297 L 731,2297 L 751,2297 L 751,2269 L 751,2265 L 752,2261 L 755,2257 L 758,2254 L 762,2252 L 766,2250 L 770,2250 L 904,2250 L 908,2250 L 913,2252 L 916,2254 L 919,2257 L 922,2261 L 923,2265 L 924,2269 L 924,2403 L 923,2408 L 922,2412 L 919,2415 L 916,2419 L 913,2421 L 908,2422 L 904,2423 L 770,2423 L 766,2422 L 762,2421 L 758,2419 L 755,2415 L 752,2412 L 751,2408 L 751,2403 L 751,2376 L 747,2376 L 662,2461 L 661,2462 L 657,2465 L 654,2467 L 650,2469 L 647,2470 L 644,2471 L 640,2472 L 636,2472 L 634,2472 L 467,2472 L 464,2472 L 459,2471 L 454,2470 L 449,2468 L 445,2465 L 441,2462 L 439,2461 L 354,2376 L 353,2374 L 349,2370 L 347,2366 L 345,2361 L 344,2356 L 343,2351 L 343,2348 L 343,2291 L 343,2289 L 344,2284 L 345,2279 L 347,2274 L 349,2270 L 353,2266 L 354,2264 L 366,2252 L 366,2246 L 366,2242 L 368,2235 L 369,2234 L 371,2232 L 376,2226 L 379,2224 L 384,2219 L 385,2218 L 419,2184 L 420,2183 L 425,2178 L 427,2176 L 433,2170 L 435,2168 L 436,2168 L 440,2167 L 440,1191 L 138,890 L 136,888 L 133,884 L 131,879 L 129,874 L 127,869 L 127,864 L 127,862 L 127,541 L 127,538 L 127,533 L 129,528 L 131,524 L 133,519 L 136,515 L 138,513 L 298,354 L 299,352 L 304,349 L 308,346 L 313,344 L 318,343 L 323,342 L 325,342 L 382,342 L 385,342 L 390,343 L 395,344 L 399,346 L 404,349 L 408,352 L 410,354 L 421,365 L 427,365 L 431,366 L 438,368 L 440,368 L 442,370 L 442,370 L 447,376 L 447,376 L 449,378 L 449,378 L 455,384 L 456,385 L 489,418 L 490,419 L 496,424 L 496,424 L 498,427 L 498,427 L 503,432 L 503,432 L 505,434 L 506,436 L 508,443 L 508,445 L 1475,445 L 1519,400 z " style="fill-opacity:1.000000;fill:rgb(118,90,46);stroke:rgb(0,0,0);stroke-width:2"/></g>
</svg>
