<?xml version="1.0" standalone="no"?>
<!DOCTYPE svg PUBLIC "-//W3C//DTD SVG 1.1//EN"
"http://www.w3.org/Graphics/SVG/1.1/DTD/svg11.dtd">
<svg width="2675" height="2642" viewBox="0 0 2675 2642" version="1.1"
xmlns="http://www.w3.org/2000/svg"
xmlns:xlink="http://www.w3.org/1999/xlink">
<g fill-rule="evenodd"><path d="M 0,1031 L 16,1034 L 63,1045 L 90,1053 L 125,1066 L 150,1076 L 177,1089 L 200,1101 L 222,1115 L 243,1129 L 262,1144 L 281,1160 L 297,1176 L 314,1194 L 330,1211 L 345,1231 L 345,1231 L 350,1255 L 354,1279 L 356,1301 L 357,1326 L 357,1347 L 356,1372 L 354,1394 L 350,1418 L 345,1442 L 338,1467 L 329,1493 L 320,1518 L 306,1548 L 294,1573 L 272,1610 L 256,1634 L 223,1680 L 203,1705 L 178,1734 L 150,1764 L 125,1788 L 90,1821 L 53,1854 L 39,1858 L 29,1861 L 12,1866 L 0,1870 L 0,1031 z " style="fill-opacity:0.300000;fill:rgb(103,198,105);"/></g>
<g fill-rule="evenodd"><path d="M 2675,903 L 2675,1753 L 2641,1745 L 2635,1740 L 2605,1715 L 2575,1690 L 2549,1666 L 2524,1641 L 2492,1605 L 2472,1581 L 2453,1555 L 2437,1530 L 2426,1510 L 2413,1486 L 2406,1470 L 2397,1446 L 2393,1434 L 2386,1409 L 2384,1399 L 2380,1374 L 2379,1365 L 2378,1341 L 2378,1332 L 2379,1308 L 2380,1299 L 2384,1274 L 2386,1264 L 2393,1239 L 2397,1227 L 2406,1203 L 2413,1187 L 2426,1163 L 2437,1143 L 2453,1118 L 2472,1092 L 2492,1068 L 2524,1032 L 2549,1007 L 2575,983 L 2605,958 L 2635,933 L 2675,903 z " style="fill-opacity:0.300000;fill:rgb(115,81,255);"/></g>
<g fill-rule="evenodd"><path d="M 887,0 L 1593,0 L 1592,4 L 1585,43 L 1578,71 L 1570,100 L 1561,126 L 1552,147 L 1540,171 L 1532,187 L 1518,209 L 1509,222 L 1494,242 L 1484,253 L 1467,271 L 1457,281 L 1454,283 L 1433,290 L 1420,293 L 1396,299 L 1384,300 L 1360,303 L 1349,304 L 1325,304 L 1314,303 L 1290,300 L 1278,299 L 1254,293 L 1241,290 L 1216,282 L 1201,276 L 1176,265 L 1157,255 L 1132,241 L 1107,224 L 1082,207 L 1049,179 L 1024,157 L 1002,136 L 979,112 L 954,84 L 922,46 L 890,5 L 887,0 z " style="fill-opacity:0.300000;fill:rgb(74,236,41);"/></g>
<g fill-rule="evenodd"><path d="M 272,519 L 273,505 L 275,494 L 280,485 L 286,477 L 336,427 L 342,422 L 353,421 L 363,423 L 365,426 L 365,427 L 367,431 L 371,437 L 373,440 L 377,446 L 379,449 L 384,454 L 385,455 L 419,489 L 420,490 L 425,495 L 428,497 L 434,501 L 437,503 L 443,507 L 447,509 L 448,509 L 452,511 L 454,514 L 456,517 L 459,522 L 463,529 L 465,532 L 467,533 L 475,538 L 480,540 L 485,543 L 1252,860 L 1252,860 L 1269,907 L 1515,1500 L 1519,1511 L 1521,1517 L 1527,1538 L 1528,1543 L 1530,1563 L 1531,1568 L 1531,1578 L 1531,2231 L 1533,2235 L 1537,2245 L 1537,2250 L 1537,2251 L 1537,2266 L 1537,2267 L 1537,2280 L 1537,2282 L 1537,2292 L 1537,2295 L 1537,2303 L 1537,2306 L 1537,2314 L 1537,2317 L 1537,2324 L 1537,2328 L 1537,2335 L 1537,2338 L 1537,2345 L 1537,2348 L 1537,2355 L 1537,2358 L 1537,2366 L 1537,2369 L 1537,2378 L 1537,2381 L 1537,2391 L 1537,2393 L 1537,2405 L 1537,2407 L 1537,2422 L 1537,2422 L 1537,2441 L 1537,2442 L 1537,2463 L 1537,2468 L 1537,2476 L 1528,2479 L 1508,2484 L 1494,2487 L 1475,2490 L 1462,2491 L 1448,2492 L 1442,2492 L 1428,2492 L 1414,2491 L 1396,2490 L 1382,2487 L 1363,2483 L 1349,2480 L 1337,2476 L 1337,2468 L 1337,2463 L 1337,2442 L 1337,2441 L 1337,2422 L 1337,2422 L 1337,2407 L 1337,2405 L 1337,2393 L 1337,2391 L 1337,2381 L 1337,2378 L 1337,2369 L 1337,2366 L 1337,2358 L 1337,2355 L 1337,2348 L 1337,2345 L 1337,2338 L 1337,2335 L 1337,2328 L 1337,2324 L 1337,2317 L 1337,2314 L 1337,2306 L 1337,2303 L 1337,2295 L 1337,2292 L 1337,2282 L 1337,2280 L 1337,2267 L 1337,2266 L 1337,2251 L 1337,2250 L 1337,2232 L 1337,2230 L 1337,2228 L 1336,2227 L 1336,2183 L 1336,2173 L 1335,2168 L 1333,2146 L 1332,2141 L 1325,2117 L 1324,2112 L 1319,2100 L 1224,1870 L 1212,1844 L 1209,1839 L 1194,1810 L 1175,1780 L 1172,1775 L 1148,1742 L 1121,1709 L 1117,1707 L 1112,1704 L 1073,1687 L 889,1611 L 709,1175 L 702,1159 L 701,1156 L 681,1118 L 678,1113 L 653,1077 L 651,1073 L 630,1049 L 628,1046 L 618,1036 L 362,781 L 336,716 L 316,686 L 301,656 L 272,585 L 272,519 z " style="fill-opacity:0.300000;fill:rgb(205,186,171);"/></g>
<g fill-rule="evenodd"><path d="M 426,2309 L 427,2309 L 431,2307 L 438,2303 L 441,2301 L 447,2296 L 449,2294 L 455,2289 L 456,2288 L 489,2255 L 490,2254 L 495,2248 L 497,2246 L 502,2240 L 504,2237 L 507,2230 L 509,2226 L 510,2225 L 512,2221 L 515,2219 L 520,2214 L 525,2211 L 532,2207 L 533,2204 L 535,2199 L 538,2194 L 663,1891 L 674,1869 L 676,1863 L 689,1838 L 705,1813 L 709,1808 L 730,1778 L 755,1748 L 760,1743 L 794,1706 L 889,1611 L 1073,1687 L 1112,1704 L 1117,1707 L 1121,1709 L 1148,1742 L 1172,1775 L 1175,1780 L 1194,1810 L 1209,1839 L 1212,1844 L 1224,1870 L 1319,2100 L 1324,2112 L 1325,2117 L 1332,2141 L 1333,2146 L 1335,2168 L 1336,2173 L 1336,2183 L 1336,2227 L 1337,2228 L 1337,2230 L 1337,2232 L 1337,2250 L 1337,2251 L 1337,2266 L 1337,2267 L 1337,2280 L 1337,2282 L 1337,2292 L 1337,2295 L 1337,2303 L 1337,2306 L 1337,2314 L 1337,2317 L 1337,2324 L 1337,2328 L 1337,2335 L 1337,2338 L 1337,2345 L 1337,2348 L 1337,2355 L 1337,2358 L 1337,2366 L 1337,2369 L 1337,2378 L 1337,2381 L 1337,2391 L 1337,2393 L 1337,2405 L 1337,2407 L 1337,2422 L 1337,2422 L 1337,2441 L 1337,2442 L 1337,2463 L 1337,2468 L 1337,2476 L 1328,2479 L 1308,2484 L 1294,2487 L 1275,2490 L 1262,2491 L 1248,2492 L 1242,2492 L 1228,2492 L 1214,2491 L 1196,2490 L 1183,2487 L 1163,2483 L 1156,2482 L 1152,2475 L 1143,2456 L 1137,2444 L 1137,2442 L 1137,2441 L 1137,2422 L 1137,2422 L 1137,2407 L 1137,2405 L 1137,2393 L 1137,2391 L 1137,2381 L 1137,2378 L 1137,2369 L 1137,2366 L 1137,2358 L 1137,2355 L 1137,2348 L 1137,2345 L 1137,2338 L 1137,2335 L 1137,2328 L 1137,2324 L 1137,2317 L 1137,2314 L 1137,2306 L 1137,2303 L 1137,2295 L 1137,2292 L 1137,2282 L 1137,2280 L 1137,2267 L 1137,2266 L 1137,2251 L 1137,2250 L 1137,2232 L 1137,2231 L 1137,2230 L 1134,2225 L 1128,2220 L 1116,2209 L 1105,2201 L 1090,2191 L 1078,2183 L 1060,2174 L 1047,2168 L 1032,2161 L 1025,2158 L 1017,2156 L 1007,2156 L 993,2158 L 969,2161 L 963,2163 L 934,2157 L 904,2155 L 849,2155 L 770,2188 L 748,2199 L 729,2213 L 713,2229 L 699,2248 L 698,2249 L 693,2252 L 678,2264 L 674,2267 L 668,2273 L 644,2297 L 632,2317 L 618,2334 L 601,2352 L 507,2390 L 495,2393 L 483,2393 L 477,2388 L 427,2338 L 422,2332 L 422,2321 L 424,2310 L 426,2309 z " style="fill-opacity:0.300000;fill:rgb(242,251,227);"/></g>
<g fill-rule="evenodd"><path d="M 1537,2335 L 1537,2328 L 1537,2324 L 1537,2317 L 1537,2314 L 1537,2306 L 1537,2303 L 1537,2295 L 1537,2292 L 1537,2282 L 1537,2280 L 1537,2267 L 1537,2266 L 1537,2251 L 1537,2250 L 1537,2245 L 1533,2235 L 1531,2231 L 1531,1578 L 1531,1568 L 1530,1563 L 1528,1543 L 1527,1538 L 1521,1517 L 1519,1511 L 1515,1500 L 1269,907 L 1252,860 L 1252,860 L 1257,856 L 1299,822 L 1340,792 L 1345,788 L 1380,767 L 1414,748 L 1419,746 L 1450,732 L 1491,715 L 1518,703 L 1522,700 L 1545,688 L 1567,674 L 1572,672 L 1610,643 L 1613,639 L 1630,623 L 1847,407 L 1983,351 L 2009,333 L 2036,319 L 2154,270 L 2171,266 L 2188,272 L 2201,281 L 2251,331 L 2261,345 L 2257,354 L 2252,362 L 2248,364 L 2247,364 L 2243,366 L 2236,370 L 2233,372 L 2227,377 L 2225,379 L 2219,384 L 2218,385 L 2185,418 L 2184,419 L 2179,425 L 2177,427 L 2172,433 L 2170,436 L 2167,443 L 2165,447 L 2164,448 L 2162,451 L 2159,454 L 2157,456 L 2152,458 L 2145,463 L 2142,464 L 2140,466 L 2136,474 L 2133,479 L 2131,484 L 1907,1024 L 1907,1755 L 1902,1762 L 1899,1767 L 1879,1798 L 1863,1829 L 1860,1834 L 1848,1861 L 1749,2100 L 1744,2113 L 1742,2118 L 1736,2143 L 1735,2148 L 1732,2171 L 1731,2176 L 1731,2188 L 1731,2216 L 1731,2216 L 1737,2228 L 1737,2230 L 1737,2232 L 1737,2250 L 1737,2251 L 1737,2266 L 1737,2267 L 1737,2280 L 1737,2282 L 1737,2292 L 1737,2295 L 1737,2303 L 1737,2306 L 1737,2314 L 1737,2317 L 1737,2324 L 1737,2328 L 1737,2335 L 1737,2338 L 1737,2345 L 1737,2348 L 1737,2355 L 1737,2358 L 1737,2366 L 1737,2369 L 1737,2378 L 1737,2381 L 1737,2391 L 1737,2393 L 1737,2405 L 1737,2407 L 1737,2422 L 1737,2422 L 1737,2441 L 1737,2442 L 1737,2463 L 1737,2468 L 1737,2476 L 1728,2479 L 1708,2484 L 1694,2487 L 1675,2490 L 1662,2491 L 1648,2492 L 1641,2492 L 1628,2492 L 1614,2491 L 1596,2490 L 1582,2487 L 1563,2483 L 1549,2480 L 1537,2476 L 1537,2468 L 1537,2463 L 1537,2442 L 1537,2441 L 1537,2422 L 1537,2422 L 1537,2407 L 1537,2405 L 1537,2393 L 1537,2391 L 1537,2381 L 1537,2378 L 1537,2369 L 1537,2366 L 1537,2358 L 1537,2355 L 1537,2348 L 1537,2345 L 1537,2338 L 1537,2335 z " style="fill-opacity:0.300000;fill:rgb(70,124,194);"/></g>
<g fill-rule="evenodd"><path d="M 1737,2335 L 1737,2328 L 1737,2324 L 1737,2317 L 1737,2314 L 1737,2306 L 1737,2303 L 1737,2295 L 1737,2292 L 1737,2282 L 1737,2280 L 1737,2267 L 1737,2266 L 1737,2251 L 1737,2250 L 1737,2232 L 1737,2230 L 1737,2228 L 1731,2216 L 1731,2216 L 1731,2188 L 1731,2176 L 1732,2171 L 1735,2148 L 1736,2143 L 1742,2118 L 1744,2113 L 1749,2100 L 1848,1861 L 1860,1834 L 1863,1829 L 1879,1798 L 1899,1767 L 1902,1762 L 1907,1755 L 1943,1781 L 1975,1807 L 1981,1812 L 2006,1835 L 2085,1914 L 2095,1924 L 2100,1928 L 2117,1941 L 2122,1945 L 2135,1952 L 2140,1955 L 2146,1957 L 2161,1964 L 2165,1966 L 2170,1968 L 2177,1972 L 2182,1975 L 2188,1980 L 2192,1983 L 2194,1986 L 2282,2073 L 2295,2077 L 2305,2085 L 2388,2168 L 2393,2174 L 2394,2187 L 2391,2199 L 2372,2243 L 2366,2249 L 2348,2256 L 2331,2261 L 2320,2257 L 2311,2251 L 2309,2247 L 2309,2246 L 2307,2242 L 2303,2236 L 2301,2233 L 2297,2227 L 2295,2224 L 2290,2219 L 2289,2218 L 2255,2184 L 2254,2183 L 2249,2178 L 2246,2176 L 2240,2172 L 2237,2170 L 2231,2166 L 2227,2164 L 2226,2164 L 2220,2160 L 2214,2157 L 2205,2150 L 2198,2145 L 2195,2144 L 2186,2142 L 2173,2140 L 2163,2139 L 2144,2138 L 2133,2138 L 2111,2139 L 2106,2141 L 2099,2145 L 2084,2154 L 2068,2158 L 2064,2160 L 2061,2162 L 2043,2178 L 2037,2184 L 2021,2202 L 2016,2208 L 2001,2229 L 1999,2232 L 2000,2237 L 2001,2248 L 2002,2263 L 2002,2263 L 2003,2271 L 2005,2286 L 2005,2286 L 2001,2301 L 1994,2322 L 1989,2335 L 1982,2352 L 1975,2364 L 1968,2378 L 1960,2389 L 1952,2400 L 1944,2411 L 1935,2421 L 1926,2430 L 1917,2439 L 1906,2448 L 1896,2456 L 1884,2464 L 1872,2471 L 1859,2478 L 1848,2483 L 1841,2486 L 1828,2492 L 1827,2492 L 1814,2491 L 1796,2490 L 1782,2487 L 1763,2483 L 1749,2480 L 1737,2476 L 1737,2468 L 1737,2463 L 1737,2442 L 1737,2441 L 1737,2422 L 1737,2422 L 1737,2407 L 1737,2405 L 1737,2393 L 1737,2391 L 1737,2381 L 1737,2378 L 1737,2369 L 1737,2366 L 1737,2358 L 1737,2355 L 1737,2348 L 1737,2345 L 1737,2338 L 1737,2335 z " style="fill-opacity:0.300000;fill:rgb(84,248,27);"/></g>
<g fill-rule="evenodd"><path d="M 0,1870 L 12,1866 L 29,1861 L 39,1858 L 53,1854 L 114,1879 L 186,1912 L 202,1919 L 246,1941 L 284,1963 L 297,1971 L 339,2000 L 349,2007 L 373,2028 L 381,2035 L 395,2050 L 401,2057 L 410,2069 L 415,2076 L 420,2085 L 425,2092 L 428,2099 L 431,2106 L 433,2112 L 435,2120 L 436,2125 L 438,2132 L 438,2136 L 439,2144 L 439,2148 L 439,2156 L 438,2160 L 438,2165 L 436,2167 L 433,2170 L 427,2176 L 425,2178 L 420,2183 L 419,2184 L 385,2218 L 384,2219 L 379,2224 L 376,2226 L 371,2232 L 368,2235 L 362,2241 L 357,2246 L 355,2248 L 355,2248 L 353,2249 L 349,2259 L 348,2262 L 346,2267 L 345,2273 L 344,2278 L 343,2284 L 343,2289 L 343,2291 L 343,2348 L 343,2351 L 343,2356 L 344,2361 L 344,2364 L 346,2366 L 349,2370 L 352,2374 L 354,2376 L 439,2461 L 441,2462 L 445,2466 L 449,2469 L 453,2472 L 459,2475 L 463,2477 L 467,2479 L 560,2517 L 634,2517 L 641,2517 L 645,2517 L 657,2516 L 660,2515 L 673,2513 L 677,2512 L 692,2507 L 696,2506 L 704,2503 L 736,2490 L 753,2492 L 770,2493 L 904,2493 L 926,2491 L 945,2463 L 951,2449 L 956,2435 L 954,2423 L 951,2412 L 948,2403 L 947,2398 L 944,2389 L 941,2376 L 940,2368 L 938,2355 L 937,2348 L 937,2335 L 937,2328 L 938,2314 L 939,2307 L 942,2294 L 943,2286 L 947,2272 L 948,2269 L 950,2263 L 954,2248 L 957,2233 L 959,2213 L 962,2179 L 963,2163 L 969,2161 L 993,2158 L 1007,2156 L 1017,2156 L 1025,2158 L 1032,2161 L 1047,2168 L 1060,2174 L 1078,2183 L 1090,2191 L 1105,2201 L 1116,2209 L 1128,2220 L 1134,2225 L 1137,2230 L 1137,2231 L 1137,2232 L 1137,2250 L 1137,2251 L 1137,2266 L 1137,2267 L 1137,2280 L 1137,2282 L 1137,2292 L 1137,2295 L 1137,2303 L 1137,2306 L 1137,2314 L 1137,2317 L 1137,2324 L 1137,2328 L 1137,2335 L 1137,2338 L 1137,2345 L 1137,2348 L 1137,2355 L 1137,2358 L 1137,2366 L 1137,2369 L 1137,2378 L 1137,2381 L 1137,2391 L 1137,2393 L 1137,2405 L 1137,2407 L 1137,2422 L 1137,2422 L 1137,2441 L 1137,2442 L 1137,2444 L 1143,2456 L 1152,2475 L 1156,2482 L 1163,2483 L 1183,2487 L 1196,2490 L 1214,2491 L 1228,2492 L 1242,2492 L 1248,2492 L 1262,2491 L 1275,2490 L 1294,2487 L 1308,2484 L 1328,2479 L 1337,2476 L 1349,2480 L 1363,2483 L 1382,2487 L 1396,2490 L 1414,2491 L 1428,2492 L 1442,2492 L 1448,2492 L 1462,2491 L 1475,2490 L 1494,2487 L 1508,2484 L 1528,2479 L 1537,2476 L 1549,2480 L 1563,2483 L 1582,2487 L 1596,2490 L 1614,2491 L 1628,2492 L 1641,2492 L 1648,2492 L 1662,2491 L 1675,2490 L 1694,2487 L 1708,2484 L 1728,2479 L 1737,2476 L 1749,2480 L 1763,2483 L 1782,2487 L 1796,2490 L 1814,2491 L 1827,2492 L 1828,2492 L 1841,2486 L 1848,2483 L 1859,2478 L 1872,2471 L 1884,2464 L 1896,2456 L 1906,2448 L 1917,2439 L 1926,2430 L 1935,2421 L 1944,2411 L 1952,2400 L 1960,2389 L 1968,2378 L 1975,2364 L 1982,2352 L 1989,2335 L 1994,2322 L 2001,2301 L 2005,2286 L 2005,2286 L 2003,2271 L 2002,2263 L 2002,2263 L 2001,2248 L 2000,2237 L 1999,2232 L 2001,2229 L 2016,2208 L 2021,2202 L 2037,2184 L 2043,2178 L 2061,2162 L 2064,2160 L 2068,2158 L 2084,2154 L 2099,2169 L 2099,2169 L 2112,2182 L 2112,2182 L 2132,2202 L 2132,2202 L 2141,2211 L 2141,2211 L 2149,2220 L 2149,2220 L 2156,2227 L 2156,2227 L 2161,2232 L 2161,2232 L 2167,2238 L 2167,2238 L 2171,2241 L 2171,2241 L 2176,2246 L 2176,2246 L 2178,2249 L 2178,2249 L 2184,2254 L 2185,2255 L 2218,2288 L 2219,2289 L 2224,2295 L 2225,2295 L 2227,2297 L 2227,2297 L 2232,2303 L 2232,2303 L 2236,2306 L 2236,2306 L 2242,2312 L 2242,2312 L 2246,2317 L 2246,2317 L 2248,2318 L 2248,2318 L 2275,2345 L 2277,2347 L 2279,2349 L 2284,2353 L 2286,2355 L 2287,2355 L 2294,2356 L 2298,2357 L 2304,2358 L 2308,2358 L 2311,2358 L 2388,2358 L 2391,2356 L 2395,2355 L 2400,2352 L 2405,2349 L 2409,2346 L 2413,2343 L 2417,2340 L 2419,2338 L 2461,2296 L 2463,2294 L 2466,2290 L 2470,2286 L 2471,2284 L 2472,2281 L 2472,2276 L 2473,2271 L 2473,2268 L 2473,2158 L 2473,2155 L 2472,2150 L 2472,2145 L 2471,2140 L 2469,2134 L 2467,2129 L 2466,2125 L 2454,2097 L 2277,1920 L 2273,1916 L 2270,1912 L 2264,1904 L 2261,1899 L 2255,1889 L 2254,1887 L 2254,1884 L 2254,1879 L 2254,595 L 2252,591 L 2248,584 L 2244,576 L 2241,569 L 2239,562 L 2236,555 L 2235,549 L 2234,542 L 2233,537 L 2232,530 L 2232,525 L 2233,517 L 2233,512 L 2233,511 L 2238,506 L 2241,503 L 2247,497 L 2249,495 L 2254,490 L 2255,489 L 2289,455 L 2290,454 L 2295,449 L 2298,447 L 2303,441 L 2306,438 L 2312,432 L 2317,427 L 2319,425 L 2347,397 L 2351,387 L 2352,384 L 2354,379 L 2356,373 L 2357,368 L 2358,363 L 2358,357 L 2358,355 L 2358,335 L 2358,333 L 2358,327 L 2357,322 L 2356,320 L 2355,317 L 2352,313 L 2348,309 L 2346,307 L 2221,182 L 2220,181 L 2216,177 L 2211,174 L 2209,173 L 2207,172 L 2201,171 L 2196,171 L 2194,171 L 1765,171 L 1762,171 L 1757,171 L 1752,172 L 1749,173 L 1747,174 L 1743,177 L 1739,181 L 1737,182 L 1519,400 L 1517,402 L 1513,406 L 1509,409 L 1505,412 L 1500,415 L 1495,417 L 1491,419 L 1468,428 L 580,428 L 577,430 L 569,433 L 563,435 L 556,437 L 550,438 L 543,440 L 537,440 L 530,441 L 525,441 L 518,441 L 513,441 L 512,440 L 507,435 L 507,435 L 503,432 L 503,432 L 498,427 L 498,427 L 496,424 L 496,424 L 490,419 L 489,418 L 456,385 L 455,384 L 449,378 L 449,378 L 447,376 L 447,376 L 442,370 L 442,370 L 438,367 L 438,367 L 432,361 L 432,361 L 428,356 L 428,356 L 426,355 L 423,349 L 421,343 L 421,342 L 419,338 L 418,334 L 417,332 L 414,323 L 411,318 L 410,314 L 408,311 L 402,296 L 397,284 L 397,284 L 393,276 L 382,249 L 379,243 L 372,225 L 353,174 L 334,113 L 326,88 L 325,86 L 300,0 L 887,0 L 890,5 L 922,46 L 954,84 L 979,112 L 1002,136 L 1024,157 L 1049,179 L 1082,207 L 1107,224 L 1132,241 L 1157,255 L 1176,265 L 1201,276 L 1216,282 L 1241,290 L 1254,293 L 1278,299 L 1290,300 L 1314,303 L 1325,304 L 1349,304 L 1360,303 L 1384,300 L 1396,299 L 1420,293 L 1433,290 L 1454,283 L 1457,281 L 1467,271 L 1484,253 L 1494,242 L 1509,222 L 1518,209 L 1532,187 L 1540,171 L 1552,147 L 1561,126 L 1570,100 L 1578,71 L 1585,43 L 1592,4 L 1593,0 L 2675,0 L 2675,903 L 2635,933 L 2605,958 L 2575,983 L 2549,1007 L 2524,1032 L 2492,1068 L 2472,1092 L 2453,1118 L 2437,1143 L 2426,1163 L 2413,1187 L 2406,1203 L 2397,1227 L 2393,1239 L 2386,1264 L 2384,1274 L 2380,1299 L 2379,1308 L 2378,1332 L 2378,1341 L 2379,1365 L 2380,1374 L 2384,1399 L 2386,1409 L 2393,1434 L 2397,1446 L 2406,1470 L 2413,1486 L 2426,1510 L 2437,1530 L 2453,1555 L 2472,1581 L 2492,1605 L 2524,1641 L 2549,1666 L 2575,1690 L 2605,1715 L 2635,1740 L 2641,1745 L 2675,1753 L 2675,2641 L 0,2641 L 0,1870 z " style="fill-opacity:0.300000;fill:rgb(232,231,141);"/></g>
<g fill-rule="evenodd"><path d="M 300,0 L 325,86 L 326,88 L 334,113 L 353,174 L 372,225 L 379,243 L 382,249 L 393,276 L 397,284 L 397,284 L 402,296 L 408,311 L 410,314 L 411,318 L 414,323 L 417,332 L 418,334 L 419,338 L 421,342 L 421,343 L 423,349 L 426,355 L 428,356 L 428,356 L 432,361 L 432,361 L 438,367 L 438,367 L 442,370 L 442,370 L 447,376 L 447,376 L 449,378 L 449,378 L 455,384 L 456,385 L 489,418 L 490,419 L 496,424 L 496,424 L 498,427 L 498,427 L 503,432 L 503,432 L 507,435 L 507,435 L 512,440 L 513,441 L 518,441 L 525,441 L 530,441 L 537,440 L 543,440 L 550,438 L 556,437 L 563,435 L 569,433 L 577,430 L 580,428 L 1468,428 L 1491,419 L 1495,417 L 1500,415 L 1505,412 L 1509,409 L 1513,406 L 1517,402 L 1519,400 L 1737,182 L 1739,181 L 1743,177 L 1747,174 L 1749,173 L 1752,172 L 1757,171 L 1762,171 L 1765,171 L 2194,171 L 2196,171 L 2201,171 L 2207,172 L 2209,173 L 2211,174 L 2216,177 L 2220,181 L 2221,182 L 2346,307 L 2348,309 L 2352,313 L 2355,317 L 2356,320 L 2357,322 L 2358,327 L 2358,333 L 2358,335 L 2358,355 L 2358,357 L 2358,363 L 2357,368 L 2356,373 L 2354,379 L 2352,384 L 2351,387 L 2347,397 L 2319,425 L 2317,427 L 2312,432 L 2306,438 L 2303,441 L 2298,447 L 2295,449 L 2290,454 L 2289,455 L 2255,489 L 2254,490 L 2249,495 L 2247,497 L 2241,503 L 2238,506 L 2233,511 L 2233,512 L 2233,517 L 2232,525 L 2232,530 L 2233,537 L 2234,542 L 2235,549 L 2236,555 L 2239,562 L 2241,569 L 2244,576 L 2248,584 L 2252,591 L 2254,595 L 2254,1879 L 2254,1884 L 2254,1887 L 2255,1889 L 2261,1899 L 2264,1904 L 2270,1912 L 2273,1916 L 2277,1920 L 2454,2097 L 2466,2125 L 2467,2129 L 2469,2134 L 2471,2140 L 2472,2145 L 2472,2150 L 2473,2155 L 2473,2158 L 2473,2268 L 2473,2271 L 2472,2276 L 2472,2281 L 2471,2284 L 2470,2286 L 2466,2290 L 2463,2294 L 2461,2296 L 2419,2338 L 2417,2340 L 2413,2343 L 2409,2346 L 2405,2349 L 2400,2352 L 2395,2355 L 2391,2356 L 2388,2358 L 2311,2358 L 2308,2358 L 2304,2358 L 2298,2357 L 2294,2356 L 2287,2355 L 2286,2355 L 2284,2353 L 2279,2349 L 2277,2347 L 2275,2345 L 2248,2318 L 2248,2318 L 2246,2317 L 2246,2317 L 2242,2312 L 2242,2312 L 2236,2306 L 2236,2306 L 2232,2303 L 2232,2303 L 2227,2297 L 2227,2297 L 2225,2295 L 2224,2295 L 2219,2289 L 2218,2288 L 2185,2255 L 2184,2254 L 2178,2249 L 2178,2249 L 2176,2246 L 2176,2246 L 2171,2241 L 2171,2241 L 2167,2238 L 2167,2238 L 2161,2232 L 2161,2232 L 2156,2227 L 2156,2227 L 2149,2220 L 2149,2220 L 2141,2211 L 2141,2211 L 2132,2202 L 2132,2202 L 2112,2182 L 2112,2182 L 2099,2169 L 2099,2169 L 2084,2154 L 2099,2145 L 2106,2141 L 2111,2139 L 2133,2138 L 2144,2138 L 2163,2139 L 2173,2140 L 2186,2142 L 2195,2144 L 2198,2145 L 2205,2150 L 2214,2157 L 2220,2160 L 2226,2164 L 2227,2164 L 2231,2166 L 2237,2170 L 2240,2172 L 2246,2176 L 2249,2178 L 2254,2183 L 2255,2184 L 2289,2218 L 2290,2219 L 2295,2224 L 2297,2227 L 2301,2233 L 2303,2236 L 2307,2242 L 2309,2246 L 2309,2247 L 2311,2251 L 2320,2257 L 2331,2261 L 2348,2256 L 2366,2249 L 2372,2243 L 2391,2199 L 2394,2187 L 2393,2174 L 2388,2168 L 2305,2085 L 2295,2077 L 2282,2073 L 2194,1986 L 2192,1983 L 2188,1980 L 2182,1975 L 2177,1972 L 2170,1968 L 2165,1966 L 2161,1964 L 2146,1957 L 2140,1955 L 2135,1952 L 2122,1945 L 2117,1941 L 2100,1928 L 2095,1924 L 2085,1914 L 2006,1835 L 1981,1812 L 1975,1807 L 1943,1781 L 1907,1755 L 1907,1024 L 2131,484 L 2133,479 L 2136,474 L 2140,466 L 2142,464 L 2145,463 L 2152,458 L 2157,456 L 2159,454 L 2162,451 L 2164,448 L 2165,447 L 2167,443 L 2170,436 L 2172,433 L 2177,427 L 2179,425 L 2184,419 L 2185,418 L 2218,385 L 2219,384 L 2225,379 L 2227,377 L 2233,372 L 2236,370 L 2243,366 L 2247,364 L 2248,364 L 2252,362 L 2257,354 L 2261,345 L 2251,331 L 2201,281 L 2188,272 L 2171,266 L 2154,270 L 2036,319 L 2009,333 L 1983,351 L 1847,407 L 1630,623 L 1613,639 L 1610,643 L 1572,672 L 1567,674 L 1545,688 L 1522,700 L 1518,703 L 1491,715 L 1450,732 L 1419,746 L 1414,748 L 1380,767 L 1345,788 L 1340,792 L 1299,822 L 1257,856 L 1252,860 L 485,543 L 480,540 L 475,538 L 467,533 L 465,532 L 463,529 L 459,522 L 456,517 L 454,514 L 452,511 L 448,509 L 447,509 L 443,507 L 437,503 L 434,501 L 428,497 L 425,495 L 420,490 L 419,489 L 385,455 L 384,454 L 379,449 L 377,446 L 373,440 L 371,437 L 367,431 L 365,427 L 365,426 L 363,423 L 353,421 L 342,422 L 336,427 L 286,477 L 280,485 L 275,494 L 273,505 L 272,519 L 272,585 L 301,656 L 316,686 L 336,716 L 362,781 L 618,1036 L 628,1046 L 630,1049 L 651,1073 L 653,1077 L 678,1113 L 681,1118 L 701,1156 L 702,1159 L 709,1175 L 889,1611 L 794,1706 L 760,1743 L 755,1748 L 730,1778 L 709,1808 L 705,1813 L 689,1838 L 676,1863 L 674,1869 L 663,1891 L 538,2194 L 535,2199 L 533,2204 L 532,2207 L 525,2211 L 520,2214 L 515,2219 L 512,2221 L 510,2225 L 509,2226 L 507,2230 L 504,2237 L 502,2240 L 497,2246 L 495,2248 L 490,2254 L 489,2255 L 456,2288 L 455,2289 L 449,2294 L 447,2296 L 441,2301 L 438,2303 L 431,2307 L 427,2309 L 426,2309 L 424,2310 L 422,2321 L 422,2332 L 427,2338 L 477,2388 L 483,2393 L 495,2393 L 507,2390 L 601,2352 L 618,2334 L 632,2317 L 644,2297 L 668,2273 L 674,2267 L 678,2264 L 693,2252 L 698,2249 L 699,2248 L 713,2229 L 729,2213 L 748,2199 L 770,2188 L 849,2155 L 904,2155 L 934,2157 L 963,2163 L 962,2179 L 959,2213 L 957,2233 L 954,2248 L 950,2263 L 948,2269 L 947,2272 L 943,2286 L 942,2294 L 939,2307 L 938,2314 L 937,2328 L 937,2335 L 937,2348 L 938,2355 L 940,2368 L 941,2376 L 944,2389 L 947,2398 L 948,2403 L 951,2412 L 954,2423 L 956,2435 L 951,2449 L 945,2463 L 926,2491 L 904,2493 L 770,2493 L 753,2492 L 736,2490 L 704,2503 L 696,2506 L 692,2507 L 677,2512 L 673,2513 L 660,2515 L 657,2516 L 645,2517 L 641,2517 L 634,2517 L 560,2517 L 467,2479 L 463,2477 L 459,2475 L 453,2472 L 449,2469 L 445,2466 L 441,2462 L 439,2461 L 354,2376 L 352,2374 L 349,2370 L 346,2366 L 344,2364 L 344,2361 L 343,2356 L 343,2351 L 343,2348 L 343,2291 L 343,2289 L 343,2284 L 344,2278 L 345,2273 L 346,2267 L 348,2262 L 349,2259 L 353,2249 L 355,2248 L 355,2248 L 357,2246 L 362,2241 L 368,2235 L 371,2232 L 376,2226 L 379,2224 L 384,2219 L 385,2218 L 419,2184 L 420,2183 L 425,2178 L 427,2176 L 433,2170 L 436,2167 L 438,2165 L 438,2160 L 439,2156 L 439,2148 L 439,2144 L 438,2136 L 438,2132 L 436,2125 L 435,2120 L 433,2112 L 431,2106 L 428,2099 L 425,2092 L 420,2085 L 415,2076 L 410,2069 L 401,2057 L 395,2050 L 381,2035 L 373,2028 L 349,2007 L 339,2000 L 297,1971 L 284,1963 L 246,1941 L 202,1919 L 186,1912 L 114,1879 L 53,1854 L 90,1821 L 125,1788 L 150,1764 L 178,1734 L 203,1705 L 223,1680 L 256,1634 L 272,1610 L 294,1573 L 306,1548 L 320,1518 L 329,1493 L 338,1467 L 345,1442 L 350,1418 L 354,1394 L 356,1372 L 357,1347 L 357,1326 L 356,1301 L 354,1279 L 350,1255 L 345,1231 L 345,1231 L 330,1211 L 314,1194 L 297,1176 L 281,1160 L 262,1144 L 243,1129 L 222,1115 L 200,1101 L 177,1089 L 150,1076 L 125,1066 L 90,1053 L 63,1045 L 16,1034 L 0,1031 L 0,0 L 300,0 z " style="fill-opacity:0.300000;fill:rgb(118,90,46);"/></g>
<g fill-rule="evenodd"><path d="M 275,1339 L 272,1363 L 271,1367 L 264,1391 L 262,1394 L 250,1416 L 247,1419 L 231,1437 L 228,1440 L 208,1455 L 204,1457 L 182,1467 L 178,1468 L 154,1473 L 150,1474 L 125,1474 L 121,1473 L 97,1468 L 93,1467 L 70,1457 L 67,1455 L 47,1440 L 44,1437 L 27,1419 L 25,1416 L 12,1394 L 11,1391 L 3,1367 L 2,1363 L 0,1339 L 0,1334 L 2,1310 L 3,1306 L 11,1282 L 12,1279 L 25,1257 L 27,1254 L 44,1236 L 47,1233 L 67,1218 L 70,1216 L 93,1206 L 97,1205 L 121,1200 L 125,1199 L 150,1199 L 154,1200 L 178,1205 L 182,1206 L 204,1216 L 208,1218 L 228,1233 L 231,1236 L 247,1254 L 250,1257 L 262,1279 L 264,1282 L 271,1306 L 272,1310 L 275,1334 L 275,1339 z " style="fill-opacity:0.600000;fill:rgb(103,198,105);stroke:rgb(0,0,0);stroke-width:2"/></g>
<g fill-rule="evenodd"><path d="M 2674,1339 L 2672,1363 L 2671,1367 L 2663,1391 L 2662,1394 L 2649,1416 L 2647,1419 L 2630,1437 L 2627,1440 L 2607,1455 L 2604,1457 L 2581,1467 L 2577,1468 L 2553,1473 L 2549,1474 L 2524,1474 L 2520,1473 L 2496,1468 L 2492,1467 L 2470,1457 L 2466,1455 L 2446,1440 L 2443,1437 L 2427,1419 L 2424,1416 L 2412,1394 L 2410,1391 L 2403,1367 L 2402,1363 L 2399,1339 L 2399,1334 L 2402,1310 L 2403,1306 L 2410,1282 L 2412,1279 L 2424,1257 L 2427,1254 L 2443,1236 L 2446,1233 L 2466,1218 L 2470,1216 L 2492,1206 L 2496,1205 L 2520,1200 L 2524,1199 L 2549,1199 L 2553,1200 L 2577,1205 L 2581,1206 L 2604,1216 L 2607,1218 L 2627,1233 L 2630,1236 L 2647,1254 L 2649,1257 L 2662,1279 L 2663,1282 L 2671,1306 L 2672,1310 L 2674,1334 L 2674,1339 z " style="fill-opacity:0.600000;fill:rgb(115,81,255);stroke:rgb(0,0,0);stroke-width:2"/></g>
<g fill-rule="evenodd"><path d="M 1325,0 L 1349,0 L 1353,0 L 1378,5 L 1381,6 L 1404,17 L 1408,19 L 1428,33 L 1431,36 L 1447,54 L 1450,58 L 1462,79 L 1464,83 L 1471,106 L 1472,110 L 1475,135 L 1475,139 L 1472,163 L 1471,167 L 1464,191 L 1462,195 L 1450,216 L 1447,219 L 1431,238 L 1428,240 L 1408,255 L 1404,257 L 1381,267 L 1378,268 L 1353,273 L 1349,274 L 1325,274 L 1321,273 L 1296,268 L 1293,267 L 1270,257 L 1266,255 L 1246,240 L 1243,238 L 1227,219 L 1224,216 L 1212,195 L 1210,191 L 1203,167 L 1202,163 L 1199,139 L 1199,135 L 1202,110 L 1203,106 L 1210,83 L 1212,79 L 1224,58 L 1227,54 L 1243,36 L 1246,33 L 1266,19 L 1270,17 L 1293,6 L 1296,5 L 1321,0 L 1325,0 z " style="fill-opacity:0.600000;fill:rgb(74,236,41);stroke:rgb(0,0,0);stroke-width:2"/></g>
<g fill-rule="evenodd"><path d="M 283,480 L 286,477 L 286,477 L 336,427 L 339,424 L 343,422 L 346,421 L 352,421 L 356,422 L 360,424 L 364,427 L 366,429 L 367,431 L 371,437 L 373,440 L 377,446 L 379,449 L 384,454 L 385,455 L 419,489 L 420,490 L 425,495 L 428,497 L 434,501 L 437,503 L 443,507 L 445,508 L 447,510 L 450,514 L 452,518 L 453,522 L 453,526 L 452,531 L 450,535 L 450,535 L 1465,1550 L 1467,1552 L 1470,1556 L 1472,1560 L 1474,1565 L 1475,1570 L 1476,1575 L 1476,1578 L 1476,2259 L 1485,2264 L 1488,2266 L 1498,2275 L 1501,2278 L 1509,2289 L 1511,2292 L 1517,2304 L 1519,2308 L 1522,2321 L 1523,2325 L 1523,2339 L 1523,2343 L 1521,2356 L 1520,2360 L 1516,2373 L 1514,2376 L 1507,2388 L 1504,2391 L 1495,2401 L 1492,2403 L 1481,2411 L 1477,2413 L 1465,2418 L 1461,2419 L 1448,2422 L 1445,2422 L 1438,2423 L 1435,2423 L 1422,2421 L 1418,2421 L 1405,2417 L 1401,2415 L 1389,2408 L 1386,2406 L 1376,2397 L 1373,2394 L 1365,2384 L 1363,2380 L 1357,2368 L 1355,2364 L 1352,2351 L 1351,2347 L 1350,2334 L 1351,2330 L 1353,2317 L 1354,2313 L 1358,2300 L 1360,2296 L 1367,2285 L 1370,2282 L 1379,2272 L 1382,2269 L 1393,2262 L 1397,2260 L 1398,2259 L 1398,1594 L 394,591 L 394,591 L 390,593 L 385,594 L 381,594 L 377,593 L 373,591 L 369,588 L 286,505 L 283,501 L 281,497 L 280,493 L 280,488 L 281,484 L 283,480 z " style="fill-opacity:0.600000;fill:rgb(205,186,171);stroke:rgb(0,0,0);stroke-width:2"/></g>
<g fill-rule="evenodd"><path d="M 494,2393 L 487,2393 L 485,2392 L 481,2390 L 477,2388 L 427,2338 L 424,2334 L 423,2330 L 422,2328 L 422,2321 L 423,2317 L 424,2313 L 427,2310 L 430,2307 L 431,2307 L 438,2303 L 441,2301 L 447,2296 L 449,2294 L 455,2289 L 456,2288 L 489,2255 L 490,2254 L 495,2248 L 497,2246 L 502,2240 L 504,2237 L 507,2230 L 508,2229 L 511,2226 L 514,2224 L 518,2222 L 522,2221 L 527,2221 L 531,2222 L 535,2224 L 535,2224 L 766,1993 L 768,1992 L 772,1988 L 776,1986 L 781,1984 L 786,1983 L 791,1982 L 794,1982 L 1073,1982 L 1075,1982 L 1081,1983 L 1086,1984 L 1090,1986 L 1095,1988 L 1099,1992 L 1101,1993 L 1263,2156 L 1265,2157 L 1268,2162 L 1270,2166 L 1272,2171 L 1274,2176 L 1274,2181 L 1275,2183 L 1275,2258 L 1285,2264 L 1288,2266 L 1298,2275 L 1301,2278 L 1309,2289 L 1311,2292 L 1317,2304 L 1319,2308 L 1322,2321 L 1323,2325 L 1324,2339 L 1323,2343 L 1321,2356 L 1320,2360 L 1316,2373 L 1314,2376 L 1307,2388 L 1304,2391 L 1295,2401 L 1292,2403 L 1281,2411 L 1277,2413 L 1265,2418 L 1261,2419 L 1248,2422 L 1245,2422 L 1238,2423 L 1235,2423 L 1222,2421 L 1218,2421 L 1205,2417 L 1201,2415 L 1189,2408 L 1186,2406 L 1176,2397 L 1173,2394 L 1165,2384 L 1163,2380 L 1157,2368 L 1155,2364 L 1152,2351 L 1151,2347 L 1151,2334 L 1151,2330 L 1153,2317 L 1154,2313 L 1158,2300 L 1160,2296 L 1167,2285 L 1170,2282 L 1179,2272 L 1182,2269 L 1193,2262 L 1196,2260 L 1196,2200 L 1057,2060 L 810,2060 L 591,2279 L 591,2280 L 593,2284 L 594,2288 L 594,2292 L 593,2297 L 591,2301 L 589,2304 L 505,2388 L 502,2390 L 498,2392 L 494,2393 z " style="fill-opacity:0.600000;fill:rgb(242,251,227);stroke:rgb(0,0,0);stroke-width:2"/></g>
<g fill-rule="evenodd"><path d="M 2244,366 L 2243,366 L 2236,370 L 2233,372 L 2227,377 L 2225,379 L 2219,384 L 2218,385 L 2185,418 L 2184,419 L 2179,425 L 2177,427 L 2172,433 L 2170,436 L 2167,443 L 2166,444 L 2163,447 L 2160,449 L 2156,451 L 2152,452 L 2147,452 L 2143,451 L 2139,449 L 2139,449 L 1665,923 L 1665,2255 L 1669,2256 L 1673,2258 L 1685,2264 L 1688,2266 L 1698,2275 L 1701,2278 L 1709,2289 L 1711,2292 L 1717,2304 L 1719,2308 L 1722,2321 L 1723,2325 L 1723,2339 L 1723,2343 L 1721,2356 L 1720,2360 L 1715,2373 L 1714,2376 L 1707,2388 L 1704,2391 L 1695,2401 L 1692,2403 L 1681,2411 L 1677,2413 L 1665,2418 L 1661,2419 L 1648,2422 L 1645,2422 L 1638,2423 L 1635,2423 L 1621,2421 L 1618,2421 L 1605,2417 L 1601,2415 L 1589,2408 L 1586,2406 L 1576,2397 L 1573,2394 L 1565,2384 L 1562,2380 L 1557,2368 L 1555,2364 L 1552,2351 L 1551,2347 L 1550,2334 L 1551,2330 L 1553,2317 L 1554,2313 L 1558,2300 L 1560,2296 L 1567,2285 L 1570,2282 L 1579,2272 L 1582,2269 L 1586,2267 L 1586,907 L 1586,904 L 1587,899 L 1588,894 L 1590,890 L 1593,885 L 1596,881 L 1597,879 L 2083,394 L 2083,393 L 2081,389 L 2080,385 L 2080,380 L 2081,376 L 2083,372 L 2085,369 L 2169,285 L 2172,283 L 2176,281 L 2181,280 L 2185,280 L 2189,281 L 2193,283 L 2197,285 L 2247,335 L 2250,339 L 2251,343 L 2252,347 L 2252,351 L 2251,356 L 2250,360 L 2247,363 L 2244,366 z " style="fill-opacity:0.600000;fill:rgb(70,124,194);stroke:rgb(0,0,0);stroke-width:2"/></g>
<g fill-rule="evenodd"><path d="M 2300,2082 L 2305,2085 L 2305,2085 L 2388,2168 L 2391,2172 L 2393,2176 L 2393,2178 L 2394,2185 L 2393,2189 L 2391,2193 L 2388,2196 L 2338,2246 L 2335,2249 L 2331,2251 L 2326,2252 L 2322,2252 L 2318,2251 L 2314,2249 L 2310,2246 L 2308,2244 L 2307,2242 L 2303,2236 L 2301,2233 L 2297,2227 L 2295,2224 L 2290,2219 L 2289,2218 L 2255,2184 L 2254,2183 L 2249,2178 L 2246,2176 L 2240,2172 L 2237,2170 L 2231,2166 L 2229,2165 L 2227,2163 L 2224,2159 L 2222,2155 L 2221,2151 L 2221,2147 L 2222,2142 L 2224,2138 L 2224,2138 L 2145,2058 L 2022,2058 L 1876,2204 L 1876,2259 L 1885,2264 L 1888,2266 L 1898,2275 L 1901,2278 L 1909,2289 L 1911,2292 L 1917,2304 L 1919,2308 L 1922,2321 L 1923,2325 L 1923,2339 L 1923,2343 L 1921,2356 L 1920,2360 L 1915,2373 L 1914,2376 L 1907,2388 L 1904,2391 L 1895,2401 L 1892,2403 L 1881,2411 L 1877,2413 L 1865,2418 L 1861,2419 L 1848,2422 L 1845,2422 L 1838,2423 L 1835,2423 L 1821,2421 L 1818,2421 L 1805,2417 L 1801,2415 L 1789,2408 L 1786,2406 L 1776,2397 L 1773,2394 L 1765,2384 L 1762,2380 L 1756,2368 L 1755,2364 L 1752,2351 L 1751,2347 L 1750,2334 L 1751,2330 L 1753,2317 L 1754,2313 L 1758,2300 L 1760,2296 L 1767,2285 L 1770,2282 L 1779,2272 L 1782,2269 L 1793,2262 L 1797,2260 L 1798,2259 L 1798,2188 L 1798,2185 L 1798,2180 L 1800,2175 L 1802,2170 L 1804,2166 L 1807,2162 L 1809,2160 L 1978,1991 L 1980,1989 L 1984,1986 L 1988,1984 L 1993,1982 L 1998,1980 L 2003,1980 L 2006,1980 L 2161,1980 L 2163,1980 L 2169,1980 L 2173,1982 L 2178,1984 L 2183,1986 L 2187,1989 L 2189,1991 L 2280,2082 L 2280,2082 L 2284,2080 L 2289,2079 L 2293,2079 L 2297,2080 L 2300,2082 z " style="fill-opacity:0.600000;fill:rgb(84,248,27);stroke:rgb(0,0,0);stroke-width:2"/></g>
<g fill-rule="evenodd"><path d="M 983,2641 L 525,2641 L 523,2641 L 518,2641 L 514,2640 L 510,2639 L 507,2637 L 503,2635 L 500,2633 L 498,2631 L 497,2630 L 275,2409 L 274,2407 L 271,2403 L 268,2398 L 266,2393 L 265,2388 L 264,2383 L 264,2381 L 264,2229 L 264,2226 L 265,2221 L 266,2216 L 268,2211 L 271,2207 L 274,2203 L 275,2201 L 295,2182 L 295,2176 L 296,2172 L 298,2165 L 299,2161 L 303,2154 L 305,2151 L 309,2145 L 311,2143 L 344,2110 L 346,2109 L 352,2104 L 355,2102 L 362,2098 L 365,2097 L 373,2095 L 377,2094 L 384,2094 L 388,2094 L 395,2095 L 399,2096 L 406,2099 L 410,2101 L 416,2105 L 419,2107 L 425,2113 L 427,2116 L 431,2122 L 433,2126 L 436,2133 L 437,2137 L 438,2144 L 438,2148 L 438,2155 L 437,2160 L 435,2167 L 435,2168 L 433,2170 L 427,2176 L 425,2178 L 420,2183 L 419,2184 L 385,2218 L 384,2219 L 379,2224 L 376,2226 L 371,2232 L 369,2234 L 368,2234 L 360,2236 L 356,2237 L 351,2237 L 343,2245 L 343,2364 L 541,2563 L 966,2563 L 998,2531 L 998,2413 L 989,2408 L 986,2406 L 976,2397 L 973,2394 L 965,2384 L 963,2380 L 957,2368 L 955,2364 L 952,2351 L 951,2347 L 951,2334 L 951,2330 L 953,2317 L 954,2313 L 959,2300 L 960,2296 L 967,2285 L 970,2282 L 979,2272 L 982,2269 L 993,2262 L 997,2260 L 1009,2254 L 1013,2253 L 1026,2250 L 1029,2250 L 1036,2250 L 1039,2250 L 1053,2251 L 1056,2252 L 1069,2256 L 1073,2258 L 1085,2264 L 1088,2266 L 1098,2275 L 1101,2278 L 1109,2289 L 1112,2292 L 1117,2304 L 1119,2308 L 1122,2321 L 1123,2325 L 1124,2339 L 1123,2343 L 1121,2356 L 1120,2360 L 1116,2373 L 1114,2376 L 1107,2388 L 1104,2391 L 1095,2401 L 1092,2403 L 1081,2411 L 1077,2413 L 1076,2413 L 1076,2531 L 1107,2562 L 1856,2562 L 2101,2316 L 2099,2312 L 2097,2308 L 2095,2301 L 2095,2297 L 2094,2289 L 2095,2285 L 2096,2278 L 2097,2274 L 2099,2267 L 2101,2263 L 2105,2257 L 2108,2254 L 2113,2249 L 2116,2246 L 2123,2242 L 2126,2240 L 2133,2238 L 2137,2237 L 2144,2235 L 2149,2235 L 2156,2236 L 2160,2236 L 2167,2238 L 2169,2239 L 2171,2241 L 2171,2241 L 2176,2246 L 2176,2246 L 2178,2249 L 2178,2249 L 2184,2254 L 2185,2255 L 2218,2288 L 2219,2289 L 2224,2295 L 2225,2295 L 2227,2297 L 2227,2297 L 2232,2303 L 2232,2303 L 2234,2305 L 2235,2306 L 2237,2313 L 2237,2317 L 2238,2323 L 2281,2366 L 2391,2366 L 2473,2284 L 2473,2089 L 2290,1906 L 2288,1905 L 2285,1900 L 2283,1896 L 2281,1891 L 2279,1886 L 2279,1881 L 2278,1879 L 2278,578 L 2275,577 L 2268,574 L 2264,572 L 2258,568 L 2255,566 L 2249,560 L 2247,557 L 2243,551 L 2241,547 L 2238,540 L 2237,536 L 2236,529 L 2236,525 L 2236,518 L 2237,513 L 2239,506 L 2239,505 L 2241,503 L 2247,497 L 2249,495 L 2254,490 L 2255,489 L 2289,455 L 2290,454 L 2295,449 L 2298,447 L 2303,441 L 2305,439 L 2306,439 L 2314,437 L 2318,436 L 2323,436 L 2358,401 L 2358,319 L 2210,171 L 1749,171 L 1519,400 L 1517,402 L 1513,405 L 1509,408 L 1504,410 L 1499,411 L 1494,412 L 1491,412 L 571,412 L 569,416 L 566,419 L 561,424 L 558,427 L 551,431 L 548,433 L 541,435 L 537,436 L 530,438 L 525,438 L 518,437 L 514,437 L 507,435 L 505,434 L 503,432 L 503,432 L 498,427 L 498,427 L 496,424 L 496,424 L 490,419 L 489,418 L 456,385 L 455,384 L 449,378 L 449,378 L 447,376 L 447,376 L 442,370 L 442,370 L 440,368 L 439,367 L 437,360 L 437,356 L 436,348 L 436,344 L 438,337 L 439,333 L 441,326 L 443,322 L 447,316 L 450,313 L 455,308 L 458,305 L 464,301 L 468,299 L 475,297 L 479,296 L 486,294 L 490,294 L 498,295 L 502,295 L 509,297 L 513,299 L 519,302 L 523,304 L 529,309 L 530,310 L 553,333 L 1475,333 L 1705,104 L 1706,102 L 1709,100 L 1712,98 L 1715,96 L 1718,95 L 1722,94 L 1726,93 L 1730,92 L 1732,92 L 2226,92 L 2229,92 L 2234,93 L 2239,94 L 2244,96 L 2248,99 L 2252,102 L 2254,104 L 2425,275 L 2427,277 L 2430,281 L 2433,285 L 2435,290 L 2436,295 L 2437,300 L 2437,303 L 2437,418 L 2437,420 L 2436,425 L 2435,430 L 2433,435 L 2430,439 L 2427,443 L 2425,445 L 2379,491 L 2379,497 L 2378,501 L 2376,508 L 2375,512 L 2371,519 L 2369,522 L 2365,528 L 2363,530 L 2357,536 L 2357,1862 L 2540,2045 L 2541,2046 L 2543,2049 L 2545,2052 L 2547,2055 L 2549,2059 L 2550,2063 L 2551,2067 L 2551,2071 L 2551,2073 L 2551,2301 L 2551,2303 L 2551,2308 L 2549,2313 L 2547,2318 L 2545,2323 L 2542,2327 L 2540,2329 L 2435,2433 L 2433,2435 L 2429,2438 L 2425,2441 L 2420,2443 L 2415,2444 L 2410,2445 L 2407,2445 L 2265,2445 L 2262,2445 L 2257,2444 L 2252,2443 L 2247,2441 L 2243,2438 L 2239,2435 L 2237,2433 L 2182,2379 L 2176,2378 L 2172,2378 L 2165,2376 L 2161,2374 L 2157,2372 L 1900,2629 L 1898,2631 L 1894,2634 L 1889,2636 L 1885,2638 L 1880,2640 L 1875,2640 L 1872,2640 L 1090,2640 L 1088,2640 L 1083,2640 L 1078,2638 L 1073,2636 L 1069,2634 L 1065,2631 L 1063,2629 L 1037,2603 L 1010,2630 L 1008,2632 L 1004,2635 L 1000,2637 L 995,2639 L 990,2641 L 985,2641 L 983,2641 z " style="fill-opacity:0.600000;fill:rgb(232,231,141);stroke:rgb(0,0,0);stroke-width:2"/></g>
<g fill-rule="evenodd"><path d="M 1519,400 L 1737,182 L 1739,181 L 1743,178 L 1748,175 L 1752,173 L 1757,172 L 1762,171 L 1765,171 L 2194,171 L 2196,171 L 2201,172 L 2206,173 L 2211,175 L 2215,178 L 2220,181 L 2221,182 L 2346,307 L 2348,309 L 2351,313 L 2354,318 L 2356,323 L 2357,328 L 2358,333 L 2358,335 L 2358,355 L 2358,357 L 2357,363 L 2356,368 L 2354,372 L 2351,377 L 2348,381 L 2346,383 L 2308,421 L 2308,427 L 2307,431 L 2306,438 L 2305,439 L 2303,441 L 2298,447 L 2295,449 L 2290,454 L 2289,455 L 2255,489 L 2254,490 L 2249,495 L 2247,497 L 2241,503 L 2239,505 L 2238,505 L 2231,507 L 2229,508 L 2229,1898 L 2461,2130 L 2463,2132 L 2466,2136 L 2469,2140 L 2471,2145 L 2472,2150 L 2473,2155 L 2473,2158 L 2473,2268 L 2473,2271 L 2472,2276 L 2471,2281 L 2469,2286 L 2466,2290 L 2463,2294 L 2461,2296 L 2419,2338 L 2417,2340 L 2413,2343 L 2409,2345 L 2404,2347 L 2399,2349 L 2394,2349 L 2391,2350 L 2311,2350 L 2309,2349 L 2304,2349 L 2300,2348 L 2297,2347 L 2293,2345 L 2289,2343 L 2286,2341 L 2284,2339 L 2283,2338 L 2253,2308 L 2247,2308 L 2243,2307 L 2236,2305 L 2234,2305 L 2232,2303 L 2232,2303 L 2227,2297 L 2227,2297 L 2225,2295 L 2224,2295 L 2219,2289 L 2218,2288 L 2185,2255 L 2184,2254 L 2178,2249 L 2178,2249 L 2176,2246 L 2176,2246 L 2171,2241 L 2171,2241 L 2169,2239 L 2168,2237 L 2166,2230 L 2165,2226 L 2165,2219 L 2165,2215 L 2166,2207 L 2168,2203 L 2170,2196 L 2172,2193 L 2176,2187 L 2179,2183 L 2184,2178 L 2187,2176 L 2193,2172 L 2197,2170 L 2204,2167 L 2208,2166 L 2215,2165 L 2219,2165 L 2227,2165 L 2229,2165 L 2231,2166 L 2237,2170 L 2240,2172 L 2246,2176 L 2249,2178 L 2254,2183 L 2255,2184 L 2289,2218 L 2290,2219 L 2295,2224 L 2297,2227 L 2301,2233 L 2303,2236 L 2307,2242 L 2308,2244 L 2308,2246 L 2308,2252 L 2327,2271 L 2375,2271 L 2394,2252 L 2394,2174 L 2162,1942 L 2160,1940 L 2157,1936 L 2154,1931 L 2152,1927 L 2151,1922 L 2150,1917 L 2150,1914 L 2150,484 L 2150,481 L 2151,476 L 2152,471 L 2154,467 L 2157,462 L 2160,458 L 2162,456 L 2165,453 L 2165,447 L 2166,444 L 2167,443 L 2170,436 L 2172,433 L 2177,427 L 2179,425 L 2184,419 L 2185,418 L 2218,385 L 2219,384 L 2225,379 L 2227,377 L 2233,372 L 2236,370 L 2243,366 L 2244,366 L 2247,365 L 2253,365 L 2273,345 L 2177,250 L 1781,250 L 1519,512 L 1517,514 L 1513,517 L 1509,519 L 1504,521 L 1499,523 L 1494,523 L 1491,523 L 485,523 L 482,523 L 477,523 L 472,521 L 467,519 L 463,517 L 459,514 L 457,512 L 453,508 L 447,508 L 445,508 L 443,507 L 437,503 L 434,501 L 428,497 L 425,495 L 420,490 L 419,489 L 385,455 L 384,454 L 379,449 L 377,446 L 373,440 L 371,437 L 367,431 L 366,429 L 366,427 L 366,421 L 342,421 L 205,557 L 205,846 L 507,1147 L 508,1148 L 510,1151 L 512,1154 L 514,1157 L 516,1161 L 517,1166 L 518,1170 L 518,1173 L 518,1175 L 518,2194 L 518,2197 L 518,2202 L 516,2207 L 514,2212 L 512,2216 L 509,2220 L 509,2226 L 508,2229 L 507,2230 L 504,2237 L 502,2240 L 497,2246 L 495,2248 L 490,2254 L 489,2255 L 456,2288 L 455,2289 L 449,2294 L 447,2296 L 441,2301 L 438,2303 L 431,2307 L 430,2307 L 427,2308 L 421,2308 L 421,2332 L 483,2393 L 618,2393 L 703,2308 L 705,2307 L 709,2304 L 713,2301 L 718,2299 L 723,2298 L 728,2297 L 731,2297 L 751,2297 L 751,2269 L 751,2265 L 752,2261 L 755,2257 L 758,2254 L 762,2252 L 766,2250 L 770,2250 L 904,2250 L 908,2250 L 913,2252 L 916,2254 L 919,2257 L 922,2261 L 923,2265 L 924,2269 L 924,2403 L 923,2408 L 922,2412 L 919,2415 L 916,2419 L 913,2421 L 908,2422 L 904,2423 L 770,2423 L 766,2422 L 762,2421 L 758,2419 L 755,2415 L 752,2412 L 751,2408 L 751,2403 L 751,2376 L 747,2376 L 662,2461 L 661,2462 L 657,2465 L 654,2467 L 650,2469 L 647,2470 L 644,2471 L 640,2472 L 636,2472 L 634,2472 L 467,2472 L 464,2472 L 459,2471 L 454,2470 L 449,2468 L 445,2465 L 441,2462 L 439,2461 L 354,2376 L 353,2374 L 349,2370 L 347,2366 L 345,2361 L 344,2356 L 343,2351 L 343,2348 L 343,2291 L 343,2289 L 344,2284 L 345,2279 L 347,2274 L 349,2270 L 353,2266 L 354,2264 L 366,2252 L 366,2246 L 366,2242 L 368,2235 L 369,2234 L 371,2232 L 376,2226 L 379,2224 L 384,2219 L 385,2218 L 419,2184 L 420,2183 L 425,2178 L 427,2176 L 433,2170 L 435,2168 L 436,2168 L 440,2167 L 440,1191 L 138,890 L 136,888 L 133,884 L 131,879 L 129,874 L 127,869 L 127,864 L 127,862 L 127,541 L 127,538 L 127,533 L 129,528 L 131,524 L 133,519 L 136,515 L 138,513 L 298,354 L 299,352 L 304,349 L 308,346 L 313,344 L 318,343 L 323,342 L 325,342 L 382,342 L 385,342 L 390,343 L 395,344 L 399,346 L 404,349 L 408,352 L 410,354 L 421,365 L 427,365 L 431,366 L 438,368 L 440,368 L 442,370 L 442,370 L 447,376 L 447,376 L 449,378 L 449,378 L 455,384 L 456,385 L 489,418 L 490,419 L 496,424 L 496,424 L 498,427 L 498,427 L 503,432 L 503,432 L 505,434 L 506,436 L 508,443 L 508,445 L 1475,445 L 1519,400 z " style="fill-opacity:0.600000;fill:rgb(118,90,46);stroke:rgb(0,0,0);stroke-width:2"/></g>
<g fill-rule="evenodd"><path d="M 255,1336 L 253,1361 L 245,1385 L 233,1406 L 216,1424 L 196,1439 L 174,1449 L 150,1454 L 125,1454 L 101,1449 L 78,1439 L 58,1424 L 42,1406 L 29,1385 L 22,1361 L 19,1336 L 22,1312 L 29,1288 L 42,1267 L 58,1249 L 78,1234 L 101,1224 L 125,1219 L 150,1219 L 174,1224 L 196,1234 L 216,1249 L 233,1267 L 245,1288 L 253,1312 L 255,1336 z " style="fill-opacity:1.000000;fill:rgb(103,198,105);stroke:rgb(0,0,0);stroke-width:2"/></g>
<g fill-rule="evenodd"><path d="M 2655,1336 L 2652,1361 L 2645,1385 L 2632,1406 L 2616,1424 L 2596,1439 L 2573,1449 L 2549,1454 L 2524,1454 L 2500,1449 L 2478,1439 L 2458,1424 L 2441,1406 L 2429,1385 L 2421,1361 L 2419,1336 L 2421,1312 L 2429,1288 L 2441,1267 L 2458,1249 L 2478,1234 L 2500,1224 L 2524,1219 L 2549,1219 L 2573,1224 L 2596,1234 L 2616,1249 L 2632,1267 L 2645,1288 L 2652,1312 L 2655,1336 z " style="fill-opacity:1.000000;fill:rgb(115,81,255);stroke:rgb(0,0,0);stroke-width:2"/></g>
<g fill-rule="evenodd"><path d="M 1455,137 L 1453,161 L 1445,185 L 1433,206 L 1416,225 L 1396,239 L 1373,249 L 1349,254 L 1325,254 L 1301,249 L 1278,239 L 1258,225 L 1241,206 L 1229,185 L 1221,161 L 1219,137 L 1221,112 L 1229,89 L 1241,67 L 1258,49 L 1278,34 L 1301,24 L 1325,19 L 1349,19 L 1373,24 L 1396,34 L 1416,49 L 1433,67 L 1445,89 L 1453,112 L 1455,137 z " style="fill-opacity:1.000000;fill:rgb(74,236,41);stroke:rgb(0,0,0);stroke-width:2"/></g>
<g fill-rule="evenodd"><path d="M 394,563 L 383,574 L 300,491 L 350,441 L 433,524 L 422,535 L 1451,1564 L 1454,1568 L 1456,1573 L 1457,1578 L 1457,2273 L 1463,2275 L 1475,2281 L 1485,2290 L 1494,2301 L 1500,2313 L 1503,2326 L 1504,2340 L 1502,2353 L 1497,2366 L 1490,2377 L 1481,2387 L 1469,2395 L 1457,2400 L 1444,2403 L 1437,2403 L 1424,2402 L 1411,2398 L 1399,2391 L 1388,2382 L 1380,2372 L 1374,2360 L 1371,2346 L 1370,2333 L 1372,2320 L 1377,2307 L 1384,2295 L 1393,2286 L 1405,2278 L 1417,2272 L 1417,1586 L 394,563 z " style="fill-opacity:1.000000;fill:rgb(205,186,171);stroke:rgb(0,0,0);stroke-width:2"/></g>
<g fill-rule="evenodd"><path d="M 564,2279 L 575,2290 L 491,2374 L 441,2324 L 525,2240 L 536,2251 L 780,2007 L 784,2004 L 789,2002 L 794,2001 L 1073,2001 L 1078,2002 L 1083,2004 L 1087,2007 L 1249,2169 L 1252,2174 L 1254,2178 L 1255,2183 L 1255,2272 L 1263,2275 L 1275,2281 L 1286,2290 L 1294,2301 L 1300,2313 L 1303,2326 L 1304,2340 L 1302,2353 L 1297,2366 L 1290,2377 L 1281,2387 L 1269,2395 L 1257,2400 L 1244,2403 L 1237,2403 L 1224,2402 L 1211,2398 L 1199,2391 L 1189,2382 L 1180,2372 L 1174,2360 L 1171,2346 L 1170,2333 L 1172,2320 L 1177,2307 L 1184,2295 L 1193,2286 L 1205,2278 L 1216,2273 L 1216,2192 L 1065,2041 L 802,2041 L 564,2279 z " style="fill-opacity:1.000000;fill:rgb(242,251,227);stroke:rgb(0,0,0);stroke-width:2"/></g>
<g fill-rule="evenodd"><path d="M 1605,2277 L 1605,907 L 1606,902 L 1608,897 L 1611,893 L 2110,394 L 2099,383 L 2183,299 L 2233,349 L 2149,433 L 2138,422 L 1645,915 L 1645,2270 L 1650,2271 L 1663,2275 L 1675,2281 L 1685,2290 L 1694,2301 L 1700,2313 L 1703,2326 L 1704,2340 L 1702,2353 L 1697,2366 L 1690,2377 L 1681,2387 L 1669,2395 L 1657,2400 L 1644,2403 L 1637,2403 L 1623,2402 L 1611,2398 L 1599,2391 L 1588,2382 L 1580,2372 L 1574,2360 L 1571,2346 L 1570,2333 L 1572,2320 L 1577,2307 L 1584,2295 L 1593,2286 L 1604,2278 L 1605,2277 z " style="fill-opacity:1.000000;fill:rgb(70,124,194);stroke:rgb(0,0,0);stroke-width:2"/></g>
<g fill-rule="evenodd"><path d="M 1857,2273 L 1863,2275 L 1875,2281 L 1885,2290 L 1894,2301 L 1900,2313 L 1903,2326 L 1904,2340 L 1902,2353 L 1897,2366 L 1890,2377 L 1880,2387 L 1869,2395 L 1857,2400 L 1844,2403 L 1837,2403 L 1823,2402 L 1811,2398 L 1799,2391 L 1788,2382 L 1780,2372 L 1774,2360 L 1771,2346 L 1770,2333 L 1772,2320 L 1777,2307 L 1784,2295 L 1793,2286 L 1804,2278 L 1817,2272 L 1817,2188 L 1818,2183 L 1820,2178 L 1823,2174 L 1992,2005 L 1996,2002 L 2000,2000 L 2006,1999 L 2161,1999 L 2166,2000 L 2171,2002 L 2175,2005 L 2280,2110 L 2291,2099 L 2374,2182 L 2324,2232 L 2241,2149 L 2252,2138 L 2153,2039 L 2014,2039 L 1857,2196 L 1857,2273 z " style="fill-opacity:1.000000;fill:rgb(84,248,27);stroke:rgb(0,0,0);stroke-width:2"/></g>
<g fill-rule="evenodd"><path d="M 545,353 L 1483,353 L 1719,118 L 1722,115 L 1724,114 L 1728,112 L 1732,112 L 2226,112 L 2231,113 L 2236,114 L 2240,118 L 2411,289 L 2414,293 L 2416,298 L 2417,303 L 2417,418 L 2416,423 L 2414,427 L 2411,431 L 2359,484 L 2360,489 L 2359,496 L 2357,503 L 2354,510 L 2349,516 L 2337,528 L 2337,1870 L 2526,2059 L 2528,2061 L 2530,2065 L 2531,2069 L 2532,2073 L 2532,2301 L 2531,2306 L 2529,2311 L 2526,2315 L 2421,2419 L 2417,2423 L 2412,2425 L 2407,2425 L 2265,2425 L 2260,2425 L 2255,2423 L 2251,2419 L 2190,2358 L 2185,2359 L 2177,2359 L 2170,2357 L 2164,2353 L 2158,2349 L 2155,2346 L 1886,2615 L 1882,2618 L 1877,2620 L 1872,2621 L 1090,2621 L 1085,2620 L 1081,2618 L 1077,2615 L 1037,2575 L 996,2616 L 992,2619 L 988,2621 L 983,2622 L 525,2622 L 520,2621 L 517,2620 L 513,2618 L 511,2616 L 289,2395 L 286,2391 L 284,2386 L 284,2381 L 284,2229 L 284,2224 L 286,2219 L 289,2215 L 315,2189 L 314,2184 L 315,2177 L 317,2170 L 320,2163 L 325,2157 L 358,2124 L 364,2119 L 371,2116 L 378,2114 L 385,2114 L 392,2115 L 399,2117 L 405,2121 L 411,2127 L 415,2133 L 417,2140 L 419,2147 L 418,2154 L 416,2162 L 413,2168 L 408,2174 L 375,2207 L 369,2212 L 362,2215 L 355,2217 L 348,2218 L 343,2217 L 323,2237 L 323,2373 L 533,2582 L 974,2582 L 1017,2539 L 1017,2400 L 1011,2398 L 999,2391 L 989,2382 L 980,2372 L 974,2360 L 971,2346 L 970,2333 L 972,2320 L 977,2307 L 984,2295 L 993,2286 L 1005,2278 L 1017,2272 L 1030,2270 L 1037,2269 L 1051,2271 L 1063,2275 L 1075,2281 L 1086,2290 L 1094,2301 L 1100,2313 L 1103,2326 L 1104,2340 L 1102,2353 L 1097,2366 L 1090,2377 L 1081,2387 L 1070,2395 L 1057,2400 L 1057,2540 L 1099,2581 L 1864,2581 L 2127,2318 L 2124,2315 L 2120,2310 L 2116,2303 L 2114,2296 L 2114,2288 L 2115,2281 L 2118,2274 L 2122,2268 L 2127,2263 L 2133,2259 L 2140,2256 L 2148,2255 L 2155,2255 L 2162,2257 L 2169,2261 L 2174,2265 L 2208,2299 L 2213,2304 L 2216,2311 L 2218,2318 L 2218,2326 L 2217,2330 L 2273,2386 L 2399,2386 L 2492,2293 L 2492,2081 L 2304,1893 L 2301,1888 L 2299,1884 L 2298,1879 L 2298,559 L 2296,559 L 2289,559 L 2282,558 L 2275,556 L 2269,552 L 2263,546 L 2259,540 L 2257,533 L 2255,526 L 2256,519 L 2258,511 L 2261,505 L 2266,499 L 2299,466 L 2305,461 L 2311,458 L 2319,456 L 2326,455 L 2331,456 L 2378,409 L 2378,311 L 2218,151 L 1741,151 L 1505,386 L 1501,390 L 1497,392 L 1491,392 L 559,392 L 556,399 L 552,405 L 547,410 L 541,414 L 534,417 L 526,418 L 519,418 L 512,416 L 505,412 L 500,408 L 466,374 L 461,369 L 458,362 L 456,355 L 456,347 L 457,340 L 460,333 L 464,327 L 469,322 L 475,318 L 482,315 L 489,314 L 497,314 L 504,316 L 510,320 L 516,324 L 545,353 z " style="fill-opacity:1.000000;fill:rgb(232,231,141);stroke:rgb(0,0,0);stroke-width:2"/></g>
<g fill-rule="evenodd"><path d="M 459,2185 L 459,1183 L 152,876 L 149,872 L 147,867 L 146,862 L 146,541 L 147,536 L 149,531 L 152,527 L 311,368 L 316,364 L 320,363 L 325,362 L 382,362 L 387,363 L 392,364 L 396,368 L 414,385 L 419,385 L 426,385 L 433,387 L 440,390 L 446,395 L 479,428 L 484,434 L 487,441 L 489,448 L 489,455 L 488,460 L 493,464 L 1483,464 L 1751,196 L 1755,193 L 1760,191 L 1765,191 L 2194,191 L 2199,191 L 2203,193 L 2208,196 L 2333,321 L 2336,325 L 2338,330 L 2338,335 L 2338,355 L 2338,360 L 2336,365 L 2333,369 L 2288,413 L 2289,418 L 2288,426 L 2287,433 L 2283,439 L 2279,445 L 2245,478 L 2239,483 L 2233,486 L 2226,488 L 2218,489 L 2213,488 L 2209,492 L 2209,1906 L 2447,2144 L 2450,2148 L 2452,2153 L 2453,2158 L 2453,2268 L 2452,2273 L 2450,2278 L 2447,2282 L 2405,2324 L 2401,2327 L 2396,2329 L 2391,2330 L 2311,2330 L 2307,2329 L 2303,2328 L 2299,2326 L 2297,2324 L 2260,2288 L 2255,2288 L 2248,2288 L 2241,2286 L 2234,2283 L 2228,2278 L 2195,2245 L 2190,2239 L 2187,2232 L 2185,2225 L 2185,2218 L 2186,2210 L 2189,2204 L 2193,2197 L 2198,2192 L 2204,2188 L 2211,2185 L 2218,2184 L 2226,2185 L 2233,2187 L 2239,2190 L 2245,2195 L 2279,2228 L 2283,2234 L 2287,2240 L 2288,2247 L 2289,2255 L 2288,2260 L 2319,2290 L 2383,2290 L 2414,2260 L 2414,2166 L 2176,1928 L 2172,1924 L 2170,1919 L 2170,1914 L 2170,484 L 2170,479 L 2172,474 L 2176,470 L 2186,460 L 2185,455 L 2185,448 L 2187,441 L 2190,434 L 2195,428 L 2228,395 L 2234,390 L 2241,387 L 2248,385 L 2255,385 L 2260,385 L 2299,347 L 2299,343 L 2185,230 L 1773,230 L 1505,498 L 1501,501 L 1496,503 L 1491,504 L 485,504 L 479,503 L 475,501 L 471,498 L 461,488 L 456,489 L 448,488 L 441,486 L 435,483 L 429,478 L 395,445 L 391,439 L 387,433 L 386,426 L 385,418 L 386,413 L 374,401 L 333,401 L 186,549 L 186,854 L 493,1161 L 495,1163 L 497,1167 L 499,1172 L 499,1175 L 499,2194 L 498,2199 L 496,2204 L 493,2208 L 488,2213 L 489,2218 L 489,2225 L 487,2232 L 484,2239 L 479,2245 L 446,2278 L 440,2283 L 433,2286 L 426,2288 L 419,2288 L 414,2288 L 402,2300 L 402,2340 L 475,2413 L 626,2413 L 717,2322 L 721,2319 L 726,2317 L 731,2317 L 770,2317 L 770,2269 L 904,2269 L 904,2403 L 770,2403 L 770,2356 L 739,2356 L 648,2447 L 645,2449 L 641,2451 L 638,2452 L 634,2453 L 467,2453 L 462,2452 L 457,2450 L 453,2447 L 368,2362 L 365,2358 L 363,2353 L 362,2348 L 362,2291 L 363,2286 L 365,2282 L 368,2278 L 386,2260 L 385,2255 L 386,2247 L 387,2240 L 391,2234 L 395,2228 L 429,2195 L 435,2190 L 441,2187 L 448,2185 L 456,2184 L 459,2185 z " style="fill-opacity:1.000000;fill:rgb(118,90,46);stroke:rgb(0,0,0);stroke-width:2"/></g>
</svg>
