<?xml version="1.0" standalone="no"?>
<!DOCTYPE svg PUBLIC "-//W3C//DTD SVG 1.1//EN"
"http://www.w3.org/Graphics/SVG/1.1/DTD/svg11.dtd">
<svg width="3293" height="3276" viewBox="0 0 3293 3276" version="1.1"
xmlns="http://www.w3.org/2000/svg"
xmlns:xlink="http://www.w3.org/1999/xlink">
<g fill-rule="evenodd"><path d="M 0,3275 L 0,0 L 3293,0 L 3293,3275 L 0,3275 z " style="fill-opacity:0.300000;fill:rgb(103,198,105);"/></g>
<g fill-rule="evenodd"><path d="M 1484,7 L 1810,8 L 1826,9 L 2144,77 L 2159,82 L 2458,215 L 2473,223 L 2736,414 L 2748,425 L 2966,667 L 2976,681 L 3139,964 L 3146,979 L 3247,1288 L 3250,1304 L 3284,1629 L 3284,1645 L 3250,1971 L 3247,1987 L 3146,2296 L 3139,2311 L 2977,2593 L 2967,2607 L 2749,2849 L 2736,2860 L 2472,3052 L 2457,3061 L 2159,3193 L 2144,3198 L 1825,3266 L 1808,3268 L 1484,3268 L 1467,3266 L 1148,3198 L 1133,3193 L 834,3060 L 819,3052 L 556,2861 L 544,2850 L 326,2608 L 316,2594 L 153,2311 L 146,2296 L 45,1987 L 42,1971 L 8,1646 L 8,1630 L 42,1304 L 45,1288 L 146,979 L 153,964 L 315,682 L 325,668 L 543,426 L 556,415 L 820,223 L 835,214 L 1133,82 L 1148,77 L 1467,9 L 1484,7 z " style="fill-opacity:0.600000;fill:rgb(103,198,105);stroke:rgb(0,0,0);stroke-width:2"/></g>
<g fill-rule="evenodd"><path d="M 1484,86 L 1810,86 L 2127,154 L 2426,287 L 2689,478 L 2908,720 L 3071,1004 L 3172,1313 L 3206,1637 L 3172,1962 L 3071,2271 L 2908,2554 L 2690,2796 L 2425,2989 L 2127,3121 L 1808,3189 L 1484,3189 L 1165,3121 L 866,2988 L 603,2797 L 384,2555 L 221,2271 L 120,1962 L 86,1638 L 120,1313 L 221,1004 L 384,721 L 602,479 L 867,286 L 1165,154 L 1484,86 z " style="fill-opacity:1.000000;fill:rgb(103,198,105);stroke:rgb(0,0,0);stroke-width:2"/></g>
</svg>
