M48
INCH,TZ
T1C0.024
T2C0.031
T3C0.039
T4C0.120
%
G90
G05
T1
X2.5646Y-3.2354
X2.5646Y-4.0646
X2.6Y-3.2
X2.6Y-4.1
X2.6354Y-3.1646
X2.6354Y-4.1354
X3.4646Y-3.1646
X3.4646Y-4.1354
X3.5Y-3.2
X3.5Y-4.1
X3.5354Y-3.2354
X3.5354Y-4.0646
T2
X3.Y-4.3
X3.0984Y-4.3
T3
X2.8Y-4.15
X2.9Y-4.15
X3.Y-4.15
X3.1Y-4.15
X3.2Y-4.15
X3.3Y-4.15
T4
X2.4Y-3.65
X3.05Y-3.
X3.7Y-3.65
T0
M30
