G04 #@! TF.FileFunction,Legend,Bot*
%FSLAX46Y46*%
G04 Gerber Fmt 4.6, Leading zero omitted, Abs format (unit mm)*
G04 Created by KiCad (PCBNEW 4.0.6-e0-6349~53~ubuntu14.04.1) date Wed May 31 16:50:28 2017*
%MOMM*%
%LPD*%
G01*
G04 APERTURE LIST*
%ADD10C,0.100000*%
%ADD11C,0.120000*%
%ADD12C,0.150000*%
G04 APERTURE END LIST*
D10*
D11*
X75490000Y-110580000D02*
X79410000Y-110580000D01*
X75490000Y-107860000D02*
X79410000Y-107860000D01*
X75490000Y-110580000D02*
X75490000Y-109970000D01*
X75490000Y-108470000D02*
X75490000Y-107860000D01*
X79410000Y-110580000D02*
X79410000Y-109970000D01*
X79410000Y-108470000D02*
X79410000Y-107860000D01*
X72390000Y-104080000D02*
X85150000Y-104080000D01*
X85150000Y-104080000D02*
X85150000Y-106740000D01*
X85150000Y-106740000D02*
X72390000Y-106740000D01*
X72390000Y-106740000D02*
X72390000Y-104080000D01*
X71120000Y-104080000D02*
X69790000Y-104080000D01*
X69790000Y-104080000D02*
X69790000Y-105410000D01*
D12*
X77616666Y-111937143D02*
X77664285Y-111984762D01*
X77807142Y-112032381D01*
X77902380Y-112032381D01*
X78045238Y-111984762D01*
X78140476Y-111889524D01*
X78188095Y-111794286D01*
X78235714Y-111603810D01*
X78235714Y-111460952D01*
X78188095Y-111270476D01*
X78140476Y-111175238D01*
X78045238Y-111080000D01*
X77902380Y-111032381D01*
X77807142Y-111032381D01*
X77664285Y-111080000D01*
X77616666Y-111127619D01*
X76664285Y-112032381D02*
X77235714Y-112032381D01*
X76950000Y-112032381D02*
X76950000Y-111032381D01*
X77045238Y-111175238D01*
X77140476Y-111270476D01*
X77235714Y-111318095D01*
X68242381Y-105076667D02*
X68956667Y-105076667D01*
X69099524Y-105029047D01*
X69194762Y-104933809D01*
X69242381Y-104790952D01*
X69242381Y-104695714D01*
X69242381Y-106076667D02*
X69242381Y-105505238D01*
X69242381Y-105790952D02*
X68242381Y-105790952D01*
X68385238Y-105695714D01*
X68480476Y-105600476D01*
X68528095Y-105505238D01*
M02*
