G04 #@! TF.FileFunction,Copper,L1,Top,Signal*
%FSLAX46Y46*%
G04 Gerber Fmt 4.6, Leading zero omitted, Abs format (unit mm)*
G04 Created by KiCad (PCBNEW 4.0.6-e0-6349~53~ubuntu14.04.1) date Wed May 31 16:50:28 2017*
%MOMM*%
%LPD*%
G01*
G04 APERTURE LIST*
%ADD10C,0.100000*%
%ADD11C,0.900000*%
%ADD12C,1.600000*%
%ADD13C,4.064000*%
%ADD14R,1.700000X1.700000*%
%ADD15O,1.700000X1.700000*%
%ADD16C,0.254000*%
G04 APERTURE END LIST*
D10*
D11*
X66252132Y-81492132D02*
X65827868Y-81067868D01*
X67150157Y-80594107D02*
X66725893Y-80169843D01*
D10*
G36*
X64929842Y-81329498D02*
X65990502Y-82390158D01*
X65354106Y-83026554D01*
X64293446Y-81965894D01*
X64929842Y-81329498D01*
X64929842Y-81329498D01*
G37*
D11*
X66252132Y-103927868D02*
X65827868Y-104352132D01*
X65354107Y-103029843D02*
X64929843Y-103454107D01*
D10*
G36*
X66089498Y-105250158D02*
X67150158Y-104189498D01*
X67786554Y-104825894D01*
X66725894Y-105886554D01*
X66089498Y-105250158D01*
X66089498Y-105250158D01*
G37*
D12*
X76200000Y-109220000D03*
X78700000Y-109220000D03*
D11*
X88687868Y-103927868D02*
X89112132Y-104352132D01*
X87789843Y-104825893D02*
X88214107Y-105250157D01*
D10*
G36*
X90010158Y-104090502D02*
X88949498Y-103029842D01*
X89585894Y-102393446D01*
X90646554Y-103454106D01*
X90010158Y-104090502D01*
X90010158Y-104090502D01*
G37*
D11*
X88687868Y-81492132D02*
X89112132Y-81067868D01*
X89585893Y-82390157D02*
X90010157Y-81965893D01*
D10*
G36*
X88850502Y-80169842D02*
X87789842Y-81230502D01*
X87153446Y-80594106D01*
X88214106Y-79533446D01*
X88850502Y-80169842D01*
X88850502Y-80169842D01*
G37*
D13*
X60960000Y-92710000D03*
X93980000Y-92710000D03*
X77470000Y-76200000D03*
D14*
X71120000Y-105410000D03*
D15*
X73660000Y-105410000D03*
X76200000Y-105410000D03*
X78740000Y-105410000D03*
X81280000Y-105410000D03*
X83820000Y-105410000D03*
D16*
X65743015Y-102640935D02*
X65141975Y-103241975D01*
X89798025Y-82178025D02*
X89196985Y-82779065D01*
X67539065Y-80983015D02*
X66938025Y-80381975D01*
X88001975Y-105038025D02*
X87400935Y-104436985D01*
M02*
