G04 #@! TF.FileFunction,Paste,Bot*
%FSLAX46Y46*%
G04 Gerber Fmt 4.6, Leading zero omitted, Abs format (unit mm)*
G04 Created by KiCad (PCBNEW 4.0.6-e0-6349~53~ubuntu14.04.1) date Wed May 31 16:50:28 2017*
%MOMM*%
%LPD*%
G01*
G04 APERTURE LIST*
%ADD10C,0.100000*%
%ADD11C,0.300000*%
G04 APERTURE END LIST*
D10*
D11*
X91082857Y-95918571D02*
X91082857Y-94418571D01*
X90511429Y-94418571D01*
X90368571Y-94490000D01*
X90297143Y-94561429D01*
X90225714Y-94704286D01*
X90225714Y-94918571D01*
X90297143Y-95061429D01*
X90368571Y-95132857D01*
X90511429Y-95204286D01*
X91082857Y-95204286D01*
X89011429Y-95847143D02*
X89154286Y-95918571D01*
X89440000Y-95918571D01*
X89582857Y-95847143D01*
X89654286Y-95704286D01*
X89654286Y-95132857D01*
X89582857Y-94990000D01*
X89440000Y-94918571D01*
X89154286Y-94918571D01*
X89011429Y-94990000D01*
X88940000Y-95132857D01*
X88940000Y-95275714D01*
X89654286Y-95418571D01*
X88297143Y-94918571D02*
X88297143Y-95918571D01*
X88297143Y-95061429D02*
X88225715Y-94990000D01*
X88082857Y-94918571D01*
X87868572Y-94918571D01*
X87725715Y-94990000D01*
X87654286Y-95132857D01*
X87654286Y-95918571D01*
X86368572Y-95847143D02*
X86511429Y-95918571D01*
X86797143Y-95918571D01*
X86940000Y-95847143D01*
X87011429Y-95704286D01*
X87011429Y-95132857D01*
X86940000Y-94990000D01*
X86797143Y-94918571D01*
X86511429Y-94918571D01*
X86368572Y-94990000D01*
X86297143Y-95132857D01*
X86297143Y-95275714D01*
X87011429Y-95418571D01*
X85440000Y-95918571D02*
X85582858Y-95847143D01*
X85654286Y-95704286D01*
X85654286Y-94418571D01*
X84654286Y-95918571D02*
X84797144Y-95847143D01*
X84868572Y-95775714D01*
X84940001Y-95632857D01*
X84940001Y-95204286D01*
X84868572Y-95061429D01*
X84797144Y-94990000D01*
X84654286Y-94918571D01*
X84440001Y-94918571D01*
X84297144Y-94990000D01*
X84225715Y-95061429D01*
X84154286Y-95204286D01*
X84154286Y-95632857D01*
X84225715Y-95775714D01*
X84297144Y-95847143D01*
X84440001Y-95918571D01*
X84654286Y-95918571D01*
X83511429Y-94918571D02*
X83511429Y-96418571D01*
X83511429Y-94990000D02*
X83368572Y-94918571D01*
X83082858Y-94918571D01*
X82940001Y-94990000D01*
X82868572Y-95061429D01*
X82797143Y-95204286D01*
X82797143Y-95632857D01*
X82868572Y-95775714D01*
X82940001Y-95847143D01*
X83082858Y-95918571D01*
X83368572Y-95918571D01*
X83511429Y-95847143D01*
X81582858Y-95847143D02*
X81725715Y-95918571D01*
X82011429Y-95918571D01*
X82154286Y-95847143D01*
X82225715Y-95704286D01*
X82225715Y-95132857D01*
X82154286Y-94990000D01*
X82011429Y-94918571D01*
X81725715Y-94918571D01*
X81582858Y-94990000D01*
X81511429Y-95132857D01*
X81511429Y-95275714D01*
X82225715Y-95418571D01*
X90582857Y-97682857D02*
X91082857Y-97682857D01*
X91082857Y-98468571D02*
X91082857Y-96968571D01*
X90368571Y-96968571D01*
X89582857Y-98468571D02*
X89725715Y-98397143D01*
X89797143Y-98325714D01*
X89868572Y-98182857D01*
X89868572Y-97754286D01*
X89797143Y-97611429D01*
X89725715Y-97540000D01*
X89582857Y-97468571D01*
X89368572Y-97468571D01*
X89225715Y-97540000D01*
X89154286Y-97611429D01*
X89082857Y-97754286D01*
X89082857Y-98182857D01*
X89154286Y-98325714D01*
X89225715Y-98397143D01*
X89368572Y-98468571D01*
X89582857Y-98468571D01*
X88511429Y-98040000D02*
X87797143Y-98040000D01*
X88654286Y-98468571D02*
X88154286Y-96968571D01*
X87654286Y-98468571D01*
X87154286Y-98468571D02*
X87154286Y-96968571D01*
X86654286Y-98040000D01*
X86154286Y-96968571D01*
X86154286Y-98468571D01*
X84297143Y-98468571D02*
X84297143Y-96968571D01*
X83440000Y-98468571D02*
X84082857Y-97611429D01*
X83440000Y-96968571D02*
X84297143Y-97825714D01*
X82225715Y-98397143D02*
X82368572Y-98468571D01*
X82654286Y-98468571D01*
X82797143Y-98397143D01*
X82868572Y-98254286D01*
X82868572Y-97682857D01*
X82797143Y-97540000D01*
X82654286Y-97468571D01*
X82368572Y-97468571D01*
X82225715Y-97540000D01*
X82154286Y-97682857D01*
X82154286Y-97825714D01*
X82868572Y-97968571D01*
X81511429Y-98468571D02*
X81511429Y-97468571D01*
X81511429Y-97754286D02*
X81440001Y-97611429D01*
X81368572Y-97540000D01*
X81225715Y-97468571D01*
X81082858Y-97468571D01*
X80582858Y-97468571D02*
X80582858Y-98468571D01*
X80582858Y-97611429D02*
X80511430Y-97540000D01*
X80368572Y-97468571D01*
X80154287Y-97468571D01*
X80011430Y-97540000D01*
X79940001Y-97682857D01*
X79940001Y-98468571D01*
X79011429Y-98468571D02*
X79154287Y-98397143D01*
X79225715Y-98325714D01*
X79297144Y-98182857D01*
X79297144Y-97754286D01*
X79225715Y-97611429D01*
X79154287Y-97540000D01*
X79011429Y-97468571D01*
X78797144Y-97468571D01*
X78654287Y-97540000D01*
X78582858Y-97611429D01*
X78511429Y-97754286D01*
X78511429Y-98182857D01*
X78582858Y-98325714D01*
X78654287Y-98397143D01*
X78797144Y-98468571D01*
X79011429Y-98468571D01*
X78011429Y-97468571D02*
X77725715Y-98468571D01*
X77440001Y-97754286D01*
X77154286Y-98468571D01*
X76868572Y-97468571D01*
X90797143Y-99518571D02*
X90511429Y-99518571D01*
X90368571Y-99590000D01*
X90225714Y-99732857D01*
X90154286Y-100018571D01*
X90154286Y-100518571D01*
X90225714Y-100804286D01*
X90368571Y-100947143D01*
X90511429Y-101018571D01*
X90797143Y-101018571D01*
X90940000Y-100947143D01*
X91082857Y-100804286D01*
X91154286Y-100518571D01*
X91154286Y-100018571D01*
X91082857Y-99732857D01*
X90940000Y-99590000D01*
X90797143Y-99518571D01*
X89582857Y-100947143D02*
X89368571Y-101018571D01*
X89011428Y-101018571D01*
X88868571Y-100947143D01*
X88797142Y-100875714D01*
X88725714Y-100732857D01*
X88725714Y-100590000D01*
X88797142Y-100447143D01*
X88868571Y-100375714D01*
X89011428Y-100304286D01*
X89297142Y-100232857D01*
X89440000Y-100161429D01*
X89511428Y-100090000D01*
X89582857Y-99947143D01*
X89582857Y-99804286D01*
X89511428Y-99661429D01*
X89440000Y-99590000D01*
X89297142Y-99518571D01*
X88940000Y-99518571D01*
X88725714Y-99590000D01*
X88082857Y-101018571D02*
X88082857Y-99518571D01*
X88082857Y-100232857D02*
X87225714Y-100232857D01*
X87225714Y-101018571D02*
X87225714Y-99518571D01*
M02*
