# Blender v2.69 (sub 0) OBJ File: ''
# www.blender.org
mtllib corner.mtl
o Cube_Cube.001
v 0.000000 0.429324 -1.000000
v 0.298273 0.000000 -1.000000
v 0.000000 0.000000 -1.000000
v 0.000000 0.988623 -1.000000
v 0.419448 0.982809 -1.000000
v 0.983937 0.416475 -1.000000
v 0.914102 0.000000 -1.000000
v 0.000000 0.992867 -1.000000
v 0.406050 0.988407 -1.000000
v 0.607082 0.879833 -1.000000
v 0.515433 0.936474 -1.000000
v 0.972264 0.000000 -1.000000
v 0.000000 1.000000 -1.000000
v 0.373677 1.000000 -1.000000
v 0.417033 0.992761 -0.991750
v 0.511625 0.938557 -1.000000
v 0.514825 0.939633 -0.997549
v 0.610179 0.880701 -0.997550
v 0.691454 0.814703 -1.000000
v 0.610647 0.877360 -1.000000
v 0.974372 -0.000000 -1.000000
v 0.000000 1.000000 -0.995158
v 0.401740 1.000000 -0.989995
v 0.594831 0.962477 -0.928910
v 0.701432 0.816993 -0.991753
v 0.784528 0.724635 -1.000000
v 0.702450 0.805227 -1.000000
v 0.998856 0.377536 -1.000000
v 0.983074 -0.000000 -1.000000
v 0.988917 0.404972 -1.000000
v 0.000000 1.000000 -0.991028
v 0.414939 1.000000 -0.984819
v 0.438148 1.000000 -0.974105
v 0.500360 1.000000 -0.943660
v 0.529796 1.000000 -0.927045
v 0.690383 0.899350 -0.926067
v 0.764727 0.745647 -1.000000
v 0.854533 0.640151 -1.000000
v 0.830475 0.671302 -1.000000
v 1.000000 0.405531 -0.988010
v 1.000000 0.375695 -0.999493
v 1.000000 0.374172 -1.000000
v 0.997039 0.000000 -1.000000
v -0.000000 1.000000 -0.985744
v 0.585677 1.000000 -0.892684
v 0.674893 0.980746 -0.851889
v 0.780629 0.831578 -0.917690
v 0.787163 0.749764 -0.980453
v 0.858697 0.675452 -0.974405
v 0.922001 0.538213 -1.000000
v 0.890469 0.589009 -1.000000
v 1.000000 0.501242 -0.944145
v 0.998058 0.504118 -0.944883
v 1.000000 0.000000 -0.977935
v 1.000000 0.000000 -0.984937
v 1.000000 0.000000 -1.000000
v 0.000000 1.000000 -0.894158
v 0.827360 1.000000 -0.677002
v 0.643740 1.000000 -0.851889
v 0.769520 0.913420 -0.846500
v 0.864248 0.760611 -0.904216
v 0.929542 0.593385 -0.962759
v 0.943544 0.499788 -1.000000
v 1.000000 0.504203 -0.942599
v 1.000000 0.000000 -0.944281
v 0.828488 1.000000 -0.675759
v -0.000000 1.000000 -0.893827
v 0.828582 1.000000 -0.675643
v 0.743632 1.000000 -0.767347
v 0.751529 1.000000 -0.759729
v 0.669939 1.000000 -0.831728
v 0.753351 0.993520 -0.767098
v 0.857665 0.841747 -0.836021
v 0.936688 0.683711 -0.893429
v 1.000000 0.523743 -0.930863
v 1.000000 0.000000 -0.917637
v 0.000000 1.000000 0.000000
v 0.828582 1.000000 0.000000
v 0.917844 0.925163 -0.666854
v 0.845897 0.922185 -0.759665
v 0.938183 0.767349 -0.821004
v 1.000000 0.598534 -0.885241
v 1.000000 0.607995 -0.878766
v 1.000000 0.000000 -0.158985
v 1.000000 0.000000 -0.895920
v 0.866291 1.000000 0.000000
v 0.898620 1.000000 -0.579245
v 0.930900 0.846973 -0.747744
v 1.000000 0.699401 -0.807742
v 1.000000 0.687356 -0.817925
v 1.000000 0.836318 -0.664978
v 1.000000 0.706069 0.000000
v 1.000000 0.000000 0.000000
v 0.899075 1.000000 0.000000
v 0.899528 1.000000 -0.577672
v 0.898700 1.000000 -0.579120
v 0.983881 0.922184 -0.569749
v 0.998809 0.846973 -0.654276
v 1.000000 0.769389 -0.741537
v 1.000000 0.841645 0.000000
v 0.899528 1.000000 0.000000
v 0.962352 0.993518 -0.479436
v 1.000000 0.777165 -0.733492
v 1.000000 0.846871 -0.652394
v 1.000000 0.846871 0.000000
v 1.000000 0.845654 -0.654016
v 0.932639 1.000000 0.000000
v 0.959585 1.000000 -0.470113
v 0.954779 1.000000 -0.479980
v 1.000000 0.956063 -0.475154
v 1.000000 0.919789 -0.542565
v 1.000000 0.905181 -0.567128
v 1.000000 0.984990 -0.412135
v 1.000000 0.931517 0.000000
v 0.959585 1.000000 0.000000
v 1.000000 0.991852 0.000000
v 0.998041 1.000000 0.000000
v 0.998041 1.000000 -0.380136
v 1.000000 0.998179 -0.379992
v 1.000000 0.999096 0.000000
v 1.000000 1.000000 0.000000
v 1.000000 1.000000 -0.374628
v 0.000000 0.000000 0.000000
vn 0.000000 0.000000 -1.000000
vn -0.000004 0.000000 -1.000000
vn 1.000000 0.000000 0.000000
vn 0.000000 1.000000 0.000000
vn 0.673530 0.507949 -0.536977
vn 0.673611 0.449668 -0.586555
vn 0.657869 0.486256 -0.575121
vn 0.624608 0.504801 -0.595853
vn 0.714929 0.323739 -0.619734
vn 0.702150 0.366596 -0.610404
vn 0.669452 0.386838 -0.634184
vn 0.654906 0.426860 -0.623610
vn 0.621769 0.445327 -0.644272
vn 0.605964 0.482056 -0.632795
vn 0.573032 0.498674 -0.650352
vn 0.704072 0.255085 -0.662733
vn 0.693432 0.300194 -0.655008
vn 0.693436 0.300190 -0.655006
vn 0.660804 0.320377 -0.678746
vn 0.647979 0.363294 -0.669433
vn 0.614933 0.381719 -0.690034
vn 0.600342 0.421838 -0.679443
vn 0.567590 0.438361 -0.696908
vn 0.551697 0.475291 -0.685368
vn 0.519842 0.489888 -0.699838
vn 0.680276 0.231251 -0.695519
vn 0.297786 0.703717 -0.645063
vn 0.258538 0.706011 -0.659322
vn 0.244949 0.684046 -0.687082
vn 0.670627 0.702397 -0.238532
vn 0.664049 0.691728 -0.283815
vn 0.664045 0.691736 -0.283805
vn 0.631381 0.711887 -0.307530
vn 0.623008 0.698361 -0.352354
vn 0.527625 0.698356 -0.483643
vn 0.487583 0.711894 -0.505440
vn 0.475117 0.691727 -0.543855
vn 0.434098 0.702389 -0.564101
vn 0.420931 0.681093 -0.599107
vn 0.379722 0.688818 -0.617529
vn 0.366225 0.666986 -0.648852
vn 0.325572 0.671892 -0.665255
vn 0.312084 0.650073 -0.692827
vn 0.272595 0.652381 -0.707171
vn 0.689371 0.658359 -0.302209
vn 0.681011 0.644842 -0.346992
vn 0.648311 0.665023 -0.370726
vn 0.638316 0.648848 -0.414185
vn 0.602556 0.667288 -0.437782
vn 0.591162 0.648849 -0.479085
vn 0.552919 0.665024 -0.502020
vn 0.540450 0.644841 -0.540458
vn 0.500441 0.658363 -0.562243
vn 0.487267 0.637043 -0.597283
vn 0.446273 0.647690 -0.617526
vn 0.432778 0.625854 -0.648853
vn 0.391567 0.633579 -0.667273
vn 0.378112 0.611821 -0.694771
vn 0.337359 0.616727 -0.711222
vn 0.703466 0.610859 -0.363300
vn 0.693461 0.594749 -0.406675
vn 0.660729 0.614927 -0.430468
vn 0.649335 0.596485 -0.471773
vn 0.613575 0.614925 -0.495371
vn 0.601086 0.594711 -0.533868
vn 0.562896 0.610864 -0.556771
vn 0.549689 0.589484 -0.591904
vn 0.509772 0.602973 -0.613642
vn 0.496238 0.581068 -0.645064
vn 0.455345 0.591686 -0.665259
vn 0.441874 0.569893 -0.692798
vn 0.400722 0.577572 -0.711218
vn 0.713008 0.560884 -0.420748
vn 0.701564 0.542501 -0.462062
vn 0.668744 0.562767 -0.485876
vn 0.656242 0.542526 -0.524416
vn 0.620519 0.560949 -0.547990
vn 0.607265 0.539488 -0.583251
vn 0.569196 0.555589 -0.606083
vn 0.555589 0.533559 -0.637680
vn 0.515847 0.546988 -0.659322
vn 0.502279 0.525016 -0.687076
vn 0.461577 0.535576 -0.707181
vn -1.000000 0.000000 -0.000000
vn 0.000000 0.000000 1.000000
vn 0.000000 -1.000000 0.000000
vn 0.000003 0.000000 -1.000000
vn 0.657874 0.486250 -0.575120
vn 0.669456 0.386837 -0.634181
vn 0.654908 0.426850 -0.623614
vn 0.704120 0.255047 -0.662696
vn 0.693464 0.300154 -0.654993
vn 0.647982 0.363295 -0.669430
vn 0.600344 0.421838 -0.679441
vn 0.551701 0.475291 -0.685364
vn 0.244954 0.684053 -0.687073
vn 0.664049 0.691722 -0.283832
vn 0.475125 0.691732 -0.543841
vn 0.420930 0.681091 -0.599111
vn 0.366223 0.666989 -0.648851
vn 0.325570 0.671889 -0.665259
vn 0.312078 0.650078 -0.692825
vn 0.681013 0.644841 -0.346989
vn 0.648312 0.665045 -0.370684
vn 0.638225 0.648956 -0.414156
vn 0.591105 0.648680 -0.479384
vn 0.552944 0.664998 -0.502028
vn 0.378130 0.611808 -0.694773
vn 0.693484 0.594709 -0.406695
vn 0.441859 0.569860 -0.692835
vn 0.668743 0.562770 -0.485873
vn 0.656247 0.542519 -0.524417
vn 0.502280 0.525020 -0.687072
usemtl None
s off
f 1//1 2//1 3//1
f 1//1 4//1 6//1
f 2//1 1//1 7//1
f 7//1 6//1 12//1
f 5//2 11//2 6//2
f 19//1 6//1 20//1
f 5//1 16//1 11//1
f 19//1 27//1 6//1
f 26//1 39//1 6//1
f 38//1 51//1 6//1
f 6//1 30//1 21//1
f 28//1 29//1 21//1
f 27//1 37//1 26//1
f 50//1 63//1 6//1
f 12//1 6//1 21//1
f 9//1 5//1 8//1
f 29//1 28//1 42//1
f 14//1 9//1 13//1
f 43//1 42//1 56//1
f 84//3 91//3 93//3
f 84//3 75//3 91//3
f 92//3 91//3 100//3
f 85//3 52//3 84//3
f 91//3 106//3 100//3
f 104//3 105//3 100//3
f 65//3 52//3 76//3
f 114//3 113//3 116//3
f 52//3 64//3 75//3
f 90//3 99//3 75//3
f 76//3 52//3 85//3
f 104//3 111//3 105//3
f 113//3 114//3 105//3
f 75//3 82//3 90//3
f 99//3 103//3 91//3
f 40//3 52//3 54//3
f 104//3 112//3 111//3
f 111//3 110//3 113//3
f 90//3 89//3 99//3
f 42//3 41//3 54//3
f 54//3 55//3 42//3
f 116//3 113//3 120//3
f 120//3 119//3 121//3
f 56//3 42//3 55//3
f 95//4 87//4 94//4
f 68//4 67//4 78//4
f 87//4 68//4 86//4
f 101//4 95//4 94//4
f 57//4 35//4 33//4
f 57//4 58//4 35//4
f 95//4 96//4 87//4
f 67//4 68//4 57//4
f 66//4 58//4 57//4
f 44//4 33//4 31//4
f 58//4 70//4 35//4
f 115//4 108//4 107//4
f 108//4 109//4 101//4
f 101//4 107//4 108//4
f 69//4 71//4 35//4
f 35//4 34//4 33//4
f 59//4 45//4 35//4
f 31//4 32//4 22//4
f 118//4 108//4 117//4
f 122//4 118//4 121//4
f 22//4 23//4 13//4
f 89//5 81//5 99//5
f 83//6 74//6 90//6
f 74//7 81//7 89//7
f 74//8 61//8 81//8
f 52//9 53//9 64//9
f 64//10 53//10 75//10
f 75//11 53//11 62//11
f 82//12 62//12 83//12
f 62//13 49//13 74//13
f 74//14 49//14 61//14
f 49//15 48//15 61//15
f 28//16 30//16 40//16
f 6//17 53//17 40//17
f 40//18 30//18 6//18
f 63//19 53//19 6//19
f 62//20 53//20 63//20
f 51//21 62//21 50//21
f 49//22 62//22 38//22
f 39//23 49//23 38//23
f 48//24 49//24 26//24
f 37//25 48//25 26//25
f 28//26 41//26 42//26
f 33//27 15//27 32//27
f 32//28 15//28 23//28
f 9//29 14//29 15//29
f 119//30 118//30 122//30
f 113//31 108//31 119//31
f 113//32 102//32 108//32
f 108//33 102//33 109//33
f 109//34 102//34 95//34
f 58//35 72//35 70//35
f 70//36 72//36 69//36
f 72//37 46//37 69//37
f 71//38 46//38 59//38
f 46//39 24//39 45//39
f 45//40 24//40 35//40
f 24//41 17//41 34//41
f 17//42 15//42 33//42
f 5//43 15//43 16//43
f 9//44 15//44 5//44
f 110//45 102//45 113//45
f 97//46 102//46 111//46
f 95//47 102//47 97//47
f 96//48 97//48 79//48
f 87//49 79//49 68//49
f 79//50 80//50 66//50
f 80//51 72//51 58//51
f 80//52 60//52 72//52
f 72//53 60//53 46//53
f 60//54 36//54 46//54
f 46//55 36//55 24//55
f 36//56 18//56 24//56
f 24//57 18//57 17//57
f 11//58 17//58 10//58
f 16//59 17//59 11//59
f 112//60 97//60 111//60
f 98//61 97//61 104//61
f 97//62 98//62 79//62
f 98//63 88//63 79//63
f 79//64 88//64 80//64
f 88//65 73//65 80//65
f 80//66 73//66 60//66
f 73//67 47//67 60//67
f 60//68 47//68 36//68
f 47//69 25//69 36//69
f 36//70 25//70 18//70
f 18//71 25//71 20//71
f 10//72 18//72 20//72
f 106//73 98//73 104//73
f 91//74 98//74 106//74
f 88//75 98//75 91//75
f 81//76 88//76 103//76
f 88//77 81//77 73//77
f 81//78 61//78 73//78
f 73//79 61//79 47//79
f 61//80 48//80 47//80
f 47//81 48//81 25//81
f 25//82 48//82 27//82
f 19//83 25//83 27//83
f 44//84 31//84 4//84
f 31//84 22//84 4//84
f 4//84 1//84 57//84
f 22//84 13//84 8//84
f 67//84 1//84 123//84
f 123//84 77//84 67//84
f 114//85 101//85 94//85
f 114//85 115//85 107//85
f 86//85 100//85 105//85
f 116//85 117//85 115//85
f 120//85 121//85 117//85
f 86//85 78//85 92//85
f 77//85 123//85 78//85
f 123//85 93//85 92//85
f 7//86 12//86 65//86
f 21//86 54//86 65//86
f 29//86 55//86 21//86
f 85//86 84//86 7//86
f 43//86 56//86 55//86
f 84//86 93//86 2//86
f 93//86 123//86 3//86
f 4//1 5//1 6//1
f 1//1 6//1 7//1
f 11//87 10//87 6//87
f 6//1 10//1 20//1
f 27//1 26//1 6//1
f 39//1 38//1 6//1
f 51//1 50//1 6//1
f 30//1 28//1 21//1
f 5//1 4//1 8//1
f 43//1 29//1 42//1
f 9//1 8//1 13//1
f 91//3 92//3 93//3
f 52//3 75//3 84//3
f 106//3 104//3 100//3
f 99//3 91//3 75//3
f 111//3 113//3 105//3
f 82//3 83//3 90//3
f 52//3 65//3 54//3
f 41//3 40//3 54//3
f 113//3 119//3 120//3
f 119//3 122//3 121//3
f 87//4 86//4 94//4
f 67//4 77//4 78//4
f 68//4 78//4 86//4
f 44//4 57//4 33//4
f 68//4 66//4 57//4
f 33//4 32//4 31//4
f 70//4 69//4 35//4
f 109//4 95//4 101//4
f 71//4 59//4 35//4
f 32//4 23//4 22//4
f 108//4 115//4 117//4
f 118//4 117//4 121//4
f 23//4 14//4 13//4
f 90//88 74//88 89//88
f 82//89 75//89 62//89
f 62//90 74//90 83//90
f 41//91 28//91 40//91
f 53//92 52//92 40//92
f 50//93 62//93 63//93
f 62//94 51//94 38//94
f 49//95 39//95 26//95
f 14//96 23//96 15//96
f 108//97 118//97 119//97
f 46//98 71//98 69//98
f 59//99 46//99 45//99
f 35//100 24//100 34//100
f 34//101 17//101 33//101
f 15//102 17//102 16//102
f 102//103 110//103 111//103
f 96//104 95//104 97//104
f 87//105 96//105 79//105
f 68//106 79//106 66//106
f 66//107 80//107 58//107
f 17//108 18//108 10//108
f 97//109 112//109 104//109
f 25//110 19//110 20//110
f 103//111 88//111 91//111
f 99//112 81//112 103//112
f 48//113 37//113 27//113
f 57//84 44//84 4//84
f 22//84 8//84 4//84
f 1//84 67//84 57//84
f 1//84 3//84 123//84
f 86//85 114//85 94//85
f 101//85 114//85 107//85
f 114//85 86//85 105//85
f 114//85 116//85 115//85
f 116//85 120//85 117//85
f 100//85 86//85 92//85
f 123//85 92//85 78//85
f 76//86 7//86 65//86
f 12//86 21//86 65//86
f 55//86 54//86 21//86
f 76//86 85//86 7//86
f 29//86 43//86 55//86
f 7//86 84//86 2//86
f 2//86 93//86 3//86
